<?xml version="1.0" encoding="UTF-8"?>
<svg xmlns="http://www.w3.org/2000/svg" width="733" height="113">
   <defs>
      <style type="text/css">
    @namespace "http://www.w3.org/2000/svg";
    .line                 {fill: none; stroke: #332900; stroke-width: 1;}
    .bold-line            {stroke: #141000; shape-rendering: crispEdges; stroke-width: 2;}
    .thin-line            {stroke: #1F1800; shape-rendering: crispEdges}
    .filled               {fill: #332900; stroke: none;}
    text.terminal         {font-family: Verdana, Sans-serif;
                            font-size: 12px;
                            fill: #141000;
                            font-weight: bold;
                          }
    text.nonterminal      {font-family: Verdana, Sans-serif;
                            font-size: 12px;
                            fill: #1A1400;
                            font-weight: normal;
                          }
    text.regexp           {font-family: Verdana, Sans-serif;
                            font-size: 12px;
                            fill: #1F1800;
                            font-weight: normal;
                          }
    rect, circle, polygon {fill: #332900; stroke: #332900;}
    rect.terminal         {fill: #FFDB4D; stroke: #332900; stroke-width: 1;}
    rect.nonterminal      {fill: #FFEC9E; stroke: #332900; stroke-width: 1;}
    rect.text             {fill: none; stroke: none;}
    polygon.regexp        {fill: #FFF4C7; stroke: #332900; stroke-width: 1;}
  </style>
   </defs>
   <polygon points="9 17 1 13 1 21"/>
   <polygon points="17 17 9 13 9 21"/>
   <a xmlns:xlink="http://www.w3.org/1999/xlink"
      xlink:href="#authentication_plugin"
      xlink:title="authentication_plugin">
      <rect x="31" y="3" width="158" height="32"/>
      <rect x="29" y="1" width="158" height="32" class="nonterminal"/>
      <text class="nonterminal" x="39" y="21">authentication_plugin</text>
   </a>
   <rect x="249" y="35" width="64" height="32" rx="10"/>
   <rect x="247"
         y="33"
         width="64"
         height="32"
         class="terminal"
         rx="10"/>
   <text class="terminal" x="257" y="53">USING</text>
   <rect x="249" y="79" width="38" height="32" rx="10"/>
   <rect x="247"
         y="77"
         width="38"
         height="32"
         class="terminal"
         rx="10"/>
   <text class="terminal" x="257" y="97">AS</text>
   <a xmlns:xlink="http://www.w3.org/1999/xlink"
      xlink:href="#authentication_string"
      xlink:title="authentication_string">
      <rect x="373" y="35" width="156" height="32"/>
      <rect x="371" y="33" width="156" height="32" class="nonterminal"/>
      <text class="nonterminal" x="381" y="53">authentication_string</text>
   </a>
   <rect x="373" y="79" width="100" height="32" rx="10"/>
   <rect x="371"
         y="77"
         width="100"
         height="32"
         class="terminal"
         rx="10"/>
   <text class="terminal" x="381" y="97">PASSWORD</text>
   <rect x="493" y="79" width="26" height="32" rx="10"/>
   <rect x="491"
         y="77"
         width="26"
         height="32"
         class="terminal"
         rx="10"/>
   <text class="terminal" x="501" y="97">(</text>
   <a xmlns:xlink="http://www.w3.org/1999/xlink"
      xlink:href="#password"
      xlink:title="password">
      <rect x="539" y="79" width="80" height="32"/>
      <rect x="537" y="77" width="80" height="32" class="nonterminal"/>
      <text class="nonterminal" x="547" y="97">password</text>
   </a>
   <rect x="639" y="79" width="26" height="32" rx="10"/>
   <rect x="637"
         y="77"
         width="26"
         height="32"
         class="terminal"
         rx="10"/>
   <text class="terminal" x="647" y="97">)</text>
   <path class="line"
         d="m17 17 h2 m0 0 h10 m158 0 h10 m20 0 h10 m0 0 h466 m-496 0 h20 m476 0 h20 m-516 0 q10 0 10 10 m496 0 q0 -10 10 -10 m-506 10 v12 m496 0 v-12 m-496 12 q0 10 10 10 m476 0 q10 0 10 -10 m-466 10 h10 m64 0 h10 m-104 0 h20 m84 0 h20 m-124 0 q10 0 10 10 m104 0 q0 -10 10 -10 m-114 10 v24 m104 0 v-24 m-104 24 q0 10 10 10 m84 0 q10 0 10 -10 m-94 10 h10 m38 0 h10 m0 0 h26 m40 -44 h10 m156 0 h10 m0 0 h136 m-332 0 h20 m312 0 h20 m-352 0 q10 0 10 10 m332 0 q0 -10 10 -10 m-342 10 v24 m332 0 v-24 m-332 24 q0 10 10 10 m312 0 q10 0 10 -10 m-322 10 h10 m100 0 h10 m0 0 h10 m26 0 h10 m0 0 h10 m80 0 h10 m0 0 h10 m26 0 h10 m43 -76 h-3"/>
   <polygon points="723 17 731 13 731 21"/>
   <polygon points="723 17 715 13 715 21"/>
</svg>
