<?xml version="1.0" encoding="UTF-8"?>
<svg xmlns="http://www.w3.org/2000/svg" width="895" height="321">
   <defs>
      <style type="text/css">
    @namespace "http://www.w3.org/2000/svg";
    .line                 {fill: none; stroke: #332900; stroke-width: 1;}
    .bold-line            {stroke: #141000; shape-rendering: crispEdges; stroke-width: 2;}
    .thin-line            {stroke: #1F1800; shape-rendering: crispEdges}
    .filled               {fill: #332900; stroke: none;}
    text.terminal         {font-family: Verdana, Sans-serif;
                            font-size: 12px;
                            fill: #141000;
                            font-weight: bold;
                          }
    text.nonterminal      {font-family: Verdana, Sans-serif;
                            font-size: 12px;
                            fill: #1A1400;
                            font-weight: normal;
                          }
    text.regexp           {font-family: Verdana, Sans-serif;
                            font-size: 12px;
                            fill: #1F1800;
                            font-weight: normal;
                          }
    rect, circle, polygon {fill: #332900; stroke: #332900;}
    rect.terminal         {fill: #FFDB4D; stroke: #332900; stroke-width: 1;}
    rect.nonterminal      {fill: #FFEC9E; stroke: #332900; stroke-width: 1;}
    rect.text             {fill: none; stroke: none;}
    polygon.regexp        {fill: #FFF4C7; stroke: #332900; stroke-width: 1;}
  </style>
   </defs>
   <polygon points="9 61 1 57 1 65"/>
   <polygon points="17 61 9 57 9 65"/>
   <rect x="31" y="47" width="62" height="32" rx="10"/>
   <rect x="29"
         y="45"
         width="62"
         height="32"
         class="terminal"
         rx="10"/>
   <text class="terminal" x="39" y="65">ALTER</text>
   <rect x="113" y="47" width="56" height="32" rx="10"/>
   <rect x="111"
         y="45"
         width="56"
         height="32"
         class="terminal"
         rx="10"/>
   <text class="terminal" x="121" y="65">USER</text>
   <rect x="209" y="79" width="34" height="32" rx="10"/>
   <rect x="207"
         y="77"
         width="34"
         height="32"
         class="terminal"
         rx="10"/>
   <text class="terminal" x="217" y="97">IF</text>
   <rect x="263" y="79" width="70" height="32" rx="10"/>
   <rect x="261"
         y="77"
         width="70"
         height="32"
         class="terminal"
         rx="10"/>
   <text class="terminal" x="271" y="97">EXISTS</text>
   <a xmlns:xlink="http://www.w3.org/1999/xlink"
      xlink:href="#user_specification"
      xlink:title="user_specification">
      <rect x="393" y="47" width="134" height="32"/>
      <rect x="391" y="45" width="134" height="32" class="nonterminal"/>
      <text class="nonterminal" x="401" y="65">user_specification</text>
   </a>
   <rect x="393" y="3" width="24" height="32" rx="10"/>
   <rect x="391"
         y="1"
         width="24"
         height="32"
         class="terminal"
         rx="10"/>
   <text class="terminal" x="401" y="21">,</text>
   <rect x="587" y="47" width="82" height="32" rx="10"/>
   <rect x="585"
         y="45"
         width="82"
         height="32"
         class="terminal"
         rx="10"/>
   <text class="terminal" x="595" y="65">REQUIRE</text>
   <rect x="709" y="47" width="58" height="32" rx="10"/>
   <rect x="707"
         y="45"
         width="58"
         height="32"
         class="terminal"
         rx="10"/>
   <text class="terminal" x="717" y="65">NONE</text>
   <a xmlns:xlink="http://www.w3.org/1999/xlink"
      xlink:href="#tls_option"
      xlink:title="tls_option">
      <rect x="729" y="157" width="84" height="32"/>
      <rect x="727" y="155" width="84" height="32" class="nonterminal"/>
      <text class="nonterminal" x="737" y="175">tls_option</text>
   </a>
   <rect x="729" y="91" width="48" height="32" rx="10"/>
   <rect x="727"
         y="89"
         width="48"
         height="32"
         class="terminal"
         rx="10"/>
   <text class="terminal" x="737" y="109">AND</text>
   <rect x="265" y="255" width="58" height="32" rx="10"/>
   <rect x="263"
         y="253"
         width="58"
         height="32"
         class="terminal"
         rx="10"/>
   <text class="terminal" x="273" y="273">WITH</text>
   <a xmlns:xlink="http://www.w3.org/1999/xlink"
      xlink:href="#resource_option"
      xlink:title="resource_option">
      <rect x="363" y="255" width="124" height="32"/>
      <rect x="361" y="253" width="124" height="32" class="nonterminal"/>
      <text class="nonterminal" x="371" y="273">resource_option</text>
   </a>
   <a xmlns:xlink="http://www.w3.org/1999/xlink"
      xlink:href="#lock_option"
      xlink:title="lock_option">
      <rect x="567" y="287" width="92" height="32"/>
      <rect x="565" y="285" width="92" height="32" class="nonterminal"/>
      <text class="nonterminal" x="575" y="305">lock_option</text>
   </a>
   <a xmlns:xlink="http://www.w3.org/1999/xlink"
      xlink:href="#password_option"
      xlink:title="password_option">
      <rect x="719" y="287" width="128" height="32"/>
      <rect x="717" y="285" width="128" height="32" class="nonterminal"/>
      <text class="nonterminal" x="727" y="305">password_option</text>
   </a>
   <path class="line"
         d="m17 61 h2 m0 0 h10 m62 0 h10 m0 0 h10 m56 0 h10 m20 0 h10 m0 0 h134 m-164 0 h20 m144 0 h20 m-184 0 q10 0 10 10 m164 0 q0 -10 10 -10 m-174 10 v12 m164 0 v-12 m-164 12 q0 10 10 10 m144 0 q10 0 10 -10 m-154 10 h10 m34 0 h10 m0 0 h10 m70 0 h10 m40 -32 h10 m134 0 h10 m-174 0 l20 0 m-1 0 q-9 0 -9 -10 l0 -24 q0 -10 10 -10 m154 44 l20 0 m-20 0 q10 0 10 -10 l0 -24 q0 -10 -10 -10 m-154 0 h10 m24 0 h10 m0 0 h110 m40 44 h10 m82 0 h10 m20 0 h10 m58 0 h10 m0 0 h66 m-164 0 h20 m144 0 h20 m-184 0 q10 0 10 10 m164 0 q0 -10 10 -10 m-174 10 v90 m164 0 v-90 m-164 90 q0 10 10 10 m144 0 q10 0 10 -10 m-134 10 h10 m84 0 h10 m-124 0 l20 0 m-1 0 q-9 0 -9 -10 l0 -12 q0 -10 10 -10 m104 32 l20 0 m-20 0 q10 0 10 -10 l0 -12 q0 -10 -10 -10 m-104 0 h10 m0 0 h94 m-114 10 l0 -34 q0 -10 10 -10 m114 44 l0 -34 q0 -10 -10 -10 m-104 0 h10 m48 0 h10 m0 0 h36 m-266 -44 h20 m286 0 h20 m-326 0 q10 0 10 10 m306 0 q0 -10 10 -10 m-316 10 v124 m306 0 v-124 m-306 124 q0 10 10 10 m286 0 q10 0 10 -10 m-296 10 h10 m0 0 h276 m22 -144 l2 0 m2 0 l2 0 m2 0 l2 0 m-672 208 l2 0 m2 0 l2 0 m2 0 l2 0 m22 0 h10 m58 0 h10 m20 0 h10 m124 0 h10 m-164 0 l20 0 m-1 0 q-9 0 -9 -10 l0 -12 q0 -10 10 -10 m144 32 l20 0 m-20 0 q10 0 10 -10 l0 -12 q0 -10 -10 -10 m-144 0 h10 m0 0 h134 m-262 32 h20 m262 0 h20 m-302 0 q10 0 10 10 m282 0 q0 -10 10 -10 m-292 10 v14 m282 0 v-14 m-282 14 q0 10 10 10 m262 0 q10 0 10 -10 m-272 10 h10 m0 0 h252 m40 -34 h10 m0 0 h102 m-132 0 h20 m112 0 h20 m-152 0 q10 0 10 10 m132 0 q0 -10 10 -10 m-142 10 v12 m132 0 v-12 m-132 12 q0 10 10 10 m112 0 q10 0 10 -10 m-122 10 h10 m92 0 h10 m40 -32 h10 m0 0 h138 m-168 0 h20 m148 0 h20 m-188 0 q10 0 10 10 m168 0 q0 -10 10 -10 m-178 10 v12 m168 0 v-12 m-168 12 q0 10 10 10 m148 0 q10 0 10 -10 m-158 10 h10 m128 0 h10 m23 -32 h-3"/>
   <polygon points="885 269 893 265 893 273"/>
   <polygon points="885 269 877 265 877 273"/>
</svg>
