<?xml version="1.0" encoding="UTF-8"?>
<svg xmlns="http://www.w3.org/2000/svg" width="459" height="213">
   <defs>
      <style type="text/css">
    @namespace "http://www.w3.org/2000/svg";
    .line                 {fill: none; stroke: #332900; stroke-width: 1;}
    .bold-line            {stroke: #141000; shape-rendering: crispEdges; stroke-width: 2;}
    .thin-line            {stroke: #1F1800; shape-rendering: crispEdges}
    .filled               {fill: #332900; stroke: none;}
    text.terminal         {font-family: Verdana, Sans-serif;
                            font-size: 12px;
                            fill: #141000;
                            font-weight: bold;
                          }
    text.nonterminal      {font-family: Verdana, Sans-serif;
                            font-size: 12px;
                            fill: #1A1400;
                            font-weight: normal;
                          }
    text.regexp           {font-family: Verdana, Sans-serif;
                            font-size: 12px;
                            fill: #1F1800;
                            font-weight: normal;
                          }
    rect, circle, polygon {fill: #332900; stroke: #332900;}
    rect.terminal         {fill: #FFDB4D; stroke: #332900; stroke-width: 1;}
    rect.nonterminal      {fill: #FFEC9E; stroke: #332900; stroke-width: 1;}
    rect.text             {fill: none; stroke: none;}
    polygon.regexp        {fill: #FFF4C7; stroke: #332900; stroke-width: 1;}
  </style>
   </defs>
   <polygon points="9 17 1 13 1 21"/>
   <polygon points="17 17 9 13 9 21"/>
   <rect x="71" y="3" width="206" height="32" rx="10"/>
   <rect x="69"
         y="1"
         width="206"
         height="32"
         class="terminal"
         rx="10"/>
   <text class="terminal" x="79" y="21">MAX_QUERIES_PER_HOUR</text>
   <rect x="71" y="47" width="206" height="32" rx="10"/>
   <rect x="69"
         y="45"
         width="206"
         height="32"
         class="terminal"
         rx="10"/>
   <text class="terminal" x="79" y="65">MAX_UPDATES_PER_HOUR</text>
   <rect x="71" y="91" width="246" height="32" rx="10"/>
   <rect x="69"
         y="89"
         width="246"
         height="32"
         class="terminal"
         rx="10"/>
   <text class="terminal" x="79" y="109">MAX_CONNECTIONS_PER_HOUR</text>
   <rect x="71" y="135" width="206" height="32" rx="10"/>
   <rect x="69"
         y="133"
         width="206"
         height="32"
         class="terminal"
         rx="10"/>
   <text class="terminal" x="79" y="153">MAX_USER_CONNECTIONS</text>
   <a xmlns:xlink="http://www.w3.org/1999/xlink"
      xlink:href="#count"
      xlink:title="count">
      <rect x="357" y="3" width="54" height="32"/>
      <rect x="355" y="1" width="54" height="32" class="nonterminal"/>
      <text class="nonterminal" x="365" y="21">count</text>
   </a>
   <rect x="51" y="179" width="182" height="32" rx="10"/>
   <rect x="49"
         y="177"
         width="182"
         height="32"
         class="terminal"
         rx="10"/>
   <text class="terminal" x="59" y="197">MAX_STATEMENT_TIME</text>
   <a xmlns:xlink="http://www.w3.org/1999/xlink"
      xlink:href="#time"
      xlink:title="time">
      <rect x="253" y="179" width="48" height="32"/>
      <rect x="251" y="177" width="48" height="32" class="nonterminal"/>
      <text class="nonterminal" x="261" y="197">time</text>
   </a>
   <path class="line"
         d="m17 17 h2 m40 0 h10 m206 0 h10 m0 0 h40 m-286 0 h20 m266 0 h20 m-306 0 q10 0 10 10 m286 0 q0 -10 10 -10 m-296 10 v24 m286 0 v-24 m-286 24 q0 10 10 10 m266 0 q10 0 10 -10 m-276 10 h10 m206 0 h10 m0 0 h40 m-276 -10 v20 m286 0 v-20 m-286 20 v24 m286 0 v-24 m-286 24 q0 10 10 10 m266 0 q10 0 10 -10 m-276 10 h10 m246 0 h10 m-276 -10 v20 m286 0 v-20 m-286 20 v24 m286 0 v-24 m-286 24 q0 10 10 10 m266 0 q10 0 10 -10 m-276 10 h10 m206 0 h10 m0 0 h40 m20 -132 h10 m54 0 h10 m-400 0 h20 m380 0 h20 m-420 0 q10 0 10 10 m400 0 q0 -10 10 -10 m-410 10 v156 m400 0 v-156 m-400 156 q0 10 10 10 m380 0 q10 0 10 -10 m-390 10 h10 m182 0 h10 m0 0 h10 m48 0 h10 m0 0 h110 m23 -176 h-3"/>
   <polygon points="449 17 457 13 457 21"/>
   <polygon points="449 17 441 13 441 21"/>
</svg>
