<?xml version="1.0" encoding="UTF-8"?>
<svg xmlns="http://www.w3.org/2000/svg" width="513" height="157">
   <defs>
      <style type="text/css">
    @namespace "http://www.w3.org/2000/svg";
    .line                 {fill: none; stroke: #332900; stroke-width: 1;}
    .bold-line            {stroke: #141000; shape-rendering: crispEdges; stroke-width: 2;}
    .thin-line            {stroke: #1F1800; shape-rendering: crispEdges}
    .filled               {fill: #332900; stroke: none;}
    text.terminal         {font-family: Verdana, Sans-serif;
                            font-size: 12px;
                            fill: #141000;
                            font-weight: bold;
                          }
    text.nonterminal      {font-family: Verdana, Sans-serif;
                            font-size: 12px;
                            fill: #1A1400;
                            font-weight: normal;
                          }
    text.regexp           {font-family: Verdana, Sans-serif;
                            font-size: 12px;
                            fill: #1F1800;
                            font-weight: normal;
                          }
    rect, circle, polygon {fill: #332900; stroke: #332900;}
    rect.terminal         {fill: #FFDB4D; stroke: #332900; stroke-width: 1;}
    rect.nonterminal      {fill: #FFEC9E; stroke: #332900; stroke-width: 1;}
    rect.text             {fill: none; stroke: none;}
    polygon.regexp        {fill: #FFF4C7; stroke: #332900; stroke-width: 1;}
  </style>
   </defs>
   <polygon points="9 17 1 13 1 21"/>
   <polygon points="17 17 9 13 9 21"/>
   <rect x="31" y="3" width="100" height="32" rx="10"/>
   <rect x="29"
         y="1"
         width="100"
         height="32"
         class="terminal"
         rx="10"/>
   <text class="terminal" x="39" y="21">PASSWORD</text>
   <rect x="151" y="3" width="70" height="32" rx="10"/>
   <rect x="149"
         y="1"
         width="70"
         height="32"
         class="terminal"
         rx="10"/>
   <text class="terminal" x="159" y="21">EXPIRE</text>
   <rect x="261" y="35" width="80" height="32" rx="10"/>
   <rect x="259"
         y="33"
         width="80"
         height="32"
         class="terminal"
         rx="10"/>
   <text class="terminal" x="269" y="53">DEFAULT</text>
   <rect x="261" y="79" width="64" height="32" rx="10"/>
   <rect x="259"
         y="77"
         width="64"
         height="32"
         class="terminal"
         rx="10"/>
   <text class="terminal" x="269" y="97">NEVER</text>
   <rect x="261" y="123" width="88" height="32" rx="10"/>
   <rect x="259"
         y="121"
         width="88"
         height="32"
         class="terminal"
         rx="10"/>
   <text class="terminal" x="269" y="141">INTERVAL</text>
   <a xmlns:xlink="http://www.w3.org/1999/xlink"
      xlink:href="#N"
      xlink:title="N">
      <rect x="369" y="123" width="28" height="32"/>
      <rect x="367" y="121" width="28" height="32" class="nonterminal"/>
      <text class="nonterminal" x="377" y="141">N</text>
   </a>
   <rect x="417" y="123" width="48" height="32" rx="10"/>
   <rect x="415"
         y="121"
         width="48"
         height="32"
         class="terminal"
         rx="10"/>
   <text class="terminal" x="425" y="141">DAY</text>
   <path class="line"
         d="m17 17 h2 m0 0 h10 m100 0 h10 m0 0 h10 m70 0 h10 m20 0 h10 m0 0 h214 m-244 0 h20 m224 0 h20 m-264 0 q10 0 10 10 m244 0 q0 -10 10 -10 m-254 10 v12 m244 0 v-12 m-244 12 q0 10 10 10 m224 0 q10 0 10 -10 m-234 10 h10 m80 0 h10 m0 0 h124 m-234 -10 v20 m244 0 v-20 m-244 20 v24 m244 0 v-24 m-244 24 q0 10 10 10 m224 0 q10 0 10 -10 m-234 10 h10 m64 0 h10 m0 0 h140 m-234 -10 v20 m244 0 v-20 m-244 20 v24 m244 0 v-24 m-244 24 q0 10 10 10 m224 0 q10 0 10 -10 m-234 10 h10 m88 0 h10 m0 0 h10 m28 0 h10 m0 0 h10 m48 0 h10 m23 -120 h-3"/>
   <polygon points="503 17 511 13 511 21"/>
   <polygon points="503 17 495 13 495 21"/>
</svg>
