<?xml version="1.0" encoding="UTF-8"?>
<svg xmlns="http://www.w3.org/2000/svg" width="783" height="85">
   <defs>
      <style type="text/css">
    @namespace "http://www.w3.org/2000/svg";
    .line                 {fill: none; stroke: #332900; stroke-width: 1;}
    .bold-line            {stroke: #141000; shape-rendering: crispEdges; stroke-width: 2;}
    .thin-line            {stroke: #1F1800; shape-rendering: crispEdges}
    .filled               {fill: #332900; stroke: none;}
    text.terminal         {font-family: Verdana, Sans-serif;
                            font-size: 12px;
                            fill: #141000;
                            font-weight: bold;
                          }
    text.nonterminal      {font-family: Verdana, Sans-serif;
                            font-size: 12px;
                            fill: #1A1400;
                            font-weight: normal;
                          }
    text.regexp           {font-family: Verdana, Sans-serif;
                            font-size: 12px;
                            fill: #1F1800;
                            font-weight: normal;
                          }
    rect, circle, polygon {fill: #332900; stroke: #332900;}
    rect.terminal         {fill: #FFDB4D; stroke: #332900; stroke-width: 1;}
    rect.nonterminal      {fill: #FFEC9E; stroke: #332900; stroke-width: 1;}
    rect.text             {fill: none; stroke: none;}
    polygon.regexp        {fill: #FFF4C7; stroke: #332900; stroke-width: 1;}
  </style>
   </defs>
   <polygon points="9 33 1 29 1 37"/>
   <polygon points="17 33 9 29 9 37"/>
   <rect x="31" y="19" width="56" height="32" rx="10"/>
   <rect x="29"
         y="17"
         width="56"
         height="32"
         class="terminal"
         rx="10"/>
   <text class="terminal" x="39" y="37">CASE</text>
   <rect x="127" y="19" width="62" height="32" rx="10"/>
   <rect x="125"
         y="17"
         width="62"
         height="32"
         class="terminal"
         rx="10"/>
   <text class="terminal" x="135" y="37">WHEN</text>
   <a xmlns:xlink="http://www.w3.org/1999/xlink"
      xlink:href="#condition"
      xlink:title="condition">
      <rect x="229" y="51" width="78" height="32"/>
      <rect x="227" y="49" width="78" height="32" class="nonterminal"/>
      <text class="nonterminal" x="237" y="69">condition</text>
   </a>
   <rect x="347" y="19" width="56" height="32" rx="10"/>
   <rect x="345"
         y="17"
         width="56"
         height="32"
         class="terminal"
         rx="10"/>
   <text class="terminal" x="355" y="37">THEN</text>
   <a xmlns:xlink="http://www.w3.org/1999/xlink"
      xlink:href="#result"
      xlink:title="result">
      <rect x="423" y="19" width="56" height="32"/>
      <rect x="421" y="17" width="56" height="32" class="nonterminal"/>
      <text class="nonterminal" x="431" y="37">result</text>
   </a>
   <rect x="539" y="51" width="52" height="32" rx="10"/>
   <rect x="537"
         y="49"
         width="52"
         height="32"
         class="terminal"
         rx="10"/>
   <text class="terminal" x="547" y="69">ELSE</text>
   <a xmlns:xlink="http://www.w3.org/1999/xlink"
      xlink:href="#result"
      xlink:title="result">
      <rect x="611" y="51" width="56" height="32"/>
      <rect x="609" y="49" width="56" height="32" class="nonterminal"/>
      <text class="nonterminal" x="619" y="69">result</text>
   </a>
   <rect x="707" y="19" width="48" height="32" rx="10"/>
   <rect x="705"
         y="17"
         width="48"
         height="32"
         class="terminal"
         rx="10"/>
   <text class="terminal" x="715" y="37">END</text>
   <path class="line"
         d="m17 33 h2 m0 0 h10 m56 0 h10 m20 0 h10 m62 0 h10 m20 0 h10 m0 0 h88 m-118 0 h20 m98 0 h20 m-138 0 q10 0 10 10 m118 0 q0 -10 10 -10 m-128 10 v12 m118 0 v-12 m-118 12 q0 10 10 10 m98 0 q10 0 10 -10 m-108 10 h10 m78 0 h10 m20 -32 h10 m56 0 h10 m0 0 h10 m56 0 h10 m-392 0 l20 0 m-1 0 q-9 0 -9 -10 l0 -12 q0 -10 10 -10 m372 32 l20 0 m-20 0 q10 0 10 -10 l0 -12 q0 -10 -10 -10 m-372 0 h10 m0 0 h362 m40 32 h10 m0 0 h138 m-168 0 h20 m148 0 h20 m-188 0 q10 0 10 10 m168 0 q0 -10 10 -10 m-178 10 v12 m168 0 v-12 m-168 12 q0 10 10 10 m148 0 q10 0 10 -10 m-158 10 h10 m52 0 h10 m0 0 h10 m56 0 h10 m20 -32 h10 m48 0 h10 m3 0 h-3"/>
   <polygon points="773 33 781 29 781 37"/>
   <polygon points="773 33 765 29 765 37"/>
</svg>
