<?xml version="1.0" encoding="UTF-8"?>
<svg xmlns="http://www.w3.org/2000/svg" width="979" height="151">
   <defs>
      <style type="text/css">
    @namespace "http://www.w3.org/2000/svg";
    .line                 {fill: none; stroke: #332900; stroke-width: 1;}
    .bold-line            {stroke: #141000; shape-rendering: crispEdges; stroke-width: 2;}
    .thin-line            {stroke: #1F1800; shape-rendering: crispEdges}
    .filled               {fill: #332900; stroke: none;}
    text.terminal         {font-family: Verdana, Sans-serif;
                            font-size: 12px;
                            fill: #141000;
                            font-weight: bold;
                          }
    text.nonterminal      {font-family: Verdana, Sans-serif;
                            font-size: 12px;
                            fill: #1A1400;
                            font-weight: normal;
                          }
    text.regexp           {font-family: Verdana, Sans-serif;
                            font-size: 12px;
                            fill: #1F1800;
                            font-weight: normal;
                          }
    rect, circle, polygon {fill: #332900; stroke: #332900;}
    rect.terminal         {fill: #FFDB4D; stroke: #332900; stroke-width: 1;}
    rect.nonterminal      {fill: #FFEC9E; stroke: #332900; stroke-width: 1;}
    rect.text             {fill: none; stroke: none;}
    polygon.regexp        {fill: #FFF4C7; stroke: #332900; stroke-width: 1;}
  </style>
   </defs>
   <polygon points="9 33 1 29 1 37"/>
   <polygon points="17 33 9 29 9 37"/>
   <rect x="31" y="19" width="56" height="32" rx="10"/>
   <rect x="29"
         y="17"
         width="56"
         height="32"
         class="terminal"
         rx="10"/>
   <text class="terminal" x="39" y="37">CASE</text>
   <a xmlns:xlink="http://www.w3.org/1999/xlink"
      xlink:href="#case_value"
      xlink:title="case_value">
      <rect x="107" y="19" width="92" height="32"/>
      <rect x="105" y="17" width="92" height="32" class="nonterminal"/>
      <text class="nonterminal" x="115" y="37">case_value</text>
   </a>
   <rect x="239" y="19" width="62" height="32" rx="10"/>
   <rect x="237"
         y="17"
         width="62"
         height="32"
         class="terminal"
         rx="10"/>
   <text class="terminal" x="247" y="37">WHEN</text>
   <a xmlns:xlink="http://www.w3.org/1999/xlink"
      xlink:href="#when_value"
      xlink:title="when_value">
      <rect x="321" y="19" width="96" height="32"/>
      <rect x="319" y="17" width="96" height="32" class="nonterminal"/>
      <text class="nonterminal" x="329" y="37">when_value</text>
   </a>
   <rect x="437" y="19" width="56" height="32" rx="10"/>
   <rect x="435"
         y="17"
         width="56"
         height="32"
         class="terminal"
         rx="10"/>
   <text class="terminal" x="445" y="37">THEN</text>
   <a xmlns:xlink="http://www.w3.org/1999/xlink"
      xlink:href="#statement_list"
      xlink:title="statement_list">
      <rect x="513" y="19" width="112" height="32"/>
      <rect x="511" y="17" width="112" height="32" class="nonterminal"/>
      <text class="nonterminal" x="521" y="37">statement_list</text>
   </a>
   <rect x="685" y="51" width="52" height="32" rx="10"/>
   <rect x="683"
         y="49"
         width="52"
         height="32"
         class="terminal"
         rx="10"/>
   <text class="terminal" x="693" y="69">ELSE</text>
   <a xmlns:xlink="http://www.w3.org/1999/xlink"
      xlink:href="#statement_list"
      xlink:title="statement_list">
      <rect x="757" y="51" width="112" height="32"/>
      <rect x="755" y="49" width="112" height="32" class="nonterminal"/>
      <text class="nonterminal" x="765" y="69">statement_list</text>
   </a>
   <rect x="909" y="19" width="48" height="32" rx="10"/>
   <rect x="907"
         y="17"
         width="48"
         height="32"
         class="terminal"
         rx="10"/>
   <text class="terminal" x="917" y="37">END</text>
   <rect x="895" y="117" width="56" height="32" rx="10"/>
   <rect x="893"
         y="115"
         width="56"
         height="32"
         class="terminal"
         rx="10"/>
   <text class="terminal" x="903" y="135">CASE</text>
   <path class="line"
         d="m17 33 h2 m0 0 h10 m56 0 h10 m0 0 h10 m92 0 h10 m20 0 h10 m62 0 h10 m0 0 h10 m96 0 h10 m0 0 h10 m56 0 h10 m0 0 h10 m112 0 h10 m-426 0 l20 0 m-1 0 q-9 0 -9 -10 l0 -12 q0 -10 10 -10 m406 32 l20 0 m-20 0 q10 0 10 -10 l0 -12 q0 -10 -10 -10 m-406 0 h10 m0 0 h396 m40 32 h10 m0 0 h194 m-224 0 h20 m204 0 h20 m-244 0 q10 0 10 10 m224 0 q0 -10 10 -10 m-234 10 v12 m224 0 v-12 m-224 12 q0 10 10 10 m204 0 q10 0 10 -10 m-214 10 h10 m52 0 h10 m0 0 h10 m112 0 h10 m20 -32 h10 m48 0 h10 m2 0 l2 0 m2 0 l2 0 m2 0 l2 0 m-106 98 l2 0 m2 0 l2 0 m2 0 l2 0 m2 0 h10 m56 0 h10 m3 0 h-3"/>
   <polygon points="969 131 977 127 977 135"/>
   <polygon points="969 131 961 127 961 135"/>
</svg>
