<?xml version="1.0" encoding="UTF-8"?>
<svg xmlns="http://www.w3.org/2000/svg" width="977" height="113">
   <defs>
      <style type="text/css">
    @namespace "http://www.w3.org/2000/svg";
    .line                 {fill: none; stroke: #332900; stroke-width: 1;}
    .bold-line            {stroke: #141000; shape-rendering: crispEdges; stroke-width: 2;}
    .thin-line            {stroke: #1F1800; shape-rendering: crispEdges}
    .filled               {fill: #332900; stroke: none;}
    text.terminal         {font-family: Verdana, Sans-serif;
                            font-size: 12px;
                            fill: #141000;
                            font-weight: bold;
                          }
    text.nonterminal      {font-family: Verdana, Sans-serif;
                            font-size: 12px;
                            fill: #1A1400;
                            font-weight: normal;
                          }
    text.regexp           {font-family: Verdana, Sans-serif;
                            font-size: 12px;
                            fill: #1F1800;
                            font-weight: normal;
                          }
    rect, circle, polygon {fill: #332900; stroke: #332900;}
    rect.terminal         {fill: #FFDB4D; stroke: #332900; stroke-width: 1;}
    rect.nonterminal      {fill: #FFEC9E; stroke: #332900; stroke-width: 1;}
    rect.text             {fill: none; stroke: none;}
    polygon.regexp        {fill: #FFF4C7; stroke: #332900; stroke-width: 1;}
  </style>
   </defs>
   <polygon points="9 61 1 57 1 65"/>
   <polygon points="17 61 9 57 9 65"/>
   <rect x="31" y="47" width="76" height="32" rx="10"/>
   <rect x="29"
         y="45"
         width="76"
         height="32"
         class="terminal"
         rx="10"/>
   <text class="terminal" x="39" y="65">CHANGE</text>
   <rect x="127" y="47" width="76" height="32" rx="10"/>
   <rect x="125"
         y="45"
         width="76"
         height="32"
         class="terminal"
         rx="10"/>
   <text class="terminal" x="135" y="65">MASTER</text>
   <a xmlns:xlink="http://www.w3.org/1999/xlink"
      xlink:href="#connection_name"
      xlink:title="connection_name">
      <rect x="243" y="79" width="132" height="32"/>
      <rect x="241" y="77" width="132" height="32" class="nonterminal"/>
      <text class="nonterminal" x="251" y="97">connection_name</text>
   </a>
   <rect x="415" y="47" width="38" height="32" rx="10"/>
   <rect x="413"
         y="45"
         width="38"
         height="32"
         class="terminal"
         rx="10"/>
   <text class="terminal" x="423" y="65">TO</text>
   <a xmlns:xlink="http://www.w3.org/1999/xlink"
      xlink:href="#master_def"
      xlink:title="master_def">
      <rect x="493" y="47" width="92" height="32"/>
      <rect x="491" y="45" width="92" height="32" class="nonterminal"/>
      <text class="nonterminal" x="501" y="65">master_def</text>
   </a>
   <rect x="493" y="3" width="24" height="32" rx="10"/>
   <rect x="491"
         y="1"
         width="24"
         height="32"
         class="terminal"
         rx="10"/>
   <text class="terminal" x="501" y="21">,</text>
   <rect x="645" y="79" width="48" height="32" rx="10"/>
   <rect x="643"
         y="77"
         width="48"
         height="32"
         class="terminal"
         rx="10"/>
   <text class="terminal" x="653" y="97">FOR</text>
   <rect x="713" y="79" width="84" height="32" rx="10"/>
   <rect x="711"
         y="77"
         width="84"
         height="32"
         class="terminal"
         rx="10"/>
   <text class="terminal" x="721" y="97">CHANNEL</text>
   <a xmlns:xlink="http://www.w3.org/1999/xlink"
      xlink:href="#channel_name"
      xlink:title="channel_name">
      <rect x="817" y="79" width="112" height="32"/>
      <rect x="815" y="77" width="112" height="32" class="nonterminal"/>
      <text class="nonterminal" x="825" y="97">channel_name</text>
   </a>
   <path class="line"
         d="m17 61 h2 m0 0 h10 m76 0 h10 m0 0 h10 m76 0 h10 m20 0 h10 m0 0 h142 m-172 0 h20 m152 0 h20 m-192 0 q10 0 10 10 m172 0 q0 -10 10 -10 m-182 10 v12 m172 0 v-12 m-172 12 q0 10 10 10 m152 0 q10 0 10 -10 m-162 10 h10 m132 0 h10 m20 -32 h10 m38 0 h10 m20 0 h10 m92 0 h10 m-132 0 l20 0 m-1 0 q-9 0 -9 -10 l0 -24 q0 -10 10 -10 m112 44 l20 0 m-20 0 q10 0 10 -10 l0 -24 q0 -10 -10 -10 m-112 0 h10 m24 0 h10 m0 0 h68 m40 44 h10 m0 0 h294 m-324 0 h20 m304 0 h20 m-344 0 q10 0 10 10 m324 0 q0 -10 10 -10 m-334 10 v12 m324 0 v-12 m-324 12 q0 10 10 10 m304 0 q10 0 10 -10 m-314 10 h10 m48 0 h10 m0 0 h10 m84 0 h10 m0 0 h10 m112 0 h10 m23 -32 h-3"/>
   <polygon points="967 61 975 57 975 65"/>
   <polygon points="967 61 959 57 959 65"/>
</svg>
