<?xml version="1.0" encoding="UTF-8"?>
<svg xmlns="http://www.w3.org/2000/svg" width="251" height="257">
   <defs>
      <style type="text/css">
    @namespace "http://www.w3.org/2000/svg";
    .line                 {fill: none; stroke: #332900; stroke-width: 1;}
    .bold-line            {stroke: #141000; shape-rendering: crispEdges; stroke-width: 2;}
    .thin-line            {stroke: #1F1800; shape-rendering: crispEdges}
    .filled               {fill: #332900; stroke: none;}
    text.terminal         {font-family: Verdana, Sans-serif;
                            font-size: 12px;
                            fill: #141000;
                            font-weight: bold;
                          }
    text.nonterminal      {font-family: Verdana, Sans-serif;
                            font-size: 12px;
                            fill: #1A1400;
                            font-weight: normal;
                          }
    text.regexp           {font-family: Verdana, Sans-serif;
                            font-size: 12px;
                            fill: #1F1800;
                            font-weight: normal;
                          }
    rect, circle, polygon {fill: #332900; stroke: #332900;}
    rect.terminal         {fill: #FFDB4D; stroke: #332900; stroke-width: 1;}
    rect.nonterminal      {fill: #FFEC9E; stroke: #332900; stroke-width: 1;}
    rect.text             {fill: none; stroke: none;}
    polygon.regexp        {fill: #FFF4C7; stroke: #332900; stroke-width: 1;}
  </style>
   </defs>
   <polygon points="9 17 1 13 1 21"/>
   <polygon points="17 17 9 13 9 21"/>
   <rect x="51" y="3" width="48" height="32" rx="10"/>
   <rect x="49"
         y="1"
         width="48"
         height="32"
         class="terminal"
         rx="10"/>
   <text class="terminal" x="59" y="21">FOR</text>
   <rect x="119" y="3" width="84" height="32" rx="10"/>
   <rect x="117"
         y="1"
         width="84"
         height="32"
         class="terminal"
         rx="10"/>
   <text class="terminal" x="127" y="21">UPGRADE</text>
   <rect x="51" y="47" width="64" height="32" rx="10"/>
   <rect x="49"
         y="45"
         width="64"
         height="32"
         class="terminal"
         rx="10"/>
   <text class="terminal" x="59" y="65">QUICK</text>
   <rect x="51" y="91" width="54" height="32" rx="10"/>
   <rect x="49"
         y="89"
         width="54"
         height="32"
         class="terminal"
         rx="10"/>
   <text class="terminal" x="59" y="109">FAST</text>
   <rect x="51" y="135" width="76" height="32" rx="10"/>
   <rect x="49"
         y="133"
         width="76"
         height="32"
         class="terminal"
         rx="10"/>
   <text class="terminal" x="59" y="153">MEDIUM</text>
   <rect x="51" y="179" width="92" height="32" rx="10"/>
   <rect x="49"
         y="177"
         width="92"
         height="32"
         class="terminal"
         rx="10"/>
   <text class="terminal" x="59" y="197">EXTENDED</text>
   <rect x="51" y="223" width="86" height="32" rx="10"/>
   <rect x="49"
         y="221"
         width="86"
         height="32"
         class="terminal"
         rx="10"/>
   <text class="terminal" x="59" y="241">CHANGED</text>
   <path class="line"
         d="m17 17 h2 m20 0 h10 m48 0 h10 m0 0 h10 m84 0 h10 m-192 0 h20 m172 0 h20 m-212 0 q10 0 10 10 m192 0 q0 -10 10 -10 m-202 10 v24 m192 0 v-24 m-192 24 q0 10 10 10 m172 0 q10 0 10 -10 m-182 10 h10 m64 0 h10 m0 0 h88 m-182 -10 v20 m192 0 v-20 m-192 20 v24 m192 0 v-24 m-192 24 q0 10 10 10 m172 0 q10 0 10 -10 m-182 10 h10 m54 0 h10 m0 0 h98 m-182 -10 v20 m192 0 v-20 m-192 20 v24 m192 0 v-24 m-192 24 q0 10 10 10 m172 0 q10 0 10 -10 m-182 10 h10 m76 0 h10 m0 0 h76 m-182 -10 v20 m192 0 v-20 m-192 20 v24 m192 0 v-24 m-192 24 q0 10 10 10 m172 0 q10 0 10 -10 m-182 10 h10 m92 0 h10 m0 0 h60 m-182 -10 v20 m192 0 v-20 m-192 20 v24 m192 0 v-24 m-192 24 q0 10 10 10 m172 0 q10 0 10 -10 m-182 10 h10 m86 0 h10 m0 0 h66 m23 -220 h-3"/>
   <polygon points="241 17 249 13 249 21"/>
   <polygon points="241 17 233 13 233 21"/>
</svg>
