<?xml version="1.0" encoding="UTF-8"?>
<svg xmlns="http://www.w3.org/2000/svg" width="513" height="101">
   <defs>
      <style type="text/css">
    @namespace "http://www.w3.org/2000/svg";
    .line                 {fill: none; stroke: #332900; stroke-width: 1;}
    .bold-line            {stroke: #141000; shape-rendering: crispEdges; stroke-width: 2;}
    .thin-line            {stroke: #1F1800; shape-rendering: crispEdges}
    .filled               {fill: #332900; stroke: none;}
    text.terminal         {font-family: Verdana, Sans-serif;
                            font-size: 12px;
                            fill: #141000;
                            font-weight: bold;
                          }
    text.nonterminal      {font-family: Verdana, Sans-serif;
                            font-size: 12px;
                            fill: #1A1400;
                            font-weight: normal;
                          }
    text.regexp           {font-family: Verdana, Sans-serif;
                            font-size: 12px;
                            fill: #1F1800;
                            font-weight: normal;
                          }
    rect, circle, polygon {fill: #332900; stroke: #332900;}
    rect.terminal         {fill: #FFDB4D; stroke: #332900; stroke-width: 1;}
    rect.nonterminal      {fill: #FFEC9E; stroke: #332900; stroke-width: 1;}
    rect.text             {fill: none; stroke: none;}
    polygon.regexp        {fill: #FFF4C7; stroke: #332900; stroke-width: 1;}
  </style>
   </defs>
   <polygon points="9 17 1 13 1 21"/>
   <polygon points="17 17 9 13 9 21"/>
   <rect x="51" y="35" width="110" height="32" rx="10"/>
   <rect x="49"
         y="33"
         width="110"
         height="32"
         class="terminal"
         rx="10"/>
   <text class="terminal" x="59" y="53">CONSTRAINT</text>
   <a xmlns:xlink="http://www.w3.org/1999/xlink"
      xlink:href="#symbol"
      xlink:title="symbol">
      <rect x="201" y="67" width="64" height="32"/>
      <rect x="199" y="65" width="64" height="32" class="nonterminal"/>
      <text class="nonterminal" x="209" y="85">symbol</text>
   </a>
   <a xmlns:xlink="http://www.w3.org/1999/xlink"
      xlink:href="#constraint_expression"
      xlink:title="constraint_expression">
      <rect x="325" y="3" width="160" height="32"/>
      <rect x="323" y="1" width="160" height="32" class="nonterminal"/>
      <text class="nonterminal" x="333" y="21">constraint_expression</text>
   </a>
   <path class="line"
         d="m17 17 h2 m20 0 h10 m0 0 h244 m-274 0 h20 m254 0 h20 m-294 0 q10 0 10 10 m274 0 q0 -10 10 -10 m-284 10 v12 m274 0 v-12 m-274 12 q0 10 10 10 m254 0 q10 0 10 -10 m-264 10 h10 m110 0 h10 m20 0 h10 m0 0 h74 m-104 0 h20 m84 0 h20 m-124 0 q10 0 10 10 m104 0 q0 -10 10 -10 m-114 10 v12 m104 0 v-12 m-104 12 q0 10 10 10 m84 0 q10 0 10 -10 m-94 10 h10 m64 0 h10 m40 -64 h10 m160 0 h10 m3 0 h-3"/>
   <polygon points="503 17 511 13 511 21"/>
   <polygon points="503 17 495 13 495 21"/>
</svg>
