<?xml version="1.0" encoding="UTF-8"?>
<svg xmlns="http://www.w3.org/2000/svg" width="405" height="289">
   <defs>
      <style type="text/css">
    @namespace "http://www.w3.org/2000/svg";
    .line                 {fill: none; stroke: #332900; stroke-width: 1;}
    .bold-line            {stroke: #141000; shape-rendering: crispEdges; stroke-width: 2;}
    .thin-line            {stroke: #1F1800; shape-rendering: crispEdges}
    .filled               {fill: #332900; stroke: none;}
    text.terminal         {font-family: Verdana, Sans-serif;
                            font-size: 12px;
                            fill: #141000;
                            font-weight: bold;
                          }
    text.nonterminal      {font-family: Verdana, Sans-serif;
                            font-size: 12px;
                            fill: #1A1400;
                            font-weight: normal;
                          }
    text.regexp           {font-family: Verdana, Sans-serif;
                            font-size: 12px;
                            fill: #1F1800;
                            font-weight: normal;
                          }
    rect, circle, polygon {fill: #332900; stroke: #332900;}
    rect.terminal         {fill: #FFDB4D; stroke: #332900; stroke-width: 1;}
    rect.nonterminal      {fill: #FFEC9E; stroke: #332900; stroke-width: 1;}
    rect.text             {fill: none; stroke: none;}
    polygon.regexp        {fill: #FFF4C7; stroke: #332900; stroke-width: 1;}
  </style>
   </defs>
   <polygon points="9 17 1 13 1 21"/>
   <polygon points="17 17 9 13 9 21"/>
   <rect x="51" y="3" width="142" height="32" rx="10"/>
   <rect x="49"
         y="1"
         width="142"
         height="32"
         class="terminal"
         rx="10"/>
   <text class="terminal" x="59" y="21">KEY_BLOCK_SIZE</text>
   <rect x="233" y="35" width="30" height="32" rx="10"/>
   <rect x="231"
         y="33"
         width="30"
         height="32"
         class="terminal"
         rx="10"/>
   <text class="terminal" x="241" y="53">=</text>
   <a xmlns:xlink="http://www.w3.org/1999/xlink"
      xlink:href="#value"
      xlink:title="value">
      <rect x="303" y="3" width="54" height="32"/>
      <rect x="301" y="1" width="54" height="32" class="nonterminal"/>
      <text class="nonterminal" x="311" y="21">value</text>
   </a>
   <a xmlns:xlink="http://www.w3.org/1999/xlink"
      xlink:href="#index_type"
      xlink:title="index_type">
      <rect x="51" y="79" width="90" height="32"/>
      <rect x="49" y="77" width="90" height="32" class="nonterminal"/>
      <text class="nonterminal" x="59" y="97">index_type</text>
   </a>
   <rect x="51" y="123" width="58" height="32" rx="10"/>
   <rect x="49"
         y="121"
         width="58"
         height="32"
         class="terminal"
         rx="10"/>
   <text class="terminal" x="59" y="141">WITH</text>
   <rect x="129" y="123" width="74" height="32" rx="10"/>
   <rect x="127"
         y="121"
         width="74"
         height="32"
         class="terminal"
         rx="10"/>
   <text class="terminal" x="137" y="141">PARSER</text>
   <a xmlns:xlink="http://www.w3.org/1999/xlink"
      xlink:href="#parser_name"
      xlink:title="parser_name">
      <rect x="223" y="123" width="104" height="32"/>
      <rect x="221" y="121" width="104" height="32" class="nonterminal"/>
      <text class="nonterminal" x="231" y="141">parser_name</text>
   </a>
   <rect x="51" y="167" width="88" height="32" rx="10"/>
   <rect x="49"
         y="165"
         width="88"
         height="32"
         class="terminal"
         rx="10"/>
   <text class="terminal" x="59" y="185">COMMENT</text>
   <a xmlns:xlink="http://www.w3.org/1999/xlink"
      xlink:href="#string"
      xlink:title="string">
      <rect x="159" y="167" width="56" height="32"/>
      <rect x="157" y="165" width="56" height="32" class="nonterminal"/>
      <text class="nonterminal" x="167" y="185">string</text>
   </a>
   <rect x="51" y="211" width="108" height="32" rx="10"/>
   <rect x="49"
         y="209"
         width="108"
         height="32"
         class="terminal"
         rx="10"/>
   <text class="terminal" x="59" y="229">CLUSTERING</text>
   <rect x="179" y="211" width="30" height="32" rx="10"/>
   <rect x="177"
         y="209"
         width="30"
         height="32"
         class="terminal"
         rx="10"/>
   <text class="terminal" x="187" y="229">=</text>
   <rect x="249" y="211" width="46" height="32" rx="10"/>
   <rect x="247"
         y="209"
         width="46"
         height="32"
         class="terminal"
         rx="10"/>
   <text class="terminal" x="257" y="229">YES</text>
   <rect x="249" y="255" width="40" height="32" rx="10"/>
   <rect x="247"
         y="253"
         width="40"
         height="32"
         class="terminal"
         rx="10"/>
   <text class="terminal" x="257" y="273">NO</text>
   <path class="line"
         d="m17 17 h2 m20 0 h10 m142 0 h10 m20 0 h10 m0 0 h40 m-70 0 h20 m50 0 h20 m-90 0 q10 0 10 10 m70 0 q0 -10 10 -10 m-80 10 v12 m70 0 v-12 m-70 12 q0 10 10 10 m50 0 q10 0 10 -10 m-60 10 h10 m30 0 h10 m20 -32 h10 m54 0 h10 m-346 0 h20 m326 0 h20 m-366 0 q10 0 10 10 m346 0 q0 -10 10 -10 m-356 10 v56 m346 0 v-56 m-346 56 q0 10 10 10 m326 0 q10 0 10 -10 m-336 10 h10 m90 0 h10 m0 0 h216 m-336 -10 v20 m346 0 v-20 m-346 20 v24 m346 0 v-24 m-346 24 q0 10 10 10 m326 0 q10 0 10 -10 m-336 10 h10 m58 0 h10 m0 0 h10 m74 0 h10 m0 0 h10 m104 0 h10 m0 0 h30 m-336 -10 v20 m346 0 v-20 m-346 20 v24 m346 0 v-24 m-346 24 q0 10 10 10 m326 0 q10 0 10 -10 m-336 10 h10 m88 0 h10 m0 0 h10 m56 0 h10 m0 0 h142 m-336 -10 v20 m346 0 v-20 m-346 20 v24 m346 0 v-24 m-346 24 q0 10 10 10 m326 0 q10 0 10 -10 m-336 10 h10 m108 0 h10 m0 0 h10 m30 0 h10 m20 0 h10 m46 0 h10 m-86 0 h20 m66 0 h20 m-106 0 q10 0 10 10 m86 0 q0 -10 10 -10 m-96 10 v24 m86 0 v-24 m-86 24 q0 10 10 10 m66 0 q10 0 10 -10 m-76 10 h10 m40 0 h10 m0 0 h6 m20 -44 h42 m23 -208 h-3"/>
   <polygon points="395 17 403 13 403 21"/>
   <polygon points="395 17 387 13 387 21"/>
</svg>
