<?xml version="1.0" encoding="UTF-8"?>
<svg xmlns="http://www.w3.org/2000/svg" width="265" height="213">
   <defs>
      <style type="text/css">
    @namespace "http://www.w3.org/2000/svg";
    .line                 {fill: none; stroke: #332900; stroke-width: 1;}
    .bold-line            {stroke: #141000; shape-rendering: crispEdges; stroke-width: 2;}
    .thin-line            {stroke: #1F1800; shape-rendering: crispEdges}
    .filled               {fill: #332900; stroke: none;}
    text.terminal         {font-family: Verdana, Sans-serif;
                            font-size: 12px;
                            fill: #141000;
                            font-weight: bold;
                          }
    text.nonterminal      {font-family: Verdana, Sans-serif;
                            font-size: 12px;
                            fill: #1A1400;
                            font-weight: normal;
                          }
    text.regexp           {font-family: Verdana, Sans-serif;
                            font-size: 12px;
                            fill: #1F1800;
                            font-weight: normal;
                          }
    rect, circle, polygon {fill: #332900; stroke: #332900;}
    rect.terminal         {fill: #FFDB4D; stroke: #332900; stroke-width: 1;}
    rect.nonterminal      {fill: #FFEC9E; stroke: #332900; stroke-width: 1;}
    rect.text             {fill: none; stroke: none;}
    polygon.regexp        {fill: #FFF4C7; stroke: #332900; stroke-width: 1;}
  </style>
   </defs>
   <polygon points="9 17 1 13 1 21"/>
   <polygon points="17 17 9 13 9 21"/>
   <rect x="51" y="3" width="46" height="32" rx="10"/>
   <rect x="49"
         y="1"
         width="46"
         height="32"
         class="terminal"
         rx="10"/>
   <text class="terminal" x="59" y="21">SSL</text>
   <rect x="51" y="47" width="56" height="32" rx="10"/>
   <rect x="49"
         y="45"
         width="56"
         height="32"
         class="terminal"
         rx="10"/>
   <text class="terminal" x="59" y="65">X509</text>
   <rect x="51" y="91" width="72" height="32" rx="10"/>
   <rect x="49"
         y="89"
         width="72"
         height="32"
         class="terminal"
         rx="10"/>
   <text class="terminal" x="59" y="109">CIPHER</text>
   <a xmlns:xlink="http://www.w3.org/1999/xlink"
      xlink:href="#cipher"
      xlink:title="cipher">
      <rect x="143" y="91" width="58" height="32"/>
      <rect x="141" y="89" width="58" height="32" class="nonterminal"/>
      <text class="nonterminal" x="151" y="109">cipher</text>
   </a>
   <rect x="51" y="135" width="72" height="32" rx="10"/>
   <rect x="49"
         y="133"
         width="72"
         height="32"
         class="terminal"
         rx="10"/>
   <text class="terminal" x="59" y="153">ISSUER</text>
   <a xmlns:xlink="http://www.w3.org/1999/xlink"
      xlink:href="#issuer"
      xlink:title="issuer">
      <rect x="143" y="135" width="58" height="32"/>
      <rect x="141" y="133" width="58" height="32" class="nonterminal"/>
      <text class="nonterminal" x="151" y="153">issuer</text>
   </a>
   <rect x="51" y="179" width="80" height="32" rx="10"/>
   <rect x="49"
         y="177"
         width="80"
         height="32"
         class="terminal"
         rx="10"/>
   <text class="terminal" x="59" y="197">SUBJECT</text>
   <a xmlns:xlink="http://www.w3.org/1999/xlink"
      xlink:href="#subject"
      xlink:title="subject">
      <rect x="151" y="179" width="66" height="32"/>
      <rect x="149" y="177" width="66" height="32" class="nonterminal"/>
      <text class="nonterminal" x="159" y="197">subject</text>
   </a>
   <path class="line"
         d="m17 17 h2 m20 0 h10 m46 0 h10 m0 0 h120 m-206 0 h20 m186 0 h20 m-226 0 q10 0 10 10 m206 0 q0 -10 10 -10 m-216 10 v24 m206 0 v-24 m-206 24 q0 10 10 10 m186 0 q10 0 10 -10 m-196 10 h10 m56 0 h10 m0 0 h110 m-196 -10 v20 m206 0 v-20 m-206 20 v24 m206 0 v-24 m-206 24 q0 10 10 10 m186 0 q10 0 10 -10 m-196 10 h10 m72 0 h10 m0 0 h10 m58 0 h10 m0 0 h16 m-196 -10 v20 m206 0 v-20 m-206 20 v24 m206 0 v-24 m-206 24 q0 10 10 10 m186 0 q10 0 10 -10 m-196 10 h10 m72 0 h10 m0 0 h10 m58 0 h10 m0 0 h16 m-196 -10 v20 m206 0 v-20 m-206 20 v24 m206 0 v-24 m-206 24 q0 10 10 10 m186 0 q10 0 10 -10 m-196 10 h10 m80 0 h10 m0 0 h10 m66 0 h10 m23 -176 h-3"/>
   <polygon points="255 17 263 13 263 21"/>
   <polygon points="255 17 247 13 247 21"/>
</svg>
