<?xml version="1.0" encoding="UTF-8"?>
<svg xmlns="http://www.w3.org/2000/svg" width="845" height="647">
   <defs>
      <style type="text/css">
    @namespace "http://www.w3.org/2000/svg";
    .line                 {fill: none; stroke: #332900; stroke-width: 1;}
    .bold-line            {stroke: #141000; shape-rendering: crispEdges; stroke-width: 2;}
    .thin-line            {stroke: #1F1800; shape-rendering: crispEdges}
    .filled               {fill: #332900; stroke: none;}
    text.terminal         {font-family: Verdana, Sans-serif;
                            font-size: 12px;
                            fill: #141000;
                            font-weight: bold;
                          }
    text.nonterminal      {font-family: Verdana, Sans-serif;
                            font-size: 12px;
                            fill: #1A1400;
                            font-weight: normal;
                          }
    text.regexp           {font-family: Verdana, Sans-serif;
                            font-size: 12px;
                            fill: #1F1800;
                            font-weight: normal;
                          }
    rect, circle, polygon {fill: #332900; stroke: #332900;}
    rect.terminal         {fill: #FFDB4D; stroke: #332900; stroke-width: 1;}
    rect.nonterminal      {fill: #FFEC9E; stroke: #332900; stroke-width: 1;}
    rect.text             {fill: none; stroke: none;}
    polygon.regexp        {fill: #FFF4C7; stroke: #332900; stroke-width: 1;}
  </style>
   </defs>
   <polygon points="9 17 1 13 1 21"/>
   <polygon points="17 17 9 13 9 21"/>
   <rect x="31" y="3" width="72" height="32" rx="10"/>
   <rect x="29"
         y="1"
         width="72"
         height="32"
         class="terminal"
         rx="10"/>
   <text class="terminal" x="39" y="21">CREATE</text>
   <rect x="143" y="35" width="40" height="32" rx="10"/>
   <rect x="141"
         y="33"
         width="40"
         height="32"
         class="terminal"
         rx="10"/>
   <text class="terminal" x="151" y="53">OR</text>
   <rect x="203" y="35" width="80" height="32" rx="10"/>
   <rect x="201"
         y="33"
         width="80"
         height="32"
         class="terminal"
         rx="10"/>
   <text class="terminal" x="211" y="53">REPLACE</text>
   <rect x="343" y="35" width="104" height="32" rx="10"/>
   <rect x="341"
         y="33"
         width="104"
         height="32"
         class="terminal"
         rx="10"/>
   <text class="terminal" x="351" y="53">ALGORITHM</text>
   <rect x="467" y="35" width="30" height="32" rx="10"/>
   <rect x="465"
         y="33"
         width="30"
         height="32"
         class="terminal"
         rx="10"/>
   <text class="terminal" x="475" y="53">=</text>
   <rect x="537" y="35" width="100" height="32" rx="10"/>
   <rect x="535"
         y="33"
         width="100"
         height="32"
         class="terminal"
         rx="10"/>
   <text class="terminal" x="545" y="53">UNDEFINED</text>
   <rect x="537" y="79" width="66" height="32" rx="10"/>
   <rect x="535"
         y="77"
         width="66"
         height="32"
         class="terminal"
         rx="10"/>
   <text class="terminal" x="545" y="97">MERGE</text>
   <rect x="537" y="123" width="100" height="32" rx="10"/>
   <rect x="535"
         y="121"
         width="100"
         height="32"
         class="terminal"
         rx="10"/>
   <text class="terminal" x="545" y="141">TEMPTABLE</text>
   <rect x="45" y="221" width="80" height="32" rx="10"/>
   <rect x="43"
         y="219"
         width="80"
         height="32"
         class="terminal"
         rx="10"/>
   <text class="terminal" x="53" y="239">DEFINER</text>
   <rect x="145" y="221" width="30" height="32" rx="10"/>
   <rect x="143"
         y="219"
         width="30"
         height="32"
         class="terminal"
         rx="10"/>
   <text class="terminal" x="153" y="239">=</text>
   <a xmlns:xlink="http://www.w3.org/1999/xlink"
      xlink:href="#user"
      xlink:title="user">
      <rect x="215" y="221" width="48" height="32"/>
      <rect x="213" y="219" width="48" height="32" class="nonterminal"/>
      <text class="nonterminal" x="223" y="239">user</text>
   </a>
   <rect x="215" y="265" width="128" height="32" rx="10"/>
   <rect x="213"
         y="263"
         width="128"
         height="32"
         class="terminal"
         rx="10"/>
   <text class="terminal" x="223" y="283">CURRENT_USER</text>
   <a xmlns:xlink="http://www.w3.org/1999/xlink"
      xlink:href="#role"
      xlink:title="role">
      <rect x="215" y="309" width="44" height="32"/>
      <rect x="213" y="307" width="44" height="32" class="nonterminal"/>
      <text class="nonterminal" x="223" y="327">role</text>
   </a>
   <rect x="215" y="353" width="130" height="32" rx="10"/>
   <rect x="213"
         y="351"
         width="130"
         height="32"
         class="terminal"
         rx="10"/>
   <text class="terminal" x="223" y="371">CURRENT_ROLE</text>
   <rect x="425" y="221" width="48" height="32" rx="10"/>
   <rect x="423"
         y="219"
         width="48"
         height="32"
         class="terminal"
         rx="10"/>
   <text class="terminal" x="433" y="239">SQL</text>
   <rect x="493" y="221" width="88" height="32" rx="10"/>
   <rect x="491"
         y="219"
         width="88"
         height="32"
         class="terminal"
         rx="10"/>
   <text class="terminal" x="501" y="239">SECURITY</text>
   <rect x="621" y="221" width="80" height="32" rx="10"/>
   <rect x="619"
         y="219"
         width="80"
         height="32"
         class="terminal"
         rx="10"/>
   <text class="terminal" x="629" y="239">DEFINER</text>
   <rect x="621" y="265" width="84" height="32" rx="10"/>
   <rect x="619"
         y="263"
         width="84"
         height="32"
         class="terminal"
         rx="10"/>
   <text class="terminal" x="629" y="283">INVOKER</text>
   <rect x="765" y="189" width="58" height="32" rx="10"/>
   <rect x="763"
         y="187"
         width="58"
         height="32"
         class="terminal"
         rx="10"/>
   <text class="terminal" x="773" y="207">VIEW</text>
   <rect x="46" y="451" width="34" height="32" rx="10"/>
   <rect x="44"
         y="449"
         width="34"
         height="32"
         class="terminal"
         rx="10"/>
   <text class="terminal" x="54" y="469">IF</text>
   <rect x="100" y="451" width="48" height="32" rx="10"/>
   <rect x="98"
         y="449"
         width="48"
         height="32"
         class="terminal"
         rx="10"/>
   <text class="terminal" x="108" y="469">NOT</text>
   <rect x="168" y="451" width="70" height="32" rx="10"/>
   <rect x="166"
         y="449"
         width="70"
         height="32"
         class="terminal"
         rx="10"/>
   <text class="terminal" x="176" y="469">EXISTS</text>
   <a xmlns:xlink="http://www.w3.org/1999/xlink"
      xlink:href="#view_name"
      xlink:title="view_name">
      <rect x="278" y="419" width="92" height="32"/>
      <rect x="276" y="417" width="92" height="32" class="nonterminal"/>
      <text class="nonterminal" x="286" y="437">view_name</text>
   </a>
   <rect x="410" y="451" width="26" height="32" rx="10"/>
   <rect x="408"
         y="449"
         width="26"
         height="32"
         class="terminal"
         rx="10"/>
   <text class="terminal" x="418" y="469">(</text>
   <a xmlns:xlink="http://www.w3.org/1999/xlink"
      xlink:href="#column_list"
      xlink:title="column_list">
      <rect x="456" y="451" width="92" height="32"/>
      <rect x="454" y="449" width="92" height="32" class="nonterminal"/>
      <text class="nonterminal" x="464" y="469">column_list</text>
   </a>
   <rect x="568" y="451" width="26" height="32" rx="10"/>
   <rect x="566"
         y="449"
         width="26"
         height="32"
         class="terminal"
         rx="10"/>
   <text class="terminal" x="576" y="469">)</text>
   <rect x="634" y="419" width="38" height="32" rx="10"/>
   <rect x="632"
         y="417"
         width="38"
         height="32"
         class="terminal"
         rx="10"/>
   <text class="terminal" x="642" y="437">AS</text>
   <a xmlns:xlink="http://www.w3.org/1999/xlink"
      xlink:href="#select_statement"
      xlink:title="select_statement">
      <rect x="692" y="419" width="130" height="32"/>
      <rect x="690" y="417" width="130" height="32" class="nonterminal"/>
      <text class="nonterminal" x="700" y="437">select_statement</text>
   </a>
   <rect x="405" y="537" width="58" height="32" rx="10"/>
   <rect x="403"
         y="535"
         width="58"
         height="32"
         class="terminal"
         rx="10"/>
   <text class="terminal" x="413" y="555">WITH</text>
   <rect x="503" y="569" width="94" height="32" rx="10"/>
   <rect x="501"
         y="567"
         width="94"
         height="32"
         class="terminal"
         rx="10"/>
   <text class="terminal" x="511" y="587">CASCADED</text>
   <rect x="503" y="613" width="64" height="32" rx="10"/>
   <rect x="501"
         y="611"
         width="64"
         height="32"
         class="terminal"
         rx="10"/>
   <text class="terminal" x="511" y="631">LOCAL</text>
   <rect x="637" y="537" width="64" height="32" rx="10"/>
   <rect x="635"
         y="535"
         width="64"
         height="32"
         class="terminal"
         rx="10"/>
   <text class="terminal" x="645" y="555">CHECK</text>
   <rect x="721" y="537" width="76" height="32" rx="10"/>
   <rect x="719"
         y="535"
         width="76"
         height="32"
         class="terminal"
         rx="10"/>
   <text class="terminal" x="729" y="555">OPTION</text>
   <path class="line"
         d="m17 17 h2 m0 0 h10 m72 0 h10 m20 0 h10 m0 0 h150 m-180 0 h20 m160 0 h20 m-200 0 q10 0 10 10 m180 0 q0 -10 10 -10 m-190 10 v12 m180 0 v-12 m-180 12 q0 10 10 10 m160 0 q10 0 10 -10 m-170 10 h10 m40 0 h10 m0 0 h10 m80 0 h10 m40 -32 h10 m0 0 h324 m-354 0 h20 m334 0 h20 m-374 0 q10 0 10 10 m354 0 q0 -10 10 -10 m-364 10 v12 m354 0 v-12 m-354 12 q0 10 10 10 m334 0 q10 0 10 -10 m-344 10 h10 m104 0 h10 m0 0 h10 m30 0 h10 m20 0 h10 m100 0 h10 m-140 0 h20 m120 0 h20 m-160 0 q10 0 10 10 m140 0 q0 -10 10 -10 m-150 10 v24 m140 0 v-24 m-140 24 q0 10 10 10 m120 0 q10 0 10 -10 m-130 10 h10 m66 0 h10 m0 0 h34 m-130 -10 v20 m140 0 v-20 m-140 20 v24 m140 0 v-24 m-140 24 q0 10 10 10 m120 0 q10 0 10 -10 m-130 10 h10 m100 0 h10 m42 -120 l2 0 m2 0 l2 0 m2 0 l2 0 m-696 186 l2 0 m2 0 l2 0 m2 0 l2 0 m22 0 h10 m0 0 h330 m-360 0 h20 m340 0 h20 m-380 0 q10 0 10 10 m360 0 q0 -10 10 -10 m-370 10 v12 m360 0 v-12 m-360 12 q0 10 10 10 m340 0 q10 0 10 -10 m-350 10 h10 m80 0 h10 m0 0 h10 m30 0 h10 m20 0 h10 m48 0 h10 m0 0 h82 m-170 0 h20 m150 0 h20 m-190 0 q10 0 10 10 m170 0 q0 -10 10 -10 m-180 10 v24 m170 0 v-24 m-170 24 q0 10 10 10 m150 0 q10 0 10 -10 m-160 10 h10 m128 0 h10 m0 0 h2 m-160 -10 v20 m170 0 v-20 m-170 20 v24 m170 0 v-24 m-170 24 q0 10 10 10 m150 0 q10 0 10 -10 m-160 10 h10 m44 0 h10 m0 0 h86 m-160 -10 v20 m170 0 v-20 m-170 20 v24 m170 0 v-24 m-170 24 q0 10 10 10 m150 0 q10 0 10 -10 m-160 10 h10 m130 0 h10 m60 -164 h10 m0 0 h310 m-340 0 h20 m320 0 h20 m-360 0 q10 0 10 10 m340 0 q0 -10 10 -10 m-350 10 v12 m340 0 v-12 m-340 12 q0 10 10 10 m320 0 q10 0 10 -10 m-330 10 h10 m48 0 h10 m0 0 h10 m88 0 h10 m20 0 h10 m80 0 h10 m0 0 h4 m-124 0 h20 m104 0 h20 m-144 0 q10 0 10 10 m124 0 q0 -10 10 -10 m-134 10 v24 m124 0 v-24 m-124 24 q0 10 10 10 m104 0 q10 0 10 -10 m-114 10 h10 m84 0 h10 m40 -76 h10 m58 0 h10 m2 0 l2 0 m2 0 l2 0 m2 0 l2 0 m-841 230 l2 0 m2 0 l2 0 m2 0 l2 0 m22 0 h10 m0 0 h202 m-232 0 h20 m212 0 h20 m-252 0 q10 0 10 10 m232 0 q0 -10 10 -10 m-242 10 v12 m232 0 v-12 m-232 12 q0 10 10 10 m212 0 q10 0 10 -10 m-222 10 h10 m34 0 h10 m0 0 h10 m48 0 h10 m0 0 h10 m70 0 h10 m20 -32 h10 m92 0 h10 m20 0 h10 m0 0 h194 m-224 0 h20 m204 0 h20 m-244 0 q10 0 10 10 m224 0 q0 -10 10 -10 m-234 10 v12 m224 0 v-12 m-224 12 q0 10 10 10 m204 0 q10 0 10 -10 m-214 10 h10 m26 0 h10 m0 0 h10 m92 0 h10 m0 0 h10 m26 0 h10 m20 -32 h10 m38 0 h10 m0 0 h10 m130 0 h10 m2 0 l2 0 m2 0 l2 0 m2 0 l2 0 m-481 86 l2 0 m2 0 l2 0 m2 0 l2 0 m22 0 h10 m0 0 h402 m-432 0 h20 m412 0 h20 m-452 0 q10 0 10 10 m432 0 q0 -10 10 -10 m-442 10 v12 m432 0 v-12 m-432 12 q0 10 10 10 m412 0 q10 0 10 -10 m-422 10 h10 m58 0 h10 m20 0 h10 m0 0 h104 m-134 0 h20 m114 0 h20 m-154 0 q10 0 10 10 m134 0 q0 -10 10 -10 m-144 10 v12 m134 0 v-12 m-134 12 q0 10 10 10 m114 0 q10 0 10 -10 m-124 10 h10 m94 0 h10 m-124 -10 v20 m134 0 v-20 m-134 20 v24 m134 0 v-24 m-134 24 q0 10 10 10 m114 0 q10 0 10 -10 m-124 10 h10 m64 0 h10 m0 0 h30 m20 -76 h10 m64 0 h10 m0 0 h10 m76 0 h10 m23 -32 h-3"/>
   <polygon points="835 519 843 515 843 523"/>
   <polygon points="835 519 827 515 827 523"/>
</svg>
