<?xml version="1.0" encoding="UTF-8"?>
<svg xmlns="http://www.w3.org/2000/svg" width="1367" height="167">
   <defs>
      <style type="text/css">
    @namespace "http://www.w3.org/2000/svg";
    .line                 {fill: none; stroke: #332900; stroke-width: 1;}
    .bold-line            {stroke: #141000; shape-rendering: crispEdges; stroke-width: 2;}
    .thin-line            {stroke: #1F1800; shape-rendering: crispEdges}
    .filled               {fill: #332900; stroke: none;}
    text.terminal         {font-family: Verdana, Sans-serif;
                            font-size: 12px;
                            fill: #141000;
                            font-weight: bold;
                          }
    text.nonterminal      {font-family: Verdana, Sans-serif;
                            font-size: 12px;
                            fill: #1A1400;
                            font-weight: normal;
                          }
    text.regexp           {font-family: Verdana, Sans-serif;
                            font-size: 12px;
                            fill: #1F1800;
                            font-weight: normal;
                          }
    rect, circle, polygon {fill: #332900; stroke: #332900;}
    rect.terminal         {fill: #FFDB4D; stroke: #332900; stroke-width: 1;}
    rect.nonterminal      {fill: #FFEC9E; stroke: #332900; stroke-width: 1;}
    rect.text             {fill: none; stroke: none;}
    polygon.regexp        {fill: #FFF4C7; stroke: #332900; stroke-width: 1;}
  </style>
   </defs>
   <polygon points="9 33 1 29 1 37"/>
   <polygon points="17 33 9 29 9 37"/>
   <rect x="51" y="19" width="38" height="32" rx="10"/>
   <rect x="49"
         y="17"
         width="38"
         height="32"
         class="terminal"
         rx="10"/>
   <text class="terminal" x="59" y="37">AT</text>
   <a xmlns:xlink="http://www.w3.org/1999/xlink"
      xlink:href="#timestamp"
      xlink:title="timestamp">
      <rect x="109" y="19" width="88" height="32"/>
      <rect x="107" y="17" width="88" height="32" class="nonterminal"/>
      <text class="nonterminal" x="117" y="37">timestamp</text>
   </a>
   <rect x="257" y="19" width="30" height="32" rx="10"/>
   <rect x="255"
         y="17"
         width="30"
         height="32"
         class="terminal"
         rx="10"/>
   <text class="terminal" x="265" y="37">+</text>
   <rect x="307" y="19" width="88" height="32" rx="10"/>
   <rect x="305"
         y="17"
         width="88"
         height="32"
         class="terminal"
         rx="10"/>
   <text class="terminal" x="315" y="37">INTERVAL</text>
   <a xmlns:xlink="http://www.w3.org/1999/xlink"
      xlink:href="#interval"
      xlink:title="interval">
      <rect x="415" y="19" width="68" height="32"/>
      <rect x="413" y="17" width="68" height="32" class="nonterminal"/>
      <text class="nonterminal" x="423" y="37">interval</text>
   </a>
   <rect x="51" y="101" width="64" height="32" rx="10"/>
   <rect x="49"
         y="99"
         width="64"
         height="32"
         class="terminal"
         rx="10"/>
   <text class="terminal" x="59" y="119">EVERY</text>
   <a xmlns:xlink="http://www.w3.org/1999/xlink"
      xlink:href="#interval"
      xlink:title="interval">
      <rect x="135" y="101" width="68" height="32"/>
      <rect x="133" y="99" width="68" height="32" class="nonterminal"/>
      <text class="nonterminal" x="143" y="119">interval</text>
   </a>
   <rect x="243" y="101" width="72" height="32" rx="10"/>
   <rect x="241"
         y="99"
         width="72"
         height="32"
         class="terminal"
         rx="10"/>
   <text class="terminal" x="251" y="119">STARTS</text>
   <a xmlns:xlink="http://www.w3.org/1999/xlink"
      xlink:href="#timestamp"
      xlink:title="timestamp">
      <rect x="335" y="101" width="88" height="32"/>
      <rect x="333" y="99" width="88" height="32" class="nonterminal"/>
      <text class="nonterminal" x="343" y="119">timestamp</text>
   </a>
   <rect x="483" y="101" width="30" height="32" rx="10"/>
   <rect x="481"
         y="99"
         width="30"
         height="32"
         class="terminal"
         rx="10"/>
   <text class="terminal" x="491" y="119">+</text>
   <rect x="533" y="101" width="88" height="32" rx="10"/>
   <rect x="531"
         y="99"
         width="88"
         height="32"
         class="terminal"
         rx="10"/>
   <text class="terminal" x="541" y="119">INTERVAL</text>
   <a xmlns:xlink="http://www.w3.org/1999/xlink"
      xlink:href="#interval"
      xlink:title="interval">
      <rect x="641" y="101" width="68" height="32"/>
      <rect x="639" y="99" width="68" height="32" class="nonterminal"/>
      <text class="nonterminal" x="649" y="119">interval</text>
   </a>
   <rect x="809" y="101" width="56" height="32" rx="10"/>
   <rect x="807"
         y="99"
         width="56"
         height="32"
         class="terminal"
         rx="10"/>
   <text class="terminal" x="817" y="119">ENDS</text>
   <a xmlns:xlink="http://www.w3.org/1999/xlink"
      xlink:href="#timestamp"
      xlink:title="timestamp">
      <rect x="885" y="101" width="88" height="32"/>
      <rect x="883" y="99" width="88" height="32" class="nonterminal"/>
      <text class="nonterminal" x="893" y="119">timestamp</text>
   </a>
   <rect x="1033" y="101" width="30" height="32" rx="10"/>
   <rect x="1031"
         y="99"
         width="30"
         height="32"
         class="terminal"
         rx="10"/>
   <text class="terminal" x="1041" y="119">+</text>
   <rect x="1083" y="101" width="88" height="32" rx="10"/>
   <rect x="1081"
         y="99"
         width="88"
         height="32"
         class="terminal"
         rx="10"/>
   <text class="terminal" x="1091" y="119">INTERVAL</text>
   <a xmlns:xlink="http://www.w3.org/1999/xlink"
      xlink:href="#interval"
      xlink:title="interval">
      <rect x="1191" y="101" width="68" height="32"/>
      <rect x="1189" y="99" width="68" height="32" class="nonterminal"/>
      <text class="nonterminal" x="1199" y="119">interval</text>
   </a>
   <path class="line"
         d="m17 33 h2 m20 0 h10 m38 0 h10 m0 0 h10 m88 0 h10 m40 0 h10 m30 0 h10 m0 0 h10 m88 0 h10 m0 0 h10 m68 0 h10 m-266 0 l20 0 m-1 0 q-9 0 -9 -10 l0 -12 q0 -10 10 -10 m246 32 l20 0 m-20 0 q10 0 10 -10 l0 -12 q0 -10 -10 -10 m-246 0 h10 m0 0 h236 m-286 32 h20 m286 0 h20 m-326 0 q10 0 10 10 m306 0 q0 -10 10 -10 m-316 10 v14 m306 0 v-14 m-306 14 q0 10 10 10 m286 0 q10 0 10 -10 m-296 10 h10 m0 0 h276 m20 -34 h796 m-1308 0 h20 m1288 0 h20 m-1328 0 q10 0 10 10 m1308 0 q0 -10 10 -10 m-1318 10 v62 m1308 0 v-62 m-1308 62 q0 10 10 10 m1288 0 q10 0 10 -10 m-1298 10 h10 m64 0 h10 m0 0 h10 m68 0 h10 m20 0 h10 m72 0 h10 m0 0 h10 m88 0 h10 m40 0 h10 m30 0 h10 m0 0 h10 m88 0 h10 m0 0 h10 m68 0 h10 m-266 0 l20 0 m-1 0 q-9 0 -9 -10 l0 -12 q0 -10 10 -10 m246 32 l20 0 m-20 0 q10 0 10 -10 l0 -12 q0 -10 -10 -10 m-246 0 h10 m0 0 h236 m-286 32 h20 m286 0 h20 m-326 0 q10 0 10 10 m306 0 q0 -10 10 -10 m-316 10 v14 m306 0 v-14 m-306 14 q0 10 10 10 m286 0 q10 0 10 -10 m-296 10 h10 m0 0 h276 m-526 -34 h20 m526 0 h20 m-566 0 q10 0 10 10 m546 0 q0 -10 10 -10 m-556 10 v30 m546 0 v-30 m-546 30 q0 10 10 10 m526 0 q10 0 10 -10 m-536 10 h10 m0 0 h516 m40 -50 h10 m56 0 h10 m0 0 h10 m88 0 h10 m40 0 h10 m30 0 h10 m0 0 h10 m88 0 h10 m0 0 h10 m68 0 h10 m-266 0 l20 0 m-1 0 q-9 0 -9 -10 l0 -12 q0 -10 10 -10 m246 32 l20 0 m-20 0 q10 0 10 -10 l0 -12 q0 -10 -10 -10 m-246 0 h10 m0 0 h236 m-286 32 h20 m286 0 h20 m-326 0 q10 0 10 10 m306 0 q0 -10 10 -10 m-316 10 v14 m306 0 v-14 m-306 14 q0 10 10 10 m286 0 q10 0 10 -10 m-296 10 h10 m0 0 h276 m-510 -34 h20 m510 0 h20 m-550 0 q10 0 10 10 m530 0 q0 -10 10 -10 m-540 10 v30 m530 0 v-30 m-530 30 q0 10 10 10 m510 0 q10 0 10 -10 m-520 10 h10 m0 0 h500 m43 -132 h-3"/>
   <polygon points="1357 33 1365 29 1365 37"/>
   <polygon points="1357 33 1349 29 1349 37"/>
</svg>
