<?xml version="1.0" encoding="UTF-8"?>
<svg xmlns="http://www.w3.org/2000/svg" width="941" height="517">
   <defs>
      <style type="text/css">
    @namespace "http://www.w3.org/2000/svg";
    .line                 {fill: none; stroke: #332900; stroke-width: 1;}
    .bold-line            {stroke: #141000; shape-rendering: crispEdges; stroke-width: 2;}
    .thin-line            {stroke: #1F1800; shape-rendering: crispEdges}
    .filled               {fill: #332900; stroke: none;}
    text.terminal         {font-family: Verdana, Sans-serif;
                            font-size: 12px;
                            fill: #141000;
                            font-weight: bold;
                          }
    text.nonterminal      {font-family: Verdana, Sans-serif;
                            font-size: 12px;
                            fill: #1A1400;
                            font-weight: normal;
                          }
    text.regexp           {font-family: Verdana, Sans-serif;
                            font-size: 12px;
                            fill: #1F1800;
                            font-weight: normal;
                          }
    rect, circle, polygon {fill: #332900; stroke: #332900;}
    rect.terminal         {fill: #FFDB4D; stroke: #332900; stroke-width: 1;}
    rect.nonterminal      {fill: #FFEC9E; stroke: #332900; stroke-width: 1;}
    rect.text             {fill: none; stroke: none;}
    polygon.regexp        {fill: #FFF4C7; stroke: #332900; stroke-width: 1;}
  </style>
   </defs>
   <polygon points="9 17 1 13 1 21"/>
   <polygon points="17 17 9 13 9 21"/>
   <rect x="31" y="3" width="72" height="32" rx="10"/>
   <rect x="29"
         y="1"
         width="72"
         height="32"
         class="terminal"
         rx="10"/>
   <text class="terminal" x="39" y="21">CREATE</text>
   <rect x="143" y="35" width="40" height="32" rx="10"/>
   <rect x="141"
         y="33"
         width="40"
         height="32"
         class="terminal"
         rx="10"/>
   <text class="terminal" x="151" y="53">OR</text>
   <rect x="203" y="35" width="80" height="32" rx="10"/>
   <rect x="201"
         y="33"
         width="80"
         height="32"
         class="terminal"
         rx="10"/>
   <text class="terminal" x="211" y="53">REPLACE</text>
   <rect x="343" y="35" width="74" height="32" rx="10"/>
   <rect x="341"
         y="33"
         width="74"
         height="32"
         class="terminal"
         rx="10"/>
   <text class="terminal" x="351" y="53">UNIQUE</text>
   <rect x="343" y="79" width="86" height="32" rx="10"/>
   <rect x="341"
         y="77"
         width="86"
         height="32"
         class="terminal"
         rx="10"/>
   <text class="terminal" x="351" y="97">FULLTEXT</text>
   <rect x="343" y="123" width="78" height="32" rx="10"/>
   <rect x="341"
         y="121"
         width="78"
         height="32"
         class="terminal"
         rx="10"/>
   <text class="terminal" x="351" y="141">SPATIAL</text>
   <rect x="343" y="167" width="74" height="32" rx="10"/>
   <rect x="341"
         y="165"
         width="74"
         height="32"
         class="terminal"
         rx="10"/>
   <text class="terminal" x="351" y="185">VECTOR</text>
   <rect x="469" y="3" width="64" height="32" rx="10"/>
   <rect x="467"
         y="1"
         width="64"
         height="32"
         class="terminal"
         rx="10"/>
   <text class="terminal" x="477" y="21">INDEX</text>
   <rect x="573" y="35" width="34" height="32" rx="10"/>
   <rect x="571"
         y="33"
         width="34"
         height="32"
         class="terminal"
         rx="10"/>
   <text class="terminal" x="581" y="53">IF</text>
   <rect x="627" y="35" width="48" height="32" rx="10"/>
   <rect x="625"
         y="33"
         width="48"
         height="32"
         class="terminal"
         rx="10"/>
   <text class="terminal" x="635" y="53">NOT</text>
   <rect x="695" y="35" width="70" height="32" rx="10"/>
   <rect x="693"
         y="33"
         width="70"
         height="32"
         class="terminal"
         rx="10"/>
   <text class="terminal" x="703" y="53">EXISTS</text>
   <a xmlns:xlink="http://www.w3.org/1999/xlink"
      xlink:href="#index_name"
      xlink:title="index_name">
      <rect x="805" y="3" width="98" height="32"/>
      <rect x="803" y="1" width="98" height="32" class="nonterminal"/>
      <text class="nonterminal" x="813" y="21">index_name</text>
   </a>
   <a xmlns:xlink="http://www.w3.org/1999/xlink"
      xlink:href="#index_type"
      xlink:title="index_type">
      <rect x="45" y="309" width="90" height="32"/>
      <rect x="43" y="307" width="90" height="32" class="nonterminal"/>
      <text class="nonterminal" x="53" y="327">index_type</text>
   </a>
   <rect x="175" y="277" width="40" height="32" rx="10"/>
   <rect x="173"
         y="275"
         width="40"
         height="32"
         class="terminal"
         rx="10"/>
   <text class="terminal" x="183" y="295">ON</text>
   <a xmlns:xlink="http://www.w3.org/1999/xlink"
      xlink:href="#tbl_name"
      xlink:title="tbl_name">
      <rect x="235" y="277" width="80" height="32"/>
      <rect x="233" y="275" width="80" height="32" class="nonterminal"/>
      <text class="nonterminal" x="243" y="295">tbl_name</text>
   </a>
   <rect x="335" y="277" width="26" height="32" rx="10"/>
   <rect x="333"
         y="275"
         width="26"
         height="32"
         class="terminal"
         rx="10"/>
   <text class="terminal" x="343" y="295">(</text>
   <a xmlns:xlink="http://www.w3.org/1999/xlink"
      xlink:href="#index_col_name"
      xlink:title="index_col_name">
      <rect x="401" y="277" width="124" height="32"/>
      <rect x="399" y="275" width="124" height="32" class="nonterminal"/>
      <text class="nonterminal" x="409" y="295">index_col_name</text>
   </a>
   <rect x="401" y="233" width="24" height="32" rx="10"/>
   <rect x="399"
         y="231"
         width="24"
         height="32"
         class="terminal"
         rx="10"/>
   <text class="terminal" x="409" y="251">,</text>
   <rect x="565" y="277" width="26" height="32" rx="10"/>
   <rect x="563"
         y="275"
         width="26"
         height="32"
         class="terminal"
         rx="10"/>
   <text class="terminal" x="573" y="295">)</text>
   <rect x="631" y="309" width="58" height="32" rx="10"/>
   <rect x="629"
         y="307"
         width="58"
         height="32"
         class="terminal"
         rx="10"/>
   <text class="terminal" x="639" y="327">WAIT</text>
   <a xmlns:xlink="http://www.w3.org/1999/xlink"
      xlink:href="#n"
      xlink:title="n">
      <rect x="709" y="309" width="28" height="32"/>
      <rect x="707" y="307" width="28" height="32" class="nonterminal"/>
      <text class="nonterminal" x="717" y="327">n</text>
   </a>
   <rect x="631" y="353" width="78" height="32" rx="10"/>
   <rect x="629"
         y="351"
         width="78"
         height="32"
         class="terminal"
         rx="10"/>
   <text class="terminal" x="639" y="371">NOWAIT</text>
   <a xmlns:xlink="http://www.w3.org/1999/xlink"
      xlink:href="#index_option"
      xlink:title="index_option">
      <rect x="797" y="309" width="102" height="32"/>
      <rect x="795" y="307" width="102" height="32" class="nonterminal"/>
      <text class="nonterminal" x="805" y="327">index_option</text>
   </a>
   <a xmlns:xlink="http://www.w3.org/1999/xlink"
      xlink:href="#algorithm_option"
      xlink:title="algorithm_option">
      <rect x="765" y="463" width="128" height="32"/>
      <rect x="763" y="461" width="128" height="32" class="nonterminal"/>
      <text class="nonterminal" x="773" y="481">algorithm_option</text>
   </a>
   <a xmlns:xlink="http://www.w3.org/1999/xlink"
      xlink:href="#lock_option"
      xlink:title="lock_option">
      <rect x="765" y="419" width="92" height="32"/>
      <rect x="763" y="417" width="92" height="32" class="nonterminal"/>
      <text class="nonterminal" x="773" y="437">lock_option</text>
   </a>
   <path class="line"
         d="m17 17 h2 m0 0 h10 m72 0 h10 m20 0 h10 m0 0 h150 m-180 0 h20 m160 0 h20 m-200 0 q10 0 10 10 m180 0 q0 -10 10 -10 m-190 10 v12 m180 0 v-12 m-180 12 q0 10 10 10 m160 0 q10 0 10 -10 m-170 10 h10 m40 0 h10 m0 0 h10 m80 0 h10 m40 -32 h10 m0 0 h96 m-126 0 h20 m106 0 h20 m-146 0 q10 0 10 10 m126 0 q0 -10 10 -10 m-136 10 v12 m126 0 v-12 m-126 12 q0 10 10 10 m106 0 q10 0 10 -10 m-116 10 h10 m74 0 h10 m0 0 h12 m-116 -10 v20 m126 0 v-20 m-126 20 v24 m126 0 v-24 m-126 24 q0 10 10 10 m106 0 q10 0 10 -10 m-116 10 h10 m86 0 h10 m-116 -10 v20 m126 0 v-20 m-126 20 v24 m126 0 v-24 m-126 24 q0 10 10 10 m106 0 q10 0 10 -10 m-116 10 h10 m78 0 h10 m0 0 h8 m-116 -10 v20 m126 0 v-20 m-126 20 v24 m126 0 v-24 m-126 24 q0 10 10 10 m106 0 q10 0 10 -10 m-116 10 h10 m74 0 h10 m0 0 h12 m20 -164 h10 m64 0 h10 m20 0 h10 m0 0 h202 m-232 0 h20 m212 0 h20 m-252 0 q10 0 10 10 m232 0 q0 -10 10 -10 m-242 10 v12 m232 0 v-12 m-232 12 q0 10 10 10 m212 0 q10 0 10 -10 m-222 10 h10 m34 0 h10 m0 0 h10 m48 0 h10 m0 0 h10 m70 0 h10 m20 -32 h10 m98 0 h10 m2 0 l2 0 m2 0 l2 0 m2 0 l2 0 m-922 274 l2 0 m2 0 l2 0 m2 0 l2 0 m22 0 h10 m0 0 h100 m-130 0 h20 m110 0 h20 m-150 0 q10 0 10 10 m130 0 q0 -10 10 -10 m-140 10 v12 m130 0 v-12 m-130 12 q0 10 10 10 m110 0 q10 0 10 -10 m-120 10 h10 m90 0 h10 m20 -32 h10 m40 0 h10 m0 0 h10 m80 0 h10 m0 0 h10 m26 0 h10 m20 0 h10 m124 0 h10 m-164 0 l20 0 m-1 0 q-9 0 -9 -10 l0 -24 q0 -10 10 -10 m144 44 l20 0 m-20 0 q10 0 10 -10 l0 -24 q0 -10 -10 -10 m-144 0 h10 m24 0 h10 m0 0 h100 m20 44 h10 m26 0 h10 m20 0 h10 m0 0 h116 m-146 0 h20 m126 0 h20 m-166 0 q10 0 10 10 m146 0 q0 -10 10 -10 m-156 10 v12 m146 0 v-12 m-146 12 q0 10 10 10 m126 0 q10 0 10 -10 m-136 10 h10 m58 0 h10 m0 0 h10 m28 0 h10 m-136 -10 v20 m146 0 v-20 m-146 20 v24 m146 0 v-24 m-146 24 q0 10 10 10 m126 0 q10 0 10 -10 m-136 10 h10 m78 0 h10 m0 0 h28 m40 -76 h10 m0 0 h112 m-142 0 h20 m122 0 h20 m-162 0 q10 0 10 10 m142 0 q0 -10 10 -10 m-152 10 v12 m142 0 v-12 m-142 12 q0 10 10 10 m122 0 q10 0 10 -10 m-132 10 h10 m102 0 h10 m22 -32 l2 0 m2 0 l2 0 m2 0 l2 0 m-218 220 l2 0 m2 0 l2 0 m2 0 l2 0 m22 0 h10 m0 0 h138 m-168 0 l20 0 m-1 0 q-9 0 -9 -10 l0 -14 q0 -10 10 -10 m148 34 l20 0 m-20 0 q10 0 10 -10 l0 -14 q0 -10 -10 -10 m-148 0 h10 m128 0 h10 m-158 10 l0 -44 q0 -10 10 -10 m158 54 l0 -44 q0 -10 -10 -10 m-148 0 h10 m92 0 h10 m0 0 h36 m23 78 h-3"/>
   <polygon points="931 511 939 507 939 515"/>
   <polygon points="931 511 923 507 923 515"/>
</svg>
