<?xml version="1.0" encoding="UTF-8"?>
<svg xmlns="http://www.w3.org/2000/svg" width="665" height="221">
   <defs>
      <style type="text/css">
    @namespace "http://www.w3.org/2000/svg";
    .line                 {fill: none; stroke: #332900; stroke-width: 1;}
    .bold-line            {stroke: #141000; shape-rendering: crispEdges; stroke-width: 2;}
    .thin-line            {stroke: #1F1800; shape-rendering: crispEdges}
    .filled               {fill: #332900; stroke: none;}
    text.terminal         {font-family: Verdana, Sans-serif;
                            font-size: 12px;
                            fill: #141000;
                            font-weight: bold;
                          }
    text.nonterminal      {font-family: Verdana, Sans-serif;
                            font-size: 12px;
                            fill: #1A1400;
                            font-weight: normal;
                          }
    text.regexp           {font-family: Verdana, Sans-serif;
                            font-size: 12px;
                            fill: #1F1800;
                            font-weight: normal;
                          }
    rect, circle, polygon {fill: #332900; stroke: #332900;}
    rect.terminal         {fill: #FFDB4D; stroke: #332900; stroke-width: 1;}
    rect.nonterminal      {fill: #FFEC9E; stroke: #332900; stroke-width: 1;}
    rect.text             {fill: none; stroke: none;}
    polygon.regexp        {fill: #FFF4C7; stroke: #332900; stroke-width: 1;}
  </style>
   </defs>
   <polygon points="9 17 1 13 1 21"/>
   <polygon points="17 17 9 13 9 21"/>
   <rect x="71" y="35" width="80" height="32" rx="10"/>
   <rect x="69"
         y="33"
         width="80"
         height="32"
         class="terminal"
         rx="10"/>
   <text class="terminal" x="79" y="53">DEFAULT</text>
   <rect x="211" y="3" width="102" height="32" rx="10"/>
   <rect x="209"
         y="1"
         width="102"
         height="32"
         class="terminal"
         rx="10"/>
   <text class="terminal" x="219" y="21">CHARACTER</text>
   <rect x="333" y="3" width="44" height="32" rx="10"/>
   <rect x="331"
         y="1"
         width="44"
         height="32"
         class="terminal"
         rx="10"/>
   <text class="terminal" x="341" y="21">SET</text>
   <rect x="417" y="35" width="30" height="32" rx="10"/>
   <rect x="415"
         y="33"
         width="30"
         height="32"
         class="terminal"
         rx="10"/>
   <text class="terminal" x="425" y="53">=</text>
   <a xmlns:xlink="http://www.w3.org/1999/xlink"
      xlink:href="#charset_name"
      xlink:title="charset_name">
      <rect x="487" y="3" width="110" height="32"/>
      <rect x="485" y="1" width="110" height="32" class="nonterminal"/>
      <text class="nonterminal" x="495" y="21">charset_name</text>
   </a>
   <rect x="211" y="79" width="82" height="32" rx="10"/>
   <rect x="209"
         y="77"
         width="82"
         height="32"
         class="terminal"
         rx="10"/>
   <text class="terminal" x="219" y="97">COLLATE</text>
   <rect x="333" y="111" width="30" height="32" rx="10"/>
   <rect x="331"
         y="109"
         width="30"
         height="32"
         class="terminal"
         rx="10"/>
   <text class="terminal" x="341" y="129">=</text>
   <a xmlns:xlink="http://www.w3.org/1999/xlink"
      xlink:href="#collation_name"
      xlink:title="collation_name">
      <rect x="403" y="79" width="116" height="32"/>
      <rect x="401" y="77" width="116" height="32" class="nonterminal"/>
      <text class="nonterminal" x="411" y="97">collation_name</text>
   </a>
   <rect x="51" y="155" width="88" height="32" rx="10"/>
   <rect x="49"
         y="153"
         width="88"
         height="32"
         class="terminal"
         rx="10"/>
   <text class="terminal" x="59" y="173">COMMENT</text>
   <rect x="179" y="187" width="30" height="32" rx="10"/>
   <rect x="177"
         y="185"
         width="30"
         height="32"
         class="terminal"
         rx="10"/>
   <text class="terminal" x="187" y="205">=</text>
   <a xmlns:xlink="http://www.w3.org/1999/xlink"
      xlink:href="#comment"
      xlink:title="comment">
      <rect x="249" y="155" width="78" height="32"/>
      <rect x="247" y="153" width="78" height="32" class="nonterminal"/>
      <text class="nonterminal" x="257" y="173">comment</text>
   </a>
   <path class="line"
         d="m17 17 h2 m40 0 h10 m0 0 h90 m-120 0 h20 m100 0 h20 m-140 0 q10 0 10 10 m120 0 q0 -10 10 -10 m-130 10 v12 m120 0 v-12 m-120 12 q0 10 10 10 m100 0 q10 0 10 -10 m-110 10 h10 m80 0 h10 m40 -32 h10 m102 0 h10 m0 0 h10 m44 0 h10 m20 0 h10 m0 0 h40 m-70 0 h20 m50 0 h20 m-90 0 q10 0 10 10 m70 0 q0 -10 10 -10 m-80 10 v12 m70 0 v-12 m-70 12 q0 10 10 10 m50 0 q10 0 10 -10 m-60 10 h10 m30 0 h10 m20 -32 h10 m110 0 h10 m-426 0 h20 m406 0 h20 m-446 0 q10 0 10 10 m426 0 q0 -10 10 -10 m-436 10 v56 m426 0 v-56 m-426 56 q0 10 10 10 m406 0 q10 0 10 -10 m-416 10 h10 m82 0 h10 m20 0 h10 m0 0 h40 m-70 0 h20 m50 0 h20 m-90 0 q10 0 10 10 m70 0 q0 -10 10 -10 m-80 10 v12 m70 0 v-12 m-70 12 q0 10 10 10 m50 0 q10 0 10 -10 m-60 10 h10 m30 0 h10 m20 -32 h10 m116 0 h10 m0 0 h78 m-586 -76 h20 m586 0 h20 m-626 0 q10 0 10 10 m606 0 q0 -10 10 -10 m-616 10 v132 m606 0 v-132 m-606 132 q0 10 10 10 m586 0 q10 0 10 -10 m-596 10 h10 m88 0 h10 m20 0 h10 m0 0 h40 m-70 0 h20 m50 0 h20 m-90 0 q10 0 10 10 m70 0 q0 -10 10 -10 m-80 10 v12 m70 0 v-12 m-70 12 q0 10 10 10 m50 0 q10 0 10 -10 m-60 10 h10 m30 0 h10 m20 -32 h10 m78 0 h10 m0 0 h290 m23 -152 h-3"/>
   <polygon points="655 17 663 13 663 21"/>
   <polygon points="655 17 647 13 647 21"/>
</svg>
