<?xml version="1.0" encoding="UTF-8"?>
<svg xmlns="http://www.w3.org/2000/svg" width="559" height="213">
   <defs>
      <style type="text/css">
    @namespace "http://www.w3.org/2000/svg";
    .line                 {fill: none; stroke: #332900; stroke-width: 1;}
    .bold-line            {stroke: #141000; shape-rendering: crispEdges; stroke-width: 2;}
    .thin-line            {stroke: #1F1800; shape-rendering: crispEdges}
    .filled               {fill: #332900; stroke: none;}
    text.terminal         {font-family: Verdana, Sans-serif;
                            font-size: 12px;
                            fill: #141000;
                            font-weight: bold;
                          }
    text.nonterminal      {font-family: Verdana, Sans-serif;
                            font-size: 12px;
                            fill: #1A1400;
                            font-weight: normal;
                          }
    text.regexp           {font-family: Verdana, Sans-serif;
                            font-size: 12px;
                            fill: #1F1800;
                            font-weight: normal;
                          }
    rect, circle, polygon {fill: #332900; stroke: #332900;}
    rect.terminal         {fill: #FFDB4D; stroke: #332900; stroke-width: 1;}
    rect.nonterminal      {fill: #FFEC9E; stroke: #332900; stroke-width: 1;}
    rect.text             {fill: none; stroke: none;}
    polygon.regexp        {fill: #FFF4C7; stroke: #332900; stroke-width: 1;}
  </style>
   </defs>
   <polygon points="9 17 1 13 1 21"/>
   <polygon points="17 17 9 13 9 21"/>
   <rect x="31" y="3" width="102" height="32" rx="10"/>
   <rect x="29"
         y="1"
         width="102"
         height="32"
         class="terminal"
         rx="10"/>
   <text class="terminal" x="39" y="21">IDENTIFIED</text>
   <rect x="173" y="3" width="38" height="32" rx="10"/>
   <rect x="171"
         y="1"
         width="38"
         height="32"
         class="terminal"
         rx="10"/>
   <text class="terminal" x="181" y="21">BY</text>
   <a xmlns:xlink="http://www.w3.org/1999/xlink"
      xlink:href="#password"
      xlink:title="password">
      <rect x="251" y="3" width="80" height="32"/>
      <rect x="249" y="1" width="80" height="32" class="nonterminal"/>
      <text class="nonterminal" x="259" y="21">password</text>
   </a>
   <rect x="251" y="47" width="100" height="32" rx="10"/>
   <rect x="249"
         y="45"
         width="100"
         height="32"
         class="terminal"
         rx="10"/>
   <text class="terminal" x="259" y="65">PASSWORD</text>
   <a xmlns:xlink="http://www.w3.org/1999/xlink"
      xlink:href="#password_hash"
      xlink:title="password_hash">
      <rect x="371" y="47" width="120" height="32"/>
      <rect x="369" y="45" width="120" height="32" class="nonterminal"/>
      <text class="nonterminal" x="379" y="65">password_hash</text>
   </a>
   <rect x="193" y="135" width="44" height="32" rx="10"/>
   <rect x="191"
         y="133"
         width="44"
         height="32"
         class="terminal"
         rx="10"/>
   <text class="terminal" x="201" y="153">VIA</text>
   <rect x="193" y="179" width="58" height="32" rx="10"/>
   <rect x="191"
         y="177"
         width="58"
         height="32"
         class="terminal"
         rx="10"/>
   <text class="terminal" x="201" y="197">WITH</text>
   <a xmlns:xlink="http://www.w3.org/1999/xlink"
      xlink:href="#authentication_rule"
      xlink:title="authentication_rule">
      <rect x="311" y="135" width="144" height="32"/>
      <rect x="309" y="133" width="144" height="32" class="nonterminal"/>
      <text class="nonterminal" x="319" y="153">authentication_rule</text>
   </a>
   <rect x="311" y="91" width="40" height="32" rx="10"/>
   <rect x="309"
         y="89"
         width="40"
         height="32"
         class="terminal"
         rx="10"/>
   <text class="terminal" x="319" y="109">OR</text>
   <path class="line"
         d="m17 17 h2 m0 0 h10 m102 0 h10 m20 0 h10 m38 0 h10 m20 0 h10 m80 0 h10 m0 0 h160 m-280 0 h20 m260 0 h20 m-300 0 q10 0 10 10 m280 0 q0 -10 10 -10 m-290 10 v24 m280 0 v-24 m-280 24 q0 10 10 10 m260 0 q10 0 10 -10 m-270 10 h10 m100 0 h10 m0 0 h10 m120 0 h10 m-358 -44 h20 m358 0 h20 m-398 0 q10 0 10 10 m378 0 q0 -10 10 -10 m-388 10 v112 m378 0 v-112 m-378 112 q0 10 10 10 m358 0 q10 0 10 -10 m-348 10 h10 m44 0 h10 m0 0 h14 m-98 0 h20 m78 0 h20 m-118 0 q10 0 10 10 m98 0 q0 -10 10 -10 m-108 10 v24 m98 0 v-24 m-98 24 q0 10 10 10 m78 0 q10 0 10 -10 m-88 10 h10 m58 0 h10 m40 -44 h10 m144 0 h10 m-184 0 l20 0 m-1 0 q-9 0 -9 -10 l0 -24 q0 -10 10 -10 m164 44 l20 0 m-20 0 q10 0 10 -10 l0 -24 q0 -10 -10 -10 m-164 0 h10 m40 0 h10 m0 0 h104 m20 44 h36 m23 -132 h-3"/>
   <polygon points="549 17 557 13 557 21"/>
   <polygon points="549 17 541 13 541 21"/>
</svg>
