<?xml version="1.0" encoding="UTF-8"?>
<svg xmlns="http://www.w3.org/2000/svg" width="331" height="653">
   <defs>
      <style type="text/css">
    @namespace "http://www.w3.org/2000/svg";
    .line                 {fill: none; stroke: #332900; stroke-width: 1;}
    .bold-line            {stroke: #141000; shape-rendering: crispEdges; stroke-width: 2;}
    .thin-line            {stroke: #1F1800; shape-rendering: crispEdges}
    .filled               {fill: #332900; stroke: none;}
    text.terminal         {font-family: Verdana, Sans-serif;
                            font-size: 12px;
                            fill: #141000;
                            font-weight: bold;
                          }
    text.nonterminal      {font-family: Verdana, Sans-serif;
                            font-size: 12px;
                            fill: #1A1400;
                            font-weight: normal;
                          }
    text.regexp           {font-family: Verdana, Sans-serif;
                            font-size: 12px;
                            fill: #1F1800;
                            font-weight: normal;
                          }
    rect, circle, polygon {fill: #332900; stroke: #332900;}
    rect.terminal         {fill: #FFDB4D; stroke: #332900; stroke-width: 1;}
    rect.nonterminal      {fill: #FFEC9E; stroke: #332900; stroke-width: 1;}
    rect.text             {fill: none; stroke: none;}
    polygon.regexp        {fill: #FFF4C7; stroke: #332900; stroke-width: 1;}
  </style>
   </defs>
   <polygon points="9 17 1 13 1 21"/>
   <polygon points="17 17 9 13 9 21"/>
   <a xmlns:xlink="http://www.w3.org/1999/xlink"
      xlink:href="#quantity"
      xlink:title="quantity">
      <rect x="31" y="3" width="72" height="32"/>
      <rect x="29" y="1" width="72" height="32" class="nonterminal"/>
      <text class="nonterminal" x="39" y="21">quantity</text>
   </a>
   <rect x="143" y="3" width="56" height="32" rx="10"/>
   <rect x="141"
         y="1"
         width="56"
         height="32"
         class="terminal"
         rx="10"/>
   <text class="terminal" x="151" y="21">YEAR</text>
   <rect x="143" y="47" width="84" height="32" rx="10"/>
   <rect x="141"
         y="45"
         width="84"
         height="32"
         class="terminal"
         rx="10"/>
   <text class="terminal" x="151" y="65">QUARTER</text>
   <rect x="143" y="91" width="70" height="32" rx="10"/>
   <rect x="141"
         y="89"
         width="70"
         height="32"
         class="terminal"
         rx="10"/>
   <text class="terminal" x="151" y="109">MONTH</text>
   <rect x="143" y="135" width="48" height="32" rx="10"/>
   <rect x="141"
         y="133"
         width="48"
         height="32"
         class="terminal"
         rx="10"/>
   <text class="terminal" x="151" y="153">DAY</text>
   <rect x="143" y="179" width="60" height="32" rx="10"/>
   <rect x="141"
         y="177"
         width="60"
         height="32"
         class="terminal"
         rx="10"/>
   <text class="terminal" x="151" y="197">HOUR</text>
   <rect x="143" y="223" width="74" height="32" rx="10"/>
   <rect x="141"
         y="221"
         width="74"
         height="32"
         class="terminal"
         rx="10"/>
   <text class="terminal" x="151" y="241">MINUTE</text>
   <rect x="143" y="267" width="60" height="32" rx="10"/>
   <rect x="141"
         y="265"
         width="60"
         height="32"
         class="terminal"
         rx="10"/>
   <text class="terminal" x="151" y="285">WEEK</text>
   <rect x="143" y="311" width="76" height="32" rx="10"/>
   <rect x="141"
         y="309"
         width="76"
         height="32"
         class="terminal"
         rx="10"/>
   <text class="terminal" x="151" y="329">SECOND</text>
   <rect x="143" y="355" width="114" height="32" rx="10"/>
   <rect x="141"
         y="353"
         width="114"
         height="32"
         class="terminal"
         rx="10"/>
   <text class="terminal" x="151" y="373">YEAR_MONTH</text>
   <rect x="143" y="399" width="96" height="32" rx="10"/>
   <rect x="141"
         y="397"
         width="96"
         height="32"
         class="terminal"
         rx="10"/>
   <text class="terminal" x="151" y="417">DAY_HOUR</text>
   <rect x="143" y="443" width="110" height="32" rx="10"/>
   <rect x="141"
         y="441"
         width="110"
         height="32"
         class="terminal"
         rx="10"/>
   <text class="terminal" x="151" y="461">DAY_MINUTE</text>
   <rect x="143" y="487" width="114" height="32" rx="10"/>
   <rect x="141"
         y="485"
         width="114"
         height="32"
         class="terminal"
         rx="10"/>
   <text class="terminal" x="151" y="505">DAY_SECOND</text>
   <rect x="143" y="531" width="122" height="32" rx="10"/>
   <rect x="141"
         y="529"
         width="122"
         height="32"
         class="terminal"
         rx="10"/>
   <text class="terminal" x="151" y="549">HOUR_MINUTE</text>
   <rect x="143" y="575" width="126" height="32" rx="10"/>
   <rect x="141"
         y="573"
         width="126"
         height="32"
         class="terminal"
         rx="10"/>
   <text class="terminal" x="151" y="593">HOUR_SECOND</text>
   <rect x="143" y="619" width="140" height="32" rx="10"/>
   <rect x="141"
         y="617"
         width="140"
         height="32"
         class="terminal"
         rx="10"/>
   <text class="terminal" x="151" y="637">MINUTE_SECOND</text>
   <path class="line"
         d="m17 17 h2 m0 0 h10 m72 0 h10 m20 0 h10 m56 0 h10 m0 0 h84 m-180 0 h20 m160 0 h20 m-200 0 q10 0 10 10 m180 0 q0 -10 10 -10 m-190 10 v24 m180 0 v-24 m-180 24 q0 10 10 10 m160 0 q10 0 10 -10 m-170 10 h10 m84 0 h10 m0 0 h56 m-170 -10 v20 m180 0 v-20 m-180 20 v24 m180 0 v-24 m-180 24 q0 10 10 10 m160 0 q10 0 10 -10 m-170 10 h10 m70 0 h10 m0 0 h70 m-170 -10 v20 m180 0 v-20 m-180 20 v24 m180 0 v-24 m-180 24 q0 10 10 10 m160 0 q10 0 10 -10 m-170 10 h10 m48 0 h10 m0 0 h92 m-170 -10 v20 m180 0 v-20 m-180 20 v24 m180 0 v-24 m-180 24 q0 10 10 10 m160 0 q10 0 10 -10 m-170 10 h10 m60 0 h10 m0 0 h80 m-170 -10 v20 m180 0 v-20 m-180 20 v24 m180 0 v-24 m-180 24 q0 10 10 10 m160 0 q10 0 10 -10 m-170 10 h10 m74 0 h10 m0 0 h66 m-170 -10 v20 m180 0 v-20 m-180 20 v24 m180 0 v-24 m-180 24 q0 10 10 10 m160 0 q10 0 10 -10 m-170 10 h10 m60 0 h10 m0 0 h80 m-170 -10 v20 m180 0 v-20 m-180 20 v24 m180 0 v-24 m-180 24 q0 10 10 10 m160 0 q10 0 10 -10 m-170 10 h10 m76 0 h10 m0 0 h64 m-170 -10 v20 m180 0 v-20 m-180 20 v24 m180 0 v-24 m-180 24 q0 10 10 10 m160 0 q10 0 10 -10 m-170 10 h10 m114 0 h10 m0 0 h26 m-170 -10 v20 m180 0 v-20 m-180 20 v24 m180 0 v-24 m-180 24 q0 10 10 10 m160 0 q10 0 10 -10 m-170 10 h10 m96 0 h10 m0 0 h44 m-170 -10 v20 m180 0 v-20 m-180 20 v24 m180 0 v-24 m-180 24 q0 10 10 10 m160 0 q10 0 10 -10 m-170 10 h10 m110 0 h10 m0 0 h30 m-170 -10 v20 m180 0 v-20 m-180 20 v24 m180 0 v-24 m-180 24 q0 10 10 10 m160 0 q10 0 10 -10 m-170 10 h10 m114 0 h10 m0 0 h26 m-170 -10 v20 m180 0 v-20 m-180 20 v24 m180 0 v-24 m-180 24 q0 10 10 10 m160 0 q10 0 10 -10 m-170 10 h10 m122 0 h10 m0 0 h18 m-170 -10 v20 m180 0 v-20 m-180 20 v24 m180 0 v-24 m-180 24 q0 10 10 10 m160 0 q10 0 10 -10 m-170 10 h10 m126 0 h10 m0 0 h14 m-170 -10 v20 m180 0 v-20 m-180 20 v24 m180 0 v-24 m-180 24 q0 10 10 10 m160 0 q10 0 10 -10 m-170 10 h10 m140 0 h10 m23 -616 h-3"/>
   <polygon points="321 17 329 13 329 21"/>
   <polygon points="321 17 313 13 313 21"/>
</svg>
