<?xml version="1.0" encoding="UTF-8"?>
<svg xmlns="http://www.w3.org/2000/svg" width="855" height="409">
   <defs>
      <style type="text/css">
    @namespace "http://www.w3.org/2000/svg";
    .line                 {fill: none; stroke: #332900; stroke-width: 1;}
    .bold-line            {stroke: #141000; shape-rendering: crispEdges; stroke-width: 2;}
    .thin-line            {stroke: #1F1800; shape-rendering: crispEdges}
    .filled               {fill: #332900; stroke: none;}
    text.terminal         {font-family: Verdana, Sans-serif;
                            font-size: 12px;
                            fill: #141000;
                            font-weight: bold;
                          }
    text.nonterminal      {font-family: Verdana, Sans-serif;
                            font-size: 12px;
                            fill: #1A1400;
                            font-weight: normal;
                          }
    text.regexp           {font-family: Verdana, Sans-serif;
                            font-size: 12px;
                            fill: #1F1800;
                            font-weight: normal;
                          }
    rect, circle, polygon {fill: #332900; stroke: #332900;}
    rect.terminal         {fill: #FFDB4D; stroke: #332900; stroke-width: 1;}
    rect.nonterminal      {fill: #FFEC9E; stroke: #332900; stroke-width: 1;}
    rect.text             {fill: none; stroke: none;}
    polygon.regexp        {fill: #FFF4C7; stroke: #332900; stroke-width: 1;}
  </style>
   </defs>
   <polygon points="9 17 1 13 1 21"/>
   <polygon points="17 17 9 13 9 21"/>
   <rect x="31" y="3" width="72" height="32" rx="10"/>
   <rect x="29"
         y="1"
         width="72"
         height="32"
         class="terminal"
         rx="10"/>
   <text class="terminal" x="39" y="21">CREATE</text>
   <rect x="143" y="35" width="40" height="32" rx="10"/>
   <rect x="141"
         y="33"
         width="40"
         height="32"
         class="terminal"
         rx="10"/>
   <text class="terminal" x="151" y="53">OR</text>
   <rect x="203" y="35" width="80" height="32" rx="10"/>
   <rect x="201"
         y="33"
         width="80"
         height="32"
         class="terminal"
         rx="10"/>
   <text class="terminal" x="211" y="53">REPLACE</text>
   <rect x="343" y="35" width="80" height="32" rx="10"/>
   <rect x="341"
         y="33"
         width="80"
         height="32"
         class="terminal"
         rx="10"/>
   <text class="terminal" x="351" y="53">DEFINER</text>
   <rect x="443" y="35" width="30" height="32" rx="10"/>
   <rect x="441"
         y="33"
         width="30"
         height="32"
         class="terminal"
         rx="10"/>
   <text class="terminal" x="451" y="53">=</text>
   <a xmlns:xlink="http://www.w3.org/1999/xlink"
      xlink:href="#user"
      xlink:title="user">
      <rect x="513" y="35" width="48" height="32"/>
      <rect x="511" y="33" width="48" height="32" class="nonterminal"/>
      <text class="nonterminal" x="521" y="53">user</text>
   </a>
   <rect x="513" y="79" width="128" height="32" rx="10"/>
   <rect x="511"
         y="77"
         width="128"
         height="32"
         class="terminal"
         rx="10"/>
   <text class="terminal" x="521" y="97">CURRENT_USER</text>
   <a xmlns:xlink="http://www.w3.org/1999/xlink"
      xlink:href="#role"
      xlink:title="role">
      <rect x="513" y="123" width="44" height="32"/>
      <rect x="511" y="121" width="44" height="32" class="nonterminal"/>
      <text class="nonterminal" x="521" y="141">role</text>
   </a>
   <rect x="513" y="167" width="130" height="32" rx="10"/>
   <rect x="511"
         y="165"
         width="130"
         height="32"
         class="terminal"
         rx="10"/>
   <text class="terminal" x="521" y="185">CURRENT_ROLE</text>
   <rect x="703" y="3" width="104" height="32" rx="10"/>
   <rect x="701"
         y="1"
         width="104"
         height="32"
         class="terminal"
         rx="10"/>
   <text class="terminal" x="711" y="21">PROCEDURE</text>
   <rect x="45" y="309" width="34" height="32" rx="10"/>
   <rect x="43"
         y="307"
         width="34"
         height="32"
         class="terminal"
         rx="10"/>
   <text class="terminal" x="53" y="327">IF</text>
   <rect x="99" y="309" width="48" height="32" rx="10"/>
   <rect x="97"
         y="307"
         width="48"
         height="32"
         class="terminal"
         rx="10"/>
   <text class="terminal" x="107" y="327">NOT</text>
   <rect x="167" y="309" width="70" height="32" rx="10"/>
   <rect x="165"
         y="307"
         width="70"
         height="32"
         class="terminal"
         rx="10"/>
   <text class="terminal" x="175" y="327">EXISTS</text>
   <a xmlns:xlink="http://www.w3.org/1999/xlink"
      xlink:href="#sp_name"
      xlink:title="sp_name">
      <rect x="277" y="277" width="78" height="32"/>
      <rect x="275" y="275" width="78" height="32" class="nonterminal"/>
      <text class="nonterminal" x="285" y="295">sp_name</text>
   </a>
   <rect x="375" y="277" width="26" height="32" rx="10"/>
   <rect x="373"
         y="275"
         width="26"
         height="32"
         class="terminal"
         rx="10"/>
   <text class="terminal" x="383" y="295">(</text>
   <a xmlns:xlink="http://www.w3.org/1999/xlink"
      xlink:href="#proc_parameter"
      xlink:title="proc_parameter">
      <rect x="461" y="277" width="122" height="32"/>
      <rect x="459" y="275" width="122" height="32" class="nonterminal"/>
      <text class="nonterminal" x="469" y="295">proc_parameter</text>
   </a>
   <rect x="461" y="233" width="24" height="32" rx="10"/>
   <rect x="459"
         y="231"
         width="24"
         height="32"
         class="terminal"
         rx="10"/>
   <text class="terminal" x="469" y="251">,</text>
   <rect x="643" y="277" width="26" height="32" rx="10"/>
   <rect x="641"
         y="275"
         width="26"
         height="32"
         class="terminal"
         rx="10"/>
   <text class="terminal" x="651" y="295">)</text>
   <a xmlns:xlink="http://www.w3.org/1999/xlink"
      xlink:href="#characteristic"
      xlink:title="characteristic">
      <rect x="709" y="243" width="104" height="32"/>
      <rect x="707" y="241" width="104" height="32" class="nonterminal"/>
      <text class="nonterminal" x="717" y="261">characteristic</text>
   </a>
   <a xmlns:xlink="http://www.w3.org/1999/xlink"
      xlink:href="#routine_body"
      xlink:title="routine_body">
      <rect x="723" y="375" width="104" height="32"/>
      <rect x="721" y="373" width="104" height="32" class="nonterminal"/>
      <text class="nonterminal" x="731" y="393">routine_body</text>
   </a>
   <path class="line"
         d="m17 17 h2 m0 0 h10 m72 0 h10 m20 0 h10 m0 0 h150 m-180 0 h20 m160 0 h20 m-200 0 q10 0 10 10 m180 0 q0 -10 10 -10 m-190 10 v12 m180 0 v-12 m-180 12 q0 10 10 10 m160 0 q10 0 10 -10 m-170 10 h10 m40 0 h10 m0 0 h10 m80 0 h10 m40 -32 h10 m0 0 h330 m-360 0 h20 m340 0 h20 m-380 0 q10 0 10 10 m360 0 q0 -10 10 -10 m-370 10 v12 m360 0 v-12 m-360 12 q0 10 10 10 m340 0 q10 0 10 -10 m-350 10 h10 m80 0 h10 m0 0 h10 m30 0 h10 m20 0 h10 m48 0 h10 m0 0 h82 m-170 0 h20 m150 0 h20 m-190 0 q10 0 10 10 m170 0 q0 -10 10 -10 m-180 10 v24 m170 0 v-24 m-170 24 q0 10 10 10 m150 0 q10 0 10 -10 m-160 10 h10 m128 0 h10 m0 0 h2 m-160 -10 v20 m170 0 v-20 m-170 20 v24 m170 0 v-24 m-170 24 q0 10 10 10 m150 0 q10 0 10 -10 m-160 10 h10 m44 0 h10 m0 0 h86 m-160 -10 v20 m170 0 v-20 m-170 20 v24 m170 0 v-24 m-170 24 q0 10 10 10 m150 0 q10 0 10 -10 m-160 10 h10 m130 0 h10 m40 -164 h10 m104 0 h10 m2 0 l2 0 m2 0 l2 0 m2 0 l2 0 m-826 274 l2 0 m2 0 l2 0 m2 0 l2 0 m22 0 h10 m0 0 h202 m-232 0 h20 m212 0 h20 m-252 0 q10 0 10 10 m232 0 q0 -10 10 -10 m-242 10 v12 m232 0 v-12 m-232 12 q0 10 10 10 m212 0 q10 0 10 -10 m-222 10 h10 m34 0 h10 m0 0 h10 m48 0 h10 m0 0 h10 m70 0 h10 m20 -32 h10 m78 0 h10 m0 0 h10 m26 0 h10 m40 0 h10 m122 0 h10 m-162 0 l20 0 m-1 0 q-9 0 -9 -10 l0 -24 q0 -10 10 -10 m142 44 l20 0 m-20 0 q10 0 10 -10 l0 -24 q0 -10 -10 -10 m-142 0 h10 m24 0 h10 m0 0 h98 m-182 44 h20 m182 0 h20 m-222 0 q10 0 10 10 m202 0 q0 -10 10 -10 m-212 10 v14 m202 0 v-14 m-202 14 q0 10 10 10 m182 0 q10 0 10 -10 m-192 10 h10 m0 0 h172 m20 -34 h10 m26 0 h10 m20 0 h10 m0 0 h114 m-144 0 l20 0 m-1 0 q-9 0 -9 -10 l0 -14 q0 -10 10 -10 m124 34 l20 0 m-20 0 q10 0 10 -10 l0 -14 q0 -10 -10 -10 m-124 0 h10 m104 0 h10 m22 34 l2 0 m2 0 l2 0 m2 0 l2 0 m-154 98 l2 0 m2 0 l2 0 m2 0 l2 0 m2 0 h10 m104 0 h10 m3 0 h-3"/>
   <polygon points="845 389 853 385 853 393"/>
   <polygon points="845 389 837 385 837 393"/>
</svg>
