<?xml version="1.0" encoding="UTF-8"?>
<svg xmlns="http://www.w3.org/2000/svg" width="439" height="191">
   <defs>
      <style type="text/css">
    @namespace "http://www.w3.org/2000/svg";
    .line                 {fill: none; stroke: #332900; stroke-width: 1;}
    .bold-line            {stroke: #141000; shape-rendering: crispEdges; stroke-width: 2;}
    .thin-line            {stroke: #1F1800; shape-rendering: crispEdges}
    .filled               {fill: #332900; stroke: none;}
    text.terminal         {font-family: Verdana, Sans-serif;
                            font-size: 12px;
                            fill: #141000;
                            font-weight: bold;
                          }
    text.nonterminal      {font-family: Verdana, Sans-serif;
                            font-size: 12px;
                            fill: #1A1400;
                            font-weight: normal;
                          }
    text.regexp           {font-family: Verdana, Sans-serif;
                            font-size: 12px;
                            fill: #1F1800;
                            font-weight: normal;
                          }
    rect, circle, polygon {fill: #332900; stroke: #332900;}
    rect.terminal         {fill: #FFDB4D; stroke: #332900; stroke-width: 1;}
    rect.nonterminal      {fill: #FFEC9E; stroke: #332900; stroke-width: 1;}
    rect.text             {fill: none; stroke: none;}
    polygon.regexp        {fill: #FFF4C7; stroke: #332900; stroke-width: 1;}
  </style>
   </defs>
   <polygon points="9 17 1 13 1 21"/>
   <polygon points="17 17 9 13 9 21"/>
   <rect x="51" y="3" width="70" height="32" rx="10"/>
   <rect x="49"
         y="1"
         width="70"
         height="32"
         class="terminal"
         rx="10"/>
   <text class="terminal" x="59" y="21">INSERT</text>
   <rect x="51" y="91" width="74" height="32" rx="10"/>
   <rect x="49"
         y="89"
         width="74"
         height="32"
         class="terminal"
         rx="10"/>
   <text class="terminal" x="59" y="109">UPDATE</text>
   <rect x="165" y="91" width="38" height="32" rx="10"/>
   <rect x="163"
         y="89"
         width="38"
         height="32"
         class="terminal"
         rx="10"/>
   <text class="terminal" x="173" y="109">OF</text>
   <a xmlns:xlink="http://www.w3.org/1999/xlink"
      xlink:href="#column_name"
      xlink:title="column_name">
      <rect x="243" y="91" width="108" height="32"/>
      <rect x="241" y="89" width="108" height="32" class="nonterminal"/>
      <text class="nonterminal" x="251" y="109">column_name</text>
   </a>
   <rect x="243" y="47" width="24" height="32" rx="10"/>
   <rect x="241"
         y="45"
         width="24"
         height="32"
         class="terminal"
         rx="10"/>
   <text class="terminal" x="251" y="65">,</text>
   <rect x="51" y="157" width="70" height="32" rx="10"/>
   <rect x="49"
         y="155"
         width="70"
         height="32"
         class="terminal"
         rx="10"/>
   <text class="terminal" x="59" y="175">DELETE</text>
   <path class="line"
         d="m17 17 h2 m20 0 h10 m70 0 h10 m0 0 h270 m-380 0 h20 m360 0 h20 m-400 0 q10 0 10 10 m380 0 q0 -10 10 -10 m-390 10 v68 m380 0 v-68 m-380 68 q0 10 10 10 m360 0 q10 0 10 -10 m-370 10 h10 m74 0 h10 m20 0 h10 m38 0 h10 m20 0 h10 m108 0 h10 m-148 0 l20 0 m-1 0 q-9 0 -9 -10 l0 -24 q0 -10 10 -10 m128 44 l20 0 m-20 0 q10 0 10 -10 l0 -24 q0 -10 -10 -10 m-128 0 h10 m24 0 h10 m0 0 h84 m-226 44 h20 m226 0 h20 m-266 0 q10 0 10 10 m246 0 q0 -10 10 -10 m-256 10 v14 m246 0 v-14 m-246 14 q0 10 10 10 m226 0 q10 0 10 -10 m-236 10 h10 m0 0 h216 m-350 -44 v20 m380 0 v-20 m-380 20 v46 m380 0 v-46 m-380 46 q0 10 10 10 m360 0 q10 0 10 -10 m-370 10 h10 m70 0 h10 m0 0 h270 m23 -154 h-3"/>
   <polygon points="429 17 437 13 437 21"/>
   <polygon points="429 17 421 13 421 21"/>
</svg>
