<?xml version="1.0" encoding="UTF-8"?>
<svg xmlns="http://www.w3.org/2000/svg" width="993" height="485">
   <defs>
      <style type="text/css">
    @namespace "http://www.w3.org/2000/svg";
    .line                 {fill: none; stroke: #332900; stroke-width: 1;}
    .bold-line            {stroke: #141000; shape-rendering: crispEdges; stroke-width: 2;}
    .thin-line            {stroke: #1F1800; shape-rendering: crispEdges}
    .filled               {fill: #332900; stroke: none;}
    text.terminal         {font-family: Verdana, Sans-serif;
                            font-size: 12px;
                            fill: #141000;
                            font-weight: bold;
                          }
    text.nonterminal      {font-family: Verdana, Sans-serif;
                            font-size: 12px;
                            fill: #1A1400;
                            font-weight: normal;
                          }
    text.regexp           {font-family: Verdana, Sans-serif;
                            font-size: 12px;
                            fill: #1F1800;
                            font-weight: normal;
                          }
    rect, circle, polygon {fill: #332900; stroke: #332900;}
    rect.terminal         {fill: #FFDB4D; stroke: #332900; stroke-width: 1;}
    rect.nonterminal      {fill: #FFEC9E; stroke: #332900; stroke-width: 1;}
    rect.text             {fill: none; stroke: none;}
    polygon.regexp        {fill: #FFF4C7; stroke: #332900; stroke-width: 1;}
  </style>
   </defs>
   <polygon points="9 17 1 13 1 21"/>
   <polygon points="17 17 9 13 9 21"/>
   <rect x="31" y="3" width="72" height="32" rx="10"/>
   <rect x="29"
         y="1"
         width="72"
         height="32"
         class="terminal"
         rx="10"/>
   <text class="terminal" x="39" y="21">CREATE</text>
   <rect x="143" y="35" width="40" height="32" rx="10"/>
   <rect x="141"
         y="33"
         width="40"
         height="32"
         class="terminal"
         rx="10"/>
   <text class="terminal" x="151" y="53">OR</text>
   <rect x="203" y="35" width="80" height="32" rx="10"/>
   <rect x="201"
         y="33"
         width="80"
         height="32"
         class="terminal"
         rx="10"/>
   <text class="terminal" x="211" y="53">REPLACE</text>
   <rect x="343" y="35" width="80" height="32" rx="10"/>
   <rect x="341"
         y="33"
         width="80"
         height="32"
         class="terminal"
         rx="10"/>
   <text class="terminal" x="351" y="53">DEFINER</text>
   <rect x="443" y="35" width="30" height="32" rx="10"/>
   <rect x="441"
         y="33"
         width="30"
         height="32"
         class="terminal"
         rx="10"/>
   <text class="terminal" x="451" y="53">=</text>
   <a xmlns:xlink="http://www.w3.org/1999/xlink"
      xlink:href="#user"
      xlink:title="user">
      <rect x="513" y="35" width="48" height="32"/>
      <rect x="511" y="33" width="48" height="32" class="nonterminal"/>
      <text class="nonterminal" x="521" y="53">user</text>
   </a>
   <rect x="513" y="79" width="128" height="32" rx="10"/>
   <rect x="511"
         y="77"
         width="128"
         height="32"
         class="terminal"
         rx="10"/>
   <text class="terminal" x="521" y="97">CURRENT_USER</text>
   <a xmlns:xlink="http://www.w3.org/1999/xlink"
      xlink:href="#role"
      xlink:title="role">
      <rect x="513" y="123" width="44" height="32"/>
      <rect x="511" y="121" width="44" height="32" class="nonterminal"/>
      <text class="nonterminal" x="521" y="141">role</text>
   </a>
   <rect x="513" y="167" width="130" height="32" rx="10"/>
   <rect x="511"
         y="165"
         width="130"
         height="32"
         class="terminal"
         rx="10"/>
   <text class="terminal" x="521" y="185">CURRENT_ROLE</text>
   <rect x="703" y="3" width="80" height="32" rx="10"/>
   <rect x="701"
         y="1"
         width="80"
         height="32"
         class="terminal"
         rx="10"/>
   <text class="terminal" x="711" y="21">TRIGGER</text>
   <rect x="45" y="309" width="34" height="32" rx="10"/>
   <rect x="43"
         y="307"
         width="34"
         height="32"
         class="terminal"
         rx="10"/>
   <text class="terminal" x="53" y="327">IF</text>
   <rect x="99" y="309" width="48" height="32" rx="10"/>
   <rect x="97"
         y="307"
         width="48"
         height="32"
         class="terminal"
         rx="10"/>
   <text class="terminal" x="107" y="327">NOT</text>
   <rect x="167" y="309" width="70" height="32" rx="10"/>
   <rect x="165"
         y="307"
         width="70"
         height="32"
         class="terminal"
         rx="10"/>
   <text class="terminal" x="175" y="327">EXISTS</text>
   <a xmlns:xlink="http://www.w3.org/1999/xlink"
      xlink:href="#trigger_name"
      xlink:title="trigger_name">
      <rect x="277" y="277" width="106" height="32"/>
      <rect x="275" y="275" width="106" height="32" class="nonterminal"/>
      <text class="nonterminal" x="285" y="295">trigger_name</text>
   </a>
   <a xmlns:xlink="http://www.w3.org/1999/xlink"
      xlink:href="#trigger_time"
      xlink:title="trigger_time">
      <rect x="403" y="277" width="98" height="32"/>
      <rect x="401" y="275" width="98" height="32" class="nonterminal"/>
      <text class="nonterminal" x="411" y="295">trigger_time</text>
   </a>
   <a xmlns:xlink="http://www.w3.org/1999/xlink"
      xlink:href="#trigger_event"
      xlink:title="trigger_event">
      <rect x="541" y="277" width="106" height="32"/>
      <rect x="539" y="275" width="106" height="32" class="nonterminal"/>
      <text class="nonterminal" x="549" y="295">trigger_event</text>
   </a>
   <rect x="541" y="233" width="40" height="32" rx="10"/>
   <rect x="539"
         y="231"
         width="40"
         height="32"
         class="terminal"
         rx="10"/>
   <text class="terminal" x="549" y="251">OR</text>
   <rect x="687" y="277" width="40" height="32" rx="10"/>
   <rect x="685"
         y="275"
         width="40"
         height="32"
         class="terminal"
         rx="10"/>
   <text class="terminal" x="695" y="295">ON</text>
   <a xmlns:xlink="http://www.w3.org/1999/xlink"
      xlink:href="#tbl_name"
      xlink:title="tbl_name">
      <rect x="747" y="277" width="80" height="32"/>
      <rect x="745" y="275" width="80" height="32" class="nonterminal"/>
      <text class="nonterminal" x="755" y="295">tbl_name</text>
   </a>
   <rect x="847" y="277" width="48" height="32" rx="10"/>
   <rect x="845"
         y="275"
         width="48"
         height="32"
         class="terminal"
         rx="10"/>
   <text class="terminal" x="855" y="295">FOR</text>
   <rect x="915" y="277" width="56" height="32" rx="10"/>
   <rect x="913"
         y="275"
         width="56"
         height="32"
         class="terminal"
         rx="10"/>
   <text class="terminal" x="923" y="295">EACH</text>
   <rect x="435" y="375" width="54" height="32" rx="10"/>
   <rect x="433"
         y="373"
         width="54"
         height="32"
         class="terminal"
         rx="10"/>
   <text class="terminal" x="443" y="393">ROW</text>
   <rect x="549" y="407" width="88" height="32" rx="10"/>
   <rect x="547"
         y="405"
         width="88"
         height="32"
         class="terminal"
         rx="10"/>
   <text class="terminal" x="557" y="425">FOLLOWS</text>
   <rect x="549" y="451" width="90" height="32" rx="10"/>
   <rect x="547"
         y="449"
         width="90"
         height="32"
         class="terminal"
         rx="10"/>
   <text class="terminal" x="557" y="469">PRECEDES</text>
   <a xmlns:xlink="http://www.w3.org/1999/xlink"
      xlink:href="#other_trigger_name"
      xlink:title="other_trigger_name">
      <rect x="679" y="407" width="148" height="32"/>
      <rect x="677" y="405" width="148" height="32" class="nonterminal"/>
      <text class="nonterminal" x="687" y="425">other_trigger_name</text>
   </a>
   <a xmlns:xlink="http://www.w3.org/1999/xlink"
      xlink:href="#trigger_stmt"
      xlink:title="trigger_stmt">
      <rect x="867" y="375" width="98" height="32"/>
      <rect x="865" y="373" width="98" height="32" class="nonterminal"/>
      <text class="nonterminal" x="875" y="393">trigger_stmt</text>
   </a>
   <path class="line"
         d="m17 17 h2 m0 0 h10 m72 0 h10 m20 0 h10 m0 0 h150 m-180 0 h20 m160 0 h20 m-200 0 q10 0 10 10 m180 0 q0 -10 10 -10 m-190 10 v12 m180 0 v-12 m-180 12 q0 10 10 10 m160 0 q10 0 10 -10 m-170 10 h10 m40 0 h10 m0 0 h10 m80 0 h10 m40 -32 h10 m0 0 h330 m-360 0 h20 m340 0 h20 m-380 0 q10 0 10 10 m360 0 q0 -10 10 -10 m-370 10 v12 m360 0 v-12 m-360 12 q0 10 10 10 m340 0 q10 0 10 -10 m-350 10 h10 m80 0 h10 m0 0 h10 m30 0 h10 m20 0 h10 m48 0 h10 m0 0 h82 m-170 0 h20 m150 0 h20 m-190 0 q10 0 10 10 m170 0 q0 -10 10 -10 m-180 10 v24 m170 0 v-24 m-170 24 q0 10 10 10 m150 0 q10 0 10 -10 m-160 10 h10 m128 0 h10 m0 0 h2 m-160 -10 v20 m170 0 v-20 m-170 20 v24 m170 0 v-24 m-170 24 q0 10 10 10 m150 0 q10 0 10 -10 m-160 10 h10 m44 0 h10 m0 0 h86 m-160 -10 v20 m170 0 v-20 m-170 20 v24 m170 0 v-24 m-170 24 q0 10 10 10 m150 0 q10 0 10 -10 m-160 10 h10 m130 0 h10 m40 -164 h10 m80 0 h10 m2 0 l2 0 m2 0 l2 0 m2 0 l2 0 m-802 274 l2 0 m2 0 l2 0 m2 0 l2 0 m22 0 h10 m0 0 h202 m-232 0 h20 m212 0 h20 m-252 0 q10 0 10 10 m232 0 q0 -10 10 -10 m-242 10 v12 m232 0 v-12 m-232 12 q0 10 10 10 m212 0 q10 0 10 -10 m-222 10 h10 m34 0 h10 m0 0 h10 m48 0 h10 m0 0 h10 m70 0 h10 m20 -32 h10 m106 0 h10 m0 0 h10 m98 0 h10 m20 0 h10 m106 0 h10 m-146 0 l20 0 m-1 0 q-9 0 -9 -10 l0 -24 q0 -10 10 -10 m126 44 l20 0 m-20 0 q10 0 10 -10 l0 -24 q0 -10 -10 -10 m-126 0 h10 m40 0 h10 m0 0 h66 m20 44 h10 m40 0 h10 m0 0 h10 m80 0 h10 m0 0 h10 m48 0 h10 m0 0 h10 m56 0 h10 m2 0 l2 0 m2 0 l2 0 m2 0 l2 0 m-580 98 l2 0 m2 0 l2 0 m2 0 l2 0 m2 0 h10 m54 0 h10 m20 0 h10 m0 0 h308 m-338 0 h20 m318 0 h20 m-358 0 q10 0 10 10 m338 0 q0 -10 10 -10 m-348 10 v12 m338 0 v-12 m-338 12 q0 10 10 10 m318 0 q10 0 10 -10 m-308 10 h10 m88 0 h10 m0 0 h2 m-130 0 h20 m110 0 h20 m-150 0 q10 0 10 10 m130 0 q0 -10 10 -10 m-140 10 v24 m130 0 v-24 m-130 24 q0 10 10 10 m110 0 q10 0 10 -10 m-120 10 h10 m90 0 h10 m20 -44 h10 m148 0 h10 m20 -32 h10 m98 0 h10 m3 0 h-3"/>
   <polygon points="983 389 991 385 991 393"/>
   <polygon points="983 389 975 385 975 393"/>
</svg>
