<?xml version="1.0" encoding="UTF-8"?>
<svg xmlns="http://www.w3.org/2000/svg" width="399" height="421">
   <defs>
      <style type="text/css">
    @namespace "http://www.w3.org/2000/svg";
    .line                 {fill: none; stroke: #332900; stroke-width: 1;}
    .bold-line            {stroke: #141000; shape-rendering: crispEdges; stroke-width: 2;}
    .thin-line            {stroke: #1F1800; shape-rendering: crispEdges}
    .filled               {fill: #332900; stroke: none;}
    text.terminal         {font-family: Verdana, Sans-serif;
                            font-size: 12px;
                            fill: #141000;
                            font-weight: bold;
                          }
    text.nonterminal      {font-family: Verdana, Sans-serif;
                            font-size: 12px;
                            fill: #1A1400;
                            font-weight: normal;
                          }
    text.regexp           {font-family: Verdana, Sans-serif;
                            font-size: 12px;
                            fill: #1F1800;
                            font-weight: normal;
                          }
    rect, circle, polygon {fill: #332900; stroke: #332900;}
    rect.terminal         {fill: #FFDB4D; stroke: #332900; stroke-width: 1;}
    rect.nonterminal      {fill: #FFEC9E; stroke: #332900; stroke-width: 1;}
    rect.text             {fill: none; stroke: none;}
    polygon.regexp        {fill: #FFF4C7; stroke: #332900; stroke-width: 1;}
  </style>
   </defs>
   <polygon points="9 17 1 13 1 21"/>
   <polygon points="17 17 9 13 9 21"/>
   <rect x="71" y="3" width="94" height="32" rx="10"/>
   <rect x="69"
         y="1"
         width="94"
         height="32"
         class="terminal"
         rx="10"/>
   <text class="terminal" x="79" y="21">LANGUAGE</text>
   <rect x="71" y="47" width="92" height="32" rx="10"/>
   <rect x="69"
         y="45"
         width="92"
         height="32"
         class="terminal"
         rx="10"/>
   <text class="terminal" x="79" y="65">CONTAINS</text>
   <rect x="71" y="91" width="40" height="32" rx="10"/>
   <rect x="69"
         y="89"
         width="40"
         height="32"
         class="terminal"
         rx="10"/>
   <text class="terminal" x="79" y="109">NO</text>
   <rect x="205" y="3" width="48" height="32" rx="10"/>
   <rect x="203"
         y="1"
         width="48"
         height="32"
         class="terminal"
         rx="10"/>
   <text class="terminal" x="213" y="21">SQL</text>
   <rect x="71" y="167" width="48" height="32" rx="10"/>
   <rect x="69"
         y="165"
         width="48"
         height="32"
         class="terminal"
         rx="10"/>
   <text class="terminal" x="79" y="185">NOT</text>
   <rect x="159" y="135" width="130" height="32" rx="10"/>
   <rect x="157"
         y="133"
         width="130"
         height="32"
         class="terminal"
         rx="10"/>
   <text class="terminal" x="167" y="153">DETERMINISTIC</text>
   <rect x="71" y="211" width="66" height="32" rx="10"/>
   <rect x="69"
         y="209"
         width="66"
         height="32"
         class="terminal"
         rx="10"/>
   <text class="terminal" x="79" y="229">READS</text>
   <rect x="71" y="255" width="90" height="32" rx="10"/>
   <rect x="69"
         y="253"
         width="90"
         height="32"
         class="terminal"
         rx="10"/>
   <text class="terminal" x="79" y="273">MODIFIES</text>
   <rect x="201" y="211" width="48" height="32" rx="10"/>
   <rect x="199"
         y="209"
         width="48"
         height="32"
         class="terminal"
         rx="10"/>
   <text class="terminal" x="209" y="229">SQL</text>
   <rect x="269" y="211" width="56" height="32" rx="10"/>
   <rect x="267"
         y="209"
         width="56"
         height="32"
         class="terminal"
         rx="10"/>
   <text class="terminal" x="277" y="229">DATA</text>
   <rect x="51" y="299" width="48" height="32" rx="10"/>
   <rect x="49"
         y="297"
         width="48"
         height="32"
         class="terminal"
         rx="10"/>
   <text class="terminal" x="59" y="317">SQL</text>
   <rect x="119" y="299" width="88" height="32" rx="10"/>
   <rect x="117"
         y="297"
         width="88"
         height="32"
         class="terminal"
         rx="10"/>
   <text class="terminal" x="127" y="317">SECURITY</text>
   <rect x="247" y="299" width="80" height="32" rx="10"/>
   <rect x="245"
         y="297"
         width="80"
         height="32"
         class="terminal"
         rx="10"/>
   <text class="terminal" x="255" y="317">DEFINER</text>
   <rect x="247" y="343" width="84" height="32" rx="10"/>
   <rect x="245"
         y="341"
         width="84"
         height="32"
         class="terminal"
         rx="10"/>
   <text class="terminal" x="255" y="361">INVOKER</text>
   <rect x="51" y="387" width="88" height="32" rx="10"/>
   <rect x="49"
         y="385"
         width="88"
         height="32"
         class="terminal"
         rx="10"/>
   <text class="terminal" x="59" y="405">COMMENT</text>
   <a xmlns:xlink="http://www.w3.org/1999/xlink"
      xlink:href="#string"
      xlink:title="string">
      <rect x="159" y="387" width="56" height="32"/>
      <rect x="157" y="385" width="56" height="32" class="nonterminal"/>
      <text class="nonterminal" x="167" y="405">string</text>
   </a>
   <path class="line"
         d="m17 17 h2 m40 0 h10 m94 0 h10 m-134 0 h20 m114 0 h20 m-154 0 q10 0 10 10 m134 0 q0 -10 10 -10 m-144 10 v24 m134 0 v-24 m-134 24 q0 10 10 10 m114 0 q10 0 10 -10 m-124 10 h10 m92 0 h10 m0 0 h2 m-124 -10 v20 m134 0 v-20 m-134 20 v24 m134 0 v-24 m-134 24 q0 10 10 10 m114 0 q10 0 10 -10 m-124 10 h10 m40 0 h10 m0 0 h54 m20 -88 h10 m48 0 h10 m0 0 h98 m-340 0 h20 m320 0 h20 m-360 0 q10 0 10 10 m340 0 q0 -10 10 -10 m-350 10 v112 m340 0 v-112 m-340 112 q0 10 10 10 m320 0 q10 0 10 -10 m-310 10 h10 m0 0 h58 m-88 0 h20 m68 0 h20 m-108 0 q10 0 10 10 m88 0 q0 -10 10 -10 m-98 10 v12 m88 0 v-12 m-88 12 q0 10 10 10 m68 0 q10 0 10 -10 m-78 10 h10 m48 0 h10 m20 -32 h10 m130 0 h10 m0 0 h62 m-330 -10 v20 m340 0 v-20 m-340 20 v56 m340 0 v-56 m-340 56 q0 10 10 10 m320 0 q10 0 10 -10 m-310 10 h10 m66 0 h10 m0 0 h24 m-130 0 h20 m110 0 h20 m-150 0 q10 0 10 10 m130 0 q0 -10 10 -10 m-140 10 v24 m130 0 v-24 m-130 24 q0 10 10 10 m110 0 q10 0 10 -10 m-120 10 h10 m90 0 h10 m20 -44 h10 m48 0 h10 m0 0 h10 m56 0 h10 m0 0 h26 m-330 -10 v20 m340 0 v-20 m-340 20 v68 m340 0 v-68 m-340 68 q0 10 10 10 m320 0 q10 0 10 -10 m-330 10 h10 m48 0 h10 m0 0 h10 m88 0 h10 m20 0 h10 m80 0 h10 m0 0 h4 m-124 0 h20 m104 0 h20 m-144 0 q10 0 10 10 m124 0 q0 -10 10 -10 m-134 10 v24 m124 0 v-24 m-124 24 q0 10 10 10 m104 0 q10 0 10 -10 m-114 10 h10 m84 0 h10 m-310 -54 v20 m340 0 v-20 m-340 20 v68 m340 0 v-68 m-340 68 q0 10 10 10 m320 0 q10 0 10 -10 m-330 10 h10 m88 0 h10 m0 0 h10 m56 0 h10 m0 0 h136 m23 -384 h-3"/>
   <polygon points="389 17 397 13 397 21"/>
   <polygon points="389 17 381 13 381 21"/>
</svg>
