<?xml version="1.0" encoding="UTF-8"?>
<svg xmlns="http://www.w3.org/2000/svg" width="829" height="167">
   <defs>
      <style type="text/css">
    @namespace "http://www.w3.org/2000/svg";
    .line                 {fill: none; stroke: #332900; stroke-width: 1;}
    .bold-line            {stroke: #141000; shape-rendering: crispEdges; stroke-width: 2;}
    .thin-line            {stroke: #1F1800; shape-rendering: crispEdges}
    .filled               {fill: #332900; stroke: none;}
    text.terminal         {font-family: Verdana, Sans-serif;
                            font-size: 12px;
                            fill: #141000;
                            font-weight: bold;
                          }
    text.nonterminal      {font-family: Verdana, Sans-serif;
                            font-size: 12px;
                            fill: #1A1400;
                            font-weight: normal;
                          }
    text.regexp           {font-family: Verdana, Sans-serif;
                            font-size: 12px;
                            fill: #1F1800;
                            font-weight: normal;
                          }
    rect, circle, polygon {fill: #332900; stroke: #332900;}
    rect.terminal         {fill: #FFDB4D; stroke: #332900; stroke-width: 1;}
    rect.nonterminal      {fill: #FFEC9E; stroke: #332900; stroke-width: 1;}
    rect.text             {fill: none; stroke: none;}
    polygon.regexp        {fill: #FFF4C7; stroke: #332900; stroke-width: 1;}
  </style>
   </defs>
   <polygon points="9 17 1 13 1 21"/>
   <polygon points="17 17 9 13 9 21"/>
   <rect x="31" y="3" width="72" height="32" rx="10"/>
   <rect x="29"
         y="1"
         width="72"
         height="32"
         class="terminal"
         rx="10"/>
   <text class="terminal" x="39" y="21">CREATE</text>
   <rect x="143" y="35" width="40" height="32" rx="10"/>
   <rect x="141"
         y="33"
         width="40"
         height="32"
         class="terminal"
         rx="10"/>
   <text class="terminal" x="151" y="53">OR</text>
   <rect x="203" y="35" width="80" height="32" rx="10"/>
   <rect x="201"
         y="33"
         width="80"
         height="32"
         class="terminal"
         rx="10"/>
   <text class="terminal" x="211" y="53">REPLACE</text>
   <rect x="343" y="3" width="92" height="32" rx="10"/>
   <rect x="341"
         y="1"
         width="92"
         height="32"
         class="terminal"
         rx="10"/>
   <text class="terminal" x="351" y="21">DATABASE</text>
   <rect x="343" y="47" width="76" height="32" rx="10"/>
   <rect x="341"
         y="45"
         width="76"
         height="32"
         class="terminal"
         rx="10"/>
   <text class="terminal" x="351" y="65">SCHEMA</text>
   <rect x="495" y="35" width="34" height="32" rx="10"/>
   <rect x="493"
         y="33"
         width="34"
         height="32"
         class="terminal"
         rx="10"/>
   <text class="terminal" x="503" y="53">IF</text>
   <rect x="549" y="35" width="48" height="32" rx="10"/>
   <rect x="547"
         y="33"
         width="48"
         height="32"
         class="terminal"
         rx="10"/>
   <text class="terminal" x="557" y="53">NOT</text>
   <rect x="617" y="35" width="70" height="32" rx="10"/>
   <rect x="615"
         y="33"
         width="70"
         height="32"
         class="terminal"
         rx="10"/>
   <text class="terminal" x="625" y="53">EXISTS</text>
   <a xmlns:xlink="http://www.w3.org/1999/xlink"
      xlink:href="#db_name"
      xlink:title="db_name">
      <rect x="727" y="3" width="80" height="32"/>
      <rect x="725" y="1" width="80" height="32" class="nonterminal"/>
      <text class="nonterminal" x="735" y="21">db_name</text>
   </a>
   <a xmlns:xlink="http://www.w3.org/1999/xlink"
      xlink:href="#create_specification"
      xlink:title="create_specification">
      <rect x="635" y="113" width="146" height="32"/>
      <rect x="633" y="111" width="146" height="32" class="nonterminal"/>
      <text class="nonterminal" x="643" y="131">create_specification</text>
   </a>
   <path class="line"
         d="m17 17 h2 m0 0 h10 m72 0 h10 m20 0 h10 m0 0 h150 m-180 0 h20 m160 0 h20 m-200 0 q10 0 10 10 m180 0 q0 -10 10 -10 m-190 10 v12 m180 0 v-12 m-180 12 q0 10 10 10 m160 0 q10 0 10 -10 m-170 10 h10 m40 0 h10 m0 0 h10 m80 0 h10 m40 -32 h10 m92 0 h10 m-132 0 h20 m112 0 h20 m-152 0 q10 0 10 10 m132 0 q0 -10 10 -10 m-142 10 v24 m132 0 v-24 m-132 24 q0 10 10 10 m112 0 q10 0 10 -10 m-122 10 h10 m76 0 h10 m0 0 h16 m40 -44 h10 m0 0 h202 m-232 0 h20 m212 0 h20 m-252 0 q10 0 10 10 m232 0 q0 -10 10 -10 m-242 10 v12 m232 0 v-12 m-232 12 q0 10 10 10 m212 0 q10 0 10 -10 m-222 10 h10 m34 0 h10 m0 0 h10 m48 0 h10 m0 0 h10 m70 0 h10 m20 -32 h10 m80 0 h10 m2 0 l2 0 m2 0 l2 0 m2 0 l2 0 m-236 144 l2 0 m2 0 l2 0 m2 0 l2 0 m22 0 h10 m0 0 h156 m-186 0 l20 0 m-1 0 q-9 0 -9 -10 l0 -14 q0 -10 10 -10 m166 34 l20 0 m-20 0 q10 0 10 -10 l0 -14 q0 -10 -10 -10 m-166 0 h10 m146 0 h10 m23 34 h-3"/>
   <polygon points="819 161 827 157 827 165"/>
   <polygon points="819 161 811 157 811 165"/>
</svg>
