<?xml version="1.0" encoding="UTF-8"?>
<svg xmlns="http://www.w3.org/2000/svg" width="897" height="441">
   <defs>
      <style type="text/css">
    @namespace "http://www.w3.org/2000/svg";
    .line                 {fill: none; stroke: #332900; stroke-width: 1;}
    .bold-line            {stroke: #141000; shape-rendering: crispEdges; stroke-width: 2;}
    .thin-line            {stroke: #1F1800; shape-rendering: crispEdges}
    .filled               {fill: #332900; stroke: none;}
    text.terminal         {font-family: Verdana, Sans-serif;
                            font-size: 12px;
                            fill: #141000;
                            font-weight: bold;
                          }
    text.nonterminal      {font-family: Verdana, Sans-serif;
                            font-size: 12px;
                            fill: #1A1400;
                            font-weight: normal;
                          }
    text.regexp           {font-family: Verdana, Sans-serif;
                            font-size: 12px;
                            fill: #1F1800;
                            font-weight: normal;
                          }
    rect, circle, polygon {fill: #332900; stroke: #332900;}
    rect.terminal         {fill: #FFDB4D; stroke: #332900; stroke-width: 1;}
    rect.nonterminal      {fill: #FFEC9E; stroke: #332900; stroke-width: 1;}
    rect.text             {fill: none; stroke: none;}
    polygon.regexp        {fill: #FFF4C7; stroke: #332900; stroke-width: 1;}
  </style>
   </defs>
   <polygon points="9 17 1 13 1 21"/>
   <polygon points="17 17 9 13 9 21"/>
   <rect x="31" y="3" width="70" height="32" rx="10"/>
   <rect x="29"
         y="1"
         width="70"
         height="32"
         class="terminal"
         rx="10"/>
   <text class="terminal" x="39" y="21">DELETE</text>
   <rect x="141" y="35" width="130" height="32" rx="10"/>
   <rect x="139"
         y="33"
         width="130"
         height="32"
         class="terminal"
         rx="10"/>
   <text class="terminal" x="149" y="53">LOW_PRIORITY</text>
   <rect x="331" y="35" width="64" height="32" rx="10"/>
   <rect x="329"
         y="33"
         width="64"
         height="32"
         class="terminal"
         rx="10"/>
   <text class="terminal" x="339" y="53">QUICK</text>
   <rect x="455" y="35" width="74" height="32" rx="10"/>
   <rect x="453"
         y="33"
         width="74"
         height="32"
         class="terminal"
         rx="10"/>
   <text class="terminal" x="463" y="53">IGNORE</text>
   <rect x="569" y="3" width="60" height="32" rx="10"/>
   <rect x="567"
         y="1"
         width="60"
         height="32"
         class="terminal"
         rx="10"/>
   <text class="terminal" x="577" y="21">FROM</text>
   <a xmlns:xlink="http://www.w3.org/1999/xlink"
      xlink:href="#tbl_name"
      xlink:title="tbl_name">
      <rect x="649" y="3" width="80" height="32"/>
      <rect x="647" y="1" width="80" height="32" class="nonterminal"/>
      <text class="nonterminal" x="657" y="21">tbl_name</text>
   </a>
   <rect x="295" y="117" width="98" height="32" rx="10"/>
   <rect x="293"
         y="115"
         width="98"
         height="32"
         class="terminal"
         rx="10"/>
   <text class="terminal" x="303" y="135">PARTITION</text>
   <rect x="413" y="117" width="26" height="32" rx="10"/>
   <rect x="411"
         y="115"
         width="26"
         height="32"
         class="terminal"
         rx="10"/>
   <text class="terminal" x="421" y="135">(</text>
   <a xmlns:xlink="http://www.w3.org/1999/xlink"
      xlink:href="#partition_list"
      xlink:title="partition_list">
      <rect x="459" y="117" width="100" height="32"/>
      <rect x="457" y="115" width="100" height="32" class="nonterminal"/>
      <text class="nonterminal" x="467" y="135">partition_list</text>
   </a>
   <rect x="579" y="117" width="26" height="32" rx="10"/>
   <rect x="577"
         y="115"
         width="26"
         height="32"
         class="terminal"
         rx="10"/>
   <text class="terminal" x="587" y="135">)</text>
   <rect x="69" y="199" width="48" height="32" rx="10"/>
   <rect x="67"
         y="197"
         width="48"
         height="32"
         class="terminal"
         rx="10"/>
   <text class="terminal" x="77" y="217">FOR</text>
   <rect x="137" y="199" width="84" height="32" rx="10"/>
   <rect x="135"
         y="197"
         width="84"
         height="32"
         class="terminal"
         rx="10"/>
   <text class="terminal" x="145" y="217">PORTION</text>
   <rect x="241" y="199" width="38" height="32" rx="10"/>
   <rect x="239"
         y="197"
         width="38"
         height="32"
         class="terminal"
         rx="10"/>
   <text class="terminal" x="249" y="217">OF</text>
   <rect x="299" y="199" width="74" height="32" rx="10"/>
   <rect x="297"
         y="197"
         width="74"
         height="32"
         class="terminal"
         rx="10"/>
   <text class="terminal" x="307" y="217">PERIOD</text>
   <rect x="393" y="199" width="60" height="32" rx="10"/>
   <rect x="391"
         y="197"
         width="60"
         height="32"
         class="terminal"
         rx="10"/>
   <text class="terminal" x="401" y="217">FROM</text>
   <a xmlns:xlink="http://www.w3.org/1999/xlink"
      xlink:href="#expr1"
      xlink:title="expr1">
      <rect x="473" y="199" width="56" height="32"/>
      <rect x="471" y="197" width="56" height="32" class="nonterminal"/>
      <text class="nonterminal" x="481" y="217">expr1</text>
   </a>
   <rect x="549" y="199" width="38" height="32" rx="10"/>
   <rect x="547"
         y="197"
         width="38"
         height="32"
         class="terminal"
         rx="10"/>
   <text class="terminal" x="557" y="217">TO</text>
   <a xmlns:xlink="http://www.w3.org/1999/xlink"
      xlink:href="#expr2"
      xlink:title="expr2">
      <rect x="607" y="199" width="56" height="32"/>
      <rect x="605" y="197" width="56" height="32" class="nonterminal"/>
      <text class="nonterminal" x="615" y="217">expr2</text>
   </a>
   <rect x="723" y="199" width="38" height="32" rx="10"/>
   <rect x="721"
         y="197"
         width="38"
         height="32"
         class="terminal"
         rx="10"/>
   <text class="terminal" x="731" y="217">AS</text>
   <a xmlns:xlink="http://www.w3.org/1999/xlink"
      xlink:href="#alias"
      xlink:title="alias">
      <rect x="781" y="199" width="50" height="32"/>
      <rect x="779" y="197" width="50" height="32" class="nonterminal"/>
      <text class="nonterminal" x="789" y="217">alias</text>
   </a>
   <rect x="45" y="281" width="70" height="32" rx="10"/>
   <rect x="43"
         y="279"
         width="70"
         height="32"
         class="terminal"
         rx="10"/>
   <text class="terminal" x="53" y="299">WHERE</text>
   <a xmlns:xlink="http://www.w3.org/1999/xlink"
      xlink:href="#where_condition"
      xlink:title="where_condition">
      <rect x="135" y="281" width="124" height="32"/>
      <rect x="133" y="279" width="124" height="32" class="nonterminal"/>
      <text class="nonterminal" x="143" y="299">where_condition</text>
   </a>
   <rect x="319" y="281" width="68" height="32" rx="10"/>
   <rect x="317"
         y="279"
         width="68"
         height="32"
         class="terminal"
         rx="10"/>
   <text class="terminal" x="327" y="299">ORDER</text>
   <rect x="407" y="281" width="38" height="32" rx="10"/>
   <rect x="405"
         y="279"
         width="38"
         height="32"
         class="terminal"
         rx="10"/>
   <text class="terminal" x="415" y="299">BY</text>
   <a xmlns:xlink="http://www.w3.org/1999/xlink"
      xlink:href="#order_by_specification"
      xlink:title="order_by_specification">
      <rect x="465" y="281" width="164" height="32"/>
      <rect x="463" y="279" width="164" height="32" class="nonterminal"/>
      <text class="nonterminal" x="473" y="299">order_by_specification</text>
   </a>
   <rect x="689" y="281" width="60" height="32" rx="10"/>
   <rect x="687"
         y="279"
         width="60"
         height="32"
         class="terminal"
         rx="10"/>
   <text class="terminal" x="697" y="299">LIMIT</text>
   <a xmlns:xlink="http://www.w3.org/1999/xlink"
      xlink:href="#row_count"
      xlink:title="row_count">
      <rect x="769" y="281" width="86" height="32"/>
      <rect x="767" y="279" width="86" height="32" class="nonterminal"/>
      <text class="nonterminal" x="777" y="299">row_count</text>
   </a>
   <rect x="595" y="391" width="100" height="32" rx="10"/>
   <rect x="593"
         y="389"
         width="100"
         height="32"
         class="terminal"
         rx="10"/>
   <text class="terminal" x="603" y="409">RETURNING</text>
   <a xmlns:xlink="http://www.w3.org/1999/xlink"
      xlink:href="#select_expr"
      xlink:title="select_expr">
      <rect x="735" y="391" width="94" height="32"/>
      <rect x="733" y="389" width="94" height="32" class="nonterminal"/>
      <text class="nonterminal" x="743" y="409">select_expr</text>
   </a>
   <rect x="735" y="347" width="24" height="32" rx="10"/>
   <rect x="733"
         y="345"
         width="24"
         height="32"
         class="terminal"
         rx="10"/>
   <text class="terminal" x="743" y="365">,</text>
   <path class="line"
         d="m17 17 h2 m0 0 h10 m70 0 h10 m20 0 h10 m0 0 h140 m-170 0 h20 m150 0 h20 m-190 0 q10 0 10 10 m170 0 q0 -10 10 -10 m-180 10 v12 m170 0 v-12 m-170 12 q0 10 10 10 m150 0 q10 0 10 -10 m-160 10 h10 m130 0 h10 m40 -32 h10 m0 0 h74 m-104 0 h20 m84 0 h20 m-124 0 q10 0 10 10 m104 0 q0 -10 10 -10 m-114 10 v12 m104 0 v-12 m-104 12 q0 10 10 10 m84 0 q10 0 10 -10 m-94 10 h10 m64 0 h10 m40 -32 h10 m0 0 h84 m-114 0 h20 m94 0 h20 m-134 0 q10 0 10 10 m114 0 q0 -10 10 -10 m-124 10 v12 m114 0 v-12 m-114 12 q0 10 10 10 m94 0 q10 0 10 -10 m-104 10 h10 m74 0 h10 m20 -32 h10 m60 0 h10 m0 0 h10 m80 0 h10 m2 0 l2 0 m2 0 l2 0 m2 0 l2 0 m-498 82 l2 0 m2 0 l2 0 m2 0 l2 0 m22 0 h10 m0 0 h320 m-350 0 h20 m330 0 h20 m-370 0 q10 0 10 10 m350 0 q0 -10 10 -10 m-360 10 v12 m350 0 v-12 m-350 12 q0 10 10 10 m330 0 q10 0 10 -10 m-340 10 h10 m98 0 h10 m0 0 h10 m26 0 h10 m0 0 h10 m100 0 h10 m0 0 h10 m26 0 h10 m22 -32 l2 0 m2 0 l2 0 m2 0 l2 0 m-620 82 l2 0 m2 0 l2 0 m2 0 l2 0 m22 0 h10 m0 0 h604 m-634 0 h20 m614 0 h20 m-654 0 q10 0 10 10 m634 0 q0 -10 10 -10 m-644 10 v12 m634 0 v-12 m-634 12 q0 10 10 10 m614 0 q10 0 10 -10 m-624 10 h10 m48 0 h10 m0 0 h10 m84 0 h10 m0 0 h10 m38 0 h10 m0 0 h10 m74 0 h10 m0 0 h10 m60 0 h10 m0 0 h10 m56 0 h10 m0 0 h10 m38 0 h10 m0 0 h10 m56 0 h10 m40 -32 h10 m0 0 h118 m-148 0 h20 m128 0 h20 m-168 0 q10 0 10 10 m148 0 q0 -10 10 -10 m-158 10 v12 m148 0 v-12 m-148 12 q0 10 10 10 m128 0 q10 0 10 -10 m-138 10 h10 m38 0 h10 m0 0 h10 m50 0 h10 m22 -32 l2 0 m2 0 l2 0 m2 0 l2 0 m-870 82 l2 0 m2 0 l2 0 m2 0 l2 0 m22 0 h10 m0 0 h224 m-254 0 h20 m234 0 h20 m-274 0 q10 0 10 10 m254 0 q0 -10 10 -10 m-264 10 v12 m254 0 v-12 m-254 12 q0 10 10 10 m234 0 q10 0 10 -10 m-244 10 h10 m70 0 h10 m0 0 h10 m124 0 h10 m40 -32 h10 m0 0 h320 m-350 0 h20 m330 0 h20 m-370 0 q10 0 10 10 m350 0 q0 -10 10 -10 m-360 10 v12 m350 0 v-12 m-350 12 q0 10 10 10 m330 0 q10 0 10 -10 m-340 10 h10 m68 0 h10 m0 0 h10 m38 0 h10 m0 0 h10 m164 0 h10 m40 -32 h10 m0 0 h176 m-206 0 h20 m186 0 h20 m-226 0 q10 0 10 10 m206 0 q0 -10 10 -10 m-216 10 v12 m206 0 v-12 m-206 12 q0 10 10 10 m186 0 q10 0 10 -10 m-196 10 h10 m60 0 h10 m0 0 h10 m86 0 h10 m22 -32 l2 0 m2 0 l2 0 m2 0 l2 0 m-344 142 l2 0 m2 0 l2 0 m2 0 l2 0 m22 0 h10 m100 0 h10 m20 0 h10 m94 0 h10 m-134 0 l20 0 m-1 0 q-9 0 -9 -10 l0 -24 q0 -10 10 -10 m114 44 l20 0 m-20 0 q10 0 10 -10 l0 -24 q0 -10 -10 -10 m-114 0 h10 m24 0 h10 m0 0 h70 m-274 44 h20 m274 0 h20 m-314 0 q10 0 10 10 m294 0 q0 -10 10 -10 m-304 10 v14 m294 0 v-14 m-294 14 q0 10 10 10 m274 0 q10 0 10 -10 m-284 10 h10 m0 0 h264 m23 -34 h-3"/>
   <polygon points="887 405 895 401 895 409"/>
   <polygon points="887 405 879 401 879 409"/>
</svg>
