<?xml version="1.0" encoding="UTF-8"?>
<svg xmlns="http://www.w3.org/2000/svg" width="785" height="275">
   <defs>
      <style type="text/css">
    @namespace "http://www.w3.org/2000/svg";
    .line                 {fill: none; stroke: #332900; stroke-width: 1;}
    .bold-line            {stroke: #141000; shape-rendering: crispEdges; stroke-width: 2;}
    .thin-line            {stroke: #1F1800; shape-rendering: crispEdges}
    .filled               {fill: #332900; stroke: none;}
    text.terminal         {font-family: Verdana, Sans-serif;
                            font-size: 12px;
                            fill: #141000;
                            font-weight: bold;
                          }
    text.nonterminal      {font-family: Verdana, Sans-serif;
                            font-size: 12px;
                            fill: #1A1400;
                            font-weight: normal;
                          }
    text.regexp           {font-family: Verdana, Sans-serif;
                            font-size: 12px;
                            fill: #1F1800;
                            font-weight: normal;
                          }
    rect, circle, polygon {fill: #332900; stroke: #332900;}
    rect.terminal         {fill: #FFDB4D; stroke: #332900; stroke-width: 1;}
    rect.nonterminal      {fill: #FFEC9E; stroke: #332900; stroke-width: 1;}
    rect.text             {fill: none; stroke: none;}
    polygon.regexp        {fill: #FFF4C7; stroke: #332900; stroke-width: 1;}
  </style>
   </defs>
   <polygon points="9 17 1 13 1 21"/>
   <polygon points="17 17 9 13 9 21"/>
   <a xmlns:xlink="http://www.w3.org/1999/xlink"
      xlink:href="#type"
      xlink:title="type">
      <rect x="31" y="3" width="48" height="32"/>
      <rect x="29" y="1" width="48" height="32" class="nonterminal"/>
      <text class="nonterminal" x="39" y="21">type</text>
   </a>
   <rect x="119" y="35" width="100" height="32" rx="10"/>
   <rect x="117"
         y="33"
         width="100"
         height="32"
         class="terminal"
         rx="10"/>
   <text class="terminal" x="127" y="53">GENERATED</text>
   <rect x="239" y="35" width="78" height="32" rx="10"/>
   <rect x="237"
         y="33"
         width="78"
         height="32"
         class="terminal"
         rx="10"/>
   <text class="terminal" x="247" y="53">ALWAYS</text>
   <rect x="357" y="3" width="38" height="32" rx="10"/>
   <rect x="355"
         y="1"
         width="38"
         height="32"
         class="terminal"
         rx="10"/>
   <text class="terminal" x="365" y="21">AS</text>
   <rect x="415" y="3" width="26" height="32" rx="10"/>
   <rect x="413"
         y="1"
         width="26"
         height="32"
         class="terminal"
         rx="10"/>
   <text class="terminal" x="423" y="21">(</text>
   <a xmlns:xlink="http://www.w3.org/1999/xlink"
      xlink:href="#expression"
      xlink:title="expression">
      <rect x="461" y="3" width="90" height="32"/>
      <rect x="459" y="1" width="90" height="32" class="nonterminal"/>
      <text class="nonterminal" x="469" y="21">expression</text>
   </a>
   <rect x="571" y="3" width="26" height="32" rx="10"/>
   <rect x="569"
         y="1"
         width="26"
         height="32"
         class="terminal"
         rx="10"/>
   <text class="terminal" x="579" y="21">)</text>
   <rect x="637" y="35" width="80" height="32" rx="10"/>
   <rect x="635"
         y="33"
         width="80"
         height="32"
         class="terminal"
         rx="10"/>
   <text class="terminal" x="645" y="53">VIRTUAL</text>
   <rect x="637" y="79" width="106" height="32" rx="10"/>
   <rect x="635"
         y="77"
         width="106"
         height="32"
         class="terminal"
         rx="10"/>
   <text class="terminal" x="645" y="97">PERSISTENT</text>
   <rect x="637" y="123" width="76" height="32" rx="10"/>
   <rect x="635"
         y="121"
         width="76"
         height="32"
         class="terminal"
         rx="10"/>
   <text class="terminal" x="645" y="141">STORED</text>
   <rect x="345" y="209" width="74" height="32" rx="10"/>
   <rect x="343"
         y="207"
         width="74"
         height="32"
         class="terminal"
         rx="10"/>
   <text class="terminal" x="353" y="227">UNIQUE</text>
   <rect x="459" y="241" width="46" height="32" rx="10"/>
   <rect x="457"
         y="239"
         width="46"
         height="32"
         class="terminal"
         rx="10"/>
   <text class="terminal" x="467" y="259">KEY</text>
   <rect x="585" y="209" width="88" height="32" rx="10"/>
   <rect x="583"
         y="207"
         width="88"
         height="32"
         class="terminal"
         rx="10"/>
   <text class="terminal" x="593" y="227">COMMENT</text>
   <a xmlns:xlink="http://www.w3.org/1999/xlink"
      xlink:href="#text"
      xlink:title="text">
      <rect x="693" y="209" width="44" height="32"/>
      <rect x="691" y="207" width="44" height="32" class="nonterminal"/>
      <text class="nonterminal" x="701" y="227">text</text>
   </a>
   <path class="line"
         d="m17 17 h2 m0 0 h10 m48 0 h10 m20 0 h10 m0 0 h208 m-238 0 h20 m218 0 h20 m-258 0 q10 0 10 10 m238 0 q0 -10 10 -10 m-248 10 v12 m238 0 v-12 m-238 12 q0 10 10 10 m218 0 q10 0 10 -10 m-228 10 h10 m100 0 h10 m0 0 h10 m78 0 h10 m20 -32 h10 m38 0 h10 m0 0 h10 m26 0 h10 m0 0 h10 m90 0 h10 m0 0 h10 m26 0 h10 m20 0 h10 m0 0 h116 m-146 0 h20 m126 0 h20 m-166 0 q10 0 10 10 m146 0 q0 -10 10 -10 m-156 10 v12 m146 0 v-12 m-146 12 q0 10 10 10 m126 0 q10 0 10 -10 m-136 10 h10 m80 0 h10 m0 0 h26 m-136 -10 v20 m146 0 v-20 m-146 20 v24 m146 0 v-24 m-146 24 q0 10 10 10 m126 0 q10 0 10 -10 m-136 10 h10 m106 0 h10 m-136 -10 v20 m146 0 v-20 m-146 20 v24 m146 0 v-24 m-146 24 q0 10 10 10 m126 0 q10 0 10 -10 m-136 10 h10 m76 0 h10 m0 0 h30 m22 -120 l2 0 m2 0 l2 0 m2 0 l2 0 m-482 174 l2 0 m2 0 l2 0 m2 0 l2 0 m22 0 h10 m0 0 h190 m-220 0 h20 m200 0 h20 m-240 0 q10 0 10 10 m220 0 q0 -10 10 -10 m-230 10 v12 m220 0 v-12 m-220 12 q0 10 10 10 m200 0 q10 0 10 -10 m-210 10 h10 m74 0 h10 m20 0 h10 m0 0 h56 m-86 0 h20 m66 0 h20 m-106 0 q10 0 10 10 m86 0 q0 -10 10 -10 m-96 10 v12 m86 0 v-12 m-86 12 q0 10 10 10 m66 0 q10 0 10 -10 m-76 10 h10 m46 0 h10 m60 -64 h10 m0 0 h162 m-192 0 h20 m172 0 h20 m-212 0 q10 0 10 10 m192 0 q0 -10 10 -10 m-202 10 v12 m192 0 v-12 m-192 12 q0 10 10 10 m172 0 q10 0 10 -10 m-182 10 h10 m88 0 h10 m0 0 h10 m44 0 h10 m23 -32 h-3"/>
   <polygon points="775 191 783 187 783 195"/>
   <polygon points="775 191 767 187 767 195"/>
</svg>
