<?xml version="1.0" encoding="UTF-8"?>
<svg xmlns="http://www.w3.org/2000/svg" width="769" height="113">
   <defs>
      <style type="text/css">
    @namespace "http://www.w3.org/2000/svg";
    .line                 {fill: none; stroke: #332900; stroke-width: 1;}
    .bold-line            {stroke: #141000; shape-rendering: crispEdges; stroke-width: 2;}
    .thin-line            {stroke: #1F1800; shape-rendering: crispEdges}
    .filled               {fill: #332900; stroke: none;}
    text.terminal         {font-family: Verdana, Sans-serif;
                            font-size: 12px;
                            fill: #141000;
                            font-weight: bold;
                          }
    text.nonterminal      {font-family: Verdana, Sans-serif;
                            font-size: 12px;
                            fill: #1A1400;
                            font-weight: normal;
                          }
    text.regexp           {font-family: Verdana, Sans-serif;
                            font-size: 12px;
                            fill: #1F1800;
                            font-weight: normal;
                          }
    rect, circle, polygon {fill: #332900; stroke: #332900;}
    rect.terminal         {fill: #FFDB4D; stroke: #332900; stroke-width: 1;}
    rect.nonterminal      {fill: #FFEC9E; stroke: #332900; stroke-width: 1;}
    rect.text             {fill: none; stroke: none;}
    polygon.regexp        {fill: #FFF4C7; stroke: #332900; stroke-width: 1;}
  </style>
   </defs>
   <polygon points="9 61 1 57 1 65"/>
   <polygon points="17 61 9 57 9 65"/>
   <rect x="31" y="47" width="66" height="32" rx="10"/>
   <rect x="29"
         y="45"
         width="66"
         height="32"
         class="terminal"
         rx="10"/>
   <text class="terminal" x="39" y="65">GRANT</text>
   <a xmlns:xlink="http://www.w3.org/1999/xlink"
      xlink:href="#role"
      xlink:title="role">
      <rect x="137" y="47" width="44" height="32"/>
      <rect x="135" y="45" width="44" height="32" class="nonterminal"/>
      <text class="nonterminal" x="145" y="65">role</text>
   </a>
   <rect x="137" y="3" width="24" height="32" rx="10"/>
   <rect x="135"
         y="1"
         width="24"
         height="32"
         class="terminal"
         rx="10"/>
   <text class="terminal" x="145" y="21">,</text>
   <rect x="221" y="47" width="38" height="32" rx="10"/>
   <rect x="219"
         y="45"
         width="38"
         height="32"
         class="terminal"
         rx="10"/>
   <text class="terminal" x="229" y="65">TO</text>
   <a xmlns:xlink="http://www.w3.org/1999/xlink"
      xlink:href="#account_or_role"
      xlink:title="account_or_role">
      <rect x="299" y="47" width="122" height="32"/>
      <rect x="297" y="45" width="122" height="32" class="nonterminal"/>
      <text class="nonterminal" x="307" y="65">account_or_role</text>
   </a>
   <rect x="299" y="3" width="24" height="32" rx="10"/>
   <rect x="297"
         y="1"
         width="24"
         height="32"
         class="terminal"
         rx="10"/>
   <text class="terminal" x="307" y="21">,</text>
   <rect x="481" y="79" width="58" height="32" rx="10"/>
   <rect x="479"
         y="77"
         width="58"
         height="32"
         class="terminal"
         rx="10"/>
   <text class="terminal" x="489" y="97">WITH</text>
   <rect x="559" y="79" width="66" height="32" rx="10"/>
   <rect x="557"
         y="77"
         width="66"
         height="32"
         class="terminal"
         rx="10"/>
   <text class="terminal" x="567" y="97">ADMIN</text>
   <rect x="645" y="79" width="76" height="32" rx="10"/>
   <rect x="643"
         y="77"
         width="76"
         height="32"
         class="terminal"
         rx="10"/>
   <text class="terminal" x="653" y="97">OPTION</text>
   <path class="line"
         d="m17 61 h2 m0 0 h10 m66 0 h10 m20 0 h10 m44 0 h10 m-84 0 l20 0 m-1 0 q-9 0 -9 -10 l0 -24 q0 -10 10 -10 m64 44 l20 0 m-20 0 q10 0 10 -10 l0 -24 q0 -10 -10 -10 m-64 0 h10 m24 0 h10 m0 0 h20 m20 44 h10 m38 0 h10 m20 0 h10 m122 0 h10 m-162 0 l20 0 m-1 0 q-9 0 -9 -10 l0 -24 q0 -10 10 -10 m142 44 l20 0 m-20 0 q10 0 10 -10 l0 -24 q0 -10 -10 -10 m-142 0 h10 m24 0 h10 m0 0 h98 m40 44 h10 m0 0 h250 m-280 0 h20 m260 0 h20 m-300 0 q10 0 10 10 m280 0 q0 -10 10 -10 m-290 10 v12 m280 0 v-12 m-280 12 q0 10 10 10 m260 0 q10 0 10 -10 m-270 10 h10 m58 0 h10 m0 0 h10 m66 0 h10 m0 0 h10 m76 0 h10 m23 -32 h-3"/>
   <polygon points="759 61 767 57 767 65"/>
   <polygon points="759 61 751 57 751 65"/>
</svg>
