<?xml version="1.0" encoding="UTF-8"?>
<svg xmlns="http://www.w3.org/2000/svg" width="933" height="113">
   <defs>
      <style type="text/css">
    @namespace "http://www.w3.org/2000/svg";
    .line                 {fill: none; stroke: #332900; stroke-width: 1;}
    .bold-line            {stroke: #141000; shape-rendering: crispEdges; stroke-width: 2;}
    .thin-line            {stroke: #1F1800; shape-rendering: crispEdges}
    .filled               {fill: #332900; stroke: none;}
    text.terminal         {font-family: Verdana, Sans-serif;
                            font-size: 12px;
                            fill: #141000;
                            font-weight: bold;
                          }
    text.nonterminal      {font-family: Verdana, Sans-serif;
                            font-size: 12px;
                            fill: #1A1400;
                            font-weight: normal;
                          }
    text.regexp           {font-family: Verdana, Sans-serif;
                            font-size: 12px;
                            fill: #1F1800;
                            font-weight: normal;
                          }
    rect, circle, polygon {fill: #332900; stroke: #332900;}
    rect.terminal         {fill: #FFDB4D; stroke: #332900; stroke-width: 1;}
    rect.nonterminal      {fill: #FFEC9E; stroke: #332900; stroke-width: 1;}
    rect.text             {fill: none; stroke: none;}
    polygon.regexp        {fill: #FFF4C7; stroke: #332900; stroke-width: 1;}
  </style>
   </defs>
   <polygon points="9 61 1 57 1 65"/>
   <polygon points="17 61 9 57 9 65"/>
   <rect x="31" y="47" width="66" height="32" rx="10"/>
   <rect x="29"
         y="45"
         width="66"
         height="32"
         class="terminal"
         rx="10"/>
   <text class="terminal" x="39" y="65">GRANT</text>
   <rect x="117" y="47" width="66" height="32" rx="10"/>
   <rect x="115"
         y="45"
         width="66"
         height="32"
         class="terminal"
         rx="10"/>
   <text class="terminal" x="125" y="65">PROXY</text>
   <rect x="203" y="47" width="40" height="32" rx="10"/>
   <rect x="201"
         y="45"
         width="40"
         height="32"
         class="terminal"
         rx="10"/>
   <text class="terminal" x="211" y="65">ON</text>
   <a xmlns:xlink="http://www.w3.org/1999/xlink"
      xlink:href="#user_or_role"
      xlink:title="user_or_role">
      <rect x="263" y="47" width="102" height="32"/>
      <rect x="261" y="45" width="102" height="32" class="nonterminal"/>
      <text class="nonterminal" x="271" y="65">user_or_role</text>
   </a>
   <rect x="385" y="47" width="38" height="32" rx="10"/>
   <rect x="383"
         y="45"
         width="38"
         height="32"
         class="terminal"
         rx="10"/>
   <text class="terminal" x="393" y="65">TO</text>
   <a xmlns:xlink="http://www.w3.org/1999/xlink"
      xlink:href="#account_or_role"
      xlink:title="account_or_role">
      <rect x="463" y="47" width="122" height="32"/>
      <rect x="461" y="45" width="122" height="32" class="nonterminal"/>
      <text class="nonterminal" x="471" y="65">account_or_role</text>
   </a>
   <rect x="463" y="3" width="24" height="32" rx="10"/>
   <rect x="461"
         y="1"
         width="24"
         height="32"
         class="terminal"
         rx="10"/>
   <text class="terminal" x="471" y="21">,</text>
   <rect x="645" y="79" width="58" height="32" rx="10"/>
   <rect x="643"
         y="77"
         width="58"
         height="32"
         class="terminal"
         rx="10"/>
   <text class="terminal" x="653" y="97">WITH</text>
   <rect x="723" y="79" width="66" height="32" rx="10"/>
   <rect x="721"
         y="77"
         width="66"
         height="32"
         class="terminal"
         rx="10"/>
   <text class="terminal" x="731" y="97">GRANT</text>
   <rect x="809" y="79" width="76" height="32" rx="10"/>
   <rect x="807"
         y="77"
         width="76"
         height="32"
         class="terminal"
         rx="10"/>
   <text class="terminal" x="817" y="97">OPTION</text>
   <path class="line"
         d="m17 61 h2 m0 0 h10 m66 0 h10 m0 0 h10 m66 0 h10 m0 0 h10 m40 0 h10 m0 0 h10 m102 0 h10 m0 0 h10 m38 0 h10 m20 0 h10 m122 0 h10 m-162 0 l20 0 m-1 0 q-9 0 -9 -10 l0 -24 q0 -10 10 -10 m142 44 l20 0 m-20 0 q10 0 10 -10 l0 -24 q0 -10 -10 -10 m-142 0 h10 m24 0 h10 m0 0 h98 m40 44 h10 m0 0 h250 m-280 0 h20 m260 0 h20 m-300 0 q10 0 10 10 m280 0 q0 -10 10 -10 m-290 10 v12 m280 0 v-12 m-280 12 q0 10 10 10 m260 0 q10 0 10 -10 m-270 10 h10 m58 0 h10 m0 0 h10 m66 0 h10 m0 0 h10 m76 0 h10 m23 -32 h-3"/>
   <polygon points="923 61 931 57 931 65"/>
   <polygon points="923 61 915 57 915 65"/>
</svg>
