<?xml version="1.0" encoding="UTF-8"?>
<svg xmlns="http://www.w3.org/2000/svg" width="875" height="349">
   <defs>
      <style type="text/css">
    @namespace "http://www.w3.org/2000/svg";
    .line                 {fill: none; stroke: #332900; stroke-width: 1;}
    .bold-line            {stroke: #141000; shape-rendering: crispEdges; stroke-width: 2;}
    .thin-line            {stroke: #1F1800; shape-rendering: crispEdges}
    .filled               {fill: #332900; stroke: none;}
    text.terminal         {font-family: Verdana, Sans-serif;
                            font-size: 12px;
                            fill: #141000;
                            font-weight: bold;
                          }
    text.nonterminal      {font-family: Verdana, Sans-serif;
                            font-size: 12px;
                            fill: #1A1400;
                            font-weight: normal;
                          }
    text.regexp           {font-family: Verdana, Sans-serif;
                            font-size: 12px;
                            fill: #1F1800;
                            font-weight: normal;
                          }
    rect, circle, polygon {fill: #332900; stroke: #332900;}
    rect.terminal         {fill: #FFDB4D; stroke: #332900; stroke-width: 1;}
    rect.nonterminal      {fill: #FFEC9E; stroke: #332900; stroke-width: 1;}
    rect.text             {fill: none; stroke: none;}
    polygon.regexp        {fill: #FFF4C7; stroke: #332900; stroke-width: 1;}
  </style>
   </defs>
   <polygon points="9 61 1 57 1 65"/>
   <polygon points="17 61 9 57 9 65"/>
   <rect x="31" y="47" width="66" height="32" rx="10"/>
   <rect x="29"
         y="45"
         width="66"
         height="32"
         class="terminal"
         rx="10"/>
   <text class="terminal" x="39" y="65">GRANT</text>
   <a xmlns:xlink="http://www.w3.org/1999/xlink"
      xlink:href="#priv_type"
      xlink:title="priv_type">
      <rect x="137" y="47" width="80" height="32"/>
      <rect x="135" y="45" width="80" height="32" class="nonterminal"/>
      <text class="nonterminal" x="145" y="65">priv_type</text>
   </a>
   <rect x="257" y="79" width="26" height="32" rx="10"/>
   <rect x="255"
         y="77"
         width="26"
         height="32"
         class="terminal"
         rx="10"/>
   <text class="terminal" x="265" y="97">(</text>
   <a xmlns:xlink="http://www.w3.org/1999/xlink"
      xlink:href="#column_list"
      xlink:title="column_list">
      <rect x="303" y="79" width="92" height="32"/>
      <rect x="301" y="77" width="92" height="32" class="nonterminal"/>
      <text class="nonterminal" x="311" y="97">column_list</text>
   </a>
   <rect x="415" y="79" width="26" height="32" rx="10"/>
   <rect x="413"
         y="77"
         width="26"
         height="32"
         class="terminal"
         rx="10"/>
   <text class="terminal" x="423" y="97">)</text>
   <rect x="137" y="3" width="24" height="32" rx="10"/>
   <rect x="135"
         y="1"
         width="24"
         height="32"
         class="terminal"
         rx="10"/>
   <text class="terminal" x="145" y="21">,</text>
   <rect x="501" y="47" width="40" height="32" rx="10"/>
   <rect x="499"
         y="45"
         width="40"
         height="32"
         class="terminal"
         rx="10"/>
   <text class="terminal" x="509" y="65">ON</text>
   <a xmlns:xlink="http://www.w3.org/1999/xlink"
      xlink:href="#object_type"
      xlink:title="object_type">
      <rect x="581" y="79" width="94" height="32"/>
      <rect x="579" y="77" width="94" height="32" class="nonterminal"/>
      <text class="nonterminal" x="589" y="97">object_type</text>
   </a>
   <a xmlns:xlink="http://www.w3.org/1999/xlink"
      xlink:href="#priv_level"
      xlink:title="priv_level">
      <rect x="715" y="47" width="80" height="32"/>
      <rect x="713" y="45" width="80" height="32" class="nonterminal"/>
      <text class="nonterminal" x="723" y="65">priv_level</text>
   </a>
   <rect x="815" y="47" width="38" height="32" rx="10"/>
   <rect x="813"
         y="45"
         width="38"
         height="32"
         class="terminal"
         rx="10"/>
   <text class="terminal" x="823" y="65">TO</text>
   <a xmlns:xlink="http://www.w3.org/1999/xlink"
      xlink:href="#account_or_role"
      xlink:title="account_or_role">
      <rect x="113" y="189" width="122" height="32"/>
      <rect x="111" y="187" width="122" height="32" class="nonterminal"/>
      <text class="nonterminal" x="121" y="207">account_or_role</text>
   </a>
   <rect x="113" y="145" width="24" height="32" rx="10"/>
   <rect x="111"
         y="143"
         width="24"
         height="32"
         class="terminal"
         rx="10"/>
   <text class="terminal" x="121" y="163">,</text>
   <rect x="295" y="189" width="82" height="32" rx="10"/>
   <rect x="293"
         y="187"
         width="82"
         height="32"
         class="terminal"
         rx="10"/>
   <text class="terminal" x="303" y="207">REQUIRE</text>
   <rect x="417" y="189" width="58" height="32" rx="10"/>
   <rect x="415"
         y="187"
         width="58"
         height="32"
         class="terminal"
         rx="10"/>
   <text class="terminal" x="425" y="207">NONE</text>
   <a xmlns:xlink="http://www.w3.org/1999/xlink"
      xlink:href="#tls_option"
      xlink:title="tls_option">
      <rect x="437" y="299" width="84" height="32"/>
      <rect x="435" y="297" width="84" height="32" class="nonterminal"/>
      <text class="nonterminal" x="445" y="317">tls_option</text>
   </a>
   <rect x="437" y="233" width="48" height="32" rx="10"/>
   <rect x="435"
         y="231"
         width="48"
         height="32"
         class="terminal"
         rx="10"/>
   <text class="terminal" x="445" y="251">AND</text>
   <rect x="621" y="221" width="58" height="32" rx="10"/>
   <rect x="619"
         y="219"
         width="58"
         height="32"
         class="terminal"
         rx="10"/>
   <text class="terminal" x="629" y="239">WITH</text>
   <a xmlns:xlink="http://www.w3.org/1999/xlink"
      xlink:href="#grant_option_list"
      xlink:title="grant_option_list">
      <rect x="699" y="221" width="128" height="32"/>
      <rect x="697" y="219" width="128" height="32" class="nonterminal"/>
      <text class="nonterminal" x="707" y="239">grant_option_list</text>
   </a>
   <path class="line"
         d="m17 61 h2 m0 0 h10 m66 0 h10 m20 0 h10 m80 0 h10 m20 0 h10 m0 0 h194 m-224 0 h20 m204 0 h20 m-244 0 q10 0 10 10 m224 0 q0 -10 10 -10 m-234 10 v12 m224 0 v-12 m-224 12 q0 10 10 10 m204 0 q10 0 10 -10 m-214 10 h10 m26 0 h10 m0 0 h10 m92 0 h10 m0 0 h10 m26 0 h10 m-344 -32 l20 0 m-1 0 q-9 0 -9 -10 l0 -24 q0 -10 10 -10 m344 44 l20 0 m-20 0 q10 0 10 -10 l0 -24 q0 -10 -10 -10 m-344 0 h10 m24 0 h10 m0 0 h300 m20 44 h10 m40 0 h10 m20 0 h10 m0 0 h104 m-134 0 h20 m114 0 h20 m-154 0 q10 0 10 10 m134 0 q0 -10 10 -10 m-144 10 v12 m134 0 v-12 m-134 12 q0 10 10 10 m114 0 q10 0 10 -10 m-124 10 h10 m94 0 h10 m20 -32 h10 m80 0 h10 m0 0 h10 m38 0 h10 m2 0 l2 0 m2 0 l2 0 m2 0 l2 0 m-804 142 l2 0 m2 0 l2 0 m2 0 l2 0 m22 0 h10 m122 0 h10 m-162 0 l20 0 m-1 0 q-9 0 -9 -10 l0 -24 q0 -10 10 -10 m142 44 l20 0 m-20 0 q10 0 10 -10 l0 -24 q0 -10 -10 -10 m-142 0 h10 m24 0 h10 m0 0 h98 m40 44 h10 m82 0 h10 m20 0 h10 m58 0 h10 m0 0 h66 m-164 0 h20 m144 0 h20 m-184 0 q10 0 10 10 m164 0 q0 -10 10 -10 m-174 10 v90 m164 0 v-90 m-164 90 q0 10 10 10 m144 0 q10 0 10 -10 m-134 10 h10 m84 0 h10 m-124 0 l20 0 m-1 0 q-9 0 -9 -10 l0 -12 q0 -10 10 -10 m104 32 l20 0 m-20 0 q10 0 10 -10 l0 -12 q0 -10 -10 -10 m-104 0 h10 m0 0 h94 m-114 10 l0 -34 q0 -10 10 -10 m114 44 l0 -34 q0 -10 -10 -10 m-104 0 h10 m48 0 h10 m0 0 h36 m-266 -44 h20 m286 0 h20 m-326 0 q10 0 10 10 m306 0 q0 -10 10 -10 m-316 10 v124 m306 0 v-124 m-306 124 q0 10 10 10 m286 0 q10 0 10 -10 m-296 10 h10 m0 0 h276 m40 -144 h10 m0 0 h216 m-246 0 h20 m226 0 h20 m-266 0 q10 0 10 10 m246 0 q0 -10 10 -10 m-256 10 v12 m246 0 v-12 m-246 12 q0 10 10 10 m226 0 q10 0 10 -10 m-236 10 h10 m58 0 h10 m0 0 h10 m128 0 h10 m23 -32 h-3"/>
   <polygon points="865 203 873 199 873 207"/>
   <polygon points="865 203 857 199 857 207"/>
</svg>
