<?xml version="1.0" encoding="UTF-8"?>
<svg xmlns="http://www.w3.org/2000/svg" width="855" height="113">
   <defs>
      <style type="text/css">
    @namespace "http://www.w3.org/2000/svg";
    .line                 {fill: none; stroke: #332900; stroke-width: 1;}
    .bold-line            {stroke: #141000; shape-rendering: crispEdges; stroke-width: 2;}
    .thin-line            {stroke: #1F1800; shape-rendering: crispEdges}
    .filled               {fill: #332900; stroke: none;}
    text.terminal         {font-family: Verdana, Sans-serif;
                            font-size: 12px;
                            fill: #141000;
                            font-weight: bold;
                          }
    text.nonterminal      {font-family: Verdana, Sans-serif;
                            font-size: 12px;
                            fill: #1A1400;
                            font-weight: normal;
                          }
    text.regexp           {font-family: Verdana, Sans-serif;
                            font-size: 12px;
                            fill: #1F1800;
                            font-weight: normal;
                          }
    rect, circle, polygon {fill: #332900; stroke: #332900;}
    rect.terminal         {fill: #FFDB4D; stroke: #332900; stroke-width: 1;}
    rect.nonterminal      {fill: #FFEC9E; stroke: #332900; stroke-width: 1;}
    rect.text             {fill: none; stroke: none;}
    polygon.regexp        {fill: #FFF4C7; stroke: #332900; stroke-width: 1;}
  </style>
   </defs>
   <polygon points="9 61 1 57 1 65"/>
   <polygon points="17 61 9 57 9 65"/>
   <rect x="31" y="47" width="34" height="32" rx="10"/>
   <rect x="29"
         y="45"
         width="34"
         height="32"
         class="terminal"
         rx="10"/>
   <text class="terminal" x="39" y="65">IF</text>
   <a xmlns:xlink="http://www.w3.org/1999/xlink"
      xlink:href="#search_condition"
      xlink:title="search_condition">
      <rect x="105" y="47" width="128" height="32"/>
      <rect x="103" y="45" width="128" height="32" class="nonterminal"/>
      <text class="nonterminal" x="113" y="65">search_condition</text>
   </a>
   <rect x="253" y="47" width="56" height="32" rx="10"/>
   <rect x="251"
         y="45"
         width="56"
         height="32"
         class="terminal"
         rx="10"/>
   <text class="terminal" x="261" y="65">THEN</text>
   <a xmlns:xlink="http://www.w3.org/1999/xlink"
      xlink:href="#statement_list"
      xlink:title="statement_list">
      <rect x="329" y="47" width="112" height="32"/>
      <rect x="327" y="45" width="112" height="32" class="nonterminal"/>
      <text class="nonterminal" x="337" y="65">statement_list</text>
   </a>
   <rect x="105" y="3" width="68" height="32" rx="10"/>
   <rect x="103"
         y="1"
         width="68"
         height="32"
         class="terminal"
         rx="10"/>
   <text class="terminal" x="113" y="21">ELSEIF</text>
   <rect x="501" y="79" width="52" height="32" rx="10"/>
   <rect x="499"
         y="77"
         width="52"
         height="32"
         class="terminal"
         rx="10"/>
   <text class="terminal" x="509" y="97">ELSE</text>
   <a xmlns:xlink="http://www.w3.org/1999/xlink"
      xlink:href="#statement_list"
      xlink:title="statement_list">
      <rect x="573" y="79" width="112" height="32"/>
      <rect x="571" y="77" width="112" height="32" class="nonterminal"/>
      <text class="nonterminal" x="581" y="97">statement_list</text>
   </a>
   <rect x="725" y="47" width="48" height="32" rx="10"/>
   <rect x="723"
         y="45"
         width="48"
         height="32"
         class="terminal"
         rx="10"/>
   <text class="terminal" x="733" y="65">END</text>
   <rect x="793" y="47" width="34" height="32" rx="10"/>
   <rect x="791"
         y="45"
         width="34"
         height="32"
         class="terminal"
         rx="10"/>
   <text class="terminal" x="801" y="65">IF</text>
   <path class="line"
         d="m17 61 h2 m0 0 h10 m34 0 h10 m20 0 h10 m128 0 h10 m0 0 h10 m56 0 h10 m0 0 h10 m112 0 h10 m-376 0 l20 0 m-1 0 q-9 0 -9 -10 l0 -24 q0 -10 10 -10 m356 44 l20 0 m-20 0 q10 0 10 -10 l0 -24 q0 -10 -10 -10 m-356 0 h10 m68 0 h10 m0 0 h268 m40 44 h10 m0 0 h194 m-224 0 h20 m204 0 h20 m-244 0 q10 0 10 10 m224 0 q0 -10 10 -10 m-234 10 v12 m224 0 v-12 m-224 12 q0 10 10 10 m204 0 q10 0 10 -10 m-214 10 h10 m52 0 h10 m0 0 h10 m112 0 h10 m20 -32 h10 m48 0 h10 m0 0 h10 m34 0 h10 m3 0 h-3"/>
   <polygon points="845 61 853 57 853 65"/>
   <polygon points="845 61 837 57 837 65"/>
</svg>
