<?xml version="1.0" encoding="UTF-8"?>
<svg xmlns="http://www.w3.org/2000/svg" width="941" height="437">
   <defs>
      <style type="text/css">
    @namespace "http://www.w3.org/2000/svg";
    .line                 {fill: none; stroke: #332900; stroke-width: 1;}
    .bold-line            {stroke: #141000; shape-rendering: crispEdges; stroke-width: 2;}
    .thin-line            {stroke: #1F1800; shape-rendering: crispEdges}
    .filled               {fill: #332900; stroke: none;}
    text.terminal         {font-family: Verdana, Sans-serif;
                            font-size: 12px;
                            fill: #141000;
                            font-weight: bold;
                          }
    text.nonterminal      {font-family: Verdana, Sans-serif;
                            font-size: 12px;
                            fill: #1A1400;
                            font-weight: normal;
                          }
    text.regexp           {font-family: Verdana, Sans-serif;
                            font-size: 12px;
                            fill: #1F1800;
                            font-weight: normal;
                          }
    rect, circle, polygon {fill: #332900; stroke: #332900;}
    rect.terminal         {fill: #FFDB4D; stroke: #332900; stroke-width: 1;}
    rect.nonterminal      {fill: #FFEC9E; stroke: #332900; stroke-width: 1;}
    rect.text             {fill: none; stroke: none;}
    polygon.regexp        {fill: #FFF4C7; stroke: #332900; stroke-width: 1;}
  </style>
   </defs>
   <polygon points="11 17 3 13 3 21"/>
   <polygon points="19 17 11 13 11 21"/>
   <rect x="33" y="3" width="70" height="32" rx="10"/>
   <rect x="31"
         y="1"
         width="70"
         height="32"
         class="terminal"
         rx="10"/>
   <text class="terminal" x="41" y="21">INSERT</text>
   <rect x="143" y="35" width="130" height="32" rx="10"/>
   <rect x="141"
         y="33"
         width="130"
         height="32"
         class="terminal"
         rx="10"/>
   <text class="terminal" x="151" y="53">LOW_PRIORITY</text>
   <rect x="143" y="79" width="82" height="32" rx="10"/>
   <rect x="141"
         y="77"
         width="82"
         height="32"
         class="terminal"
         rx="10"/>
   <text class="terminal" x="151" y="97">DELAYED</text>
   <rect x="143" y="123" width="134" height="32" rx="10"/>
   <rect x="141"
         y="121"
         width="134"
         height="32"
         class="terminal"
         rx="10"/>
   <text class="terminal" x="151" y="141">HIGH_PRIORITY</text>
   <rect x="337" y="35" width="74" height="32" rx="10"/>
   <rect x="335"
         y="33"
         width="74"
         height="32"
         class="terminal"
         rx="10"/>
   <text class="terminal" x="345" y="53">IGNORE</text>
   <rect x="471" y="35" width="56" height="32" rx="10"/>
   <rect x="469"
         y="33"
         width="56"
         height="32"
         class="terminal"
         rx="10"/>
   <text class="terminal" x="479" y="53">INTO</text>
   <a xmlns:xlink="http://www.w3.org/1999/xlink"
      xlink:href="#tbl_name"
      xlink:title="tbl_name">
      <rect x="567" y="3" width="80" height="32"/>
      <rect x="565" y="1" width="80" height="32" class="nonterminal"/>
      <text class="nonterminal" x="575" y="21">tbl_name</text>
   </a>
   <rect x="67" y="265" width="98" height="32" rx="10"/>
   <rect x="65"
         y="263"
         width="98"
         height="32"
         class="terminal"
         rx="10"/>
   <text class="terminal" x="75" y="283">PARTITION</text>
   <rect x="185" y="265" width="26" height="32" rx="10"/>
   <rect x="183"
         y="263"
         width="26"
         height="32"
         class="terminal"
         rx="10"/>
   <text class="terminal" x="193" y="283">(</text>
   <a xmlns:xlink="http://www.w3.org/1999/xlink"
      xlink:href="#partition_list"
      xlink:title="partition_list">
      <rect x="231" y="265" width="100" height="32"/>
      <rect x="229" y="263" width="100" height="32" class="nonterminal"/>
      <text class="nonterminal" x="239" y="283">partition_list</text>
   </a>
   <rect x="351" y="265" width="26" height="32" rx="10"/>
   <rect x="349"
         y="263"
         width="26"
         height="32"
         class="terminal"
         rx="10"/>
   <text class="terminal" x="359" y="283">)</text>
   <rect x="437" y="233" width="26" height="32" rx="10"/>
   <rect x="435"
         y="231"
         width="26"
         height="32"
         class="terminal"
         rx="10"/>
   <text class="terminal" x="445" y="251">(</text>
   <a xmlns:xlink="http://www.w3.org/1999/xlink"
      xlink:href="#col"
      xlink:title="col">
      <rect x="503" y="233" width="38" height="32"/>
      <rect x="501" y="231" width="38" height="32" class="nonterminal"/>
      <text class="nonterminal" x="511" y="251">col</text>
   </a>
   <rect x="503" y="189" width="24" height="32" rx="10"/>
   <rect x="501"
         y="187"
         width="24"
         height="32"
         class="terminal"
         rx="10"/>
   <text class="terminal" x="511" y="207">,</text>
   <rect x="581" y="233" width="26" height="32" rx="10"/>
   <rect x="579"
         y="231"
         width="26"
         height="32"
         class="terminal"
         rx="10"/>
   <text class="terminal" x="589" y="251">)</text>
   <rect x="667" y="233" width="72" height="32" rx="10"/>
   <rect x="665"
         y="231"
         width="72"
         height="32"
         class="terminal"
         rx="10"/>
   <text class="terminal" x="675" y="251">VALUES</text>
   <rect x="667" y="277" width="64" height="32" rx="10"/>
   <rect x="665"
         y="275"
         width="64"
         height="32"
         class="terminal"
         rx="10"/>
   <text class="terminal" x="675" y="295">VALUE</text>
   <a xmlns:xlink="http://www.w3.org/1999/xlink"
      xlink:href="#value_list"
      xlink:title="value_list">
      <rect x="799" y="233" width="80" height="32"/>
      <rect x="797" y="231" width="80" height="32" class="nonterminal"/>
      <text class="nonterminal" x="807" y="251">value_list</text>
   </a>
   <rect x="799" y="189" width="24" height="32" rx="10"/>
   <rect x="797"
         y="187"
         width="24"
         height="32"
         class="terminal"
         rx="10"/>
   <text class="terminal" x="807" y="207">,</text>
   <rect x="45" y="387" width="40" height="32" rx="10"/>
   <rect x="43"
         y="385"
         width="40"
         height="32"
         class="terminal"
         rx="10"/>
   <text class="terminal" x="53" y="405">ON</text>
   <rect x="105" y="387" width="98" height="32" rx="10"/>
   <rect x="103"
         y="385"
         width="98"
         height="32"
         class="terminal"
         rx="10"/>
   <text class="terminal" x="113" y="405">DUPLICATE</text>
   <rect x="223" y="387" width="46" height="32" rx="10"/>
   <rect x="221"
         y="385"
         width="46"
         height="32"
         class="terminal"
         rx="10"/>
   <text class="terminal" x="231" y="405">KEY</text>
   <rect x="289" y="387" width="74" height="32" rx="10"/>
   <rect x="287"
         y="385"
         width="74"
         height="32"
         class="terminal"
         rx="10"/>
   <text class="terminal" x="297" y="405">UPDATE</text>
   <a xmlns:xlink="http://www.w3.org/1999/xlink"
      xlink:href="#col"
      xlink:title="col">
      <rect x="403" y="387" width="38" height="32"/>
      <rect x="401" y="385" width="38" height="32" class="nonterminal"/>
      <text class="nonterminal" x="411" y="405">col</text>
   </a>
   <rect x="461" y="387" width="30" height="32" rx="10"/>
   <rect x="459"
         y="385"
         width="30"
         height="32"
         class="terminal"
         rx="10"/>
   <text class="terminal" x="469" y="405">=</text>
   <a xmlns:xlink="http://www.w3.org/1999/xlink"
      xlink:href="#expr"
      xlink:title="expr">
      <rect x="511" y="387" width="48" height="32"/>
      <rect x="509" y="385" width="48" height="32" class="nonterminal"/>
      <text class="nonterminal" x="519" y="405">expr</text>
   </a>
   <rect x="403" y="343" width="24" height="32" rx="10"/>
   <rect x="401"
         y="341"
         width="24"
         height="32"
         class="terminal"
         rx="10"/>
   <text class="terminal" x="411" y="361">,</text>
   <rect x="639" y="387" width="100" height="32" rx="10"/>
   <rect x="637"
         y="385"
         width="100"
         height="32"
         class="terminal"
         rx="10"/>
   <text class="terminal" x="647" y="405">RETURNING</text>
   <a xmlns:xlink="http://www.w3.org/1999/xlink"
      xlink:href="#select_expr"
      xlink:title="select_expr">
      <rect x="779" y="387" width="94" height="32"/>
      <rect x="777" y="385" width="94" height="32" class="nonterminal"/>
      <text class="nonterminal" x="787" y="405">select_expr</text>
   </a>
   <rect x="779" y="343" width="24" height="32" rx="10"/>
   <rect x="777"
         y="341"
         width="24"
         height="32"
         class="terminal"
         rx="10"/>
   <text class="terminal" x="787" y="361">,</text>
   <path class="line"
         d="m19 17 h2 m0 0 h10 m70 0 h10 m20 0 h10 m0 0 h144 m-174 0 h20 m154 0 h20 m-194 0 q10 0 10 10 m174 0 q0 -10 10 -10 m-184 10 v12 m174 0 v-12 m-174 12 q0 10 10 10 m154 0 q10 0 10 -10 m-164 10 h10 m130 0 h10 m0 0 h4 m-164 -10 v20 m174 0 v-20 m-174 20 v24 m174 0 v-24 m-174 24 q0 10 10 10 m154 0 q10 0 10 -10 m-164 10 h10 m82 0 h10 m0 0 h52 m-164 -10 v20 m174 0 v-20 m-174 20 v24 m174 0 v-24 m-174 24 q0 10 10 10 m154 0 q10 0 10 -10 m-164 10 h10 m134 0 h10 m40 -120 h10 m0 0 h84 m-114 0 h20 m94 0 h20 m-134 0 q10 0 10 10 m114 0 q0 -10 10 -10 m-124 10 v12 m114 0 v-12 m-114 12 q0 10 10 10 m94 0 q10 0 10 -10 m-104 10 h10 m74 0 h10 m40 -32 h10 m0 0 h66 m-96 0 h20 m76 0 h20 m-116 0 q10 0 10 10 m96 0 q0 -10 10 -10 m-106 10 v12 m96 0 v-12 m-96 12 q0 10 10 10 m76 0 q10 0 10 -10 m-86 10 h10 m56 0 h10 m20 -32 h10 m80 0 h10 m2 0 l2 0 m2 0 l2 0 m2 0 l2 0 m-644 230 l2 0 m2 0 l2 0 m2 0 l2 0 m22 0 h10 m0 0 h320 m-350 0 h20 m330 0 h20 m-370 0 q10 0 10 10 m350 0 q0 -10 10 -10 m-360 10 v12 m350 0 v-12 m-350 12 q0 10 10 10 m330 0 q10 0 10 -10 m-340 10 h10 m98 0 h10 m0 0 h10 m26 0 h10 m0 0 h10 m100 0 h10 m0 0 h10 m26 0 h10 m40 -32 h10 m26 0 h10 m20 0 h10 m38 0 h10 m-78 0 l20 0 m-1 0 q-9 0 -9 -10 l0 -24 q0 -10 10 -10 m58 44 l20 0 m-20 0 q10 0 10 -10 l0 -24 q0 -10 -10 -10 m-58 0 h10 m24 0 h10 m0 0 h14 m20 44 h10 m26 0 h10 m-210 0 h20 m190 0 h20 m-230 0 q10 0 10 10 m210 0 q0 -10 10 -10 m-220 10 v14 m210 0 v-14 m-210 14 q0 10 10 10 m190 0 q10 0 10 -10 m-200 10 h10 m0 0 h180 m40 -34 h10 m72 0 h10 m-112 0 h20 m92 0 h20 m-132 0 q10 0 10 10 m112 0 q0 -10 10 -10 m-122 10 v24 m112 0 v-24 m-112 24 q0 10 10 10 m92 0 q10 0 10 -10 m-102 10 h10 m64 0 h10 m0 0 h8 m40 -44 h10 m80 0 h10 m-120 0 l20 0 m-1 0 q-9 0 -9 -10 l0 -24 q0 -10 10 -10 m100 44 l20 0 m-20 0 q10 0 10 -10 l0 -24 q0 -10 -10 -10 m-100 0 h10 m24 0 h10 m0 0 h56 m22 44 l2 0 m2 0 l2 0 m2 0 l2 0 m-918 154 l2 0 m2 0 l2 0 m2 0 l2 0 m22 0 h10 m40 0 h10 m0 0 h10 m98 0 h10 m0 0 h10 m46 0 h10 m0 0 h10 m74 0 h10 m20 0 h10 m38 0 h10 m0 0 h10 m30 0 h10 m0 0 h10 m48 0 h10 m-196 0 l20 0 m-1 0 q-9 0 -9 -10 l0 -24 q0 -10 10 -10 m176 44 l20 0 m-20 0 q10 0 10 -10 l0 -24 q0 -10 -10 -10 m-176 0 h10 m24 0 h10 m0 0 h132 m-554 44 h20 m554 0 h20 m-594 0 q10 0 10 10 m574 0 q0 -10 10 -10 m-584 10 v14 m574 0 v-14 m-574 14 q0 10 10 10 m554 0 q10 0 10 -10 m-564 10 h10 m0 0 h544 m40 -34 h10 m100 0 h10 m20 0 h10 m94 0 h10 m-134 0 l20 0 m-1 0 q-9 0 -9 -10 l0 -24 q0 -10 10 -10 m114 44 l20 0 m-20 0 q10 0 10 -10 l0 -24 q0 -10 -10 -10 m-114 0 h10 m24 0 h10 m0 0 h70 m-274 44 h20 m274 0 h20 m-314 0 q10 0 10 10 m294 0 q0 -10 10 -10 m-304 10 v14 m294 0 v-14 m-294 14 q0 10 10 10 m274 0 q10 0 10 -10 m-284 10 h10 m0 0 h264 m23 -34 h-3"/>
   <polygon points="931 401 939 397 939 405"/>
   <polygon points="931 401 923 397 923 405"/>
</svg>
