<?xml version="1.0" encoding="UTF-8"?>
<svg xmlns="http://www.w3.org/2000/svg" width="939" height="283">
   <defs>
      <style type="text/css">
    @namespace "http://www.w3.org/2000/svg";
    .line                 {fill: none; stroke: #332900; stroke-width: 1;}
    .bold-line            {stroke: #141000; shape-rendering: crispEdges; stroke-width: 2;}
    .thin-line            {stroke: #1F1800; shape-rendering: crispEdges}
    .filled               {fill: #332900; stroke: none;}
    text.terminal         {font-family: Verdana, Sans-serif;
                            font-size: 12px;
                            fill: #141000;
                            font-weight: bold;
                          }
    text.nonterminal      {font-family: Verdana, Sans-serif;
                            font-size: 12px;
                            fill: #1A1400;
                            font-weight: normal;
                          }
    text.regexp           {font-family: Verdana, Sans-serif;
                            font-size: 12px;
                            fill: #1F1800;
                            font-weight: normal;
                          }
    rect, circle, polygon {fill: #332900; stroke: #332900;}
    rect.terminal         {fill: #FFDB4D; stroke: #332900; stroke-width: 1;}
    rect.nonterminal      {fill: #FFEC9E; stroke: #332900; stroke-width: 1;}
    rect.text             {fill: none; stroke: none;}
    polygon.regexp        {fill: #FFF4C7; stroke: #332900; stroke-width: 1;}
  </style>
   </defs>
   <polygon points="9 61 1 57 1 65"/>
   <polygon points="17 61 9 57 9 65"/>
   <rect x="31" y="47" width="70" height="32" rx="10"/>
   <rect x="29"
         y="45"
         width="70"
         height="32"
         class="terminal"
         rx="10"/>
   <text class="terminal" x="39" y="65">INSERT</text>
   <rect x="141" y="79" width="130" height="32" rx="10"/>
   <rect x="139"
         y="77"
         width="130"
         height="32"
         class="terminal"
         rx="10"/>
   <text class="terminal" x="149" y="97">LOW_PRIORITY</text>
   <rect x="141" y="123" width="134" height="32" rx="10"/>
   <rect x="139"
         y="121"
         width="134"
         height="32"
         class="terminal"
         rx="10"/>
   <text class="terminal" x="149" y="141">HIGH_PRIORITY</text>
   <rect x="335" y="79" width="74" height="32" rx="10"/>
   <rect x="333"
         y="77"
         width="74"
         height="32"
         class="terminal"
         rx="10"/>
   <text class="terminal" x="343" y="97">IGNORE</text>
   <rect x="469" y="79" width="56" height="32" rx="10"/>
   <rect x="467"
         y="77"
         width="56"
         height="32"
         class="terminal"
         rx="10"/>
   <text class="terminal" x="477" y="97">INTO</text>
   <a xmlns:xlink="http://www.w3.org/1999/xlink"
      xlink:href="#tbl_name"
      xlink:title="tbl_name">
      <rect x="565" y="47" width="80" height="32"/>
      <rect x="563" y="45" width="80" height="32" class="nonterminal"/>
      <text class="nonterminal" x="573" y="65">tbl_name</text>
   </a>
   <rect x="685" y="47" width="26" height="32" rx="10"/>
   <rect x="683"
         y="45"
         width="26"
         height="32"
         class="terminal"
         rx="10"/>
   <text class="terminal" x="693" y="65">(</text>
   <a xmlns:xlink="http://www.w3.org/1999/xlink"
      xlink:href="#col_name"
      xlink:title="col_name">
      <rect x="751" y="47" width="80" height="32"/>
      <rect x="749" y="45" width="80" height="32" class="nonterminal"/>
      <text class="nonterminal" x="759" y="65">col_name</text>
   </a>
   <rect x="751" y="3" width="24" height="32" rx="10"/>
   <rect x="749"
         y="1"
         width="24"
         height="32"
         class="terminal"
         rx="10"/>
   <text class="terminal" x="759" y="21">,</text>
   <rect x="871" y="47" width="26" height="32" rx="10"/>
   <rect x="869"
         y="45"
         width="26"
         height="32"
         class="terminal"
         rx="10"/>
   <text class="terminal" x="879" y="65">)</text>
   <a xmlns:xlink="http://www.w3.org/1999/xlink"
      xlink:href="#select_statement"
      xlink:title="select_statement">
      <rect x="145" y="233" width="130" height="32"/>
      <rect x="143" y="231" width="130" height="32" class="nonterminal"/>
      <text class="nonterminal" x="153" y="251">select_statement</text>
   </a>
   <rect x="315" y="233" width="40" height="32" rx="10"/>
   <rect x="313"
         y="231"
         width="40"
         height="32"
         class="terminal"
         rx="10"/>
   <text class="terminal" x="323" y="251">ON</text>
   <rect x="375" y="233" width="98" height="32" rx="10"/>
   <rect x="373"
         y="231"
         width="98"
         height="32"
         class="terminal"
         rx="10"/>
   <text class="terminal" x="383" y="251">DUPLICATE</text>
   <rect x="493" y="233" width="46" height="32" rx="10"/>
   <rect x="491"
         y="231"
         width="46"
         height="32"
         class="terminal"
         rx="10"/>
   <text class="terminal" x="501" y="251">KEY</text>
   <rect x="559" y="233" width="74" height="32" rx="10"/>
   <rect x="557"
         y="231"
         width="74"
         height="32"
         class="terminal"
         rx="10"/>
   <text class="terminal" x="567" y="251">UPDATE</text>
   <a xmlns:xlink="http://www.w3.org/1999/xlink"
      xlink:href="#col_name"
      xlink:title="col_name">
      <rect x="673" y="233" width="80" height="32"/>
      <rect x="671" y="231" width="80" height="32" class="nonterminal"/>
      <text class="nonterminal" x="681" y="251">col_name</text>
   </a>
   <rect x="773" y="233" width="30" height="32" rx="10"/>
   <rect x="771"
         y="231"
         width="30"
         height="32"
         class="terminal"
         rx="10"/>
   <text class="terminal" x="781" y="251">=</text>
   <a xmlns:xlink="http://www.w3.org/1999/xlink"
      xlink:href="#expr"
      xlink:title="expr">
      <rect x="823" y="233" width="48" height="32"/>
      <rect x="821" y="231" width="48" height="32" class="nonterminal"/>
      <text class="nonterminal" x="831" y="251">expr</text>
   </a>
   <rect x="673" y="189" width="24" height="32" rx="10"/>
   <rect x="671"
         y="187"
         width="24"
         height="32"
         class="terminal"
         rx="10"/>
   <text class="terminal" x="681" y="207">,</text>
   <path class="line"
         d="m17 61 h2 m0 0 h10 m70 0 h10 m20 0 h10 m0 0 h144 m-174 0 h20 m154 0 h20 m-194 0 q10 0 10 10 m174 0 q0 -10 10 -10 m-184 10 v12 m174 0 v-12 m-174 12 q0 10 10 10 m154 0 q10 0 10 -10 m-164 10 h10 m130 0 h10 m0 0 h4 m-164 -10 v20 m174 0 v-20 m-174 20 v24 m174 0 v-24 m-174 24 q0 10 10 10 m154 0 q10 0 10 -10 m-164 10 h10 m134 0 h10 m40 -76 h10 m0 0 h84 m-114 0 h20 m94 0 h20 m-134 0 q10 0 10 10 m114 0 q0 -10 10 -10 m-124 10 v12 m114 0 v-12 m-114 12 q0 10 10 10 m94 0 q10 0 10 -10 m-104 10 h10 m74 0 h10 m40 -32 h10 m0 0 h66 m-96 0 h20 m76 0 h20 m-116 0 q10 0 10 10 m96 0 q0 -10 10 -10 m-106 10 v12 m96 0 v-12 m-96 12 q0 10 10 10 m76 0 q10 0 10 -10 m-86 10 h10 m56 0 h10 m20 -32 h10 m80 0 h10 m20 0 h10 m26 0 h10 m20 0 h10 m80 0 h10 m-120 0 l20 0 m-1 0 q-9 0 -9 -10 l0 -24 q0 -10 10 -10 m100 44 l20 0 m-20 0 q10 0 10 -10 l0 -24 q0 -10 -10 -10 m-100 0 h10 m24 0 h10 m0 0 h56 m20 44 h10 m26 0 h10 m-252 0 h20 m232 0 h20 m-272 0 q10 0 10 10 m252 0 q0 -10 10 -10 m-262 10 v14 m252 0 v-14 m-252 14 q0 10 10 10 m232 0 q10 0 10 -10 m-242 10 h10 m0 0 h222 m22 -34 l2 0 m2 0 l2 0 m2 0 l2 0 m-816 186 l2 0 m2 0 l2 0 m2 0 l2 0 m2 0 h10 m130 0 h10 m20 0 h10 m40 0 h10 m0 0 h10 m98 0 h10 m0 0 h10 m46 0 h10 m0 0 h10 m74 0 h10 m20 0 h10 m80 0 h10 m0 0 h10 m30 0 h10 m0 0 h10 m48 0 h10 m-238 0 l20 0 m-1 0 q-9 0 -9 -10 l0 -24 q0 -10 10 -10 m218 44 l20 0 m-20 0 q10 0 10 -10 l0 -24 q0 -10 -10 -10 m-218 0 h10 m24 0 h10 m0 0 h174 m-596 44 h20 m596 0 h20 m-636 0 q10 0 10 10 m616 0 q0 -10 10 -10 m-626 10 v14 m616 0 v-14 m-616 14 q0 10 10 10 m596 0 q10 0 10 -10 m-606 10 h10 m0 0 h586 m23 -34 h-3"/>
   <polygon points="929 247 937 243 937 251"/>
   <polygon points="929 247 921 243 921 251"/>
</svg>
