<?xml version="1.0" encoding="UTF-8"?>
<svg xmlns="http://www.w3.org/2000/svg" width="927" height="135">
   <defs>
      <style type="text/css">
    @namespace "http://www.w3.org/2000/svg";
    .line                 {fill: none; stroke: #332900; stroke-width: 1;}
    .bold-line            {stroke: #141000; shape-rendering: crispEdges; stroke-width: 2;}
    .thin-line            {stroke: #1F1800; shape-rendering: crispEdges}
    .filled               {fill: #332900; stroke: none;}
    text.terminal         {font-family: Verdana, Sans-serif;
                            font-size: 12px;
                            fill: #141000;
                            font-weight: bold;
                          }
    text.nonterminal      {font-family: Verdana, Sans-serif;
                            font-size: 12px;
                            fill: #1A1400;
                            font-weight: normal;
                          }
    text.regexp           {font-family: Verdana, Sans-serif;
                            font-size: 12px;
                            fill: #1F1800;
                            font-weight: normal;
                          }
    rect, circle, polygon {fill: #332900; stroke: #332900;}
    rect.terminal         {fill: #FFDB4D; stroke: #332900; stroke-width: 1;}
    rect.nonterminal      {fill: #FFEC9E; stroke: #332900; stroke-width: 1;}
    rect.text             {fill: none; stroke: none;}
    polygon.regexp        {fill: #FFF4C7; stroke: #332900; stroke-width: 1;}
  </style>
   </defs>
   <polygon points="9 17 1 13 1 21"/>
   <polygon points="17 17 9 13 9 21"/>
   <rect x="31" y="3" width="108" height="32" rx="10"/>
   <rect x="29"
         y="1"
         width="108"
         height="32"
         class="terminal"
         rx="10"/>
   <text class="terminal" x="39" y="21">JSON_TABLE</text>
   <rect x="159" y="3" width="26" height="32" rx="10"/>
   <rect x="157"
         y="1"
         width="26"
         height="32"
         class="terminal"
         rx="10"/>
   <text class="terminal" x="167" y="21">(</text>
   <a xmlns:xlink="http://www.w3.org/1999/xlink"
      xlink:href="#json_doc"
      xlink:title="json_doc">
      <rect x="205" y="3" width="76" height="32"/>
      <rect x="203" y="1" width="76" height="32" class="nonterminal"/>
      <text class="nonterminal" x="213" y="21">json_doc</text>
   </a>
   <rect x="301" y="3" width="24" height="32" rx="10"/>
   <rect x="299"
         y="1"
         width="24"
         height="32"
         class="terminal"
         rx="10"/>
   <text class="terminal" x="309" y="21">,</text>
   <a xmlns:xlink="http://www.w3.org/1999/xlink"
      xlink:href="#context_path"
      xlink:title="context_path">
      <rect x="345" y="3" width="104" height="32"/>
      <rect x="343" y="1" width="104" height="32" class="nonterminal"/>
      <text class="nonterminal" x="353" y="21">context_path</text>
   </a>
   <rect x="469" y="3" width="88" height="32" rx="10"/>
   <rect x="467"
         y="1"
         width="88"
         height="32"
         class="terminal"
         rx="10"/>
   <text class="terminal" x="477" y="21">COLUMNS</text>
   <rect x="577" y="3" width="26" height="32" rx="10"/>
   <rect x="575"
         y="1"
         width="26"
         height="32"
         class="terminal"
         rx="10"/>
   <text class="terminal" x="585" y="21">(</text>
   <a xmlns:xlink="http://www.w3.org/1999/xlink"
      xlink:href="#column_list"
      xlink:title="column_list">
      <rect x="623" y="3" width="92" height="32"/>
      <rect x="621" y="1" width="92" height="32" class="nonterminal"/>
      <text class="nonterminal" x="631" y="21">column_list</text>
   </a>
   <rect x="735" y="3" width="26" height="32" rx="10"/>
   <rect x="733"
         y="1"
         width="26"
         height="32"
         class="terminal"
         rx="10"/>
   <text class="terminal" x="743" y="21">)</text>
   <rect x="781" y="3" width="26" height="32" rx="10"/>
   <rect x="779"
         y="1"
         width="26"
         height="32"
         class="terminal"
         rx="10"/>
   <text class="terminal" x="789" y="21">)</text>
   <rect x="847" y="35" width="38" height="32" rx="10"/>
   <rect x="845"
         y="33"
         width="38"
         height="32"
         class="terminal"
         rx="10"/>
   <text class="terminal" x="855" y="53">AS</text>
   <a xmlns:xlink="http://www.w3.org/1999/xlink"
      xlink:href="#alias"
      xlink:title="alias">
      <rect x="849" y="101" width="50" height="32"/>
      <rect x="847" y="99" width="50" height="32" class="nonterminal"/>
      <text class="nonterminal" x="857" y="119">alias</text>
   </a>
   <path class="line"
         d="m17 17 h2 m0 0 h10 m108 0 h10 m0 0 h10 m26 0 h10 m0 0 h10 m76 0 h10 m0 0 h10 m24 0 h10 m0 0 h10 m104 0 h10 m0 0 h10 m88 0 h10 m0 0 h10 m26 0 h10 m0 0 h10 m92 0 h10 m0 0 h10 m26 0 h10 m0 0 h10 m26 0 h10 m20 0 h10 m0 0 h48 m-78 0 h20 m58 0 h20 m-98 0 q10 0 10 10 m78 0 q0 -10 10 -10 m-88 10 v12 m78 0 v-12 m-78 12 q0 10 10 10 m58 0 q10 0 10 -10 m-68 10 h10 m38 0 h10 m22 -32 l2 0 m2 0 l2 0 m2 0 l2 0 m-100 98 l2 0 m2 0 l2 0 m2 0 l2 0 m2 0 h10 m50 0 h10 m3 0 h-3"/>
   <polygon points="917 115 925 111 925 119"/>
   <polygon points="917 115 909 111 909 119"/>
</svg>
