<?xml version="1.0" encoding="UTF-8"?>
<svg xmlns="http://www.w3.org/2000/svg" width="929" height="135">
   <defs>
      <style type="text/css">
    @namespace "http://www.w3.org/2000/svg";
    .line                 {fill: none; stroke: #332900; stroke-width: 1;}
    .bold-line            {stroke: #141000; shape-rendering: crispEdges; stroke-width: 2;}
    .thin-line            {stroke: #1F1800; shape-rendering: crispEdges}
    .filled               {fill: #332900; stroke: none;}
    text.terminal         {font-family: Verdana, Sans-serif;
                            font-size: 12px;
                            fill: #141000;
                            font-weight: bold;
                          }
    text.nonterminal      {font-family: Verdana, Sans-serif;
                            font-size: 12px;
                            fill: #1A1400;
                            font-weight: normal;
                          }
    text.regexp           {font-family: Verdana, Sans-serif;
                            font-size: 12px;
                            fill: #1F1800;
                            font-weight: normal;
                          }
    rect, circle, polygon {fill: #332900; stroke: #332900;}
    rect.terminal         {fill: #FFDB4D; stroke: #332900; stroke-width: 1;}
    rect.nonterminal      {fill: #FFEC9E; stroke: #332900; stroke-width: 1;}
    rect.text             {fill: none; stroke: none;}
    polygon.regexp        {fill: #FFF4C7; stroke: #332900; stroke-width: 1;}
  </style>
   </defs>
   <polygon points="9 17 1 13 1 21"/>
   <polygon points="17 17 9 13 9 21"/>
   <rect x="31" y="3" width="46" height="32" rx="10"/>
   <rect x="29"
         y="1"
         width="46"
         height="32"
         class="terminal"
         rx="10"/>
   <text class="terminal" x="39" y="21">LAG</text>
   <rect x="97" y="3" width="26" height="32" rx="10"/>
   <rect x="95"
         y="1"
         width="26"
         height="32"
         class="terminal"
         rx="10"/>
   <text class="terminal" x="105" y="21">(</text>
   <a xmlns:xlink="http://www.w3.org/1999/xlink"
      xlink:href="#expr"
      xlink:title="expr">
      <rect x="143" y="3" width="48" height="32"/>
      <rect x="141" y="1" width="48" height="32" class="nonterminal"/>
      <text class="nonterminal" x="151" y="21">expr</text>
   </a>
   <rect x="231" y="35" width="24" height="32" rx="10"/>
   <rect x="229"
         y="33"
         width="24"
         height="32"
         class="terminal"
         rx="10"/>
   <text class="terminal" x="239" y="53">,</text>
   <a xmlns:xlink="http://www.w3.org/1999/xlink"
      xlink:href="#offset"
      xlink:title="offset">
      <rect x="275" y="35" width="56" height="32"/>
      <rect x="273" y="33" width="56" height="32" class="nonterminal"/>
      <text class="nonterminal" x="283" y="53">offset</text>
   </a>
   <rect x="371" y="3" width="26" height="32" rx="10"/>
   <rect x="369"
         y="1"
         width="26"
         height="32"
         class="terminal"
         rx="10"/>
   <text class="terminal" x="379" y="21">)</text>
   <rect x="417" y="3" width="58" height="32" rx="10"/>
   <rect x="415"
         y="1"
         width="58"
         height="32"
         class="terminal"
         rx="10"/>
   <text class="terminal" x="425" y="21">OVER</text>
   <rect x="495" y="3" width="26" height="32" rx="10"/>
   <rect x="493"
         y="1"
         width="26"
         height="32"
         class="terminal"
         rx="10"/>
   <text class="terminal" x="503" y="21">(</text>
   <rect x="561" y="35" width="98" height="32" rx="10"/>
   <rect x="559"
         y="33"
         width="98"
         height="32"
         class="terminal"
         rx="10"/>
   <text class="terminal" x="569" y="53">PARTITION</text>
   <rect x="679" y="35" width="38" height="32" rx="10"/>
   <rect x="677"
         y="33"
         width="38"
         height="32"
         class="terminal"
         rx="10"/>
   <text class="terminal" x="687" y="53">BY</text>
   <a xmlns:xlink="http://www.w3.org/1999/xlink"
      xlink:href="#partition_expression"
      xlink:title="partition_expression">
      <rect x="737" y="35" width="150" height="32"/>
      <rect x="735" y="33" width="150" height="32" class="nonterminal"/>
      <text class="nonterminal" x="745" y="53">partition_expression</text>
   </a>
   <rect x="629" y="101" width="68" height="32" rx="10"/>
   <rect x="627"
         y="99"
         width="68"
         height="32"
         class="terminal"
         rx="10"/>
   <text class="terminal" x="637" y="119">ORDER</text>
   <rect x="717" y="101" width="38" height="32" rx="10"/>
   <rect x="715"
         y="99"
         width="38"
         height="32"
         class="terminal"
         rx="10"/>
   <text class="terminal" x="725" y="119">BY</text>
   <a xmlns:xlink="http://www.w3.org/1999/xlink"
      xlink:href="#order_list"
      xlink:title="order_list">
      <rect x="775" y="101" width="80" height="32"/>
      <rect x="773" y="99" width="80" height="32" class="nonterminal"/>
      <text class="nonterminal" x="783" y="119">order_list</text>
   </a>
   <rect x="875" y="101" width="26" height="32" rx="10"/>
   <rect x="873"
         y="99"
         width="26"
         height="32"
         class="terminal"
         rx="10"/>
   <text class="terminal" x="883" y="119">)</text>
   <path class="line"
         d="m17 17 h2 m0 0 h10 m46 0 h10 m0 0 h10 m26 0 h10 m0 0 h10 m48 0 h10 m20 0 h10 m0 0 h110 m-140 0 h20 m120 0 h20 m-160 0 q10 0 10 10 m140 0 q0 -10 10 -10 m-150 10 v12 m140 0 v-12 m-140 12 q0 10 10 10 m120 0 q10 0 10 -10 m-130 10 h10 m24 0 h10 m0 0 h10 m56 0 h10 m20 -32 h10 m26 0 h10 m0 0 h10 m58 0 h10 m0 0 h10 m26 0 h10 m20 0 h10 m0 0 h336 m-366 0 h20 m346 0 h20 m-386 0 q10 0 10 10 m366 0 q0 -10 10 -10 m-376 10 v12 m366 0 v-12 m-366 12 q0 10 10 10 m346 0 q10 0 10 -10 m-356 10 h10 m98 0 h10 m0 0 h10 m38 0 h10 m0 0 h10 m150 0 h10 m22 -32 l2 0 m2 0 l2 0 m2 0 l2 0 m-322 98 l2 0 m2 0 l2 0 m2 0 l2 0 m2 0 h10 m68 0 h10 m0 0 h10 m38 0 h10 m0 0 h10 m80 0 h10 m0 0 h10 m26 0 h10 m3 0 h-3"/>
   <polygon points="919 115 927 111 927 119"/>
   <polygon points="919 115 911 111 911 119"/>
</svg>
