<?xml version="1.0" encoding="UTF-8"?>
<svg xmlns="http://www.w3.org/2000/svg" width="1229" height="783">
   <defs>
      <style type="text/css">
    @namespace "http://www.w3.org/2000/svg";
    .line                 {fill: none; stroke: #332900; stroke-width: 1;}
    .bold-line            {stroke: #141000; shape-rendering: crispEdges; stroke-width: 2;}
    .thin-line            {stroke: #1F1800; shape-rendering: crispEdges}
    .filled               {fill: #332900; stroke: none;}
    text.terminal         {font-family: Verdana, Sans-serif;
                            font-size: 12px;
                            fill: #141000;
                            font-weight: bold;
                          }
    text.nonterminal      {font-family: Verdana, Sans-serif;
                            font-size: 12px;
                            fill: #1A1400;
                            font-weight: normal;
                          }
    text.regexp           {font-family: Verdana, Sans-serif;
                            font-size: 12px;
                            fill: #1F1800;
                            font-weight: normal;
                          }
    rect, circle, polygon {fill: #332900; stroke: #332900;}
    rect.terminal         {fill: #FFDB4D; stroke: #332900; stroke-width: 1;}
    rect.nonterminal      {fill: #FFEC9E; stroke: #332900; stroke-width: 1;}
    rect.text             {fill: none; stroke: none;}
    polygon.regexp        {fill: #FFF4C7; stroke: #332900; stroke-width: 1;}
  </style>
   </defs>
   <polygon points="9 17 1 13 1 21"/>
   <polygon points="17 17 9 13 9 21"/>
   <rect x="31" y="3" width="58" height="32" rx="10"/>
   <rect x="29"
         y="1"
         width="58"
         height="32"
         class="terminal"
         rx="10"/>
   <text class="terminal" x="39" y="21">LOAD</text>
   <rect x="109" y="3" width="56" height="32" rx="10"/>
   <rect x="107"
         y="1"
         width="56"
         height="32"
         class="terminal"
         rx="10"/>
   <text class="terminal" x="117" y="21">DATA</text>
   <rect x="205" y="35" width="130" height="32" rx="10"/>
   <rect x="203"
         y="33"
         width="130"
         height="32"
         class="terminal"
         rx="10"/>
   <text class="terminal" x="213" y="53">LOW_PRIORITY</text>
   <rect x="205" y="79" width="114" height="32" rx="10"/>
   <rect x="203"
         y="77"
         width="114"
         height="32"
         class="terminal"
         rx="10"/>
   <text class="terminal" x="213" y="97">CONCURRENT</text>
   <rect x="395" y="35" width="64" height="32" rx="10"/>
   <rect x="393"
         y="33"
         width="64"
         height="32"
         class="terminal"
         rx="10"/>
   <text class="terminal" x="403" y="53">LOCAL</text>
   <rect x="499" y="3" width="66" height="32" rx="10"/>
   <rect x="497"
         y="1"
         width="66"
         height="32"
         class="terminal"
         rx="10"/>
   <text class="terminal" x="507" y="21">INFILE</text>
   <a xmlns:xlink="http://www.w3.org/1999/xlink"
      xlink:href="#file_name"
      xlink:title="file_name">
      <rect x="585" y="3" width="82" height="32"/>
      <rect x="583" y="1" width="82" height="32" class="nonterminal"/>
      <text class="nonterminal" x="593" y="21">file_name</text>
   </a>
   <rect x="707" y="35" width="80" height="32" rx="10"/>
   <rect x="705"
         y="33"
         width="80"
         height="32"
         class="terminal"
         rx="10"/>
   <text class="terminal" x="715" y="53">REPLACE</text>
   <rect x="707" y="79" width="74" height="32" rx="10"/>
   <rect x="705"
         y="77"
         width="74"
         height="32"
         class="terminal"
         rx="10"/>
   <text class="terminal" x="715" y="97">IGNORE</text>
   <rect x="827" y="3" width="56" height="32" rx="10"/>
   <rect x="825"
         y="1"
         width="56"
         height="32"
         class="terminal"
         rx="10"/>
   <text class="terminal" x="835" y="21">INTO</text>
   <rect x="903" y="3" width="62" height="32" rx="10"/>
   <rect x="901"
         y="1"
         width="62"
         height="32"
         class="terminal"
         rx="10"/>
   <text class="terminal" x="911" y="21">TABLE</text>
   <a xmlns:xlink="http://www.w3.org/1999/xlink"
      xlink:href="#tbl_name"
      xlink:title="tbl_name">
      <rect x="398" y="145" width="80" height="32"/>
      <rect x="396" y="143" width="80" height="32" class="nonterminal"/>
      <text class="nonterminal" x="406" y="163">tbl_name</text>
   </a>
   <rect x="518" y="177" width="102" height="32" rx="10"/>
   <rect x="516"
         y="175"
         width="102"
         height="32"
         class="terminal"
         rx="10"/>
   <text class="terminal" x="526" y="195">CHARACTER</text>
   <rect x="640" y="177" width="44" height="32" rx="10"/>
   <rect x="638"
         y="175"
         width="44"
         height="32"
         class="terminal"
         rx="10"/>
   <text class="terminal" x="648" y="195">SET</text>
   <a xmlns:xlink="http://www.w3.org/1999/xlink"
      xlink:href="#charset_name"
      xlink:title="charset_name">
      <rect x="704" y="177" width="110" height="32"/>
      <rect x="702" y="175" width="110" height="32" class="nonterminal"/>
      <text class="nonterminal" x="712" y="195">charset_name</text>
   </a>
   <rect x="65" y="259" width="70" height="32" rx="10"/>
   <rect x="63"
         y="257"
         width="70"
         height="32"
         class="terminal"
         rx="10"/>
   <text class="terminal" x="73" y="277">FIELDS</text>
   <rect x="65" y="303" width="88" height="32" rx="10"/>
   <rect x="63"
         y="301"
         width="88"
         height="32"
         class="terminal"
         rx="10"/>
   <text class="terminal" x="73" y="321">COLUMNS</text>
   <rect x="213" y="291" width="108" height="32" rx="10"/>
   <rect x="211"
         y="289"
         width="108"
         height="32"
         class="terminal"
         rx="10"/>
   <text class="terminal" x="221" y="309">TERMINATED</text>
   <rect x="341" y="291" width="38" height="32" rx="10"/>
   <rect x="339"
         y="289"
         width="38"
         height="32"
         class="terminal"
         rx="10"/>
   <text class="terminal" x="349" y="309">BY</text>
   <a xmlns:xlink="http://www.w3.org/1999/xlink"
      xlink:href="#string"
      xlink:title="string">
      <rect x="399" y="291" width="56" height="32"/>
      <rect x="397" y="289" width="56" height="32" class="nonterminal"/>
      <text class="nonterminal" x="407" y="309">string</text>
   </a>
   <rect x="535" y="323" width="110" height="32" rx="10"/>
   <rect x="533"
         y="321"
         width="110"
         height="32"
         class="terminal"
         rx="10"/>
   <text class="terminal" x="543" y="341">OPTIONALLY</text>
   <rect x="685" y="291" width="92" height="32" rx="10"/>
   <rect x="683"
         y="289"
         width="92"
         height="32"
         class="terminal"
         rx="10"/>
   <text class="terminal" x="693" y="309">ENCLOSED</text>
   <rect x="797" y="291" width="38" height="32" rx="10"/>
   <rect x="795"
         y="289"
         width="38"
         height="32"
         class="terminal"
         rx="10"/>
   <text class="terminal" x="805" y="309">BY</text>
   <a xmlns:xlink="http://www.w3.org/1999/xlink"
      xlink:href="#char"
      xlink:title="char">
      <rect x="855" y="291" width="46" height="32"/>
      <rect x="853" y="289" width="46" height="32" class="nonterminal"/>
      <text class="nonterminal" x="863" y="309">char</text>
   </a>
   <rect x="961" y="291" width="82" height="32" rx="10"/>
   <rect x="959"
         y="289"
         width="82"
         height="32"
         class="terminal"
         rx="10"/>
   <text class="terminal" x="969" y="309">ESCAPED</text>
   <rect x="1063" y="291" width="38" height="32" rx="10"/>
   <rect x="1061"
         y="289"
         width="38"
         height="32"
         class="terminal"
         rx="10"/>
   <text class="terminal" x="1071" y="309">BY</text>
   <a xmlns:xlink="http://www.w3.org/1999/xlink"
      xlink:href="#char"
      xlink:title="char">
      <rect x="1121" y="291" width="46" height="32"/>
      <rect x="1119" y="289" width="46" height="32" class="nonterminal"/>
      <text class="nonterminal" x="1129" y="309">char</text>
   </a>
   <rect x="292" y="405" width="62" height="32" rx="10"/>
   <rect x="290"
         y="403"
         width="62"
         height="32"
         class="terminal"
         rx="10"/>
   <text class="terminal" x="300" y="423">LINES</text>
   <rect x="394" y="437" width="90" height="32" rx="10"/>
   <rect x="392"
         y="435"
         width="90"
         height="32"
         class="terminal"
         rx="10"/>
   <text class="terminal" x="402" y="455">STARTING</text>
   <rect x="504" y="437" width="38" height="32" rx="10"/>
   <rect x="502"
         y="435"
         width="38"
         height="32"
         class="terminal"
         rx="10"/>
   <text class="terminal" x="512" y="455">BY</text>
   <a xmlns:xlink="http://www.w3.org/1999/xlink"
      xlink:href="#string"
      xlink:title="string">
      <rect x="562" y="437" width="56" height="32"/>
      <rect x="560" y="435" width="56" height="32" class="nonterminal"/>
      <text class="nonterminal" x="570" y="455">string</text>
   </a>
   <rect x="678" y="437" width="108" height="32" rx="10"/>
   <rect x="676"
         y="435"
         width="108"
         height="32"
         class="terminal"
         rx="10"/>
   <text class="terminal" x="686" y="455">TERMINATED</text>
   <rect x="806" y="437" width="38" height="32" rx="10"/>
   <rect x="804"
         y="435"
         width="38"
         height="32"
         class="terminal"
         rx="10"/>
   <text class="terminal" x="814" y="455">BY</text>
   <a xmlns:xlink="http://www.w3.org/1999/xlink"
      xlink:href="#string"
      xlink:title="string">
      <rect x="864" y="437" width="56" height="32"/>
      <rect x="862" y="435" width="56" height="32" class="nonterminal"/>
      <text class="nonterminal" x="872" y="455">string</text>
   </a>
   <rect x="295" y="579" width="74" height="32" rx="10"/>
   <rect x="293"
         y="577"
         width="74"
         height="32"
         class="terminal"
         rx="10"/>
   <text class="terminal" x="303" y="597">IGNORE</text>
   <a xmlns:xlink="http://www.w3.org/1999/xlink"
      xlink:href="#number"
      xlink:title="number">
      <rect x="389" y="579" width="68" height="32"/>
      <rect x="387" y="577" width="68" height="32" class="nonterminal"/>
      <text class="nonterminal" x="397" y="597">number</text>
   </a>
   <rect x="497" y="579" width="62" height="32" rx="10"/>
   <rect x="495"
         y="577"
         width="62"
         height="32"
         class="terminal"
         rx="10"/>
   <text class="terminal" x="505" y="597">LINES</text>
   <rect x="497" y="623" width="62" height="32" rx="10"/>
   <rect x="495"
         y="621"
         width="62"
         height="32"
         class="terminal"
         rx="10"/>
   <text class="terminal" x="505" y="641">ROWS</text>
   <rect x="639" y="547" width="26" height="32" rx="10"/>
   <rect x="637"
         y="545"
         width="26"
         height="32"
         class="terminal"
         rx="10"/>
   <text class="terminal" x="647" y="565">(</text>
   <a xmlns:xlink="http://www.w3.org/1999/xlink"
      xlink:href="#col_name_or_user_var"
      xlink:title="col_name_or_user_var">
      <rect x="705" y="547" width="166" height="32"/>
      <rect x="703" y="545" width="166" height="32" class="nonterminal"/>
      <text class="nonterminal" x="713" y="565">col_name_or_user_var</text>
   </a>
   <rect x="705" y="503" width="24" height="32" rx="10"/>
   <rect x="703"
         y="501"
         width="24"
         height="32"
         class="terminal"
         rx="10"/>
   <text class="terminal" x="713" y="521">,</text>
   <rect x="911" y="547" width="26" height="32" rx="10"/>
   <rect x="909"
         y="545"
         width="26"
         height="32"
         class="terminal"
         rx="10"/>
   <text class="terminal" x="919" y="565">)</text>
   <rect x="879" y="733" width="44" height="32" rx="10"/>
   <rect x="877"
         y="731"
         width="44"
         height="32"
         class="terminal"
         rx="10"/>
   <text class="terminal" x="887" y="751">SET</text>
   <a xmlns:xlink="http://www.w3.org/1999/xlink"
      xlink:href="#col_name"
      xlink:title="col_name">
      <rect x="963" y="733" width="80" height="32"/>
      <rect x="961" y="731" width="80" height="32" class="nonterminal"/>
      <text class="nonterminal" x="971" y="751">col_name</text>
   </a>
   <rect x="1063" y="733" width="30" height="32" rx="10"/>
   <rect x="1061"
         y="731"
         width="30"
         height="32"
         class="terminal"
         rx="10"/>
   <text class="terminal" x="1071" y="751">=</text>
   <a xmlns:xlink="http://www.w3.org/1999/xlink"
      xlink:href="#expr"
      xlink:title="expr">
      <rect x="1113" y="733" width="48" height="32"/>
      <rect x="1111" y="731" width="48" height="32" class="nonterminal"/>
      <text class="nonterminal" x="1121" y="751">expr</text>
   </a>
   <rect x="963" y="689" width="24" height="32" rx="10"/>
   <rect x="961"
         y="687"
         width="24"
         height="32"
         class="terminal"
         rx="10"/>
   <text class="terminal" x="971" y="707">,</text>
   <path class="line"
         d="m17 17 h2 m0 0 h10 m58 0 h10 m0 0 h10 m56 0 h10 m20 0 h10 m0 0 h140 m-170 0 h20 m150 0 h20 m-190 0 q10 0 10 10 m170 0 q0 -10 10 -10 m-180 10 v12 m170 0 v-12 m-170 12 q0 10 10 10 m150 0 q10 0 10 -10 m-160 10 h10 m130 0 h10 m-160 -10 v20 m170 0 v-20 m-170 20 v24 m170 0 v-24 m-170 24 q0 10 10 10 m150 0 q10 0 10 -10 m-160 10 h10 m114 0 h10 m0 0 h16 m40 -76 h10 m0 0 h74 m-104 0 h20 m84 0 h20 m-124 0 q10 0 10 10 m104 0 q0 -10 10 -10 m-114 10 v12 m104 0 v-12 m-104 12 q0 10 10 10 m84 0 q10 0 10 -10 m-94 10 h10 m64 0 h10 m20 -32 h10 m66 0 h10 m0 0 h10 m82 0 h10 m20 0 h10 m0 0 h90 m-120 0 h20 m100 0 h20 m-140 0 q10 0 10 10 m120 0 q0 -10 10 -10 m-130 10 v12 m120 0 v-12 m-120 12 q0 10 10 10 m100 0 q10 0 10 -10 m-110 10 h10 m80 0 h10 m-110 -10 v20 m120 0 v-20 m-120 20 v24 m120 0 v-24 m-120 24 q0 10 10 10 m100 0 q10 0 10 -10 m-110 10 h10 m74 0 h10 m0 0 h6 m20 -76 h10 m56 0 h10 m0 0 h10 m62 0 h10 m2 0 l2 0 m2 0 l2 0 m2 0 l2 0 m-611 142 l2 0 m2 0 l2 0 m2 0 l2 0 m2 0 h10 m80 0 h10 m20 0 h10 m0 0 h306 m-336 0 h20 m316 0 h20 m-356 0 q10 0 10 10 m336 0 q0 -10 10 -10 m-346 10 v12 m336 0 v-12 m-336 12 q0 10 10 10 m316 0 q10 0 10 -10 m-326 10 h10 m102 0 h10 m0 0 h10 m44 0 h10 m0 0 h10 m110 0 h10 m22 -32 l2 0 m2 0 l2 0 m2 0 l2 0 m-853 82 l2 0 m2 0 l2 0 m2 0 l2 0 m22 0 h10 m0 0 h1152 m-1182 0 h20 m1162 0 h20 m-1202 0 q10 0 10 10 m1182 0 q0 -10 10 -10 m-1192 10 v12 m1182 0 v-12 m-1182 12 q0 10 10 10 m1162 0 q10 0 10 -10 m-1152 10 h10 m70 0 h10 m0 0 h18 m-128 0 h20 m108 0 h20 m-148 0 q10 0 10 10 m128 0 q0 -10 10 -10 m-138 10 v24 m128 0 v-24 m-128 24 q0 10 10 10 m108 0 q10 0 10 -10 m-118 10 h10 m88 0 h10 m40 -44 h10 m0 0 h252 m-282 0 h20 m262 0 h20 m-302 0 q10 0 10 10 m282 0 q0 -10 10 -10 m-292 10 v12 m282 0 v-12 m-282 12 q0 10 10 10 m262 0 q10 0 10 -10 m-272 10 h10 m108 0 h10 m0 0 h10 m38 0 h10 m0 0 h10 m56 0 h10 m40 -32 h10 m0 0 h396 m-426 0 h20 m406 0 h20 m-446 0 q10 0 10 10 m426 0 q0 -10 10 -10 m-436 10 v12 m426 0 v-12 m-426 12 q0 10 10 10 m406 0 q10 0 10 -10 m-396 10 h10 m0 0 h120 m-150 0 h20 m130 0 h20 m-170 0 q10 0 10 10 m150 0 q0 -10 10 -10 m-160 10 v12 m150 0 v-12 m-150 12 q0 10 10 10 m130 0 q10 0 10 -10 m-140 10 h10 m110 0 h10 m20 -32 h10 m92 0 h10 m0 0 h10 m38 0 h10 m0 0 h10 m46 0 h10 m40 -32 h10 m0 0 h216 m-246 0 h20 m226 0 h20 m-266 0 q10 0 10 10 m246 0 q0 -10 10 -10 m-256 10 v12 m246 0 v-12 m-246 12 q0 10 10 10 m226 0 q10 0 10 -10 m-236 10 h10 m82 0 h10 m0 0 h10 m38 0 h10 m0 0 h10 m46 0 h10 m42 -64 l2 0 m2 0 l2 0 m2 0 l2 0 m-979 146 l2 0 m2 0 l2 0 m2 0 l2 0 m22 0 h10 m0 0 h658 m-688 0 h20 m668 0 h20 m-708 0 q10 0 10 10 m688 0 q0 -10 10 -10 m-698 10 v12 m688 0 v-12 m-688 12 q0 10 10 10 m668 0 q10 0 10 -10 m-678 10 h10 m62 0 h10 m20 0 h10 m0 0 h234 m-264 0 h20 m244 0 h20 m-284 0 q10 0 10 10 m264 0 q0 -10 10 -10 m-274 10 v12 m264 0 v-12 m-264 12 q0 10 10 10 m244 0 q10 0 10 -10 m-254 10 h10 m90 0 h10 m0 0 h10 m38 0 h10 m0 0 h10 m56 0 h10 m40 -32 h10 m0 0 h252 m-282 0 h20 m262 0 h20 m-302 0 q10 0 10 10 m282 0 q0 -10 10 -10 m-292 10 v12 m282 0 v-12 m-282 12 q0 10 10 10 m262 0 q10 0 10 -10 m-272 10 h10 m108 0 h10 m0 0 h10 m38 0 h10 m0 0 h10 m56 0 h10 m42 -64 l2 0 m2 0 l2 0 m2 0 l2 0 m-729 174 l2 0 m2 0 l2 0 m2 0 l2 0 m22 0 h10 m0 0 h294 m-324 0 h20 m304 0 h20 m-344 0 q10 0 10 10 m324 0 q0 -10 10 -10 m-334 10 v12 m324 0 v-12 m-324 12 q0 10 10 10 m304 0 q10 0 10 -10 m-314 10 h10 m74 0 h10 m0 0 h10 m68 0 h10 m20 0 h10 m62 0 h10 m-102 0 h20 m82 0 h20 m-122 0 q10 0 10 10 m102 0 q0 -10 10 -10 m-112 10 v24 m102 0 v-24 m-102 24 q0 10 10 10 m82 0 q10 0 10 -10 m-92 10 h10 m62 0 h10 m60 -76 h10 m26 0 h10 m20 0 h10 m166 0 h10 m-206 0 l20 0 m-1 0 q-9 0 -9 -10 l0 -24 q0 -10 10 -10 m186 44 l20 0 m-20 0 q10 0 10 -10 l0 -24 q0 -10 -10 -10 m-186 0 h10 m24 0 h10 m0 0 h142 m20 44 h10 m26 0 h10 m-338 0 h20 m318 0 h20 m-358 0 q10 0 10 10 m338 0 q0 -10 10 -10 m-348 10 v14 m338 0 v-14 m-338 14 q0 10 10 10 m318 0 q10 0 10 -10 m-328 10 h10 m0 0 h308 m22 -34 l2 0 m2 0 l2 0 m2 0 l2 0 m-142 186 l2 0 m2 0 l2 0 m2 0 l2 0 m22 0 h10 m44 0 h10 m20 0 h10 m80 0 h10 m0 0 h10 m30 0 h10 m0 0 h10 m48 0 h10 m-238 0 l20 0 m-1 0 q-9 0 -9 -10 l0 -24 q0 -10 10 -10 m218 44 l20 0 m-20 0 q10 0 10 -10 l0 -24 q0 -10 -10 -10 m-218 0 h10 m24 0 h10 m0 0 h174 m-322 44 h20 m322 0 h20 m-362 0 q10 0 10 10 m342 0 q0 -10 10 -10 m-352 10 v14 m342 0 v-14 m-342 14 q0 10 10 10 m322 0 q10 0 10 -10 m-332 10 h10 m0 0 h312 m23 -34 h-3"/>
   <polygon points="1219 747 1227 743 1227 751"/>
   <polygon points="1219 747 1211 743 1211 751"/>
</svg>
