<?xml version="1.0" encoding="UTF-8"?>
<svg xmlns="http://www.w3.org/2000/svg" width="355" height="189">
   <defs>
      <style type="text/css">
    @namespace "http://www.w3.org/2000/svg";
    .line                 {fill: none; stroke: #332900; stroke-width: 1;}
    .bold-line            {stroke: #141000; shape-rendering: crispEdges; stroke-width: 2;}
    .thin-line            {stroke: #1F1800; shape-rendering: crispEdges}
    .filled               {fill: #332900; stroke: none;}
    text.terminal         {font-family: Verdana, Sans-serif;
                            font-size: 12px;
                            fill: #141000;
                            font-weight: bold;
                          }
    text.nonterminal      {font-family: Verdana, Sans-serif;
                            font-size: 12px;
                            fill: #1A1400;
                            font-weight: normal;
                          }
    text.regexp           {font-family: Verdana, Sans-serif;
                            font-size: 12px;
                            fill: #1F1800;
                            font-weight: normal;
                          }
    rect, circle, polygon {fill: #332900; stroke: #332900;}
    rect.terminal         {fill: #FFDB4D; stroke: #332900; stroke-width: 1;}
    rect.nonterminal      {fill: #FFEC9E; stroke: #332900; stroke-width: 1;}
    rect.text             {fill: none; stroke: none;}
    polygon.regexp        {fill: #FFF4C7; stroke: #332900; stroke-width: 1;}
  </style>
   </defs>
   <polygon points="9 17 1 13 1 21"/>
   <polygon points="17 17 9 13 9 21"/>
   <rect x="51" y="3" width="56" height="32" rx="10"/>
   <rect x="49"
         y="1"
         width="56"
         height="32"
         class="terminal"
         rx="10"/>
   <text class="terminal" x="59" y="21">READ</text>
   <rect x="147" y="35" width="64" height="32" rx="10"/>
   <rect x="145"
         y="33"
         width="64"
         height="32"
         class="terminal"
         rx="10"/>
   <text class="terminal" x="155" y="53">LOCAL</text>
   <rect x="71" y="111" width="130" height="32" rx="10"/>
   <rect x="69"
         y="109"
         width="130"
         height="32"
         class="terminal"
         rx="10"/>
   <text class="terminal" x="79" y="129">LOW_PRIORITY</text>
   <rect x="241" y="79" width="66" height="32" rx="10"/>
   <rect x="239"
         y="77"
         width="66"
         height="32"
         class="terminal"
         rx="10"/>
   <text class="terminal" x="249" y="97">WRITE</text>
   <rect x="51" y="155" width="66" height="32" rx="10"/>
   <rect x="49"
         y="153"
         width="66"
         height="32"
         class="terminal"
         rx="10"/>
   <text class="terminal" x="59" y="173">WRITE</text>
   <rect x="137" y="155" width="114" height="32" rx="10"/>
   <rect x="135"
         y="153"
         width="114"
         height="32"
         class="terminal"
         rx="10"/>
   <text class="terminal" x="145" y="173">CONCURRENT</text>
   <path class="line"
         d="m17 17 h2 m20 0 h10 m56 0 h10 m20 0 h10 m0 0 h74 m-104 0 h20 m84 0 h20 m-124 0 q10 0 10 10 m104 0 q0 -10 10 -10 m-114 10 v12 m104 0 v-12 m-104 12 q0 10 10 10 m84 0 q10 0 10 -10 m-94 10 h10 m64 0 h10 m20 -32 h76 m-296 0 h20 m276 0 h20 m-316 0 q10 0 10 10 m296 0 q0 -10 10 -10 m-306 10 v56 m296 0 v-56 m-296 56 q0 10 10 10 m276 0 q10 0 10 -10 m-266 10 h10 m0 0 h140 m-170 0 h20 m150 0 h20 m-190 0 q10 0 10 10 m170 0 q0 -10 10 -10 m-180 10 v12 m170 0 v-12 m-170 12 q0 10 10 10 m150 0 q10 0 10 -10 m-160 10 h10 m130 0 h10 m20 -32 h10 m66 0 h10 m-286 -10 v20 m296 0 v-20 m-296 20 v56 m296 0 v-56 m-296 56 q0 10 10 10 m276 0 q10 0 10 -10 m-286 10 h10 m66 0 h10 m0 0 h10 m114 0 h10 m0 0 h56 m23 -152 h-3"/>
   <polygon points="345 17 353 13 353 21"/>
   <polygon points="345 17 337 13 337 21"/>
</svg>
