<?xml version="1.0" encoding="UTF-8"?>
<svg xmlns="http://www.w3.org/2000/svg" width="581" height="201">
   <defs>
      <style type="text/css">
    @namespace "http://www.w3.org/2000/svg";
    .line                 {fill: none; stroke: #332900; stroke-width: 1;}
    .bold-line            {stroke: #141000; shape-rendering: crispEdges; stroke-width: 2;}
    .thin-line            {stroke: #1F1800; shape-rendering: crispEdges}
    .filled               {fill: #332900; stroke: none;}
    text.terminal         {font-family: Verdana, Sans-serif;
                            font-size: 12px;
                            fill: #141000;
                            font-weight: bold;
                          }
    text.nonterminal      {font-family: Verdana, Sans-serif;
                            font-size: 12px;
                            fill: #1A1400;
                            font-weight: normal;
                          }
    text.regexp           {font-family: Verdana, Sans-serif;
                            font-size: 12px;
                            fill: #1F1800;
                            font-weight: normal;
                          }
    rect, circle, polygon {fill: #332900; stroke: #332900;}
    rect.terminal         {fill: #FFDB4D; stroke: #332900; stroke-width: 1;}
    rect.nonterminal      {fill: #FFEC9E; stroke: #332900; stroke-width: 1;}
    rect.text             {fill: none; stroke: none;}
    polygon.regexp        {fill: #FFF4C7; stroke: #332900; stroke-width: 1;}
  </style>
   </defs>
   <polygon points="9 17 1 13 1 21"/>
   <polygon points="17 17 9 13 9 21"/>
   <rect x="51" y="3" width="54" height="32" rx="10"/>
   <rect x="49"
         y="1"
         width="54"
         height="32"
         class="terminal"
         rx="10"/>
   <text class="terminal" x="59" y="21">NOW</text>
   <rect x="125" y="3" width="26" height="32" rx="10"/>
   <rect x="123"
         y="1"
         width="26"
         height="32"
         class="terminal"
         rx="10"/>
   <text class="terminal" x="133" y="21">(</text>
   <a xmlns:xlink="http://www.w3.org/1999/xlink"
      xlink:href="#precision"
      xlink:title="precision">
      <rect x="191" y="35" width="76" height="32"/>
      <rect x="189" y="33" width="76" height="32" class="nonterminal"/>
      <text class="nonterminal" x="199" y="53">precision</text>
   </a>
   <rect x="307" y="3" width="26" height="32" rx="10"/>
   <rect x="305"
         y="1"
         width="26"
         height="32"
         class="terminal"
         rx="10"/>
   <text class="terminal" x="315" y="21">)</text>
   <rect x="71" y="79" width="174" height="32" rx="10"/>
   <rect x="69"
         y="77"
         width="174"
         height="32"
         class="terminal"
         rx="10"/>
   <text class="terminal" x="79" y="97">CURRENT_TIMESTAMP</text>
   <rect x="71" y="123" width="100" height="32" rx="10"/>
   <rect x="69"
         y="121"
         width="100"
         height="32"
         class="terminal"
         rx="10"/>
   <text class="terminal" x="79" y="141">LOCALTIME</text>
   <rect x="71" y="167" width="146" height="32" rx="10"/>
   <rect x="69"
         y="165"
         width="146"
         height="32"
         class="terminal"
         rx="10"/>
   <text class="terminal" x="79" y="185">LOCALTIMESTAMP</text>
   <rect x="305" y="111" width="26" height="32" rx="10"/>
   <rect x="303"
         y="109"
         width="26"
         height="32"
         class="terminal"
         rx="10"/>
   <text class="terminal" x="313" y="129">(</text>
   <a xmlns:xlink="http://www.w3.org/1999/xlink"
      xlink:href="#precision"
      xlink:title="precision">
      <rect x="371" y="143" width="76" height="32"/>
      <rect x="369" y="141" width="76" height="32" class="nonterminal"/>
      <text class="nonterminal" x="379" y="161">precision</text>
   </a>
   <rect x="487" y="111" width="26" height="32" rx="10"/>
   <rect x="485"
         y="109"
         width="26"
         height="32"
         class="terminal"
         rx="10"/>
   <text class="terminal" x="495" y="129">)</text>
   <path class="line"
         d="m17 17 h2 m20 0 h10 m54 0 h10 m0 0 h10 m26 0 h10 m20 0 h10 m0 0 h86 m-116 0 h20 m96 0 h20 m-136 0 q10 0 10 10 m116 0 q0 -10 10 -10 m-126 10 v12 m116 0 v-12 m-116 12 q0 10 10 10 m96 0 q10 0 10 -10 m-106 10 h10 m76 0 h10 m20 -32 h10 m26 0 h10 m0 0 h200 m-522 0 h20 m502 0 h20 m-542 0 q10 0 10 10 m522 0 q0 -10 10 -10 m-532 10 v56 m522 0 v-56 m-522 56 q0 10 10 10 m502 0 q10 0 10 -10 m-492 10 h10 m174 0 h10 m-214 0 h20 m194 0 h20 m-234 0 q10 0 10 10 m214 0 q0 -10 10 -10 m-224 10 v24 m214 0 v-24 m-214 24 q0 10 10 10 m194 0 q10 0 10 -10 m-204 10 h10 m100 0 h10 m0 0 h74 m-204 -10 v20 m214 0 v-20 m-214 20 v24 m214 0 v-24 m-214 24 q0 10 10 10 m194 0 q10 0 10 -10 m-204 10 h10 m146 0 h10 m0 0 h28 m40 -88 h10 m0 0 h218 m-248 0 h20 m228 0 h20 m-268 0 q10 0 10 10 m248 0 q0 -10 10 -10 m-258 10 v12 m248 0 v-12 m-248 12 q0 10 10 10 m228 0 q10 0 10 -10 m-238 10 h10 m26 0 h10 m20 0 h10 m0 0 h86 m-116 0 h20 m96 0 h20 m-136 0 q10 0 10 10 m116 0 q0 -10 10 -10 m-126 10 v12 m116 0 v-12 m-116 12 q0 10 10 10 m96 0 q10 0 10 -10 m-106 10 h10 m76 0 h10 m20 -32 h10 m26 0 h10 m43 -108 h-3"/>
   <polygon points="571 17 579 13 579 21"/>
   <polygon points="571 17 563 13 563 21"/>
</svg>
