<?xml version="1.0" encoding="UTF-8"?>
<svg xmlns="http://www.w3.org/2000/svg" width="783" height="157">
   <defs>
      <style type="text/css">
    @namespace "http://www.w3.org/2000/svg";
    .line                 {fill: none; stroke: #332900; stroke-width: 1;}
    .bold-line            {stroke: #141000; shape-rendering: crispEdges; stroke-width: 2;}
    .thin-line            {stroke: #1F1800; shape-rendering: crispEdges}
    .filled               {fill: #332900; stroke: none;}
    text.terminal         {font-family: Verdana, Sans-serif;
                            font-size: 12px;
                            fill: #141000;
                            font-weight: bold;
                          }
    text.nonterminal      {font-family: Verdana, Sans-serif;
                            font-size: 12px;
                            fill: #1A1400;
                            font-weight: normal;
                          }
    text.regexp           {font-family: Verdana, Sans-serif;
                            font-size: 12px;
                            fill: #1F1800;
                            font-weight: normal;
                          }
    rect, circle, polygon {fill: #332900; stroke: #332900;}
    rect.terminal         {fill: #FFDB4D; stroke: #332900; stroke-width: 1;}
    rect.nonterminal      {fill: #FFEC9E; stroke: #332900; stroke-width: 1;}
    rect.text             {fill: none; stroke: none;}
    polygon.regexp        {fill: #FFF4C7; stroke: #332900; stroke-width: 1;}
  </style>
   </defs>
   <polygon points="9 61 1 57 1 65"/>
   <polygon points="17 61 9 57 9 65"/>
   <rect x="31" y="47" width="88" height="32" rx="10"/>
   <rect x="29"
         y="45"
         width="88"
         height="32"
         class="terminal"
         rx="10"/>
   <text class="terminal" x="39" y="65">OPTIMIZE</text>
   <rect x="159" y="79" width="188" height="32" rx="10"/>
   <rect x="157"
         y="77"
         width="188"
         height="32"
         class="terminal"
         rx="10"/>
   <text class="terminal" x="167" y="97">NO_WRITE_TO_BINLOG</text>
   <rect x="159" y="123" width="64" height="32" rx="10"/>
   <rect x="157"
         y="121"
         width="64"
         height="32"
         class="terminal"
         rx="10"/>
   <text class="terminal" x="167" y="141">LOCAL</text>
   <rect x="387" y="47" width="62" height="32" rx="10"/>
   <rect x="385"
         y="45"
         width="62"
         height="32"
         class="terminal"
         rx="10"/>
   <text class="terminal" x="395" y="65">TABLE</text>
   <a xmlns:xlink="http://www.w3.org/1999/xlink"
      xlink:href="#tbl_name"
      xlink:title="tbl_name">
      <rect x="489" y="47" width="80" height="32"/>
      <rect x="487" y="45" width="80" height="32" class="nonterminal"/>
      <text class="nonterminal" x="497" y="65">tbl_name</text>
   </a>
   <rect x="489" y="3" width="24" height="32" rx="10"/>
   <rect x="487"
         y="1"
         width="24"
         height="32"
         class="terminal"
         rx="10"/>
   <text class="terminal" x="497" y="21">,</text>
   <rect x="629" y="79" width="58" height="32" rx="10"/>
   <rect x="627"
         y="77"
         width="58"
         height="32"
         class="terminal"
         rx="10"/>
   <text class="terminal" x="637" y="97">WAIT</text>
   <a xmlns:xlink="http://www.w3.org/1999/xlink"
      xlink:href="#n"
      xlink:title="n">
      <rect x="707" y="79" width="28" height="32"/>
      <rect x="705" y="77" width="28" height="32" class="nonterminal"/>
      <text class="nonterminal" x="715" y="97">n</text>
   </a>
   <rect x="629" y="123" width="78" height="32" rx="10"/>
   <rect x="627"
         y="121"
         width="78"
         height="32"
         class="terminal"
         rx="10"/>
   <text class="terminal" x="637" y="141">NOWAIT</text>
   <path class="line"
         d="m17 61 h2 m0 0 h10 m88 0 h10 m20 0 h10 m0 0 h198 m-228 0 h20 m208 0 h20 m-248 0 q10 0 10 10 m228 0 q0 -10 10 -10 m-238 10 v12 m228 0 v-12 m-228 12 q0 10 10 10 m208 0 q10 0 10 -10 m-218 10 h10 m188 0 h10 m-218 -10 v20 m228 0 v-20 m-228 20 v24 m228 0 v-24 m-228 24 q0 10 10 10 m208 0 q10 0 10 -10 m-218 10 h10 m64 0 h10 m0 0 h124 m20 -76 h10 m62 0 h10 m20 0 h10 m80 0 h10 m-120 0 l20 0 m-1 0 q-9 0 -9 -10 l0 -24 q0 -10 10 -10 m100 44 l20 0 m-20 0 q10 0 10 -10 l0 -24 q0 -10 -10 -10 m-100 0 h10 m24 0 h10 m0 0 h56 m40 44 h10 m0 0 h116 m-146 0 h20 m126 0 h20 m-166 0 q10 0 10 10 m146 0 q0 -10 10 -10 m-156 10 v12 m146 0 v-12 m-146 12 q0 10 10 10 m126 0 q10 0 10 -10 m-136 10 h10 m58 0 h10 m0 0 h10 m28 0 h10 m-136 -10 v20 m146 0 v-20 m-146 20 v24 m146 0 v-24 m-146 24 q0 10 10 10 m126 0 q10 0 10 -10 m-136 10 h10 m78 0 h10 m0 0 h28 m23 -76 h-3"/>
   <polygon points="773 61 781 57 781 65"/>
   <polygon points="773 61 765 57 765 65"/>
</svg>
