<?xml version="1.0" encoding="UTF-8"?>
<svg xmlns="http://www.w3.org/2000/svg" width="605" height="81">
   <defs>
      <style type="text/css">
    @namespace "http://www.w3.org/2000/svg";
    .line                 {fill: none; stroke: #332900; stroke-width: 1;}
    .bold-line            {stroke: #141000; shape-rendering: crispEdges; stroke-width: 2;}
    .thin-line            {stroke: #1F1800; shape-rendering: crispEdges}
    .filled               {fill: #332900; stroke: none;}
    text.terminal         {font-family: Verdana, Sans-serif;
                            font-size: 12px;
                            fill: #141000;
                            font-weight: bold;
                          }
    text.nonterminal      {font-family: Verdana, Sans-serif;
                            font-size: 12px;
                            fill: #1A1400;
                            font-weight: normal;
                          }
    text.regexp           {font-family: Verdana, Sans-serif;
                            font-size: 12px;
                            fill: #1F1800;
                            font-weight: normal;
                          }
    rect, circle, polygon {fill: #332900; stroke: #332900;}
    rect.terminal         {fill: #FFDB4D; stroke: #332900; stroke-width: 1;}
    rect.nonterminal      {fill: #FFEC9E; stroke: #332900; stroke-width: 1;}
    rect.text             {fill: none; stroke: none;}
    polygon.regexp        {fill: #FFF4C7; stroke: #332900; stroke-width: 1;}
  </style>
   </defs>
   <polygon points="9 17 1 13 1 21"/>
   <polygon points="17 17 9 13 9 21"/>
   <rect x="31" y="3" width="66" height="32" rx="10"/>
   <rect x="29"
         y="1"
         width="66"
         height="32"
         class="terminal"
         rx="10"/>
   <text class="terminal" x="39" y="21">PURGE</text>
   <rect x="137" y="3" width="72" height="32" rx="10"/>
   <rect x="135"
         y="1"
         width="72"
         height="32"
         class="terminal"
         rx="10"/>
   <text class="terminal" x="145" y="21">BINARY</text>
   <rect x="137" y="47" width="76" height="32" rx="10"/>
   <rect x="135"
         y="45"
         width="76"
         height="32"
         class="terminal"
         rx="10"/>
   <text class="terminal" x="145" y="65">MASTER</text>
   <rect x="253" y="3" width="58" height="32" rx="10"/>
   <rect x="251"
         y="1"
         width="58"
         height="32"
         class="terminal"
         rx="10"/>
   <text class="terminal" x="261" y="21">LOGS</text>
   <rect x="351" y="3" width="38" height="32" rx="10"/>
   <rect x="349"
         y="1"
         width="38"
         height="32"
         class="terminal"
         rx="10"/>
   <text class="terminal" x="359" y="21">TO</text>
   <a xmlns:xlink="http://www.w3.org/1999/xlink"
      xlink:href="#log_name"
      xlink:title="log_name">
      <rect x="409" y="3" width="82" height="32"/>
      <rect x="407" y="1" width="82" height="32" class="nonterminal"/>
      <text class="nonterminal" x="417" y="21">log_name</text>
   </a>
   <rect x="351" y="47" width="74" height="32" rx="10"/>
   <rect x="349"
         y="45"
         width="74"
         height="32"
         class="terminal"
         rx="10"/>
   <text class="terminal" x="359" y="65">BEFORE</text>
   <a xmlns:xlink="http://www.w3.org/1999/xlink"
      xlink:href="#datetime_expr"
      xlink:title="datetime_expr">
      <rect x="445" y="47" width="112" height="32"/>
      <rect x="443" y="45" width="112" height="32" class="nonterminal"/>
      <text class="nonterminal" x="453" y="65">datetime_expr</text>
   </a>
   <path class="line"
         d="m17 17 h2 m0 0 h10 m66 0 h10 m20 0 h10 m72 0 h10 m0 0 h4 m-116 0 h20 m96 0 h20 m-136 0 q10 0 10 10 m116 0 q0 -10 10 -10 m-126 10 v24 m116 0 v-24 m-116 24 q0 10 10 10 m96 0 q10 0 10 -10 m-106 10 h10 m76 0 h10 m20 -44 h10 m58 0 h10 m20 0 h10 m38 0 h10 m0 0 h10 m82 0 h10 m0 0 h66 m-246 0 h20 m226 0 h20 m-266 0 q10 0 10 10 m246 0 q0 -10 10 -10 m-256 10 v24 m246 0 v-24 m-246 24 q0 10 10 10 m226 0 q10 0 10 -10 m-236 10 h10 m74 0 h10 m0 0 h10 m112 0 h10 m23 -44 h-3"/>
   <polygon points="595 17 603 13 603 21"/>
   <polygon points="595 17 587 13 587 21"/>
</svg>
