<?xml version="1.0" encoding="UTF-8"?>
<svg xmlns="http://www.w3.org/2000/svg" width="775" height="245">
   <defs>
      <style type="text/css">
    @namespace "http://www.w3.org/2000/svg";
    .line                 {fill: none; stroke: #332900; stroke-width: 1;}
    .bold-line            {stroke: #141000; shape-rendering: crispEdges; stroke-width: 2;}
    .thin-line            {stroke: #1F1800; shape-rendering: crispEdges}
    .filled               {fill: #332900; stroke: none;}
    text.terminal         {font-family: Verdana, Sans-serif;
                            font-size: 12px;
                            fill: #141000;
                            font-weight: bold;
                          }
    text.nonterminal      {font-family: Verdana, Sans-serif;
                            font-size: 12px;
                            fill: #1A1400;
                            font-weight: normal;
                          }
    text.regexp           {font-family: Verdana, Sans-serif;
                            font-size: 12px;
                            fill: #1F1800;
                            font-weight: normal;
                          }
    rect, circle, polygon {fill: #332900; stroke: #332900;}
    rect.terminal         {fill: #FFDB4D; stroke: #332900; stroke-width: 1;}
    rect.nonterminal      {fill: #FFEC9E; stroke: #332900; stroke-width: 1;}
    rect.text             {fill: none; stroke: none;}
    polygon.regexp        {fill: #FFF4C7; stroke: #332900; stroke-width: 1;}
  </style>
   </defs>
   <polygon points="11 17 3 13 3 21"/>
   <polygon points="19 17 11 13 11 21"/>
   <rect x="33" y="3" width="98" height="32" rx="10"/>
   <rect x="31"
         y="1"
         width="98"
         height="32"
         class="terminal"
         rx="10"/>
   <text class="terminal" x="41" y="21">PARTITION</text>
   <rect x="151" y="3" width="38" height="32" rx="10"/>
   <rect x="149"
         y="1"
         width="38"
         height="32"
         class="terminal"
         rx="10"/>
   <text class="terminal" x="159" y="21">BY</text>
   <rect x="209" y="3" width="66" height="32" rx="10"/>
   <rect x="207"
         y="1"
         width="66"
         height="32"
         class="terminal"
         rx="10"/>
   <text class="terminal" x="217" y="21">RANGE</text>
   <rect x="295" y="3" width="26" height="32" rx="10"/>
   <rect x="293"
         y="1"
         width="26"
         height="32"
         class="terminal"
         rx="10"/>
   <text class="terminal" x="303" y="21">(</text>
   <a xmlns:xlink="http://www.w3.org/1999/xlink"
      xlink:href="#partitioning_expression"
      xlink:title="partitioning_expression">
      <rect x="341" y="3" width="170" height="32"/>
      <rect x="339" y="1" width="170" height="32" class="nonterminal"/>
      <text class="nonterminal" x="349" y="21">partitioning_expression</text>
   </a>
   <rect x="531" y="3" width="26" height="32" rx="10"/>
   <rect x="529"
         y="1"
         width="26"
         height="32"
         class="terminal"
         rx="10"/>
   <text class="terminal" x="539" y="21">)</text>
   <rect x="577" y="3" width="26" height="32" rx="10"/>
   <rect x="575"
         y="1"
         width="26"
         height="32"
         class="terminal"
         rx="10"/>
   <text class="terminal" x="585" y="21">(</text>
   <rect x="68" y="113" width="98" height="32" rx="10"/>
   <rect x="66"
         y="111"
         width="98"
         height="32"
         class="terminal"
         rx="10"/>
   <text class="terminal" x="76" y="131">PARTITION</text>
   <a xmlns:xlink="http://www.w3.org/1999/xlink"
      xlink:href="#partition_name"
      xlink:title="partition_name">
      <rect x="186" y="113" width="116" height="32"/>
      <rect x="184" y="111" width="116" height="32" class="nonterminal"/>
      <text class="nonterminal" x="194" y="131">partition_name</text>
   </a>
   <rect x="322" y="113" width="72" height="32" rx="10"/>
   <rect x="320"
         y="111"
         width="72"
         height="32"
         class="terminal"
         rx="10"/>
   <text class="terminal" x="330" y="131">VALUES</text>
   <rect x="414" y="113" width="54" height="32" rx="10"/>
   <rect x="412"
         y="111"
         width="54"
         height="32"
         class="terminal"
         rx="10"/>
   <text class="terminal" x="422" y="131">LESS</text>
   <rect x="488" y="113" width="58" height="32" rx="10"/>
   <rect x="486"
         y="111"
         width="58"
         height="32"
         class="terminal"
         rx="10"/>
   <text class="terminal" x="496" y="131">THAN</text>
   <rect x="566" y="113" width="26" height="32" rx="10"/>
   <rect x="564"
         y="111"
         width="26"
         height="32"
         class="terminal"
         rx="10"/>
   <text class="terminal" x="574" y="131">(</text>
   <a xmlns:xlink="http://www.w3.org/1999/xlink"
      xlink:href="#value"
      xlink:title="value">
      <rect x="612" y="113" width="54" height="32"/>
      <rect x="610" y="111" width="54" height="32" class="nonterminal"/>
      <text class="nonterminal" x="620" y="131">value</text>
   </a>
   <rect x="686" y="113" width="26" height="32" rx="10"/>
   <rect x="684"
         y="111"
         width="26"
         height="32"
         class="terminal"
         rx="10"/>
   <text class="terminal" x="694" y="131">)</text>
   <rect x="68" y="69" width="24" height="32" rx="10"/>
   <rect x="66"
         y="67"
         width="24"
         height="32"
         class="terminal"
         rx="10"/>
   <text class="terminal" x="76" y="87">,</text>
   <rect x="45" y="211" width="24" height="32" rx="10"/>
   <rect x="43"
         y="209"
         width="24"
         height="32"
         class="terminal"
         rx="10"/>
   <text class="terminal" x="53" y="229">,</text>
   <rect x="89" y="211" width="98" height="32" rx="10"/>
   <rect x="87"
         y="209"
         width="98"
         height="32"
         class="terminal"
         rx="10"/>
   <text class="terminal" x="97" y="229">PARTITION</text>
   <a xmlns:xlink="http://www.w3.org/1999/xlink"
      xlink:href="#partition_name"
      xlink:title="partition_name">
      <rect x="207" y="211" width="116" height="32"/>
      <rect x="205" y="209" width="116" height="32" class="nonterminal"/>
      <text class="nonterminal" x="215" y="229">partition_name</text>
   </a>
   <rect x="343" y="211" width="72" height="32" rx="10"/>
   <rect x="341"
         y="209"
         width="72"
         height="32"
         class="terminal"
         rx="10"/>
   <text class="terminal" x="351" y="229">VALUES</text>
   <rect x="435" y="211" width="54" height="32" rx="10"/>
   <rect x="433"
         y="209"
         width="54"
         height="32"
         class="terminal"
         rx="10"/>
   <text class="terminal" x="443" y="229">LESS</text>
   <rect x="509" y="211" width="58" height="32" rx="10"/>
   <rect x="507"
         y="209"
         width="58"
         height="32"
         class="terminal"
         rx="10"/>
   <text class="terminal" x="517" y="229">THAN</text>
   <rect x="587" y="211" width="94" height="32" rx="10"/>
   <rect x="585"
         y="209"
         width="94"
         height="32"
         class="terminal"
         rx="10"/>
   <text class="terminal" x="595" y="229">MAXVALUE</text>
   <rect x="721" y="179" width="26" height="32" rx="10"/>
   <rect x="719"
         y="177"
         width="26"
         height="32"
         class="terminal"
         rx="10"/>
   <text class="terminal" x="729" y="197">)</text>
   <path class="line"
         d="m19 17 h2 m0 0 h10 m98 0 h10 m0 0 h10 m38 0 h10 m0 0 h10 m66 0 h10 m0 0 h10 m26 0 h10 m0 0 h10 m170 0 h10 m0 0 h10 m26 0 h10 m0 0 h10 m26 0 h10 m2 0 l2 0 m2 0 l2 0 m2 0 l2 0 m-599 110 l2 0 m2 0 l2 0 m2 0 l2 0 m22 0 h10 m98 0 h10 m0 0 h10 m116 0 h10 m0 0 h10 m72 0 h10 m0 0 h10 m54 0 h10 m0 0 h10 m58 0 h10 m0 0 h10 m26 0 h10 m0 0 h10 m54 0 h10 m0 0 h10 m26 0 h10 m-684 0 l20 0 m-1 0 q-9 0 -9 -10 l0 -24 q0 -10 10 -10 m664 44 l20 0 m-20 0 q10 0 10 -10 l0 -24 q0 -10 -10 -10 m-664 0 h10 m24 0 h10 m0 0 h620 m22 44 l2 0 m2 0 l2 0 m2 0 l2 0 m-751 66 l2 0 m2 0 l2 0 m2 0 l2 0 m22 0 h10 m0 0 h646 m-676 0 h20 m656 0 h20 m-696 0 q10 0 10 10 m676 0 q0 -10 10 -10 m-686 10 v12 m676 0 v-12 m-676 12 q0 10 10 10 m656 0 q10 0 10 -10 m-666 10 h10 m24 0 h10 m0 0 h10 m98 0 h10 m0 0 h10 m116 0 h10 m0 0 h10 m72 0 h10 m0 0 h10 m54 0 h10 m0 0 h10 m58 0 h10 m0 0 h10 m94 0 h10 m20 -32 h10 m26 0 h10 m3 0 h-3"/>
   <polygon points="765 193 773 189 773 197"/>
   <polygon points="765 193 757 189 757 197"/>
</svg>
