<?xml version="1.0" encoding="UTF-8"?>
<svg xmlns="http://www.w3.org/2000/svg" width="949" height="157">
   <defs>
      <style type="text/css">
    @namespace "http://www.w3.org/2000/svg";
    .line                 {fill: none; stroke: #332900; stroke-width: 1;}
    .bold-line            {stroke: #141000; shape-rendering: crispEdges; stroke-width: 2;}
    .thin-line            {stroke: #1F1800; shape-rendering: crispEdges}
    .filled               {fill: #332900; stroke: none;}
    text.terminal         {font-family: Verdana, Sans-serif;
                            font-size: 12px;
                            fill: #141000;
                            font-weight: bold;
                          }
    text.nonterminal      {font-family: Verdana, Sans-serif;
                            font-size: 12px;
                            fill: #1A1400;
                            font-weight: normal;
                          }
    text.regexp           {font-family: Verdana, Sans-serif;
                            font-size: 12px;
                            fill: #1F1800;
                            font-weight: normal;
                          }
    rect, circle, polygon {fill: #332900; stroke: #332900;}
    rect.terminal         {fill: #FFDB4D; stroke: #332900; stroke-width: 1;}
    rect.nonterminal      {fill: #FFEC9E; stroke: #332900; stroke-width: 1;}
    rect.text             {fill: none; stroke: none;}
    polygon.regexp        {fill: #FFF4C7; stroke: #332900; stroke-width: 1;}
  </style>
   </defs>
   <polygon points="9 61 1 57 1 65"/>
   <polygon points="17 61 9 57 9 65"/>
   <rect x="31" y="47" width="76" height="32" rx="10"/>
   <rect x="29"
         y="45"
         width="76"
         height="32"
         class="terminal"
         rx="10"/>
   <text class="terminal" x="39" y="65">RENAME</text>
   <rect x="147" y="47" width="62" height="32" rx="10"/>
   <rect x="145"
         y="45"
         width="62"
         height="32"
         class="terminal"
         rx="10"/>
   <text class="terminal" x="155" y="65">TABLE</text>
   <rect x="147" y="91" width="72" height="32" rx="10"/>
   <rect x="145"
         y="89"
         width="72"
         height="32"
         class="terminal"
         rx="10"/>
   <text class="terminal" x="155" y="109">TABLES</text>
   <rect x="279" y="79" width="34" height="32" rx="10"/>
   <rect x="277"
         y="77"
         width="34"
         height="32"
         class="terminal"
         rx="10"/>
   <text class="terminal" x="287" y="97">IF</text>
   <rect x="333" y="79" width="70" height="32" rx="10"/>
   <rect x="331"
         y="77"
         width="70"
         height="32"
         class="terminal"
         rx="10"/>
   <text class="terminal" x="341" y="97">EXISTS</text>
   <a xmlns:xlink="http://www.w3.org/1999/xlink"
      xlink:href="#tbl_name"
      xlink:title="tbl_name">
      <rect x="443" y="47" width="80" height="32"/>
      <rect x="441" y="45" width="80" height="32" class="nonterminal"/>
      <text class="nonterminal" x="451" y="65">tbl_name</text>
   </a>
   <rect x="563" y="79" width="58" height="32" rx="10"/>
   <rect x="561"
         y="77"
         width="58"
         height="32"
         class="terminal"
         rx="10"/>
   <text class="terminal" x="571" y="97">WAIT</text>
   <a xmlns:xlink="http://www.w3.org/1999/xlink"
      xlink:href="#n"
      xlink:title="n">
      <rect x="641" y="79" width="28" height="32"/>
      <rect x="639" y="77" width="28" height="32" class="nonterminal"/>
      <text class="nonterminal" x="649" y="97">n</text>
   </a>
   <rect x="563" y="123" width="78" height="32" rx="10"/>
   <rect x="561"
         y="121"
         width="78"
         height="32"
         class="terminal"
         rx="10"/>
   <text class="terminal" x="571" y="141">NOWAIT</text>
   <rect x="729" y="47" width="38" height="32" rx="10"/>
   <rect x="727"
         y="45"
         width="38"
         height="32"
         class="terminal"
         rx="10"/>
   <text class="terminal" x="737" y="65">TO</text>
   <a xmlns:xlink="http://www.w3.org/1999/xlink"
      xlink:href="#new_tbl_name"
      xlink:title="new_tbl_name">
      <rect x="787" y="47" width="114" height="32"/>
      <rect x="785" y="45" width="114" height="32" class="nonterminal"/>
      <text class="nonterminal" x="795" y="65">new_tbl_name</text>
   </a>
   <a xmlns:xlink="http://www.w3.org/1999/xlink"
      xlink:href="#tbl_name"
      xlink:title="tbl_name">
      <rect x="729" y="3" width="80" height="32"/>
      <rect x="727" y="1" width="80" height="32" class="nonterminal"/>
      <text class="nonterminal" x="737" y="21">tbl_name</text>
   </a>
   <rect x="829" y="3" width="24" height="32" rx="10"/>
   <rect x="827"
         y="1"
         width="24"
         height="32"
         class="terminal"
         rx="10"/>
   <text class="terminal" x="837" y="21">,</text>
   <path class="line"
         d="m17 61 h2 m0 0 h10 m76 0 h10 m20 0 h10 m62 0 h10 m0 0 h10 m-112 0 h20 m92 0 h20 m-132 0 q10 0 10 10 m112 0 q0 -10 10 -10 m-122 10 v24 m112 0 v-24 m-112 24 q0 10 10 10 m92 0 q10 0 10 -10 m-102 10 h10 m72 0 h10 m40 -44 h10 m0 0 h134 m-164 0 h20 m144 0 h20 m-184 0 q10 0 10 10 m164 0 q0 -10 10 -10 m-174 10 v12 m164 0 v-12 m-164 12 q0 10 10 10 m144 0 q10 0 10 -10 m-154 10 h10 m34 0 h10 m0 0 h10 m70 0 h10 m20 -32 h10 m80 0 h10 m20 0 h10 m0 0 h116 m-146 0 h20 m126 0 h20 m-166 0 q10 0 10 10 m146 0 q0 -10 10 -10 m-156 10 v12 m146 0 v-12 m-146 12 q0 10 10 10 m126 0 q10 0 10 -10 m-136 10 h10 m58 0 h10 m0 0 h10 m28 0 h10 m-136 -10 v20 m146 0 v-20 m-146 20 v24 m146 0 v-24 m-146 24 q0 10 10 10 m126 0 q10 0 10 -10 m-136 10 h10 m78 0 h10 m0 0 h28 m40 -76 h10 m38 0 h10 m0 0 h10 m114 0 h10 m-212 0 l20 0 m-1 0 q-9 0 -9 -10 l0 -24 q0 -10 10 -10 m192 44 l20 0 m-20 0 q10 0 10 -10 l0 -24 q0 -10 -10 -10 m-192 0 h10 m80 0 h10 m0 0 h10 m24 0 h10 m0 0 h48 m23 44 h-3"/>
   <polygon points="939 61 947 57 947 65"/>
   <polygon points="939 61 931 57 931 65"/>
</svg>
