<?xml version="1.0" encoding="UTF-8"?>
<svg xmlns="http://www.w3.org/2000/svg" width="871" height="243">
   <defs>
      <style type="text/css">
    @namespace "http://www.w3.org/2000/svg";
    .line                 {fill: none; stroke: #332900; stroke-width: 1;}
    .bold-line            {stroke: #141000; shape-rendering: crispEdges; stroke-width: 2;}
    .thin-line            {stroke: #1F1800; shape-rendering: crispEdges}
    .filled               {fill: #332900; stroke: none;}
    text.terminal         {font-family: Verdana, Sans-serif;
                            font-size: 12px;
                            fill: #141000;
                            font-weight: bold;
                          }
    text.nonterminal      {font-family: Verdana, Sans-serif;
                            font-size: 12px;
                            fill: #1A1400;
                            font-weight: normal;
                          }
    text.regexp           {font-family: Verdana, Sans-serif;
                            font-size: 12px;
                            fill: #1F1800;
                            font-weight: normal;
                          }
    rect, circle, polygon {fill: #332900; stroke: #332900;}
    rect.terminal         {fill: #FFDB4D; stroke: #332900; stroke-width: 1;}
    rect.nonterminal      {fill: #FFEC9E; stroke: #332900; stroke-width: 1;}
    rect.text             {fill: none; stroke: none;}
    polygon.regexp        {fill: #FFF4C7; stroke: #332900; stroke-width: 1;}
  </style>
   </defs>
   <polygon points="9 61 1 57 1 65"/>
   <polygon points="17 61 9 57 9 65"/>
   <rect x="31" y="47" width="72" height="32" rx="10"/>
   <rect x="29"
         y="45"
         width="72"
         height="32"
         class="terminal"
         rx="10"/>
   <text class="terminal" x="39" y="65">REPAIR</text>
   <rect x="143" y="79" width="188" height="32" rx="10"/>
   <rect x="141"
         y="77"
         width="188"
         height="32"
         class="terminal"
         rx="10"/>
   <text class="terminal" x="151" y="97">NO_WRITE_TO_BINLOG</text>
   <rect x="143" y="123" width="64" height="32" rx="10"/>
   <rect x="141"
         y="121"
         width="64"
         height="32"
         class="terminal"
         rx="10"/>
   <text class="terminal" x="151" y="141">LOCAL</text>
   <rect x="371" y="47" width="62" height="32" rx="10"/>
   <rect x="369"
         y="45"
         width="62"
         height="32"
         class="terminal"
         rx="10"/>
   <text class="terminal" x="379" y="65">TABLE</text>
   <a xmlns:xlink="http://www.w3.org/1999/xlink"
      xlink:href="#tbl_name"
      xlink:title="tbl_name">
      <rect x="473" y="47" width="80" height="32"/>
      <rect x="471" y="45" width="80" height="32" class="nonterminal"/>
      <text class="nonterminal" x="481" y="65">tbl_name</text>
   </a>
   <rect x="473" y="3" width="24" height="32" rx="10"/>
   <rect x="471"
         y="1"
         width="24"
         height="32"
         class="terminal"
         rx="10"/>
   <text class="terminal" x="481" y="21">,</text>
   <rect x="613" y="79" width="64" height="32" rx="10"/>
   <rect x="611"
         y="77"
         width="64"
         height="32"
         class="terminal"
         rx="10"/>
   <text class="terminal" x="621" y="97">QUICK</text>
   <rect x="737" y="79" width="92" height="32" rx="10"/>
   <rect x="735"
         y="77"
         width="92"
         height="32"
         class="terminal"
         rx="10"/>
   <text class="terminal" x="745" y="97">EXTENDED</text>
   <rect x="613" y="209" width="84" height="32" rx="10"/>
   <rect x="611"
         y="207"
         width="84"
         height="32"
         class="terminal"
         rx="10"/>
   <text class="terminal" x="621" y="227">USE_FRM</text>
   <rect x="757" y="209" width="66" height="32" rx="10"/>
   <rect x="755"
         y="207"
         width="66"
         height="32"
         class="terminal"
         rx="10"/>
   <text class="terminal" x="765" y="227">FORCE</text>
   <path class="line"
         d="m17 61 h2 m0 0 h10 m72 0 h10 m20 0 h10 m0 0 h198 m-228 0 h20 m208 0 h20 m-248 0 q10 0 10 10 m228 0 q0 -10 10 -10 m-238 10 v12 m228 0 v-12 m-228 12 q0 10 10 10 m208 0 q10 0 10 -10 m-218 10 h10 m188 0 h10 m-218 -10 v20 m228 0 v-20 m-228 20 v24 m228 0 v-24 m-228 24 q0 10 10 10 m208 0 q10 0 10 -10 m-218 10 h10 m64 0 h10 m0 0 h124 m20 -76 h10 m62 0 h10 m20 0 h10 m80 0 h10 m-120 0 l20 0 m-1 0 q-9 0 -9 -10 l0 -24 q0 -10 10 -10 m100 44 l20 0 m-20 0 q10 0 10 -10 l0 -24 q0 -10 -10 -10 m-100 0 h10 m24 0 h10 m0 0 h56 m40 44 h10 m0 0 h74 m-104 0 h20 m84 0 h20 m-124 0 q10 0 10 10 m104 0 q0 -10 10 -10 m-114 10 v12 m104 0 v-12 m-104 12 q0 10 10 10 m84 0 q10 0 10 -10 m-94 10 h10 m64 0 h10 m40 -32 h10 m0 0 h102 m-132 0 h20 m112 0 h20 m-152 0 q10 0 10 10 m132 0 q0 -10 10 -10 m-142 10 v12 m132 0 v-12 m-132 12 q0 10 10 10 m112 0 q10 0 10 -10 m-122 10 h10 m92 0 h10 m22 -32 l2 0 m2 0 l2 0 m2 0 l2 0 m-300 130 l2 0 m2 0 l2 0 m2 0 l2 0 m22 0 h10 m0 0 h94 m-124 0 h20 m104 0 h20 m-144 0 q10 0 10 10 m124 0 q0 -10 10 -10 m-134 10 v12 m124 0 v-12 m-124 12 q0 10 10 10 m104 0 q10 0 10 -10 m-114 10 h10 m84 0 h10 m40 -32 h10 m0 0 h76 m-106 0 h20 m86 0 h20 m-126 0 q10 0 10 10 m106 0 q0 -10 10 -10 m-116 10 v12 m106 0 v-12 m-106 12 q0 10 10 10 m86 0 q10 0 10 -10 m-96 10 h10 m66 0 h10 m23 -32 h-3"/>
   <polygon points="861 191 869 187 869 195"/>
   <polygon points="861 191 853 187 853 195"/>
</svg>
