<?xml version="1.0" encoding="UTF-8"?>
<svg xmlns="http://www.w3.org/2000/svg" width="909" height="267">
   <defs>
      <style type="text/css">
    @namespace "http://www.w3.org/2000/svg";
    .line                 {fill: none; stroke: #332900; stroke-width: 1;}
    .bold-line            {stroke: #141000; shape-rendering: crispEdges; stroke-width: 2;}
    .thin-line            {stroke: #1F1800; shape-rendering: crispEdges}
    .filled               {fill: #332900; stroke: none;}
    text.terminal         {font-family: Verdana, Sans-serif;
                            font-size: 12px;
                            fill: #141000;
                            font-weight: bold;
                          }
    text.nonterminal      {font-family: Verdana, Sans-serif;
                            font-size: 12px;
                            fill: #1A1400;
                            font-weight: normal;
                          }
    text.regexp           {font-family: Verdana, Sans-serif;
                            font-size: 12px;
                            fill: #1F1800;
                            font-weight: normal;
                          }
    rect, circle, polygon {fill: #332900; stroke: #332900;}
    rect.terminal         {fill: #FFDB4D; stroke: #332900; stroke-width: 1;}
    rect.nonterminal      {fill: #FFEC9E; stroke: #332900; stroke-width: 1;}
    rect.text             {fill: none; stroke: none;}
    polygon.regexp        {fill: #FFF4C7; stroke: #332900; stroke-width: 1;}
  </style>
   </defs>
   <polygon points="9 17 1 13 1 21"/>
   <polygon points="17 17 9 13 9 21"/>
   <rect x="31" y="3" width="80" height="32" rx="10"/>
   <rect x="29"
         y="1"
         width="80"
         height="32"
         class="terminal"
         rx="10"/>
   <text class="terminal" x="39" y="21">REPLACE</text>
   <rect x="151" y="35" width="130" height="32" rx="10"/>
   <rect x="149"
         y="33"
         width="130"
         height="32"
         class="terminal"
         rx="10"/>
   <text class="terminal" x="159" y="53">LOW_PRIORITY</text>
   <rect x="151" y="79" width="82" height="32" rx="10"/>
   <rect x="149"
         y="77"
         width="82"
         height="32"
         class="terminal"
         rx="10"/>
   <text class="terminal" x="159" y="97">DELAYED</text>
   <rect x="341" y="35" width="56" height="32" rx="10"/>
   <rect x="339"
         y="33"
         width="56"
         height="32"
         class="terminal"
         rx="10"/>
   <text class="terminal" x="349" y="53">INTO</text>
   <a xmlns:xlink="http://www.w3.org/1999/xlink"
      xlink:href="#tbl_name"
      xlink:title="tbl_name">
      <rect x="437" y="3" width="80" height="32"/>
      <rect x="435" y="1" width="80" height="32" class="nonterminal"/>
      <text class="nonterminal" x="445" y="21">tbl_name</text>
   </a>
   <rect x="557" y="35" width="98" height="32" rx="10"/>
   <rect x="555"
         y="33"
         width="98"
         height="32"
         class="terminal"
         rx="10"/>
   <text class="terminal" x="565" y="53">PARTITION</text>
   <rect x="675" y="35" width="26" height="32" rx="10"/>
   <rect x="673"
         y="33"
         width="26"
         height="32"
         class="terminal"
         rx="10"/>
   <text class="terminal" x="683" y="53">(</text>
   <a xmlns:xlink="http://www.w3.org/1999/xlink"
      xlink:href="#partition_list"
      xlink:title="partition_list">
      <rect x="721" y="35" width="100" height="32"/>
      <rect x="719" y="33" width="100" height="32" class="nonterminal"/>
      <text class="nonterminal" x="729" y="53">partition_list</text>
   </a>
   <rect x="841" y="35" width="26" height="32" rx="10"/>
   <rect x="839"
         y="33"
         width="26"
         height="32"
         class="terminal"
         rx="10"/>
   <text class="terminal" x="849" y="53">)</text>
   <rect x="105" y="189" width="26" height="32" rx="10"/>
   <rect x="103"
         y="187"
         width="26"
         height="32"
         class="terminal"
         rx="10"/>
   <text class="terminal" x="113" y="207">(</text>
   <a xmlns:xlink="http://www.w3.org/1999/xlink"
      xlink:href="#col"
      xlink:title="col">
      <rect x="171" y="189" width="38" height="32"/>
      <rect x="169" y="187" width="38" height="32" class="nonterminal"/>
      <text class="nonterminal" x="179" y="207">col</text>
   </a>
   <rect x="171" y="145" width="24" height="32" rx="10"/>
   <rect x="169"
         y="143"
         width="24"
         height="32"
         class="terminal"
         rx="10"/>
   <text class="terminal" x="179" y="163">,</text>
   <rect x="249" y="189" width="26" height="32" rx="10"/>
   <rect x="247"
         y="187"
         width="26"
         height="32"
         class="terminal"
         rx="10"/>
   <text class="terminal" x="257" y="207">)</text>
   <rect x="335" y="189" width="72" height="32" rx="10"/>
   <rect x="333"
         y="187"
         width="72"
         height="32"
         class="terminal"
         rx="10"/>
   <text class="terminal" x="343" y="207">VALUES</text>
   <rect x="335" y="233" width="64" height="32" rx="10"/>
   <rect x="333"
         y="231"
         width="64"
         height="32"
         class="terminal"
         rx="10"/>
   <text class="terminal" x="343" y="251">VALUE</text>
   <a xmlns:xlink="http://www.w3.org/1999/xlink"
      xlink:href="#value_list"
      xlink:title="value_list">
      <rect x="467" y="189" width="80" height="32"/>
      <rect x="465" y="187" width="80" height="32" class="nonterminal"/>
      <text class="nonterminal" x="475" y="207">value_list</text>
   </a>
   <rect x="467" y="145" width="24" height="32" rx="10"/>
   <rect x="465"
         y="143"
         width="24"
         height="32"
         class="terminal"
         rx="10"/>
   <text class="terminal" x="475" y="163">,</text>
   <rect x="607" y="189" width="100" height="32" rx="10"/>
   <rect x="605"
         y="187"
         width="100"
         height="32"
         class="terminal"
         rx="10"/>
   <text class="terminal" x="615" y="207">RETURNING</text>
   <a xmlns:xlink="http://www.w3.org/1999/xlink"
      xlink:href="#select_expr"
      xlink:title="select_expr">
      <rect x="747" y="189" width="94" height="32"/>
      <rect x="745" y="187" width="94" height="32" class="nonterminal"/>
      <text class="nonterminal" x="755" y="207">select_expr</text>
   </a>
   <rect x="747" y="145" width="24" height="32" rx="10"/>
   <rect x="745"
         y="143"
         width="24"
         height="32"
         class="terminal"
         rx="10"/>
   <text class="terminal" x="755" y="163">,</text>
   <path class="line"
         d="m17 17 h2 m0 0 h10 m80 0 h10 m20 0 h10 m0 0 h140 m-170 0 h20 m150 0 h20 m-190 0 q10 0 10 10 m170 0 q0 -10 10 -10 m-180 10 v12 m170 0 v-12 m-170 12 q0 10 10 10 m150 0 q10 0 10 -10 m-160 10 h10 m130 0 h10 m-160 -10 v20 m170 0 v-20 m-170 20 v24 m170 0 v-24 m-170 24 q0 10 10 10 m150 0 q10 0 10 -10 m-160 10 h10 m82 0 h10 m0 0 h48 m40 -76 h10 m0 0 h66 m-96 0 h20 m76 0 h20 m-116 0 q10 0 10 10 m96 0 q0 -10 10 -10 m-106 10 v12 m96 0 v-12 m-96 12 q0 10 10 10 m76 0 q10 0 10 -10 m-86 10 h10 m56 0 h10 m20 -32 h10 m80 0 h10 m20 0 h10 m0 0 h320 m-350 0 h20 m330 0 h20 m-370 0 q10 0 10 10 m350 0 q0 -10 10 -10 m-360 10 v12 m350 0 v-12 m-350 12 q0 10 10 10 m330 0 q10 0 10 -10 m-340 10 h10 m98 0 h10 m0 0 h10 m26 0 h10 m0 0 h10 m100 0 h10 m0 0 h10 m26 0 h10 m22 -32 l2 0 m2 0 l2 0 m2 0 l2 0 m-846 186 l2 0 m2 0 l2 0 m2 0 l2 0 m22 0 h10 m26 0 h10 m20 0 h10 m38 0 h10 m-78 0 l20 0 m-1 0 q-9 0 -9 -10 l0 -24 q0 -10 10 -10 m58 44 l20 0 m-20 0 q10 0 10 -10 l0 -24 q0 -10 -10 -10 m-58 0 h10 m24 0 h10 m0 0 h14 m20 44 h10 m26 0 h10 m-210 0 h20 m190 0 h20 m-230 0 q10 0 10 10 m210 0 q0 -10 10 -10 m-220 10 v14 m210 0 v-14 m-210 14 q0 10 10 10 m190 0 q10 0 10 -10 m-200 10 h10 m0 0 h180 m40 -34 h10 m72 0 h10 m-112 0 h20 m92 0 h20 m-132 0 q10 0 10 10 m112 0 q0 -10 10 -10 m-122 10 v24 m112 0 v-24 m-112 24 q0 10 10 10 m92 0 q10 0 10 -10 m-102 10 h10 m64 0 h10 m0 0 h8 m40 -44 h10 m80 0 h10 m-120 0 l20 0 m-1 0 q-9 0 -9 -10 l0 -24 q0 -10 10 -10 m100 44 l20 0 m-20 0 q10 0 10 -10 l0 -24 q0 -10 -10 -10 m-100 0 h10 m24 0 h10 m0 0 h56 m40 44 h10 m100 0 h10 m20 0 h10 m94 0 h10 m-134 0 l20 0 m-1 0 q-9 0 -9 -10 l0 -24 q0 -10 10 -10 m114 44 l20 0 m-20 0 q10 0 10 -10 l0 -24 q0 -10 -10 -10 m-114 0 h10 m24 0 h10 m0 0 h70 m-274 44 h20 m274 0 h20 m-314 0 q10 0 10 10 m294 0 q0 -10 10 -10 m-304 10 v14 m294 0 v-14 m-294 14 q0 10 10 10 m274 0 q10 0 10 -10 m-284 10 h10 m0 0 h264 m23 -34 h-3"/>
   <polygon points="899 203 907 199 907 207"/>
   <polygon points="899 203 891 199 891 207"/>
</svg>
