<?xml version="1.0" encoding="UTF-8"?>
<svg xmlns="http://www.w3.org/2000/svg" width="775" height="167">
   <defs>
      <style type="text/css">
    @namespace "http://www.w3.org/2000/svg";
    .line                 {fill: none; stroke: #332900; stroke-width: 1;}
    .bold-line            {stroke: #141000; shape-rendering: crispEdges; stroke-width: 2;}
    .thin-line            {stroke: #1F1800; shape-rendering: crispEdges}
    .filled               {fill: #332900; stroke: none;}
    text.terminal         {font-family: Verdana, Sans-serif;
                            font-size: 12px;
                            fill: #141000;
                            font-weight: bold;
                          }
    text.nonterminal      {font-family: Verdana, Sans-serif;
                            font-size: 12px;
                            fill: #1A1400;
                            font-weight: normal;
                          }
    text.regexp           {font-family: Verdana, Sans-serif;
                            font-size: 12px;
                            fill: #1F1800;
                            font-weight: normal;
                          }
    rect, circle, polygon {fill: #332900; stroke: #332900;}
    rect.terminal         {fill: #FFDB4D; stroke: #332900; stroke-width: 1;}
    rect.nonterminal      {fill: #FFEC9E; stroke: #332900; stroke-width: 1;}
    rect.text             {fill: none; stroke: none;}
    polygon.regexp        {fill: #FFF4C7; stroke: #332900; stroke-width: 1;}
  </style>
   </defs>
   <polygon points="9 17 1 13 1 21"/>
   <polygon points="17 17 9 13 9 21"/>
   <rect x="31" y="3" width="120" height="32" rx="10"/>
   <rect x="29"
         y="1"
         width="120"
         height="32"
         class="terminal"
         rx="10"/>
   <text class="terminal" x="39" y="21">ROW_NUMBER</text>
   <rect x="171" y="3" width="26" height="32" rx="10"/>
   <rect x="169"
         y="1"
         width="26"
         height="32"
         class="terminal"
         rx="10"/>
   <text class="terminal" x="179" y="21">(</text>
   <rect x="217" y="3" width="26" height="32" rx="10"/>
   <rect x="215"
         y="1"
         width="26"
         height="32"
         class="terminal"
         rx="10"/>
   <text class="terminal" x="225" y="21">)</text>
   <rect x="263" y="3" width="58" height="32" rx="10"/>
   <rect x="261"
         y="1"
         width="58"
         height="32"
         class="terminal"
         rx="10"/>
   <text class="terminal" x="271" y="21">OVER</text>
   <rect x="341" y="3" width="26" height="32" rx="10"/>
   <rect x="339"
         y="1"
         width="26"
         height="32"
         class="terminal"
         rx="10"/>
   <text class="terminal" x="349" y="21">(</text>
   <rect x="407" y="35" width="98" height="32" rx="10"/>
   <rect x="405"
         y="33"
         width="98"
         height="32"
         class="terminal"
         rx="10"/>
   <text class="terminal" x="415" y="53">PARTITION</text>
   <rect x="525" y="35" width="38" height="32" rx="10"/>
   <rect x="523"
         y="33"
         width="38"
         height="32"
         class="terminal"
         rx="10"/>
   <text class="terminal" x="533" y="53">BY</text>
   <a xmlns:xlink="http://www.w3.org/1999/xlink"
      xlink:href="#partition_expression"
      xlink:title="partition_expression">
      <rect x="583" y="35" width="150" height="32"/>
      <rect x="581" y="33" width="150" height="32" class="nonterminal"/>
      <text class="nonterminal" x="591" y="53">partition_expression</text>
   </a>
   <rect x="455" y="133" width="68" height="32" rx="10"/>
   <rect x="453"
         y="131"
         width="68"
         height="32"
         class="terminal"
         rx="10"/>
   <text class="terminal" x="463" y="151">ORDER</text>
   <rect x="543" y="133" width="38" height="32" rx="10"/>
   <rect x="541"
         y="131"
         width="38"
         height="32"
         class="terminal"
         rx="10"/>
   <text class="terminal" x="551" y="151">BY</text>
   <a xmlns:xlink="http://www.w3.org/1999/xlink"
      xlink:href="#order_list"
      xlink:title="order_list">
      <rect x="601" y="133" width="80" height="32"/>
      <rect x="599" y="131" width="80" height="32" class="nonterminal"/>
      <text class="nonterminal" x="609" y="151">order_list</text>
   </a>
   <rect x="721" y="101" width="26" height="32" rx="10"/>
   <rect x="719"
         y="99"
         width="26"
         height="32"
         class="terminal"
         rx="10"/>
   <text class="terminal" x="729" y="119">)</text>
   <path class="line"
         d="m17 17 h2 m0 0 h10 m120 0 h10 m0 0 h10 m26 0 h10 m0 0 h10 m26 0 h10 m0 0 h10 m58 0 h10 m0 0 h10 m26 0 h10 m20 0 h10 m0 0 h336 m-366 0 h20 m346 0 h20 m-386 0 q10 0 10 10 m366 0 q0 -10 10 -10 m-376 10 v12 m366 0 v-12 m-366 12 q0 10 10 10 m346 0 q10 0 10 -10 m-356 10 h10 m98 0 h10 m0 0 h10 m38 0 h10 m0 0 h10 m150 0 h10 m22 -32 l2 0 m2 0 l2 0 m2 0 l2 0 m-362 98 l2 0 m2 0 l2 0 m2 0 l2 0 m22 0 h10 m0 0 h236 m-266 0 h20 m246 0 h20 m-286 0 q10 0 10 10 m266 0 q0 -10 10 -10 m-276 10 v12 m266 0 v-12 m-266 12 q0 10 10 10 m246 0 q10 0 10 -10 m-256 10 h10 m68 0 h10 m0 0 h10 m38 0 h10 m0 0 h10 m80 0 h10 m20 -32 h10 m26 0 h10 m3 0 h-3"/>
   <polygon points="765 115 773 111 773 119"/>
   <polygon points="765 115 757 111 757 119"/>
</svg>
