<?xml version="1.0" encoding="UTF-8"?>
<svg xmlns="http://www.w3.org/2000/svg" width="1235" height="239">
   <defs>
      <style type="text/css">
    @namespace "http://www.w3.org/2000/svg";
    .line                 {fill: none; stroke: #332900; stroke-width: 1;}
    .bold-line            {stroke: #141000; shape-rendering: crispEdges; stroke-width: 2;}
    .thin-line            {stroke: #1F1800; shape-rendering: crispEdges}
    .filled               {fill: #332900; stroke: none;}
    text.terminal         {font-family: Verdana, Sans-serif;
                            font-size: 12px;
                            fill: #141000;
                            font-weight: bold;
                          }
    text.nonterminal      {font-family: Verdana, Sans-serif;
                            font-size: 12px;
                            fill: #1A1400;
                            font-weight: normal;
                          }
    text.regexp           {font-family: Verdana, Sans-serif;
                            font-size: 12px;
                            fill: #1F1800;
                            font-weight: normal;
                          }
    rect, circle, polygon {fill: #332900; stroke: #332900;}
    rect.terminal         {fill: #FFDB4D; stroke: #332900; stroke-width: 1;}
    rect.nonterminal      {fill: #FFEC9E; stroke: #332900; stroke-width: 1;}
    rect.text             {fill: none; stroke: none;}
    polygon.regexp        {fill: #FFF4C7; stroke: #332900; stroke-width: 1;}
  </style>
   </defs>
   <polygon points="9 5 1 1 1 9"/>
   <polygon points="17 5 9 1 9 9"/>
   <rect x="71" y="23" width="70" height="32" rx="10"/>
   <rect x="69"
         y="21"
         width="70"
         height="32"
         class="terminal"
         rx="10"/>
   <text class="terminal" x="79" y="41">FIELDS</text>
   <rect x="71" y="67" width="88" height="32" rx="10"/>
   <rect x="69"
         y="65"
         width="88"
         height="32"
         class="terminal"
         rx="10"/>
   <text class="terminal" x="79" y="85">COLUMNS</text>
   <rect x="219" y="55" width="108" height="32" rx="10"/>
   <rect x="217"
         y="53"
         width="108"
         height="32"
         class="terminal"
         rx="10"/>
   <text class="terminal" x="227" y="73">TERMINATED</text>
   <rect x="347" y="55" width="38" height="32" rx="10"/>
   <rect x="345"
         y="53"
         width="38"
         height="32"
         class="terminal"
         rx="10"/>
   <text class="terminal" x="355" y="73">BY</text>
   <a xmlns:xlink="http://www.w3.org/1999/xlink"
      xlink:href="#string"
      xlink:title="string">
      <rect x="405" y="55" width="56" height="32"/>
      <rect x="403" y="53" width="56" height="32" class="nonterminal"/>
      <text class="nonterminal" x="413" y="73">string</text>
   </a>
   <rect x="541" y="87" width="110" height="32" rx="10"/>
   <rect x="539"
         y="85"
         width="110"
         height="32"
         class="terminal"
         rx="10"/>
   <text class="terminal" x="549" y="105">OPTIONALLY</text>
   <rect x="691" y="55" width="92" height="32" rx="10"/>
   <rect x="689"
         y="53"
         width="92"
         height="32"
         class="terminal"
         rx="10"/>
   <text class="terminal" x="699" y="73">ENCLOSED</text>
   <rect x="803" y="55" width="38" height="32" rx="10"/>
   <rect x="801"
         y="53"
         width="38"
         height="32"
         class="terminal"
         rx="10"/>
   <text class="terminal" x="811" y="73">BY</text>
   <a xmlns:xlink="http://www.w3.org/1999/xlink"
      xlink:href="#char"
      xlink:title="char">
      <rect x="861" y="55" width="46" height="32"/>
      <rect x="859" y="53" width="46" height="32" class="nonterminal"/>
      <text class="nonterminal" x="869" y="73">char</text>
   </a>
   <rect x="967" y="55" width="82" height="32" rx="10"/>
   <rect x="965"
         y="53"
         width="82"
         height="32"
         class="terminal"
         rx="10"/>
   <text class="terminal" x="975" y="73">ESCAPED</text>
   <rect x="1069" y="55" width="38" height="32" rx="10"/>
   <rect x="1067"
         y="53"
         width="38"
         height="32"
         class="terminal"
         rx="10"/>
   <text class="terminal" x="1077" y="73">BY</text>
   <a xmlns:xlink="http://www.w3.org/1999/xlink"
      xlink:href="#char"
      xlink:title="char">
      <rect x="1127" y="55" width="46" height="32"/>
      <rect x="1125" y="53" width="46" height="32" class="nonterminal"/>
      <text class="nonterminal" x="1135" y="73">char</text>
   </a>
   <rect x="539" y="173" width="62" height="32" rx="10"/>
   <rect x="537"
         y="171"
         width="62"
         height="32"
         class="terminal"
         rx="10"/>
   <text class="terminal" x="547" y="191">LINES</text>
   <rect x="641" y="205" width="90" height="32" rx="10"/>
   <rect x="639"
         y="203"
         width="90"
         height="32"
         class="terminal"
         rx="10"/>
   <text class="terminal" x="649" y="223">STARTING</text>
   <rect x="751" y="205" width="38" height="32" rx="10"/>
   <rect x="749"
         y="203"
         width="38"
         height="32"
         class="terminal"
         rx="10"/>
   <text class="terminal" x="759" y="223">BY</text>
   <a xmlns:xlink="http://www.w3.org/1999/xlink"
      xlink:href="#string"
      xlink:title="string">
      <rect x="809" y="205" width="56" height="32"/>
      <rect x="807" y="203" width="56" height="32" class="nonterminal"/>
      <text class="nonterminal" x="817" y="223">string</text>
   </a>
   <rect x="925" y="205" width="108" height="32" rx="10"/>
   <rect x="923"
         y="203"
         width="108"
         height="32"
         class="terminal"
         rx="10"/>
   <text class="terminal" x="933" y="223">TERMINATED</text>
   <rect x="1053" y="205" width="38" height="32" rx="10"/>
   <rect x="1051"
         y="203"
         width="38"
         height="32"
         class="terminal"
         rx="10"/>
   <text class="terminal" x="1061" y="223">BY</text>
   <a xmlns:xlink="http://www.w3.org/1999/xlink"
      xlink:href="#string"
      xlink:title="string">
      <rect x="1111" y="205" width="56" height="32"/>
      <rect x="1109" y="203" width="56" height="32" class="nonterminal"/>
      <text class="nonterminal" x="1119" y="223">string</text>
   </a>
   <path class="line"
         d="m17 5 h2 m20 0 h10 m0 0 h1152 m-1182 0 h20 m1162 0 h20 m-1202 0 q10 0 10 10 m1182 0 q0 -10 10 -10 m-1192 10 v12 m1182 0 v-12 m-1182 12 q0 10 10 10 m1162 0 q10 0 10 -10 m-1152 10 h10 m70 0 h10 m0 0 h18 m-128 0 h20 m108 0 h20 m-148 0 q10 0 10 10 m128 0 q0 -10 10 -10 m-138 10 v24 m128 0 v-24 m-128 24 q0 10 10 10 m108 0 q10 0 10 -10 m-118 10 h10 m88 0 h10 m40 -44 h10 m0 0 h252 m-282 0 h20 m262 0 h20 m-302 0 q10 0 10 10 m282 0 q0 -10 10 -10 m-292 10 v12 m282 0 v-12 m-282 12 q0 10 10 10 m262 0 q10 0 10 -10 m-272 10 h10 m108 0 h10 m0 0 h10 m38 0 h10 m0 0 h10 m56 0 h10 m40 -32 h10 m0 0 h396 m-426 0 h20 m406 0 h20 m-446 0 q10 0 10 10 m426 0 q0 -10 10 -10 m-436 10 v12 m426 0 v-12 m-426 12 q0 10 10 10 m406 0 q10 0 10 -10 m-396 10 h10 m0 0 h120 m-150 0 h20 m130 0 h20 m-170 0 q10 0 10 10 m150 0 q0 -10 10 -10 m-160 10 v12 m150 0 v-12 m-150 12 q0 10 10 10 m130 0 q10 0 10 -10 m-140 10 h10 m110 0 h10 m20 -32 h10 m92 0 h10 m0 0 h10 m38 0 h10 m0 0 h10 m46 0 h10 m40 -32 h10 m0 0 h216 m-246 0 h20 m226 0 h20 m-266 0 q10 0 10 10 m246 0 q0 -10 10 -10 m-256 10 v12 m246 0 v-12 m-246 12 q0 10 10 10 m226 0 q10 0 10 -10 m-236 10 h10 m82 0 h10 m0 0 h10 m38 0 h10 m0 0 h10 m46 0 h10 m42 -64 l2 0 m2 0 l2 0 m2 0 l2 0 m-738 150 l2 0 m2 0 l2 0 m2 0 l2 0 m22 0 h10 m0 0 h658 m-688 0 h20 m668 0 h20 m-708 0 q10 0 10 10 m688 0 q0 -10 10 -10 m-698 10 v12 m688 0 v-12 m-688 12 q0 10 10 10 m668 0 q10 0 10 -10 m-678 10 h10 m62 0 h10 m20 0 h10 m0 0 h234 m-264 0 h20 m244 0 h20 m-284 0 q10 0 10 10 m264 0 q0 -10 10 -10 m-274 10 v12 m264 0 v-12 m-264 12 q0 10 10 10 m244 0 q10 0 10 -10 m-254 10 h10 m90 0 h10 m0 0 h10 m38 0 h10 m0 0 h10 m56 0 h10 m40 -32 h10 m0 0 h252 m-282 0 h20 m262 0 h20 m-302 0 q10 0 10 10 m282 0 q0 -10 10 -10 m-292 10 v12 m282 0 v-12 m-282 12 q0 10 10 10 m262 0 q10 0 10 -10 m-272 10 h10 m108 0 h10 m0 0 h10 m38 0 h10 m0 0 h10 m56 0 h10 m43 -64 h-3"/>
   <polygon points="1225 155 1233 151 1233 159"/>
   <polygon points="1225 155 1217 151 1217 159"/>
</svg>
