<?xml version="1.0" encoding="UTF-8"?>
<svg xmlns="http://www.w3.org/2000/svg" width="597" height="81">
   <defs>
      <style type="text/css">
    @namespace "http://www.w3.org/2000/svg";
    .line                 {fill: none; stroke: #332900; stroke-width: 1;}
    .bold-line            {stroke: #141000; shape-rendering: crispEdges; stroke-width: 2;}
    .thin-line            {stroke: #1F1800; shape-rendering: crispEdges}
    .filled               {fill: #332900; stroke: none;}
    text.terminal         {font-family: Verdana, Sans-serif;
                            font-size: 12px;
                            fill: #141000;
                            font-weight: bold;
                          }
    text.nonterminal      {font-family: Verdana, Sans-serif;
                            font-size: 12px;
                            fill: #1A1400;
                            font-weight: normal;
                          }
    text.regexp           {font-family: Verdana, Sans-serif;
                            font-size: 12px;
                            fill: #1F1800;
                            font-weight: normal;
                          }
    rect, circle, polygon {fill: #332900; stroke: #332900;}
    rect.terminal         {fill: #FFDB4D; stroke: #332900; stroke-width: 1;}
    rect.nonterminal      {fill: #FFEC9E; stroke: #332900; stroke-width: 1;}
    rect.text             {fill: none; stroke: none;}
    polygon.regexp        {fill: #FFF4C7; stroke: #332900; stroke-width: 1;}
  </style>
   </defs>
   <polygon points="9 61 1 57 1 65"/>
   <polygon points="17 61 9 57 9 65"/>
   <rect x="31" y="47" width="70" height="32" rx="10"/>
   <rect x="29"
         y="45"
         width="70"
         height="32"
         class="terminal"
         rx="10"/>
   <text class="terminal" x="39" y="65">SELECT</text>
   <a xmlns:xlink="http://www.w3.org/1999/xlink"
      xlink:href="#col_name"
      xlink:title="col_name">
      <rect x="141" y="47" width="80" height="32"/>
      <rect x="139" y="45" width="80" height="32" class="nonterminal"/>
      <text class="nonterminal" x="149" y="65">col_name</text>
   </a>
   <rect x="141" y="3" width="24" height="32" rx="10"/>
   <rect x="139"
         y="1"
         width="24"
         height="32"
         class="terminal"
         rx="10"/>
   <text class="terminal" x="149" y="21">,</text>
   <rect x="261" y="47" width="56" height="32" rx="10"/>
   <rect x="259"
         y="45"
         width="56"
         height="32"
         class="terminal"
         rx="10"/>
   <text class="terminal" x="269" y="65">INTO</text>
   <a xmlns:xlink="http://www.w3.org/1999/xlink"
      xlink:href="#var_name"
      xlink:title="var_name">
      <rect x="357" y="47" width="84" height="32"/>
      <rect x="355" y="45" width="84" height="32" class="nonterminal"/>
      <text class="nonterminal" x="365" y="65">var_name</text>
   </a>
   <rect x="357" y="3" width="24" height="32" rx="10"/>
   <rect x="355"
         y="1"
         width="24"
         height="32"
         class="terminal"
         rx="10"/>
   <text class="terminal" x="365" y="21">,</text>
   <a xmlns:xlink="http://www.w3.org/1999/xlink"
      xlink:href="#table_expr"
      xlink:title="table_expr">
      <rect x="481" y="47" width="88" height="32"/>
      <rect x="479" y="45" width="88" height="32" class="nonterminal"/>
      <text class="nonterminal" x="489" y="65">table_expr</text>
   </a>
   <path class="line"
         d="m17 61 h2 m0 0 h10 m70 0 h10 m20 0 h10 m80 0 h10 m-120 0 l20 0 m-1 0 q-9 0 -9 -10 l0 -24 q0 -10 10 -10 m100 44 l20 0 m-20 0 q10 0 10 -10 l0 -24 q0 -10 -10 -10 m-100 0 h10 m24 0 h10 m0 0 h56 m20 44 h10 m56 0 h10 m20 0 h10 m84 0 h10 m-124 0 l20 0 m-1 0 q-9 0 -9 -10 l0 -24 q0 -10 10 -10 m104 44 l20 0 m-20 0 q10 0 10 -10 l0 -24 q0 -10 -10 -10 m-104 0 h10 m24 0 h10 m0 0 h60 m20 44 h10 m88 0 h10 m3 0 h-3"/>
   <polygon points="587 61 595 57 595 65"/>
   <polygon points="587 61 579 57 579 65"/>
</svg>
