<?xml version="1.0" encoding="UTF-8"?>
<svg xmlns="http://www.w3.org/2000/svg" width="817" height="155">
   <defs>
      <style type="text/css">
    @namespace "http://www.w3.org/2000/svg";
    .line                 {fill: none; stroke: #332900; stroke-width: 1;}
    .bold-line            {stroke: #141000; shape-rendering: crispEdges; stroke-width: 2;}
    .thin-line            {stroke: #1F1800; shape-rendering: crispEdges}
    .filled               {fill: #332900; stroke: none;}
    text.terminal         {font-family: Verdana, Sans-serif;
                            font-size: 12px;
                            fill: #141000;
                            font-weight: bold;
                          }
    text.nonterminal      {font-family: Verdana, Sans-serif;
                            font-size: 12px;
                            fill: #1A1400;
                            font-weight: normal;
                          }
    text.regexp           {font-family: Verdana, Sans-serif;
                            font-size: 12px;
                            fill: #1F1800;
                            font-weight: normal;
                          }
    rect, circle, polygon {fill: #332900; stroke: #332900;}
    rect.terminal         {fill: #FFDB4D; stroke: #332900; stroke-width: 1;}
    rect.nonterminal      {fill: #FFEC9E; stroke: #332900; stroke-width: 1;}
    rect.text             {fill: none; stroke: none;}
    polygon.regexp        {fill: #FFF4C7; stroke: #332900; stroke-width: 1;}
  </style>
   </defs>
   <polygon points="9 17 1 13 1 21"/>
   <polygon points="17 17 9 13 9 21"/>
   <a xmlns:xlink="http://www.w3.org/1999/xlink"
      xlink:href="#select_statement"
      xlink:title="select_statement">
      <rect x="31" y="3" width="130" height="32"/>
      <rect x="29" y="1" width="130" height="32" class="nonterminal"/>
      <text class="nonterminal" x="39" y="21">select_statement</text>
   </a>
   <rect x="181" y="3" width="56" height="32" rx="10"/>
   <rect x="179"
         y="1"
         width="56"
         height="32"
         class="terminal"
         rx="10"/>
   <text class="terminal" x="189" y="21">INTO</text>
   <rect x="257" y="3" width="80" height="32" rx="10"/>
   <rect x="255"
         y="1"
         width="80"
         height="32"
         class="terminal"
         rx="10"/>
   <text class="terminal" x="265" y="21">OUTFILE</text>
   <a xmlns:xlink="http://www.w3.org/1999/xlink"
      xlink:href="#file_name"
      xlink:title="file_name">
      <rect x="357" y="3" width="82" height="32"/>
      <rect x="355" y="1" width="82" height="32" class="nonterminal"/>
      <text class="nonterminal" x="365" y="21">file_name</text>
   </a>
   <rect x="479" y="35" width="102" height="32" rx="10"/>
   <rect x="477"
         y="33"
         width="102"
         height="32"
         class="terminal"
         rx="10"/>
   <text class="terminal" x="487" y="53">CHARACTER</text>
   <rect x="601" y="35" width="44" height="32" rx="10"/>
   <rect x="599"
         y="33"
         width="44"
         height="32"
         class="terminal"
         rx="10"/>
   <text class="terminal" x="609" y="53">SET</text>
   <a xmlns:xlink="http://www.w3.org/1999/xlink"
      xlink:href="#charset_name"
      xlink:title="charset_name">
      <rect x="665" y="35" width="110" height="32"/>
      <rect x="663" y="33" width="110" height="32" class="nonterminal"/>
      <text class="nonterminal" x="673" y="53">charset_name</text>
   </a>
   <a xmlns:xlink="http://www.w3.org/1999/xlink"
      xlink:href="#export_options"
      xlink:title="export_options">
      <rect x="653" y="121" width="116" height="32"/>
      <rect x="651" y="119" width="116" height="32" class="nonterminal"/>
      <text class="nonterminal" x="661" y="139">export_options</text>
   </a>
   <path class="line"
         d="m17 17 h2 m0 0 h10 m130 0 h10 m0 0 h10 m56 0 h10 m0 0 h10 m80 0 h10 m0 0 h10 m82 0 h10 m20 0 h10 m0 0 h306 m-336 0 h20 m316 0 h20 m-356 0 q10 0 10 10 m336 0 q0 -10 10 -10 m-346 10 v12 m336 0 v-12 m-336 12 q0 10 10 10 m316 0 q10 0 10 -10 m-326 10 h10 m102 0 h10 m0 0 h10 m44 0 h10 m0 0 h10 m110 0 h10 m22 -32 l2 0 m2 0 l2 0 m2 0 l2 0 m-206 86 l2 0 m2 0 l2 0 m2 0 l2 0 m22 0 h10 m0 0 h126 m-156 0 h20 m136 0 h20 m-176 0 q10 0 10 10 m156 0 q0 -10 10 -10 m-166 10 v12 m156 0 v-12 m-156 12 q0 10 10 10 m136 0 q10 0 10 -10 m-146 10 h10 m116 0 h10 m23 -32 h-3"/>
   <polygon points="807 103 815 99 815 107"/>
   <polygon points="807 103 799 99 799 107"/>
</svg>
