<?xml version="1.0" encoding="UTF-8"?>
<svg xmlns="http://www.w3.org/2000/svg" width="889" height="237">
   <defs>
      <style type="text/css">
    @namespace "http://www.w3.org/2000/svg";
    .line                 {fill: none; stroke: #332900; stroke-width: 1;}
    .bold-line            {stroke: #141000; shape-rendering: crispEdges; stroke-width: 2;}
    .thin-line            {stroke: #1F1800; shape-rendering: crispEdges}
    .filled               {fill: #332900; stroke: none;}
    text.terminal         {font-family: Verdana, Sans-serif;
                            font-size: 12px;
                            fill: #141000;
                            font-weight: bold;
                          }
    text.nonterminal      {font-family: Verdana, Sans-serif;
                            font-size: 12px;
                            fill: #1A1400;
                            font-weight: normal;
                          }
    text.regexp           {font-family: Verdana, Sans-serif;
                            font-size: 12px;
                            fill: #1F1800;
                            font-weight: normal;
                          }
    rect, circle, polygon {fill: #332900; stroke: #332900;}
    rect.terminal         {fill: #FFDB4D; stroke: #332900; stroke-width: 1;}
    rect.nonterminal      {fill: #FFEC9E; stroke: #332900; stroke-width: 1;}
    rect.text             {fill: none; stroke: none;}
    polygon.regexp        {fill: #FFF4C7; stroke: #332900; stroke-width: 1;}
  </style>
   </defs>
   <polygon points="11 17 3 13 3 21"/>
   <polygon points="19 17 11 13 11 21"/>
   <rect x="33" y="3" width="60" height="32" rx="10"/>
   <rect x="31"
         y="1"
         width="60"
         height="32"
         class="terminal"
         rx="10"/>
   <text class="terminal" x="41" y="21">FROM</text>
   <a xmlns:xlink="http://www.w3.org/1999/xlink"
      xlink:href="#table_references"
      xlink:title="table_references">
      <rect x="113" y="3" width="128" height="32"/>
      <rect x="111" y="1" width="128" height="32" class="nonterminal"/>
      <text class="nonterminal" x="121" y="21">table_references</text>
   </a>
   <rect x="281" y="35" width="70" height="32" rx="10"/>
   <rect x="279"
         y="33"
         width="70"
         height="32"
         class="terminal"
         rx="10"/>
   <text class="terminal" x="289" y="53">WHERE</text>
   <a xmlns:xlink="http://www.w3.org/1999/xlink"
      xlink:href="#where_condition"
      xlink:title="where_condition">
      <rect x="371" y="35" width="124" height="32"/>
      <rect x="369" y="33" width="124" height="32" class="nonterminal"/>
      <text class="nonterminal" x="379" y="53">where_condition</text>
   </a>
   <a xmlns:xlink="http://www.w3.org/1999/xlink"
      xlink:href="#group_by_clause"
      xlink:title="group_by_clause">
      <rect x="555" y="35" width="128" height="32"/>
      <rect x="553" y="33" width="128" height="32" class="nonterminal"/>
      <text class="nonterminal" x="563" y="53">group_by_clause</text>
   </a>
   <rect x="168" y="117" width="74" height="32" rx="10"/>
   <rect x="166"
         y="115"
         width="74"
         height="32"
         class="terminal"
         rx="10"/>
   <text class="terminal" x="176" y="135">HAVING</text>
   <a xmlns:xlink="http://www.w3.org/1999/xlink"
      xlink:href="#where_condition"
      xlink:title="where_condition">
      <rect x="262" y="117" width="124" height="32"/>
      <rect x="260" y="115" width="124" height="32" class="nonterminal"/>
      <text class="nonterminal" x="270" y="135">where_condition</text>
   </a>
   <a xmlns:xlink="http://www.w3.org/1999/xlink"
      xlink:href="#order_by_clause"
      xlink:title="order_by_clause">
      <rect x="446" y="117" width="126" height="32"/>
      <rect x="444" y="115" width="126" height="32" class="nonterminal"/>
      <text class="nonterminal" x="454" y="135">order_by_clause</text>
   </a>
   <a xmlns:xlink="http://www.w3.org/1999/xlink"
      xlink:href="#limit_clause"
      xlink:title="limit_clause">
      <rect x="632" y="117" width="94" height="32"/>
      <rect x="630" y="115" width="94" height="32" class="nonterminal"/>
      <text class="nonterminal" x="640" y="135">limit_clause</text>
   </a>
   <rect x="45" y="203" width="104" height="32" rx="10"/>
   <rect x="43"
         y="201"
         width="104"
         height="32"
         class="terminal"
         rx="10"/>
   <text class="terminal" x="53" y="221">PROCEDURE</text>
   <a xmlns:xlink="http://www.w3.org/1999/xlink"
      xlink:href="#procedure_name"
      xlink:title="procedure_name">
      <rect x="169" y="203" width="128" height="32"/>
      <rect x="167" y="201" width="128" height="32" class="nonterminal"/>
      <text class="nonterminal" x="177" y="221">procedure_name</text>
   </a>
   <rect x="317" y="203" width="26" height="32" rx="10"/>
   <rect x="315"
         y="201"
         width="26"
         height="32"
         class="terminal"
         rx="10"/>
   <text class="terminal" x="325" y="221">(</text>
   <a xmlns:xlink="http://www.w3.org/1999/xlink"
      xlink:href="#argument_list"
      xlink:title="argument_list">
      <rect x="363" y="203" width="108" height="32"/>
      <rect x="361" y="201" width="108" height="32" class="nonterminal"/>
      <text class="nonterminal" x="371" y="221">argument_list</text>
   </a>
   <rect x="491" y="203" width="26" height="32" rx="10"/>
   <rect x="489"
         y="201"
         width="26"
         height="32"
         class="terminal"
         rx="10"/>
   <text class="terminal" x="499" y="221">)</text>
   <a xmlns:xlink="http://www.w3.org/1999/xlink"
      xlink:href="#into_clause"
      xlink:title="into_clause">
      <rect x="577" y="203" width="92" height="32"/>
      <rect x="575" y="201" width="92" height="32" class="nonterminal"/>
      <text class="nonterminal" x="585" y="221">into_clause</text>
   </a>
   <a xmlns:xlink="http://www.w3.org/1999/xlink"
      xlink:href="#locking_clause"
      xlink:title="locking_clause">
      <rect x="729" y="203" width="112" height="32"/>
      <rect x="727" y="201" width="112" height="32" class="nonterminal"/>
      <text class="nonterminal" x="737" y="221">locking_clause</text>
   </a>
   <path class="line"
         d="m19 17 h2 m0 0 h10 m60 0 h10 m0 0 h10 m128 0 h10 m20 0 h10 m0 0 h224 m-254 0 h20 m234 0 h20 m-274 0 q10 0 10 10 m254 0 q0 -10 10 -10 m-264 10 v12 m254 0 v-12 m-254 12 q0 10 10 10 m234 0 q10 0 10 -10 m-244 10 h10 m70 0 h10 m0 0 h10 m124 0 h10 m40 -32 h10 m0 0 h138 m-168 0 h20 m148 0 h20 m-188 0 q10 0 10 10 m168 0 q0 -10 10 -10 m-178 10 v12 m168 0 v-12 m-168 12 q0 10 10 10 m148 0 q10 0 10 -10 m-158 10 h10 m128 0 h10 m22 -32 l2 0 m2 0 l2 0 m2 0 l2 0 m-599 82 l2 0 m2 0 l2 0 m2 0 l2 0 m22 0 h10 m0 0 h228 m-258 0 h20 m238 0 h20 m-278 0 q10 0 10 10 m258 0 q0 -10 10 -10 m-268 10 v12 m258 0 v-12 m-258 12 q0 10 10 10 m238 0 q10 0 10 -10 m-248 10 h10 m74 0 h10 m0 0 h10 m124 0 h10 m40 -32 h10 m0 0 h136 m-166 0 h20 m146 0 h20 m-186 0 q10 0 10 10 m166 0 q0 -10 10 -10 m-176 10 v12 m166 0 v-12 m-166 12 q0 10 10 10 m146 0 q10 0 10 -10 m-156 10 h10 m126 0 h10 m40 -32 h10 m0 0 h104 m-134 0 h20 m114 0 h20 m-154 0 q10 0 10 10 m134 0 q0 -10 10 -10 m-144 10 v12 m134 0 v-12 m-134 12 q0 10 10 10 m114 0 q10 0 10 -10 m-124 10 h10 m94 0 h10 m22 -32 l2 0 m2 0 l2 0 m2 0 l2 0 m-765 86 l2 0 m2 0 l2 0 m2 0 l2 0 m22 0 h10 m0 0 h482 m-512 0 h20 m492 0 h20 m-532 0 q10 0 10 10 m512 0 q0 -10 10 -10 m-522 10 v12 m512 0 v-12 m-512 12 q0 10 10 10 m492 0 q10 0 10 -10 m-502 10 h10 m104 0 h10 m0 0 h10 m128 0 h10 m0 0 h10 m26 0 h10 m0 0 h10 m108 0 h10 m0 0 h10 m26 0 h10 m40 -32 h10 m0 0 h102 m-132 0 h20 m112 0 h20 m-152 0 q10 0 10 10 m132 0 q0 -10 10 -10 m-142 10 v12 m132 0 v-12 m-132 12 q0 10 10 10 m112 0 q10 0 10 -10 m-122 10 h10 m92 0 h10 m40 -32 h10 m0 0 h122 m-152 0 h20 m132 0 h20 m-172 0 q10 0 10 10 m152 0 q0 -10 10 -10 m-162 10 v12 m152 0 v-12 m-152 12 q0 10 10 10 m132 0 q10 0 10 -10 m-142 10 h10 m112 0 h10 m23 -32 h-3"/>
   <polygon points="879 185 887 181 887 189"/>
   <polygon points="879 185 871 181 871 189"/>
</svg>
