<?xml version="1.0" encoding="UTF-8"?>
<svg xmlns="http://www.w3.org/2000/svg" width="889" height="201">
   <defs>
      <style type="text/css">
    @namespace "http://www.w3.org/2000/svg";
    .line                 {fill: none; stroke: #332900; stroke-width: 1;}
    .bold-line            {stroke: #141000; shape-rendering: crispEdges; stroke-width: 2;}
    .thin-line            {stroke: #1F1800; shape-rendering: crispEdges}
    .filled               {fill: #332900; stroke: none;}
    text.terminal         {font-family: Verdana, Sans-serif;
                            font-size: 12px;
                            fill: #141000;
                            font-weight: bold;
                          }
    text.nonterminal      {font-family: Verdana, Sans-serif;
                            font-size: 12px;
                            fill: #1A1400;
                            font-weight: normal;
                          }
    text.regexp           {font-family: Verdana, Sans-serif;
                            font-size: 12px;
                            fill: #1F1800;
                            font-weight: normal;
                          }
    rect, circle, polygon {fill: #332900; stroke: #332900;}
    rect.terminal         {fill: #FFDB4D; stroke: #332900; stroke-width: 1;}
    rect.nonterminal      {fill: #FFEC9E; stroke: #332900; stroke-width: 1;}
    rect.text             {fill: none; stroke: none;}
    polygon.regexp        {fill: #FFF4C7; stroke: #332900; stroke-width: 1;}
  </style>
   </defs>
   <polygon points="9 17 1 13 1 21"/>
   <polygon points="17 17 9 13 9 21"/>
   <rect x="31" y="3" width="56" height="32" rx="10"/>
   <rect x="29"
         y="1"
         width="56"
         height="32"
         class="terminal"
         rx="10"/>
   <text class="terminal" x="39" y="21">INTO</text>
   <rect x="127" y="3" width="80" height="32" rx="10"/>
   <rect x="125"
         y="1"
         width="80"
         height="32"
         class="terminal"
         rx="10"/>
   <text class="terminal" x="135" y="21">OUTFILE</text>
   <a xmlns:xlink="http://www.w3.org/1999/xlink"
      xlink:href="#file_name"
      xlink:title="file_name">
      <rect x="227" y="3" width="82" height="32"/>
      <rect x="225" y="1" width="82" height="32" class="nonterminal"/>
      <text class="nonterminal" x="235" y="21">file_name</text>
   </a>
   <rect x="349" y="35" width="102" height="32" rx="10"/>
   <rect x="347"
         y="33"
         width="102"
         height="32"
         class="terminal"
         rx="10"/>
   <text class="terminal" x="357" y="53">CHARACTER</text>
   <rect x="471" y="35" width="44" height="32" rx="10"/>
   <rect x="469"
         y="33"
         width="44"
         height="32"
         class="terminal"
         rx="10"/>
   <text class="terminal" x="479" y="53">SET</text>
   <a xmlns:xlink="http://www.w3.org/1999/xlink"
      xlink:href="#charset_name"
      xlink:title="charset_name">
      <rect x="535" y="35" width="110" height="32"/>
      <rect x="533" y="33" width="110" height="32" class="nonterminal"/>
      <text class="nonterminal" x="543" y="53">charset_name</text>
   </a>
   <a xmlns:xlink="http://www.w3.org/1999/xlink"
      xlink:href="#export_options"
      xlink:title="export_options">
      <rect x="705" y="35" width="116" height="32"/>
      <rect x="703" y="33" width="116" height="32" class="nonterminal"/>
      <text class="nonterminal" x="713" y="53">export_options</text>
   </a>
   <rect x="127" y="79" width="90" height="32" rx="10"/>
   <rect x="125"
         y="77"
         width="90"
         height="32"
         class="terminal"
         rx="10"/>
   <text class="terminal" x="135" y="97">DUMPFILE</text>
   <a xmlns:xlink="http://www.w3.org/1999/xlink"
      xlink:href="#file_name"
      xlink:title="file_name">
      <rect x="237" y="79" width="82" height="32"/>
      <rect x="235" y="77" width="82" height="32" class="nonterminal"/>
      <text class="nonterminal" x="245" y="97">file_name</text>
   </a>
   <a xmlns:xlink="http://www.w3.org/1999/xlink"
      xlink:href="#var_name"
      xlink:title="var_name">
      <rect x="147" y="167" width="84" height="32"/>
      <rect x="145" y="165" width="84" height="32" class="nonterminal"/>
      <text class="nonterminal" x="155" y="185">var_name</text>
   </a>
   <rect x="147" y="123" width="24" height="32" rx="10"/>
   <rect x="145"
         y="121"
         width="24"
         height="32"
         class="terminal"
         rx="10"/>
   <text class="terminal" x="155" y="141">,</text>
   <path class="line"
         d="m17 17 h2 m0 0 h10 m56 0 h10 m20 0 h10 m80 0 h10 m0 0 h10 m82 0 h10 m20 0 h10 m0 0 h306 m-336 0 h20 m316 0 h20 m-356 0 q10 0 10 10 m336 0 q0 -10 10 -10 m-346 10 v12 m336 0 v-12 m-336 12 q0 10 10 10 m316 0 q10 0 10 -10 m-326 10 h10 m102 0 h10 m0 0 h10 m44 0 h10 m0 0 h10 m110 0 h10 m40 -32 h10 m0 0 h126 m-156 0 h20 m136 0 h20 m-176 0 q10 0 10 10 m156 0 q0 -10 10 -10 m-166 10 v12 m156 0 v-12 m-156 12 q0 10 10 10 m136 0 q10 0 10 -10 m-146 10 h10 m116 0 h10 m-734 -32 h20 m734 0 h20 m-774 0 q10 0 10 10 m754 0 q0 -10 10 -10 m-764 10 v56 m754 0 v-56 m-754 56 q0 10 10 10 m734 0 q10 0 10 -10 m-744 10 h10 m90 0 h10 m0 0 h10 m82 0 h10 m0 0 h522 m-744 -10 v20 m754 0 v-20 m-754 20 v68 m754 0 v-68 m-754 68 q0 10 10 10 m734 0 q10 0 10 -10 m-724 10 h10 m84 0 h10 m-124 0 l20 0 m-1 0 q-9 0 -9 -10 l0 -24 q0 -10 10 -10 m104 44 l20 0 m-20 0 q10 0 10 -10 l0 -24 q0 -10 -10 -10 m-104 0 h10 m24 0 h10 m0 0 h60 m20 44 h590 m23 -164 h-3"/>
   <polygon points="879 17 887 13 887 21"/>
   <polygon points="879 17 871 13 871 21"/>
</svg>
