<?xml version="1.0" encoding="UTF-8"?>
<svg xmlns="http://www.w3.org/2000/svg" width="877" height="459">
   <defs>
      <style type="text/css">
    @namespace "http://www.w3.org/2000/svg";
    .line                 {fill: none; stroke: #332900; stroke-width: 1;}
    .bold-line            {stroke: #141000; shape-rendering: crispEdges; stroke-width: 2;}
    .thin-line            {stroke: #1F1800; shape-rendering: crispEdges}
    .filled               {fill: #332900; stroke: none;}
    text.terminal         {font-family: Verdana, Sans-serif;
                            font-size: 12px;
                            fill: #141000;
                            font-weight: bold;
                          }
    text.nonterminal      {font-family: Verdana, Sans-serif;
                            font-size: 12px;
                            fill: #1A1400;
                            font-weight: normal;
                          }
    text.regexp           {font-family: Verdana, Sans-serif;
                            font-size: 12px;
                            fill: #1F1800;
                            font-weight: normal;
                          }
    rect, circle, polygon {fill: #332900; stroke: #332900;}
    rect.terminal         {fill: #FFDB4D; stroke: #332900; stroke-width: 1;}
    rect.nonterminal      {fill: #FFEC9E; stroke: #332900; stroke-width: 1;}
    rect.text             {fill: none; stroke: none;}
    polygon.regexp        {fill: #FFF4C7; stroke: #332900; stroke-width: 1;}
  </style>
   </defs>
   <polygon points="9 51 1 47 1 55"/>
   <polygon points="17 51 9 47 9 55"/>
   <rect x="31" y="37" width="70" height="32" rx="10"/>
   <rect x="29"
         y="35"
         width="70"
         height="32"
         class="terminal"
         rx="10"/>
   <text class="terminal" x="39" y="55">SELECT</text>
   <a xmlns:xlink="http://www.w3.org/1999/xlink"
      xlink:href="#optimizer_hint"
      xlink:title="optimizer_hint">
      <rect x="141" y="3" width="112" height="32"/>
      <rect x="139" y="1" width="112" height="32" class="nonterminal"/>
      <text class="nonterminal" x="149" y="21">optimizer_hint</text>
   </a>
   <rect x="313" y="69" width="44" height="32" rx="10"/>
   <rect x="311"
         y="67"
         width="44"
         height="32"
         class="terminal"
         rx="10"/>
   <text class="terminal" x="321" y="87">ALL</text>
   <rect x="313" y="113" width="86" height="32" rx="10"/>
   <rect x="311"
         y="111"
         width="86"
         height="32"
         class="terminal"
         rx="10"/>
   <text class="terminal" x="321" y="131">DISTINCT</text>
   <rect x="313" y="157" width="122" height="32" rx="10"/>
   <rect x="311"
         y="155"
         width="122"
         height="32"
         class="terminal"
         rx="10"/>
   <text class="terminal" x="321" y="175">DISTINCTROW</text>
   <rect x="495" y="69" width="134" height="32" rx="10"/>
   <rect x="493"
         y="67"
         width="134"
         height="32"
         class="terminal"
         rx="10"/>
   <text class="terminal" x="503" y="87">HIGH_PRIORITY</text>
   <rect x="689" y="69" width="134" height="32" rx="10"/>
   <rect x="687"
         y="67"
         width="134"
         height="32"
         class="terminal"
         rx="10"/>
   <text class="terminal" x="697" y="87">STRAIGHT_JOIN</text>
   <rect x="45" y="239" width="164" height="32" rx="10"/>
   <rect x="43"
         y="237"
         width="164"
         height="32"
         class="terminal"
         rx="10"/>
   <text class="terminal" x="53" y="257">SQL_SMALL_RESULT</text>
   <rect x="269" y="239" width="144" height="32" rx="10"/>
   <rect x="267"
         y="237"
         width="144"
         height="32"
         class="terminal"
         rx="10"/>
   <text class="terminal" x="277" y="257">SQL_BIG_RESULT</text>
   <rect x="473" y="239" width="170" height="32" rx="10"/>
   <rect x="471"
         y="237"
         width="170"
         height="32"
         class="terminal"
         rx="10"/>
   <text class="terminal" x="481" y="257">SQL_BUFFER_RESULT</text>
   <rect x="703" y="239" width="102" height="32" rx="10"/>
   <rect x="701"
         y="237"
         width="102"
         height="32"
         class="terminal"
         rx="10"/>
   <text class="terminal" x="711" y="257">SQL_CACHE</text>
   <rect x="703" y="283" width="132" height="32" rx="10"/>
   <rect x="701"
         y="281"
         width="132"
         height="32"
         class="terminal"
         rx="10"/>
   <text class="terminal" x="711" y="301">SQL_NO_CACHE</text>
   <rect x="317" y="425" width="202" height="32" rx="10"/>
   <rect x="315"
         y="423"
         width="202"
         height="32"
         class="terminal"
         rx="10"/>
   <text class="terminal" x="325" y="443">SQL_CALC_FOUND_ROWS</text>
   <a xmlns:xlink="http://www.w3.org/1999/xlink"
      xlink:href="#select_expr"
      xlink:title="select_expr">
      <rect x="579" y="393" width="94" height="32"/>
      <rect x="577" y="391" width="94" height="32" class="nonterminal"/>
      <text class="nonterminal" x="587" y="411">select_expr</text>
   </a>
   <rect x="579" y="349" width="24" height="32" rx="10"/>
   <rect x="577"
         y="347"
         width="24"
         height="32"
         class="terminal"
         rx="10"/>
   <text class="terminal" x="587" y="367">,</text>
   <a xmlns:xlink="http://www.w3.org/1999/xlink"
      xlink:href="#from_clause"
      xlink:title="from_clause">
      <rect x="733" y="425" width="96" height="32"/>
      <rect x="731" y="423" width="96" height="32" class="nonterminal"/>
      <text class="nonterminal" x="741" y="443">from_clause</text>
   </a>
   <path class="line"
         d="m17 51 h2 m0 0 h10 m70 0 h10 m20 0 h10 m0 0 h122 m-152 0 l20 0 m-1 0 q-9 0 -9 -10 l0 -14 q0 -10 10 -10 m132 34 l20 0 m-20 0 q10 0 10 -10 l0 -14 q0 -10 -10 -10 m-132 0 h10 m112 0 h10 m40 34 h10 m0 0 h132 m-162 0 h20 m142 0 h20 m-182 0 q10 0 10 10 m162 0 q0 -10 10 -10 m-172 10 v12 m162 0 v-12 m-162 12 q0 10 10 10 m142 0 q10 0 10 -10 m-152 10 h10 m44 0 h10 m0 0 h78 m-152 -10 v20 m162 0 v-20 m-162 20 v24 m162 0 v-24 m-162 24 q0 10 10 10 m142 0 q10 0 10 -10 m-152 10 h10 m86 0 h10 m0 0 h36 m-152 -10 v20 m162 0 v-20 m-162 20 v24 m162 0 v-24 m-162 24 q0 10 10 10 m142 0 q10 0 10 -10 m-152 10 h10 m122 0 h10 m40 -120 h10 m0 0 h144 m-174 0 h20 m154 0 h20 m-194 0 q10 0 10 10 m174 0 q0 -10 10 -10 m-184 10 v12 m174 0 v-12 m-174 12 q0 10 10 10 m154 0 q10 0 10 -10 m-164 10 h10 m134 0 h10 m40 -32 h10 m0 0 h144 m-174 0 h20 m154 0 h20 m-194 0 q10 0 10 10 m174 0 q0 -10 10 -10 m-184 10 v12 m174 0 v-12 m-174 12 q0 10 10 10 m154 0 q10 0 10 -10 m-164 10 h10 m134 0 h10 m22 -32 l2 0 m2 0 l2 0 m2 0 l2 0 m-862 170 l2 0 m2 0 l2 0 m2 0 l2 0 m22 0 h10 m0 0 h174 m-204 0 h20 m184 0 h20 m-224 0 q10 0 10 10 m204 0 q0 -10 10 -10 m-214 10 v12 m204 0 v-12 m-204 12 q0 10 10 10 m184 0 q10 0 10 -10 m-194 10 h10 m164 0 h10 m40 -32 h10 m0 0 h154 m-184 0 h20 m164 0 h20 m-204 0 q10 0 10 10 m184 0 q0 -10 10 -10 m-194 10 v12 m184 0 v-12 m-184 12 q0 10 10 10 m164 0 q10 0 10 -10 m-174 10 h10 m144 0 h10 m40 -32 h10 m0 0 h180 m-210 0 h20 m190 0 h20 m-230 0 q10 0 10 10 m210 0 q0 -10 10 -10 m-220 10 v12 m210 0 v-12 m-210 12 q0 10 10 10 m190 0 q10 0 10 -10 m-200 10 h10 m170 0 h10 m40 -32 h10 m0 0 h142 m-172 0 h20 m152 0 h20 m-192 0 q10 0 10 10 m172 0 q0 -10 10 -10 m-182 10 v12 m172 0 v-12 m-172 12 q0 10 10 10 m152 0 q10 0 10 -10 m-162 10 h10 m102 0 h10 m0 0 h30 m-162 -10 v20 m172 0 v-20 m-172 20 v24 m172 0 v-24 m-172 24 q0 10 10 10 m152 0 q10 0 10 -10 m-162 10 h10 m132 0 h10 m22 -76 l2 0 m2 0 l2 0 m2 0 l2 0 m-602 186 l2 0 m2 0 l2 0 m2 0 l2 0 m22 0 h10 m0 0 h212 m-242 0 h20 m222 0 h20 m-262 0 q10 0 10 10 m242 0 q0 -10 10 -10 m-252 10 v12 m242 0 v-12 m-242 12 q0 10 10 10 m222 0 q10 0 10 -10 m-232 10 h10 m202 0 h10 m40 -32 h10 m94 0 h10 m-134 0 l20 0 m-1 0 q-9 0 -9 -10 l0 -24 q0 -10 10 -10 m114 44 l20 0 m-20 0 q10 0 10 -10 l0 -24 q0 -10 -10 -10 m-114 0 h10 m24 0 h10 m0 0 h70 m40 44 h10 m0 0 h106 m-136 0 h20 m116 0 h20 m-156 0 q10 0 10 10 m136 0 q0 -10 10 -10 m-146 10 v12 m136 0 v-12 m-136 12 q0 10 10 10 m116 0 q10 0 10 -10 m-126 10 h10 m96 0 h10 m23 -32 h-3"/>
   <polygon points="867 407 875 403 875 411"/>
   <polygon points="867 407 859 403 859 411"/>
</svg>
