<?xml version="1.0" encoding="UTF-8"?>
<svg xmlns="http://www.w3.org/2000/svg" width="573" height="113">
   <defs>
      <style type="text/css">
    @namespace "http://www.w3.org/2000/svg";
    .line                 {fill: none; stroke: #332900; stroke-width: 1;}
    .bold-line            {stroke: #141000; shape-rendering: crispEdges; stroke-width: 2;}
    .thin-line            {stroke: #1F1800; shape-rendering: crispEdges}
    .filled               {fill: #332900; stroke: none;}
    text.terminal         {font-family: Verdana, Sans-serif;
                            font-size: 12px;
                            fill: #141000;
                            font-weight: bold;
                          }
    text.nonterminal      {font-family: Verdana, Sans-serif;
                            font-size: 12px;
                            fill: #1A1400;
                            font-weight: normal;
                          }
    text.regexp           {font-family: Verdana, Sans-serif;
                            font-size: 12px;
                            fill: #1F1800;
                            font-weight: normal;
                          }
    rect, circle, polygon {fill: #332900; stroke: #332900;}
    rect.terminal         {fill: #FFDB4D; stroke: #332900; stroke-width: 1;}
    rect.nonterminal      {fill: #FFEC9E; stroke: #332900; stroke-width: 1;}
    rect.text             {fill: none; stroke: none;}
    polygon.regexp        {fill: #FFF4C7; stroke: #332900; stroke-width: 1;}
  </style>
   </defs>
   <polygon points="9 61 1 57 1 65"/>
   <polygon points="17 61 9 57 9 65"/>
   <rect x="31" y="47" width="68" height="32" rx="10"/>
   <rect x="29"
         y="45"
         width="68"
         height="32"
         class="terminal"
         rx="10"/>
   <text class="terminal" x="39" y="65">GROUP</text>
   <rect x="119" y="47" width="38" height="32" rx="10"/>
   <rect x="117"
         y="45"
         width="38"
         height="32"
         class="terminal"
         rx="10"/>
   <text class="terminal" x="127" y="65">BY</text>
   <a xmlns:xlink="http://www.w3.org/1999/xlink"
      xlink:href="#group_by_item"
      xlink:title="group_by_item">
      <rect x="197" y="47" width="116" height="32"/>
      <rect x="195" y="45" width="116" height="32" class="nonterminal"/>
      <text class="nonterminal" x="205" y="65">group_by_item</text>
   </a>
   <rect x="197" y="3" width="24" height="32" rx="10"/>
   <rect x="195"
         y="1"
         width="24"
         height="32"
         class="terminal"
         rx="10"/>
   <text class="terminal" x="205" y="21">,</text>
   <rect x="373" y="79" width="58" height="32" rx="10"/>
   <rect x="371"
         y="77"
         width="58"
         height="32"
         class="terminal"
         rx="10"/>
   <text class="terminal" x="381" y="97">WITH</text>
   <rect x="451" y="79" width="74" height="32" rx="10"/>
   <rect x="449"
         y="77"
         width="74"
         height="32"
         class="terminal"
         rx="10"/>
   <text class="terminal" x="459" y="97">ROLLUP</text>
   <path class="line"
         d="m17 61 h2 m0 0 h10 m68 0 h10 m0 0 h10 m38 0 h10 m20 0 h10 m116 0 h10 m-156 0 l20 0 m-1 0 q-9 0 -9 -10 l0 -24 q0 -10 10 -10 m136 44 l20 0 m-20 0 q10 0 10 -10 l0 -24 q0 -10 -10 -10 m-136 0 h10 m24 0 h10 m0 0 h92 m40 44 h10 m0 0 h162 m-192 0 h20 m172 0 h20 m-212 0 q10 0 10 10 m192 0 q0 -10 10 -10 m-202 10 v12 m192 0 v-12 m-192 12 q0 10 10 10 m172 0 q10 0 10 -10 m-182 10 h10 m58 0 h10 m0 0 h10 m74 0 h10 m23 -32 h-3"/>
   <polygon points="563 61 571 57 571 65"/>
   <polygon points="563 61 555 57 555 65"/>
</svg>
