<?xml version="1.0" encoding="UTF-8"?>
<svg xmlns="http://www.w3.org/2000/svg" width="513" height="289">
   <defs>
      <style type="text/css">
    @namespace "http://www.w3.org/2000/svg";
    .line                 {fill: none; stroke: #332900; stroke-width: 1;}
    .bold-line            {stroke: #141000; shape-rendering: crispEdges; stroke-width: 2;}
    .thin-line            {stroke: #1F1800; shape-rendering: crispEdges}
    .filled               {fill: #332900; stroke: none;}
    text.terminal         {font-family: Verdana, Sans-serif;
                            font-size: 12px;
                            fill: #141000;
                            font-weight: bold;
                          }
    text.nonterminal      {font-family: Verdana, Sans-serif;
                            font-size: 12px;
                            fill: #1A1400;
                            font-weight: normal;
                          }
    text.regexp           {font-family: Verdana, Sans-serif;
                            font-size: 12px;
                            fill: #1F1800;
                            font-weight: normal;
                          }
    rect, circle, polygon {fill: #332900; stroke: #332900;}
    rect.terminal         {fill: #FFDB4D; stroke: #332900; stroke-width: 1;}
    rect.nonterminal      {fill: #FFEC9E; stroke: #332900; stroke-width: 1;}
    rect.text             {fill: none; stroke: none;}
    polygon.regexp        {fill: #FFF4C7; stroke: #332900; stroke-width: 1;}
  </style>
   </defs>
   <polygon points="9 17 1 13 1 21"/>
   <polygon points="17 17 9 13 9 21"/>
   <a xmlns:xlink="http://www.w3.org/1999/xlink"
      xlink:href="#user_var_name"
      xlink:title="user_var_name">
      <rect x="51" y="3" width="120" height="32"/>
      <rect x="49" y="1" width="120" height="32" class="nonterminal"/>
      <text class="nonterminal" x="59" y="21">user_var_name</text>
   </a>
   <rect x="71" y="79" width="74" height="32" rx="10"/>
   <rect x="69"
         y="77"
         width="74"
         height="32"
         class="terminal"
         rx="10"/>
   <text class="terminal" x="79" y="97">GLOBAL</text>
   <rect x="71" y="123" width="82" height="32" rx="10"/>
   <rect x="69"
         y="121"
         width="82"
         height="32"
         class="terminal"
         rx="10"/>
   <text class="terminal" x="79" y="141">SESSION</text>
   <rect x="71" y="167" width="90" height="32" rx="10"/>
   <rect x="69"
         y="165"
         width="90"
         height="32"
         class="terminal"
         rx="10"/>
   <text class="terminal" x="79" y="185">@@global.</text>
   <rect x="71" y="211" width="98" height="32" rx="10"/>
   <rect x="69"
         y="209"
         width="98"
         height="32"
         class="terminal"
         rx="10"/>
   <text class="terminal" x="79" y="229">@@session.</text>
   <rect x="71" y="255" width="44" height="32" rx="10"/>
   <rect x="69"
         y="253"
         width="44"
         height="32"
         class="terminal"
         rx="10"/>
   <text class="terminal" x="79" y="273">@@</text>
   <a xmlns:xlink="http://www.w3.org/1999/xlink"
      xlink:href="#system_var_name"
      xlink:title="system_var_name">
      <rect x="209" y="47" width="138" height="32"/>
      <rect x="207" y="45" width="138" height="32" class="nonterminal"/>
      <text class="nonterminal" x="217" y="65">system_var_name</text>
   </a>
   <rect x="387" y="3" width="30" height="32" rx="10"/>
   <rect x="385"
         y="1"
         width="30"
         height="32"
         class="terminal"
         rx="10"/>
   <text class="terminal" x="395" y="21">=</text>
   <a xmlns:xlink="http://www.w3.org/1999/xlink"
      xlink:href="#expr"
      xlink:title="expr">
      <rect x="437" y="3" width="48" height="32"/>
      <rect x="435" y="1" width="48" height="32" class="nonterminal"/>
      <text class="nonterminal" x="445" y="21">expr</text>
   </a>
   <path class="line"
         d="m17 17 h2 m20 0 h10 m120 0 h10 m0 0 h176 m-336 0 h20 m316 0 h20 m-356 0 q10 0 10 10 m336 0 q0 -10 10 -10 m-346 10 v24 m336 0 v-24 m-336 24 q0 10 10 10 m316 0 q10 0 10 -10 m-306 10 h10 m0 0 h108 m-138 0 h20 m118 0 h20 m-158 0 q10 0 10 10 m138 0 q0 -10 10 -10 m-148 10 v12 m138 0 v-12 m-138 12 q0 10 10 10 m118 0 q10 0 10 -10 m-128 10 h10 m74 0 h10 m0 0 h24 m-128 -10 v20 m138 0 v-20 m-138 20 v24 m138 0 v-24 m-138 24 q0 10 10 10 m118 0 q10 0 10 -10 m-128 10 h10 m82 0 h10 m0 0 h16 m-128 -10 v20 m138 0 v-20 m-138 20 v24 m138 0 v-24 m-138 24 q0 10 10 10 m118 0 q10 0 10 -10 m-128 10 h10 m90 0 h10 m0 0 h8 m-128 -10 v20 m138 0 v-20 m-138 20 v24 m138 0 v-24 m-138 24 q0 10 10 10 m118 0 q10 0 10 -10 m-128 10 h10 m98 0 h10 m-128 -10 v20 m138 0 v-20 m-138 20 v24 m138 0 v-24 m-138 24 q0 10 10 10 m118 0 q10 0 10 -10 m-128 10 h10 m44 0 h10 m0 0 h54 m20 -208 h10 m138 0 h10 m20 -44 h10 m30 0 h10 m0 0 h10 m48 0 h10 m3 0 h-3"/>
   <polygon points="503 17 511 13 511 21"/>
   <polygon points="503 17 495 13 495 21"/>
</svg>
