<?xml version="1.0" encoding="UTF-8"?>
<svg xmlns="http://www.w3.org/2000/svg" width="879" height="125">
   <defs>
      <style type="text/css">
    @namespace "http://www.w3.org/2000/svg";
    .line                 {fill: none; stroke: #332900; stroke-width: 1;}
    .bold-line            {stroke: #141000; shape-rendering: crispEdges; stroke-width: 2;}
    .thin-line            {stroke: #1F1800; shape-rendering: crispEdges}
    .filled               {fill: #332900; stroke: none;}
    text.terminal         {font-family: Verdana, Sans-serif;
                            font-size: 12px;
                            fill: #141000;
                            font-weight: bold;
                          }
    text.nonterminal      {font-family: Verdana, Sans-serif;
                            font-size: 12px;
                            fill: #1A1400;
                            font-weight: normal;
                          }
    text.regexp           {font-family: Verdana, Sans-serif;
                            font-size: 12px;
                            fill: #1F1800;
                            font-weight: normal;
                          }
    rect, circle, polygon {fill: #332900; stroke: #332900;}
    rect.terminal         {fill: #FFDB4D; stroke: #332900; stroke-width: 1;}
    rect.nonterminal      {fill: #FFEC9E; stroke: #332900; stroke-width: 1;}
    rect.text             {fill: none; stroke: none;}
    polygon.regexp        {fill: #FFF4C7; stroke: #332900; stroke-width: 1;}
  </style>
   </defs>
   <polygon points="9 17 1 13 1 21"/>
   <polygon points="17 17 9 13 9 21"/>
   <rect x="31" y="3" width="44" height="32" rx="10"/>
   <rect x="29"
         y="1"
         width="44"
         height="32"
         class="terminal"
         rx="10"/>
   <text class="terminal" x="39" y="21">SET</text>
   <rect x="95" y="3" width="100" height="32" rx="10"/>
   <rect x="93"
         y="1"
         width="100"
         height="32"
         class="terminal"
         rx="10"/>
   <text class="terminal" x="103" y="21">PASSWORD</text>
   <rect x="235" y="35" width="48" height="32" rx="10"/>
   <rect x="233"
         y="33"
         width="48"
         height="32"
         class="terminal"
         rx="10"/>
   <text class="terminal" x="243" y="53">FOR</text>
   <a xmlns:xlink="http://www.w3.org/1999/xlink"
      xlink:href="#user"
      xlink:title="user">
      <rect x="303" y="35" width="48" height="32"/>
      <rect x="301" y="33" width="48" height="32" class="nonterminal"/>
      <text class="nonterminal" x="311" y="53">user</text>
   </a>
   <rect x="391" y="3" width="30" height="32" rx="10"/>
   <rect x="389"
         y="1"
         width="30"
         height="32"
         class="terminal"
         rx="10"/>
   <text class="terminal" x="399" y="21">=</text>
   <rect x="481" y="3" width="100" height="32" rx="10"/>
   <rect x="479"
         y="1"
         width="100"
         height="32"
         class="terminal"
         rx="10"/>
   <text class="terminal" x="489" y="21">PASSWORD</text>
   <rect x="481" y="47" width="138" height="32" rx="10"/>
   <rect x="479"
         y="45"
         width="138"
         height="32"
         class="terminal"
         rx="10"/>
   <text class="terminal" x="489" y="65">OLD_PASSWORD</text>
   <rect x="659" y="3" width="26" height="32" rx="10"/>
   <rect x="657"
         y="1"
         width="26"
         height="32"
         class="terminal"
         rx="10"/>
   <text class="terminal" x="667" y="21">(</text>
   <a xmlns:xlink="http://www.w3.org/1999/xlink"
      xlink:href="#password"
      xlink:title="password">
      <rect x="705" y="3" width="80" height="32"/>
      <rect x="703" y="1" width="80" height="32" class="nonterminal"/>
      <text class="nonterminal" x="713" y="21">password</text>
   </a>
   <rect x="805" y="3" width="26" height="32" rx="10"/>
   <rect x="803"
         y="1"
         width="26"
         height="32"
         class="terminal"
         rx="10"/>
   <text class="terminal" x="813" y="21">)</text>
   <a xmlns:xlink="http://www.w3.org/1999/xlink"
      xlink:href="#encrypted_password"
      xlink:title="encrypted_password">
      <rect x="461" y="91" width="152" height="32"/>
      <rect x="459" y="89" width="152" height="32" class="nonterminal"/>
      <text class="nonterminal" x="469" y="109">encrypted_password</text>
   </a>
   <path class="line"
         d="m17 17 h2 m0 0 h10 m44 0 h10 m0 0 h10 m100 0 h10 m20 0 h10 m0 0 h126 m-156 0 h20 m136 0 h20 m-176 0 q10 0 10 10 m156 0 q0 -10 10 -10 m-166 10 v12 m156 0 v-12 m-156 12 q0 10 10 10 m136 0 q10 0 10 -10 m-146 10 h10 m48 0 h10 m0 0 h10 m48 0 h10 m20 -32 h10 m30 0 h10 m40 0 h10 m100 0 h10 m0 0 h38 m-178 0 h20 m158 0 h20 m-198 0 q10 0 10 10 m178 0 q0 -10 10 -10 m-188 10 v24 m178 0 v-24 m-178 24 q0 10 10 10 m158 0 q10 0 10 -10 m-168 10 h10 m138 0 h10 m20 -44 h10 m26 0 h10 m0 0 h10 m80 0 h10 m0 0 h10 m26 0 h10 m-410 0 h20 m390 0 h20 m-430 0 q10 0 10 10 m410 0 q0 -10 10 -10 m-420 10 v68 m410 0 v-68 m-410 68 q0 10 10 10 m390 0 q10 0 10 -10 m-400 10 h10 m152 0 h10 m0 0 h218 m23 -88 h-3"/>
   <polygon points="869 17 877 13 877 21"/>
   <polygon points="869 17 861 13 861 21"/>
</svg>
