<?xml version="1.0" encoding="UTF-8"?>
<svg xmlns="http://www.w3.org/2000/svg" width="983" height="113">
   <defs>
      <style type="text/css">
    @namespace "http://www.w3.org/2000/svg";
    .line                 {fill: none; stroke: #332900; stroke-width: 1;}
    .bold-line            {stroke: #141000; shape-rendering: crispEdges; stroke-width: 2;}
    .thin-line            {stroke: #1F1800; shape-rendering: crispEdges}
    .filled               {fill: #332900; stroke: none;}
    text.terminal         {font-family: Verdana, Sans-serif;
                            font-size: 12px;
                            fill: #141000;
                            font-weight: bold;
                          }
    text.nonterminal      {font-family: Verdana, Sans-serif;
                            font-size: 12px;
                            fill: #1A1400;
                            font-weight: normal;
                          }
    text.regexp           {font-family: Verdana, Sans-serif;
                            font-size: 12px;
                            fill: #1F1800;
                            font-weight: normal;
                          }
    rect, circle, polygon {fill: #332900; stroke: #332900;}
    rect.terminal         {fill: #FFDB4D; stroke: #332900; stroke-width: 1;}
    rect.nonterminal      {fill: #FFEC9E; stroke: #332900; stroke-width: 1;}
    rect.text             {fill: none; stroke: none;}
    polygon.regexp        {fill: #FFF4C7; stroke: #332900; stroke-width: 1;}
  </style>
   </defs>
   <polygon points="9 17 1 13 1 21"/>
   <polygon points="17 17 9 13 9 21"/>
   <rect x="31" y="3" width="64" height="32" rx="10"/>
   <rect x="29"
         y="1"
         width="64"
         height="32"
         class="terminal"
         rx="10"/>
   <text class="terminal" x="39" y="21">SHOW</text>
   <rect x="135" y="35" width="54" height="32" rx="10"/>
   <rect x="133"
         y="33"
         width="54"
         height="32"
         class="terminal"
         rx="10"/>
   <text class="terminal" x="143" y="53">FULL</text>
   <rect x="249" y="3" width="88" height="32" rx="10"/>
   <rect x="247"
         y="1"
         width="88"
         height="32"
         class="terminal"
         rx="10"/>
   <text class="terminal" x="257" y="21">COLUMNS</text>
   <rect x="249" y="47" width="70" height="32" rx="10"/>
   <rect x="247"
         y="45"
         width="70"
         height="32"
         class="terminal"
         rx="10"/>
   <text class="terminal" x="257" y="65">FIELDS</text>
   <rect x="377" y="3" width="60" height="32" rx="10"/>
   <rect x="375"
         y="1"
         width="60"
         height="32"
         class="terminal"
         rx="10"/>
   <text class="terminal" x="385" y="21">FROM</text>
   <a xmlns:xlink="http://www.w3.org/1999/xlink"
      xlink:href="#tbl_name"
      xlink:title="tbl_name">
      <rect x="457" y="3" width="80" height="32"/>
      <rect x="455" y="1" width="80" height="32" class="nonterminal"/>
      <text class="nonterminal" x="465" y="21">tbl_name</text>
   </a>
   <rect x="577" y="35" width="60" height="32" rx="10"/>
   <rect x="575"
         y="33"
         width="60"
         height="32"
         class="terminal"
         rx="10"/>
   <text class="terminal" x="585" y="53">FROM</text>
   <a xmlns:xlink="http://www.w3.org/1999/xlink"
      xlink:href="#db_name"
      xlink:title="db_name">
      <rect x="657" y="35" width="80" height="32"/>
      <rect x="655" y="33" width="80" height="32" class="nonterminal"/>
      <text class="nonterminal" x="665" y="53">db_name</text>
   </a>
   <rect x="797" y="35" width="52" height="32" rx="10"/>
   <rect x="795"
         y="33"
         width="52"
         height="32"
         class="terminal"
         rx="10"/>
   <text class="terminal" x="805" y="53">LIKE</text>
   <a xmlns:xlink="http://www.w3.org/1999/xlink"
      xlink:href="#pattern"
      xlink:title="pattern">
      <rect x="869" y="35" width="66" height="32"/>
      <rect x="867" y="33" width="66" height="32" class="nonterminal"/>
      <text class="nonterminal" x="877" y="53">pattern</text>
   </a>
   <rect x="797" y="79" width="70" height="32" rx="10"/>
   <rect x="795"
         y="77"
         width="70"
         height="32"
         class="terminal"
         rx="10"/>
   <text class="terminal" x="805" y="97">WHERE</text>
   <a xmlns:xlink="http://www.w3.org/1999/xlink"
      xlink:href="#expr"
      xlink:title="expr">
      <rect x="887" y="79" width="48" height="32"/>
      <rect x="885" y="77" width="48" height="32" class="nonterminal"/>
      <text class="nonterminal" x="895" y="97">expr</text>
   </a>
   <path class="line"
         d="m17 17 h2 m0 0 h10 m64 0 h10 m20 0 h10 m0 0 h64 m-94 0 h20 m74 0 h20 m-114 0 q10 0 10 10 m94 0 q0 -10 10 -10 m-104 10 v12 m94 0 v-12 m-94 12 q0 10 10 10 m74 0 q10 0 10 -10 m-84 10 h10 m54 0 h10 m40 -32 h10 m88 0 h10 m-128 0 h20 m108 0 h20 m-148 0 q10 0 10 10 m128 0 q0 -10 10 -10 m-138 10 v24 m128 0 v-24 m-128 24 q0 10 10 10 m108 0 q10 0 10 -10 m-118 10 h10 m70 0 h10 m0 0 h18 m20 -44 h10 m60 0 h10 m0 0 h10 m80 0 h10 m20 0 h10 m0 0 h170 m-200 0 h20 m180 0 h20 m-220 0 q10 0 10 10 m200 0 q0 -10 10 -10 m-210 10 v12 m200 0 v-12 m-200 12 q0 10 10 10 m180 0 q10 0 10 -10 m-190 10 h10 m60 0 h10 m0 0 h10 m80 0 h10 m40 -32 h10 m0 0 h148 m-178 0 h20 m158 0 h20 m-198 0 q10 0 10 10 m178 0 q0 -10 10 -10 m-188 10 v12 m178 0 v-12 m-178 12 q0 10 10 10 m158 0 q10 0 10 -10 m-168 10 h10 m52 0 h10 m0 0 h10 m66 0 h10 m-168 -10 v20 m178 0 v-20 m-178 20 v24 m178 0 v-24 m-178 24 q0 10 10 10 m158 0 q10 0 10 -10 m-168 10 h10 m70 0 h10 m0 0 h10 m48 0 h10 m23 -76 h-3"/>
   <polygon points="973 17 981 13 981 21"/>
   <polygon points="973 17 965 13 965 21"/>
</svg>
