<?xml version="1.0" encoding="UTF-8"?>
<svg xmlns="http://www.w3.org/2000/svg" width="861" height="125">
   <defs>
      <style type="text/css">
    @namespace "http://www.w3.org/2000/svg";
    .line                 {fill: none; stroke: #332900; stroke-width: 1;}
    .bold-line            {stroke: #141000; shape-rendering: crispEdges; stroke-width: 2;}
    .thin-line            {stroke: #1F1800; shape-rendering: crispEdges}
    .filled               {fill: #332900; stroke: none;}
    text.terminal         {font-family: Verdana, Sans-serif;
                            font-size: 12px;
                            fill: #141000;
                            font-weight: bold;
                          }
    text.nonterminal      {font-family: Verdana, Sans-serif;
                            font-size: 12px;
                            fill: #1A1400;
                            font-weight: normal;
                          }
    text.regexp           {font-family: Verdana, Sans-serif;
                            font-size: 12px;
                            fill: #1F1800;
                            font-weight: normal;
                          }
    rect, circle, polygon {fill: #332900; stroke: #332900;}
    rect.terminal         {fill: #FFDB4D; stroke: #332900; stroke-width: 1;}
    rect.nonterminal      {fill: #FFEC9E; stroke: #332900; stroke-width: 1;}
    rect.text             {fill: none; stroke: none;}
    polygon.regexp        {fill: #FFF4C7; stroke: #332900; stroke-width: 1;}
  </style>
   </defs>
   <polygon points="9 17 1 13 1 21"/>
   <polygon points="17 17 9 13 9 21"/>
   <rect x="31" y="3" width="64" height="32" rx="10"/>
   <rect x="29"
         y="1"
         width="64"
         height="32"
         class="terminal"
         rx="10"/>
   <text class="terminal" x="39" y="21">SHOW</text>
   <rect x="135" y="3" width="64" height="32" rx="10"/>
   <rect x="133"
         y="1"
         width="64"
         height="32"
         class="terminal"
         rx="10"/>
   <text class="terminal" x="143" y="21">INDEX</text>
   <rect x="135" y="47" width="80" height="32" rx="10"/>
   <rect x="133"
         y="45"
         width="80"
         height="32"
         class="terminal"
         rx="10"/>
   <text class="terminal" x="143" y="65">INDEXES</text>
   <rect x="135" y="91" width="54" height="32" rx="10"/>
   <rect x="133"
         y="89"
         width="54"
         height="32"
         class="terminal"
         rx="10"/>
   <text class="terminal" x="143" y="109">KEYS</text>
   <rect x="255" y="3" width="60" height="32" rx="10"/>
   <rect x="253"
         y="1"
         width="60"
         height="32"
         class="terminal"
         rx="10"/>
   <text class="terminal" x="263" y="21">FROM</text>
   <a xmlns:xlink="http://www.w3.org/1999/xlink"
      xlink:href="#tbl_name"
      xlink:title="tbl_name">
      <rect x="335" y="3" width="80" height="32"/>
      <rect x="333" y="1" width="80" height="32" class="nonterminal"/>
      <text class="nonterminal" x="343" y="21">tbl_name</text>
   </a>
   <rect x="455" y="35" width="60" height="32" rx="10"/>
   <rect x="453"
         y="33"
         width="60"
         height="32"
         class="terminal"
         rx="10"/>
   <text class="terminal" x="463" y="53">FROM</text>
   <a xmlns:xlink="http://www.w3.org/1999/xlink"
      xlink:href="#db_name"
      xlink:title="db_name">
      <rect x="535" y="35" width="80" height="32"/>
      <rect x="533" y="33" width="80" height="32" class="nonterminal"/>
      <text class="nonterminal" x="543" y="53">db_name</text>
   </a>
   <rect x="675" y="35" width="70" height="32" rx="10"/>
   <rect x="673"
         y="33"
         width="70"
         height="32"
         class="terminal"
         rx="10"/>
   <text class="terminal" x="683" y="53">WHERE</text>
   <a xmlns:xlink="http://www.w3.org/1999/xlink"
      xlink:href="#expr"
      xlink:title="expr">
      <rect x="765" y="35" width="48" height="32"/>
      <rect x="763" y="33" width="48" height="32" class="nonterminal"/>
      <text class="nonterminal" x="773" y="53">expr</text>
   </a>
   <path class="line"
         d="m17 17 h2 m0 0 h10 m64 0 h10 m20 0 h10 m64 0 h10 m0 0 h16 m-120 0 h20 m100 0 h20 m-140 0 q10 0 10 10 m120 0 q0 -10 10 -10 m-130 10 v24 m120 0 v-24 m-120 24 q0 10 10 10 m100 0 q10 0 10 -10 m-110 10 h10 m80 0 h10 m-110 -10 v20 m120 0 v-20 m-120 20 v24 m120 0 v-24 m-120 24 q0 10 10 10 m100 0 q10 0 10 -10 m-110 10 h10 m54 0 h10 m0 0 h26 m20 -88 h10 m60 0 h10 m0 0 h10 m80 0 h10 m20 0 h10 m0 0 h170 m-200 0 h20 m180 0 h20 m-220 0 q10 0 10 10 m200 0 q0 -10 10 -10 m-210 10 v12 m200 0 v-12 m-200 12 q0 10 10 10 m180 0 q10 0 10 -10 m-190 10 h10 m60 0 h10 m0 0 h10 m80 0 h10 m40 -32 h10 m0 0 h148 m-178 0 h20 m158 0 h20 m-198 0 q10 0 10 10 m178 0 q0 -10 10 -10 m-188 10 v12 m178 0 v-12 m-178 12 q0 10 10 10 m158 0 q10 0 10 -10 m-168 10 h10 m70 0 h10 m0 0 h10 m48 0 h10 m23 -32 h-3"/>
   <polygon points="851 17 859 13 859 21"/>
   <polygon points="851 17 843 13 843 21"/>
</svg>
