<?xml version="1.0" encoding="UTF-8"?>
<svg xmlns="http://www.w3.org/2000/svg" width="755" height="113">
   <defs>
      <style type="text/css">
    @namespace "http://www.w3.org/2000/svg";
    .line                 {fill: none; stroke: #332900; stroke-width: 1;}
    .bold-line            {stroke: #141000; shape-rendering: crispEdges; stroke-width: 2;}
    .thin-line            {stroke: #1F1800; shape-rendering: crispEdges}
    .filled               {fill: #332900; stroke: none;}
    text.terminal         {font-family: Verdana, Sans-serif;
                            font-size: 12px;
                            fill: #141000;
                            font-weight: bold;
                          }
    text.nonterminal      {font-family: Verdana, Sans-serif;
                            font-size: 12px;
                            fill: #1A1400;
                            font-weight: normal;
                          }
    text.regexp           {font-family: Verdana, Sans-serif;
                            font-size: 12px;
                            fill: #1F1800;
                            font-weight: normal;
                          }
    rect, circle, polygon {fill: #332900; stroke: #332900;}
    rect.terminal         {fill: #FFDB4D; stroke: #332900; stroke-width: 1;}
    rect.nonterminal      {fill: #FFEC9E; stroke: #332900; stroke-width: 1;}
    rect.text             {fill: none; stroke: none;}
    polygon.regexp        {fill: #FFF4C7; stroke: #332900; stroke-width: 1;}
  </style>
   </defs>
   <polygon points="9 17 1 13 1 21"/>
   <polygon points="17 17 9 13 9 21"/>
   <rect x="31" y="3" width="64" height="32" rx="10"/>
   <rect x="29"
         y="1"
         width="64"
         height="32"
         class="terminal"
         rx="10"/>
   <text class="terminal" x="39" y="21">SHOW</text>
   <rect x="115" y="3" width="62" height="32" rx="10"/>
   <rect x="113"
         y="1"
         width="62"
         height="32"
         class="terminal"
         rx="10"/>
   <text class="terminal" x="123" y="21">TABLE</text>
   <rect x="197" y="3" width="72" height="32" rx="10"/>
   <rect x="195"
         y="1"
         width="72"
         height="32"
         class="terminal"
         rx="10"/>
   <text class="terminal" x="205" y="21">STATUS</text>
   <rect x="329" y="35" width="60" height="32" rx="10"/>
   <rect x="327"
         y="33"
         width="60"
         height="32"
         class="terminal"
         rx="10"/>
   <text class="terminal" x="337" y="53">FROM</text>
   <rect x="329" y="79" width="36" height="32" rx="10"/>
   <rect x="327"
         y="77"
         width="36"
         height="32"
         class="terminal"
         rx="10"/>
   <text class="terminal" x="337" y="97">IN</text>
   <a xmlns:xlink="http://www.w3.org/1999/xlink"
      xlink:href="#db_name"
      xlink:title="db_name">
      <rect x="429" y="35" width="80" height="32"/>
      <rect x="427" y="33" width="80" height="32" class="nonterminal"/>
      <text class="nonterminal" x="437" y="53">db_name</text>
   </a>
   <rect x="569" y="35" width="52" height="32" rx="10"/>
   <rect x="567"
         y="33"
         width="52"
         height="32"
         class="terminal"
         rx="10"/>
   <text class="terminal" x="577" y="53">LIKE</text>
   <a xmlns:xlink="http://www.w3.org/1999/xlink"
      xlink:href="#pattern"
      xlink:title="pattern">
      <rect x="641" y="35" width="66" height="32"/>
      <rect x="639" y="33" width="66" height="32" class="nonterminal"/>
      <text class="nonterminal" x="649" y="53">pattern</text>
   </a>
   <rect x="569" y="79" width="70" height="32" rx="10"/>
   <rect x="567"
         y="77"
         width="70"
         height="32"
         class="terminal"
         rx="10"/>
   <text class="terminal" x="577" y="97">WHERE</text>
   <a xmlns:xlink="http://www.w3.org/1999/xlink"
      xlink:href="#expr"
      xlink:title="expr">
      <rect x="659" y="79" width="48" height="32"/>
      <rect x="657" y="77" width="48" height="32" class="nonterminal"/>
      <text class="nonterminal" x="667" y="97">expr</text>
   </a>
   <path class="line"
         d="m17 17 h2 m0 0 h10 m64 0 h10 m0 0 h10 m62 0 h10 m0 0 h10 m72 0 h10 m20 0 h10 m0 0 h210 m-240 0 h20 m220 0 h20 m-260 0 q10 0 10 10 m240 0 q0 -10 10 -10 m-250 10 v12 m240 0 v-12 m-240 12 q0 10 10 10 m220 0 q10 0 10 -10 m-210 10 h10 m60 0 h10 m-100 0 h20 m80 0 h20 m-120 0 q10 0 10 10 m100 0 q0 -10 10 -10 m-110 10 v24 m100 0 v-24 m-100 24 q0 10 10 10 m80 0 q10 0 10 -10 m-90 10 h10 m36 0 h10 m0 0 h24 m20 -44 h10 m80 0 h10 m40 -32 h10 m0 0 h148 m-178 0 h20 m158 0 h20 m-198 0 q10 0 10 10 m178 0 q0 -10 10 -10 m-188 10 v12 m178 0 v-12 m-178 12 q0 10 10 10 m158 0 q10 0 10 -10 m-168 10 h10 m52 0 h10 m0 0 h10 m66 0 h10 m-168 -10 v20 m178 0 v-20 m-178 20 v24 m178 0 v-24 m-178 24 q0 10 10 10 m158 0 q10 0 10 -10 m-168 10 h10 m70 0 h10 m0 0 h10 m48 0 h10 m23 -76 h-3"/>
   <polygon points="745 17 753 13 753 21"/>
   <polygon points="745 17 737 13 737 21"/>
</svg>
