<?xml version="1.0" encoding="UTF-8"?>
<svg xmlns="http://www.w3.org/2000/svg" width="581" height="113">
   <defs>
      <style type="text/css">
    @namespace "http://www.w3.org/2000/svg";
    .line                 {fill: none; stroke: #332900; stroke-width: 1;}
    .bold-line            {stroke: #141000; shape-rendering: crispEdges; stroke-width: 2;}
    .thin-line            {stroke: #1F1800; shape-rendering: crispEdges}
    .filled               {fill: #332900; stroke: none;}
    text.terminal         {font-family: Verdana, Sans-serif;
                            font-size: 12px;
                            fill: #141000;
                            font-weight: bold;
                          }
    text.nonterminal      {font-family: Verdana, Sans-serif;
                            font-size: 12px;
                            fill: #1A1400;
                            font-weight: normal;
                          }
    text.regexp           {font-family: Verdana, Sans-serif;
                            font-size: 12px;
                            fill: #1F1800;
                            font-weight: normal;
                          }
    rect, circle, polygon {fill: #332900; stroke: #332900;}
    rect.terminal         {fill: #FFDB4D; stroke: #332900; stroke-width: 1;}
    rect.nonterminal      {fill: #FFEC9E; stroke: #332900; stroke-width: 1;}
    rect.text             {fill: none; stroke: none;}
    polygon.regexp        {fill: #FFF4C7; stroke: #332900; stroke-width: 1;}
  </style>
   </defs>
   <polygon points="9 17 1 13 1 21"/>
   <polygon points="17 17 9 13 9 21"/>
   <rect x="31" y="3" width="64" height="32" rx="10"/>
   <rect x="29"
         y="1"
         width="64"
         height="32"
         class="terminal"
         rx="10"/>
   <text class="terminal" x="39" y="21">SHOW</text>
   <rect x="135" y="35" width="74" height="32" rx="10"/>
   <rect x="133"
         y="33"
         width="74"
         height="32"
         class="terminal"
         rx="10"/>
   <text class="terminal" x="143" y="53">GLOBAL</text>
   <rect x="135" y="79" width="82" height="32" rx="10"/>
   <rect x="133"
         y="77"
         width="82"
         height="32"
         class="terminal"
         rx="10"/>
   <text class="terminal" x="143" y="97">SESSION</text>
   <rect x="257" y="3" width="98" height="32" rx="10"/>
   <rect x="255"
         y="1"
         width="98"
         height="32"
         class="terminal"
         rx="10"/>
   <text class="terminal" x="265" y="21">VARIABLES</text>
   <rect x="395" y="35" width="52" height="32" rx="10"/>
   <rect x="393"
         y="33"
         width="52"
         height="32"
         class="terminal"
         rx="10"/>
   <text class="terminal" x="403" y="53">LIKE</text>
   <a xmlns:xlink="http://www.w3.org/1999/xlink"
      xlink:href="#pattern"
      xlink:title="pattern">
      <rect x="467" y="35" width="66" height="32"/>
      <rect x="465" y="33" width="66" height="32" class="nonterminal"/>
      <text class="nonterminal" x="475" y="53">pattern</text>
   </a>
   <rect x="395" y="79" width="70" height="32" rx="10"/>
   <rect x="393"
         y="77"
         width="70"
         height="32"
         class="terminal"
         rx="10"/>
   <text class="terminal" x="403" y="97">WHERE</text>
   <a xmlns:xlink="http://www.w3.org/1999/xlink"
      xlink:href="#expr"
      xlink:title="expr">
      <rect x="485" y="79" width="48" height="32"/>
      <rect x="483" y="77" width="48" height="32" class="nonterminal"/>
      <text class="nonterminal" x="493" y="97">expr</text>
   </a>
   <path class="line"
         d="m17 17 h2 m0 0 h10 m64 0 h10 m20 0 h10 m0 0 h92 m-122 0 h20 m102 0 h20 m-142 0 q10 0 10 10 m122 0 q0 -10 10 -10 m-132 10 v12 m122 0 v-12 m-122 12 q0 10 10 10 m102 0 q10 0 10 -10 m-112 10 h10 m74 0 h10 m0 0 h8 m-112 -10 v20 m122 0 v-20 m-122 20 v24 m122 0 v-24 m-122 24 q0 10 10 10 m102 0 q10 0 10 -10 m-112 10 h10 m82 0 h10 m20 -76 h10 m98 0 h10 m20 0 h10 m0 0 h148 m-178 0 h20 m158 0 h20 m-198 0 q10 0 10 10 m178 0 q0 -10 10 -10 m-188 10 v12 m178 0 v-12 m-178 12 q0 10 10 10 m158 0 q10 0 10 -10 m-168 10 h10 m52 0 h10 m0 0 h10 m66 0 h10 m-168 -10 v20 m178 0 v-20 m-178 20 v24 m178 0 v-24 m-178 24 q0 10 10 10 m158 0 q10 0 10 -10 m-168 10 h10 m70 0 h10 m0 0 h10 m48 0 h10 m23 -76 h-3"/>
   <polygon points="571 17 579 13 579 21"/>
   <polygon points="571 17 563 13 563 21"/>
</svg>
