<?xml version="1.0" encoding="UTF-8"?>
<svg xmlns="http://www.w3.org/2000/svg" width="557" height="179">
   <defs>
      <style type="text/css">
    @namespace "http://www.w3.org/2000/svg";
    .line                 {fill: none; stroke: #332900; stroke-width: 1;}
    .bold-line            {stroke: #141000; shape-rendering: crispEdges; stroke-width: 2;}
    .thin-line            {stroke: #1F1800; shape-rendering: crispEdges}
    .filled               {fill: #332900; stroke: none;}
    text.terminal         {font-family: Verdana, Sans-serif;
                            font-size: 12px;
                            fill: #141000;
                            font-weight: bold;
                          }
    text.nonterminal      {font-family: Verdana, Sans-serif;
                            font-size: 12px;
                            fill: #1A1400;
                            font-weight: normal;
                          }
    text.regexp           {font-family: Verdana, Sans-serif;
                            font-size: 12px;
                            fill: #1F1800;
                            font-weight: normal;
                          }
    rect, circle, polygon {fill: #332900; stroke: #332900;}
    rect.terminal         {fill: #FFDB4D; stroke: #332900; stroke-width: 1;}
    rect.nonterminal      {fill: #FFEC9E; stroke: #332900; stroke-width: 1;}
    rect.text             {fill: none; stroke: none;}
    polygon.regexp        {fill: #FFF4C7; stroke: #332900; stroke-width: 1;}
  </style>
   </defs>
   <polygon points="9 61 1 57 1 65"/>
   <polygon points="17 61 9 57 9 65"/>
   <rect x="51" y="47" width="64" height="32" rx="10"/>
   <rect x="49"
         y="45"
         width="64"
         height="32"
         class="terminal"
         rx="10"/>
   <text class="terminal" x="59" y="65">START</text>
   <rect x="135" y="47" width="120" height="32" rx="10"/>
   <rect x="133"
         y="45"
         width="120"
         height="32"
         class="terminal"
         rx="10"/>
   <text class="terminal" x="143" y="65">TRANSACTION</text>
   <a xmlns:xlink="http://www.w3.org/1999/xlink"
      xlink:href="#transaction_property"
      xlink:title="transaction_property">
      <rect x="315" y="47" width="154" height="32"/>
      <rect x="313" y="45" width="154" height="32" class="nonterminal"/>
      <text class="nonterminal" x="323" y="65">transaction_property</text>
   </a>
   <rect x="315" y="3" width="24" height="32" rx="10"/>
   <rect x="313"
         y="1"
         width="24"
         height="32"
         class="terminal"
         rx="10"/>
   <text class="terminal" x="323" y="21">,</text>
   <rect x="51" y="113" width="64" height="32" rx="10"/>
   <rect x="49"
         y="111"
         width="64"
         height="32"
         class="terminal"
         rx="10"/>
   <text class="terminal" x="59" y="131">BEGIN</text>
   <rect x="155" y="145" width="64" height="32" rx="10"/>
   <rect x="153"
         y="143"
         width="64"
         height="32"
         class="terminal"
         rx="10"/>
   <text class="terminal" x="163" y="163">WORK</text>
   <path class="line"
         d="m17 61 h2 m20 0 h10 m64 0 h10 m0 0 h10 m120 0 h10 m40 0 h10 m154 0 h10 m-194 0 l20 0 m-1 0 q-9 0 -9 -10 l0 -24 q0 -10 10 -10 m174 44 l20 0 m-20 0 q10 0 10 -10 l0 -24 q0 -10 -10 -10 m-174 0 h10 m24 0 h10 m0 0 h130 m-214 44 h20 m214 0 h20 m-254 0 q10 0 10 10 m234 0 q0 -10 10 -10 m-244 10 v14 m234 0 v-14 m-234 14 q0 10 10 10 m214 0 q10 0 10 -10 m-224 10 h10 m0 0 h204 m-478 -34 h20 m478 0 h20 m-518 0 q10 0 10 10 m498 0 q0 -10 10 -10 m-508 10 v46 m498 0 v-46 m-498 46 q0 10 10 10 m478 0 q10 0 10 -10 m-488 10 h10 m64 0 h10 m20 0 h10 m0 0 h74 m-104 0 h20 m84 0 h20 m-124 0 q10 0 10 10 m104 0 q0 -10 10 -10 m-114 10 v12 m104 0 v-12 m-104 12 q0 10 10 10 m84 0 q10 0 10 -10 m-94 10 h10 m64 0 h10 m20 -32 h270 m23 -66 h-3"/>
   <polygon points="547 61 555 57 555 65"/>
   <polygon points="547 61 539 57 539 65"/>
</svg>
