<?xml version="1.0" encoding="UTF-8"?>
<svg xmlns="http://www.w3.org/2000/svg" width="797" height="125">
   <defs>
      <style type="text/css">
    @namespace "http://www.w3.org/2000/svg";
    .line                 {fill: none; stroke: #332900; stroke-width: 1;}
    .bold-line            {stroke: #141000; shape-rendering: crispEdges; stroke-width: 2;}
    .thin-line            {stroke: #1F1800; shape-rendering: crispEdges}
    .filled               {fill: #332900; stroke: none;}
    text.terminal         {font-family: Verdana, Sans-serif;
                            font-size: 12px;
                            fill: #141000;
                            font-weight: bold;
                          }
    text.nonterminal      {font-family: Verdana, Sans-serif;
                            font-size: 12px;
                            fill: #1A1400;
                            font-weight: normal;
                          }
    text.regexp           {font-family: Verdana, Sans-serif;
                            font-size: 12px;
                            fill: #1F1800;
                            font-weight: normal;
                          }
    rect, circle, polygon {fill: #332900; stroke: #332900;}
    rect.terminal         {fill: #FFDB4D; stroke: #332900; stroke-width: 1;}
    rect.nonterminal      {fill: #FFEC9E; stroke: #332900; stroke-width: 1;}
    rect.text             {fill: none; stroke: none;}
    polygon.regexp        {fill: #FFF4C7; stroke: #332900; stroke-width: 1;}
  </style>
   </defs>
   <polygon points="9 17 1 13 1 21"/>
   <polygon points="17 17 9 13 9 21"/>
   <rect x="71" y="3" width="152" height="32" rx="10"/>
   <rect x="69"
         y="1"
         width="152"
         height="32"
         class="terminal"
         rx="10"/>
   <text class="terminal" x="79" y="21">MASTER_LOG_FILE</text>
   <rect x="243" y="3" width="30" height="32" rx="10"/>
   <rect x="241"
         y="1"
         width="30"
         height="32"
         class="terminal"
         rx="10"/>
   <text class="terminal" x="251" y="21">=</text>
   <a xmlns:xlink="http://www.w3.org/1999/xlink"
      xlink:href="#log_name"
      xlink:title="log_name">
      <rect x="293" y="3" width="82" height="32"/>
      <rect x="291" y="1" width="82" height="32" class="nonterminal"/>
      <text class="nonterminal" x="301" y="21">log_name</text>
   </a>
   <rect x="395" y="3" width="24" height="32" rx="10"/>
   <rect x="393"
         y="1"
         width="24"
         height="32"
         class="terminal"
         rx="10"/>
   <text class="terminal" x="403" y="21">,</text>
   <rect x="439" y="3" width="150" height="32" rx="10"/>
   <rect x="437"
         y="1"
         width="150"
         height="32"
         class="terminal"
         rx="10"/>
   <text class="terminal" x="447" y="21">MASTER_LOG_POS</text>
   <rect x="71" y="47" width="140" height="32" rx="10"/>
   <rect x="69"
         y="45"
         width="140"
         height="32"
         class="terminal"
         rx="10"/>
   <text class="terminal" x="79" y="65">RELAY_LOG_FILE</text>
   <rect x="231" y="47" width="30" height="32" rx="10"/>
   <rect x="229"
         y="45"
         width="30"
         height="32"
         class="terminal"
         rx="10"/>
   <text class="terminal" x="239" y="65">=</text>
   <a xmlns:xlink="http://www.w3.org/1999/xlink"
      xlink:href="#log_name"
      xlink:title="log_name">
      <rect x="281" y="47" width="82" height="32"/>
      <rect x="279" y="45" width="82" height="32" class="nonterminal"/>
      <text class="nonterminal" x="289" y="65">log_name</text>
   </a>
   <rect x="383" y="47" width="24" height="32" rx="10"/>
   <rect x="381"
         y="45"
         width="24"
         height="32"
         class="terminal"
         rx="10"/>
   <text class="terminal" x="391" y="65">,</text>
   <rect x="427" y="47" width="138" height="32" rx="10"/>
   <rect x="425"
         y="45"
         width="138"
         height="32"
         class="terminal"
         rx="10"/>
   <text class="terminal" x="435" y="65">RELAY_LOG_POS</text>
   <rect x="629" y="3" width="30" height="32" rx="10"/>
   <rect x="627"
         y="1"
         width="30"
         height="32"
         class="terminal"
         rx="10"/>
   <text class="terminal" x="637" y="21">=</text>
   <a xmlns:xlink="http://www.w3.org/1999/xlink"
      xlink:href="#log_pos"
      xlink:title="log_pos">
      <rect x="679" y="3" width="70" height="32"/>
      <rect x="677" y="1" width="70" height="32" class="nonterminal"/>
      <text class="nonterminal" x="687" y="21">log_pos</text>
   </a>
   <rect x="51" y="91" width="156" height="32" rx="10"/>
   <rect x="49"
         y="89"
         width="156"
         height="32"
         class="terminal"
         rx="10"/>
   <text class="terminal" x="59" y="109">MASTER_GTID_POS</text>
   <rect x="227" y="91" width="30" height="32" rx="10"/>
   <rect x="225"
         y="89"
         width="30"
         height="32"
         class="terminal"
         rx="10"/>
   <text class="terminal" x="235" y="109">=</text>
   <a xmlns:xlink="http://www.w3.org/1999/xlink"
      xlink:href="#gtid_position"
      xlink:title="gtid_position">
      <rect x="277" y="91" width="102" height="32"/>
      <rect x="275" y="89" width="102" height="32" class="nonterminal"/>
      <text class="nonterminal" x="285" y="109">gtid_position</text>
   </a>
   <path class="line"
         d="m17 17 h2 m40 0 h10 m152 0 h10 m0 0 h10 m30 0 h10 m0 0 h10 m82 0 h10 m0 0 h10 m24 0 h10 m0 0 h10 m150 0 h10 m-558 0 h20 m538 0 h20 m-578 0 q10 0 10 10 m558 0 q0 -10 10 -10 m-568 10 v24 m558 0 v-24 m-558 24 q0 10 10 10 m538 0 q10 0 10 -10 m-548 10 h10 m140 0 h10 m0 0 h10 m30 0 h10 m0 0 h10 m82 0 h10 m0 0 h10 m24 0 h10 m0 0 h10 m138 0 h10 m0 0 h24 m20 -44 h10 m30 0 h10 m0 0 h10 m70 0 h10 m-738 0 h20 m718 0 h20 m-758 0 q10 0 10 10 m738 0 q0 -10 10 -10 m-748 10 v68 m738 0 v-68 m-738 68 q0 10 10 10 m718 0 q10 0 10 -10 m-728 10 h10 m156 0 h10 m0 0 h10 m30 0 h10 m0 0 h10 m102 0 h10 m0 0 h370 m23 -88 h-3"/>
   <polygon points="787 17 795 13 795 21"/>
   <polygon points="787 17 779 13 779 21"/>
</svg>
