<?xml version="1.0" encoding="UTF-8"?>
<svg xmlns="http://www.w3.org/2000/svg" width="401" height="125">
   <defs>
      <style type="text/css">
    @namespace "http://www.w3.org/2000/svg";
    .line                 {fill: none; stroke: #332900; stroke-width: 1;}
    .bold-line            {stroke: #141000; shape-rendering: crispEdges; stroke-width: 2;}
    .thin-line            {stroke: #1F1800; shape-rendering: crispEdges}
    .filled               {fill: #332900; stroke: none;}
    text.terminal         {font-family: Verdana, Sans-serif;
                            font-size: 12px;
                            fill: #141000;
                            font-weight: bold;
                          }
    text.nonterminal      {font-family: Verdana, Sans-serif;
                            font-size: 12px;
                            fill: #1A1400;
                            font-weight: normal;
                          }
    text.regexp           {font-family: Verdana, Sans-serif;
                            font-size: 12px;
                            fill: #1F1800;
                            font-weight: normal;
                          }
    rect, circle, polygon {fill: #332900; stroke: #332900;}
    rect.terminal         {fill: #FFDB4D; stroke: #332900; stroke-width: 1;}
    rect.nonterminal      {fill: #FFEC9E; stroke: #332900; stroke-width: 1;}
    rect.text             {fill: none; stroke: none;}
    polygon.regexp        {fill: #FFF4C7; stroke: #332900; stroke-width: 1;}
  </style>
   </defs>
   <polygon points="9 17 1 13 1 21"/>
   <polygon points="17 17 9 13 9 21"/>
   <rect x="51" y="3" width="58" height="32" rx="10"/>
   <rect x="49"
         y="1"
         width="58"
         height="32"
         class="terminal"
         rx="10"/>
   <text class="terminal" x="59" y="21">WITH</text>
   <rect x="129" y="3" width="108" height="32" rx="10"/>
   <rect x="127"
         y="1"
         width="108"
         height="32"
         class="terminal"
         rx="10"/>
   <text class="terminal" x="137" y="21">CONSISTENT</text>
   <rect x="257" y="3" width="96" height="32" rx="10"/>
   <rect x="255"
         y="1"
         width="96"
         height="32"
         class="terminal"
         rx="10"/>
   <text class="terminal" x="265" y="21">SNAPSHOT</text>
   <rect x="51" y="47" width="56" height="32" rx="10"/>
   <rect x="49"
         y="45"
         width="56"
         height="32"
         class="terminal"
         rx="10"/>
   <text class="terminal" x="59" y="65">READ</text>
   <rect x="147" y="47" width="66" height="32" rx="10"/>
   <rect x="145"
         y="45"
         width="66"
         height="32"
         class="terminal"
         rx="10"/>
   <text class="terminal" x="155" y="65">WRITE</text>
   <rect x="147" y="91" width="58" height="32" rx="10"/>
   <rect x="145"
         y="89"
         width="58"
         height="32"
         class="terminal"
         rx="10"/>
   <text class="terminal" x="155" y="109">ONLY</text>
   <path class="line"
         d="m17 17 h2 m20 0 h10 m58 0 h10 m0 0 h10 m108 0 h10 m0 0 h10 m96 0 h10 m-342 0 h20 m322 0 h20 m-362 0 q10 0 10 10 m342 0 q0 -10 10 -10 m-352 10 v24 m342 0 v-24 m-342 24 q0 10 10 10 m322 0 q10 0 10 -10 m-332 10 h10 m56 0 h10 m20 0 h10 m66 0 h10 m-106 0 h20 m86 0 h20 m-126 0 q10 0 10 10 m106 0 q0 -10 10 -10 m-116 10 v24 m106 0 v-24 m-106 24 q0 10 10 10 m86 0 q10 0 10 -10 m-96 10 h10 m58 0 h10 m0 0 h8 m20 -44 h120 m23 -44 h-3"/>
   <polygon points="391 17 399 13 399 21"/>
   <polygon points="391 17 383 13 383 21"/>
</svg>
