<?xml version="1.0" encoding="UTF-8"?>
<svg xmlns="http://www.w3.org/2000/svg" width="903" height="311">
   <defs>
      <style type="text/css">
    @namespace "http://www.w3.org/2000/svg";
    .line                 {fill: none; stroke: #332900; stroke-width: 1;}
    .bold-line            {stroke: #141000; shape-rendering: crispEdges; stroke-width: 2;}
    .thin-line            {stroke: #1F1800; shape-rendering: crispEdges}
    .filled               {fill: #332900; stroke: none;}
    text.terminal         {font-family: Verdana, Sans-serif;
                            font-size: 12px;
                            fill: #141000;
                            font-weight: bold;
                          }
    text.nonterminal      {font-family: Verdana, Sans-serif;
                            font-size: 12px;
                            fill: #1A1400;
                            font-weight: normal;
                          }
    text.regexp           {font-family: Verdana, Sans-serif;
                            font-size: 12px;
                            fill: #1F1800;
                            font-weight: normal;
                          }
    rect, circle, polygon {fill: #332900; stroke: #332900;}
    rect.terminal         {fill: #FFDB4D; stroke: #332900; stroke-width: 1;}
    rect.nonterminal      {fill: #FFEC9E; stroke: #332900; stroke-width: 1;}
    rect.text             {fill: none; stroke: none;}
    polygon.regexp        {fill: #FFF4C7; stroke: #332900; stroke-width: 1;}
  </style>
   </defs>
   <polygon points="9 61 1 57 1 65"/>
   <polygon points="17 61 9 57 9 65"/>
   <rect x="31" y="47" width="64" height="32" rx="10"/>
   <rect x="29"
         y="45"
         width="64"
         height="32"
         class="terminal"
         rx="10"/>
   <text class="terminal" x="39" y="65">START</text>
   <rect x="155" y="47" width="64" height="32" rx="10"/>
   <rect x="153"
         y="45"
         width="64"
         height="32"
         class="terminal"
         rx="10"/>
   <text class="terminal" x="163" y="65">SLAVE</text>
   <rect x="155" y="91" width="78" height="32" rx="10"/>
   <rect x="153"
         y="89"
         width="78"
         height="32"
         class="terminal"
         rx="10"/>
   <text class="terminal" x="163" y="109">REPLICA</text>
   <a xmlns:xlink="http://www.w3.org/1999/xlink"
      xlink:href="#connection_name"
      xlink:title="connection_name">
      <rect x="293" y="79" width="132" height="32"/>
      <rect x="291" y="77" width="132" height="32" class="nonterminal"/>
      <text class="nonterminal" x="301" y="97">connection_name</text>
   </a>
   <a xmlns:xlink="http://www.w3.org/1999/xlink"
      xlink:href="#thread_type"
      xlink:title="thread_type">
      <rect x="505" y="47" width="98" height="32"/>
      <rect x="503" y="45" width="98" height="32" class="nonterminal"/>
      <text class="nonterminal" x="513" y="65">thread_type</text>
   </a>
   <rect x="505" y="3" width="24" height="32" rx="10"/>
   <rect x="503"
         y="1"
         width="24"
         height="32"
         class="terminal"
         rx="10"/>
   <text class="terminal" x="513" y="21">,</text>
   <rect x="505" y="123" width="112" height="32" rx="10"/>
   <rect x="503"
         y="121"
         width="112"
         height="32"
         class="terminal"
         rx="10"/>
   <text class="terminal" x="513" y="141">SQL_THREAD</text>
   <rect x="657" y="91" width="62" height="32" rx="10"/>
   <rect x="655"
         y="89"
         width="62"
         height="32"
         class="terminal"
         rx="10"/>
   <text class="terminal" x="665" y="109">UNTIL</text>
   <a xmlns:xlink="http://www.w3.org/1999/xlink"
      xlink:href="#until_clause"
      xlink:title="until_clause">
      <rect x="739" y="91" width="96" height="32"/>
      <rect x="737" y="89" width="96" height="32" class="nonterminal"/>
      <text class="nonterminal" x="747" y="109">until_clause</text>
   </a>
   <rect x="135" y="233" width="44" height="32" rx="10"/>
   <rect x="133"
         y="231"
         width="44"
         height="32"
         class="terminal"
         rx="10"/>
   <text class="terminal" x="143" y="251">ALL</text>
   <rect x="219" y="233" width="72" height="32" rx="10"/>
   <rect x="217"
         y="231"
         width="72"
         height="32"
         class="terminal"
         rx="10"/>
   <text class="terminal" x="227" y="251">SLAVES</text>
   <rect x="219" y="277" width="88" height="32" rx="10"/>
   <rect x="217"
         y="275"
         width="88"
         height="32"
         class="terminal"
         rx="10"/>
   <text class="terminal" x="227" y="295">REPLICAS</text>
   <a xmlns:xlink="http://www.w3.org/1999/xlink"
      xlink:href="#thread_type"
      xlink:title="thread_type">
      <rect x="387" y="233" width="98" height="32"/>
      <rect x="385" y="231" width="98" height="32" class="nonterminal"/>
      <text class="nonterminal" x="395" y="251">thread_type</text>
   </a>
   <rect x="387" y="189" width="24" height="32" rx="10"/>
   <rect x="385"
         y="187"
         width="24"
         height="32"
         class="terminal"
         rx="10"/>
   <text class="terminal" x="395" y="207">,</text>
   <path class="line"
         d="m17 61 h2 m0 0 h10 m64 0 h10 m40 0 h10 m64 0 h10 m0 0 h14 m-118 0 h20 m98 0 h20 m-138 0 q10 0 10 10 m118 0 q0 -10 10 -10 m-128 10 v24 m118 0 v-24 m-118 24 q0 10 10 10 m98 0 q10 0 10 -10 m-108 10 h10 m78 0 h10 m40 -44 h10 m0 0 h142 m-172 0 h20 m152 0 h20 m-192 0 q10 0 10 10 m172 0 q0 -10 10 -10 m-182 10 v12 m172 0 v-12 m-172 12 q0 10 10 10 m152 0 q10 0 10 -10 m-162 10 h10 m132 0 h10 m60 -32 h10 m98 0 h10 m-138 0 l20 0 m-1 0 q-9 0 -9 -10 l0 -24 q0 -10 10 -10 m118 44 l20 0 m-20 0 q10 0 10 -10 l0 -24 q0 -10 -10 -10 m-118 0 h10 m24 0 h10 m0 0 h74 m20 44 h212 m-390 0 h20 m370 0 h20 m-410 0 q10 0 10 10 m390 0 q0 -10 10 -10 m-400 10 v24 m390 0 v-24 m-390 24 q0 10 10 10 m370 0 q10 0 10 -10 m-360 10 h10 m0 0 h122 m-152 0 h20 m132 0 h20 m-172 0 q10 0 10 10 m152 0 q0 -10 10 -10 m-162 10 v12 m152 0 v-12 m-152 12 q0 10 10 10 m132 0 q10 0 10 -10 m-142 10 h10 m112 0 h10 m20 -32 h10 m62 0 h10 m0 0 h10 m96 0 h10 m-380 -10 v20 m390 0 v-20 m-390 20 v46 m390 0 v-46 m-390 46 q0 10 10 10 m370 0 q10 0 10 -10 m-380 10 h10 m0 0 h360 m-740 -110 h20 m740 0 h20 m-780 0 q10 0 10 10 m760 0 q0 -10 10 -10 m-770 10 v166 m760 0 v-166 m-760 166 q0 10 10 10 m740 0 q10 0 10 -10 m-750 10 h10 m44 0 h10 m20 0 h10 m72 0 h10 m0 0 h16 m-128 0 h20 m108 0 h20 m-148 0 q10 0 10 10 m128 0 q0 -10 10 -10 m-138 10 v24 m128 0 v-24 m-128 24 q0 10 10 10 m108 0 q10 0 10 -10 m-118 10 h10 m88 0 h10 m60 -44 h10 m98 0 h10 m-138 0 l20 0 m-1 0 q-9 0 -9 -10 l0 -24 q0 -10 10 -10 m118 44 l20 0 m-20 0 q10 0 10 -10 l0 -24 q0 -10 -10 -10 m-118 0 h10 m24 0 h10 m0 0 h74 m-158 44 h20 m158 0 h20 m-198 0 q10 0 10 10 m178 0 q0 -10 10 -10 m-188 10 v14 m178 0 v-14 m-178 14 q0 10 10 10 m158 0 q10 0 10 -10 m-168 10 h10 m0 0 h148 m20 -34 h330 m23 -186 h-3"/>
   <polygon points="893 61 901 57 901 65"/>
   <polygon points="893 61 885 57 885 65"/>
</svg>
