<?xml version="1.0" encoding="UTF-8"?>
<svg xmlns="http://www.w3.org/2000/svg" width="981" height="419">
   <defs>
      <style type="text/css">
    @namespace "http://www.w3.org/2000/svg";
    .line                 {fill: none; stroke: #332900; stroke-width: 1;}
    .bold-line            {stroke: #141000; shape-rendering: crispEdges; stroke-width: 2;}
    .thin-line            {stroke: #1F1800; shape-rendering: crispEdges}
    .filled               {fill: #332900; stroke: none;}
    text.terminal         {font-family: Verdana, Sans-serif;
                            font-size: 12px;
                            fill: #141000;
                            font-weight: bold;
                          }
    text.nonterminal      {font-family: Verdana, Sans-serif;
                            font-size: 12px;
                            fill: #1A1400;
                            font-weight: normal;
                          }
    text.regexp           {font-family: Verdana, Sans-serif;
                            font-size: 12px;
                            fill: #1F1800;
                            font-weight: normal;
                          }
    rect, circle, polygon {fill: #332900; stroke: #332900;}
    rect.terminal         {fill: #FFDB4D; stroke: #332900; stroke-width: 1;}
    rect.nonterminal      {fill: #FFEC9E; stroke: #332900; stroke-width: 1;}
    rect.text             {fill: none; stroke: none;}
    polygon.regexp        {fill: #FFF4C7; stroke: #332900; stroke-width: 1;}
  </style>
   </defs>
   <polygon points="9 17 1 13 1 21"/>
   <polygon points="17 17 9 13 9 21"/>
   <rect x="31" y="3" width="74" height="32" rx="10"/>
   <rect x="29"
         y="1"
         width="74"
         height="32"
         class="terminal"
         rx="10"/>
   <text class="terminal" x="39" y="21">UPDATE</text>
   <rect x="145" y="35" width="130" height="32" rx="10"/>
   <rect x="143"
         y="33"
         width="130"
         height="32"
         class="terminal"
         rx="10"/>
   <text class="terminal" x="153" y="53">LOW_PRIORITY</text>
   <rect x="335" y="35" width="74" height="32" rx="10"/>
   <rect x="333"
         y="33"
         width="74"
         height="32"
         class="terminal"
         rx="10"/>
   <text class="terminal" x="343" y="53">IGNORE</text>
   <a xmlns:xlink="http://www.w3.org/1999/xlink"
      xlink:href="#table_reference"
      xlink:title="table_reference">
      <rect x="449" y="3" width="120" height="32"/>
      <rect x="447" y="1" width="120" height="32" class="nonterminal"/>
      <text class="nonterminal" x="457" y="21">table_reference</text>
   </a>
   <rect x="609" y="35" width="98" height="32" rx="10"/>
   <rect x="607"
         y="33"
         width="98"
         height="32"
         class="terminal"
         rx="10"/>
   <text class="terminal" x="617" y="53">PARTITION</text>
   <rect x="727" y="35" width="26" height="32" rx="10"/>
   <rect x="725"
         y="33"
         width="26"
         height="32"
         class="terminal"
         rx="10"/>
   <text class="terminal" x="735" y="53">(</text>
   <a xmlns:xlink="http://www.w3.org/1999/xlink"
      xlink:href="#partition_list"
      xlink:title="partition_list">
      <rect x="773" y="35" width="100" height="32"/>
      <rect x="771" y="33" width="100" height="32" class="nonterminal"/>
      <text class="nonterminal" x="781" y="53">partition_list</text>
   </a>
   <rect x="893" y="35" width="26" height="32" rx="10"/>
   <rect x="891"
         y="33"
         width="26"
         height="32"
         class="terminal"
         rx="10"/>
   <text class="terminal" x="901" y="53">)</text>
   <rect x="45" y="177" width="48" height="32" rx="10"/>
   <rect x="43"
         y="175"
         width="48"
         height="32"
         class="terminal"
         rx="10"/>
   <text class="terminal" x="53" y="195">FOR</text>
   <rect x="113" y="177" width="84" height="32" rx="10"/>
   <rect x="111"
         y="175"
         width="84"
         height="32"
         class="terminal"
         rx="10"/>
   <text class="terminal" x="121" y="195">PORTION</text>
   <rect x="217" y="177" width="38" height="32" rx="10"/>
   <rect x="215"
         y="175"
         width="38"
         height="32"
         class="terminal"
         rx="10"/>
   <text class="terminal" x="225" y="195">OF</text>
   <a xmlns:xlink="http://www.w3.org/1999/xlink"
      xlink:href="#period"
      xlink:title="period">
      <rect x="275" y="177" width="60" height="32"/>
      <rect x="273" y="175" width="60" height="32" class="nonterminal"/>
      <text class="nonterminal" x="283" y="195">period</text>
   </a>
   <rect x="355" y="177" width="60" height="32" rx="10"/>
   <rect x="353"
         y="175"
         width="60"
         height="32"
         class="terminal"
         rx="10"/>
   <text class="terminal" x="363" y="195">FROM</text>
   <a xmlns:xlink="http://www.w3.org/1999/xlink"
      xlink:href="#expr1"
      xlink:title="expr1">
      <rect x="435" y="177" width="56" height="32"/>
      <rect x="433" y="175" width="56" height="32" class="nonterminal"/>
      <text class="nonterminal" x="443" y="195">expr1</text>
   </a>
   <rect x="511" y="177" width="38" height="32" rx="10"/>
   <rect x="509"
         y="175"
         width="38"
         height="32"
         class="terminal"
         rx="10"/>
   <text class="terminal" x="519" y="195">TO</text>
   <a xmlns:xlink="http://www.w3.org/1999/xlink"
      xlink:href="#expr2"
      xlink:title="expr2">
      <rect x="569" y="177" width="56" height="32"/>
      <rect x="567" y="175" width="56" height="32" class="nonterminal"/>
      <text class="nonterminal" x="577" y="195">expr2</text>
   </a>
   <rect x="665" y="145" width="44" height="32" rx="10"/>
   <rect x="663"
         y="143"
         width="44"
         height="32"
         class="terminal"
         rx="10"/>
   <text class="terminal" x="673" y="163">SET</text>
   <a xmlns:xlink="http://www.w3.org/1999/xlink"
      xlink:href="#col"
      xlink:title="col">
      <rect x="749" y="145" width="38" height="32"/>
      <rect x="747" y="143" width="38" height="32" class="nonterminal"/>
      <text class="nonterminal" x="757" y="163">col</text>
   </a>
   <rect x="807" y="145" width="30" height="32" rx="10"/>
   <rect x="805"
         y="143"
         width="30"
         height="32"
         class="terminal"
         rx="10"/>
   <text class="terminal" x="815" y="163">=</text>
   <a xmlns:xlink="http://www.w3.org/1999/xlink"
      xlink:href="#set_value"
      xlink:title="set_value">
      <rect x="857" y="145" width="82" height="32"/>
      <rect x="855" y="143" width="82" height="32" class="nonterminal"/>
      <text class="nonterminal" x="865" y="163">set_value</text>
   </a>
   <rect x="749" y="101" width="24" height="32" rx="10"/>
   <rect x="747"
         y="99"
         width="24"
         height="32"
         class="terminal"
         rx="10"/>
   <text class="terminal" x="757" y="119">,</text>
   <rect x="87" y="259" width="70" height="32" rx="10"/>
   <rect x="85"
         y="257"
         width="70"
         height="32"
         class="terminal"
         rx="10"/>
   <text class="terminal" x="95" y="277">WHERE</text>
   <a xmlns:xlink="http://www.w3.org/1999/xlink"
      xlink:href="#where_condition"
      xlink:title="where_condition">
      <rect x="177" y="259" width="124" height="32"/>
      <rect x="175" y="257" width="124" height="32" class="nonterminal"/>
      <text class="nonterminal" x="185" y="277">where_condition</text>
   </a>
   <rect x="361" y="259" width="68" height="32" rx="10"/>
   <rect x="359"
         y="257"
         width="68"
         height="32"
         class="terminal"
         rx="10"/>
   <text class="terminal" x="369" y="277">ORDER</text>
   <rect x="449" y="259" width="38" height="32" rx="10"/>
   <rect x="447"
         y="257"
         width="38"
         height="32"
         class="terminal"
         rx="10"/>
   <text class="terminal" x="457" y="277">BY</text>
   <a xmlns:xlink="http://www.w3.org/1999/xlink"
      xlink:href="#order_by_specification"
      xlink:title="order_by_specification">
      <rect x="507" y="259" width="164" height="32"/>
      <rect x="505" y="257" width="164" height="32" class="nonterminal"/>
      <text class="nonterminal" x="515" y="277">order_by_specification</text>
   </a>
   <rect x="731" y="259" width="60" height="32" rx="10"/>
   <rect x="729"
         y="257"
         width="60"
         height="32"
         class="terminal"
         rx="10"/>
   <text class="terminal" x="739" y="277">LIMIT</text>
   <a xmlns:xlink="http://www.w3.org/1999/xlink"
      xlink:href="#row_count"
      xlink:title="row_count">
      <rect x="811" y="259" width="86" height="32"/>
      <rect x="809" y="257" width="86" height="32" class="nonterminal"/>
      <text class="nonterminal" x="819" y="277">row_count</text>
   </a>
   <rect x="679" y="369" width="100" height="32" rx="10"/>
   <rect x="677"
         y="367"
         width="100"
         height="32"
         class="terminal"
         rx="10"/>
   <text class="terminal" x="687" y="387">RETURNING</text>
   <a xmlns:xlink="http://www.w3.org/1999/xlink"
      xlink:href="#select_expr"
      xlink:title="select_expr">
      <rect x="819" y="369" width="94" height="32"/>
      <rect x="817" y="367" width="94" height="32" class="nonterminal"/>
      <text class="nonterminal" x="827" y="387">select_expr</text>
   </a>
   <rect x="819" y="325" width="24" height="32" rx="10"/>
   <rect x="817"
         y="323"
         width="24"
         height="32"
         class="terminal"
         rx="10"/>
   <text class="terminal" x="827" y="343">,</text>
   <path class="line"
         d="m17 17 h2 m0 0 h10 m74 0 h10 m20 0 h10 m0 0 h140 m-170 0 h20 m150 0 h20 m-190 0 q10 0 10 10 m170 0 q0 -10 10 -10 m-180 10 v12 m170 0 v-12 m-170 12 q0 10 10 10 m150 0 q10 0 10 -10 m-160 10 h10 m130 0 h10 m40 -32 h10 m0 0 h84 m-114 0 h20 m94 0 h20 m-134 0 q10 0 10 10 m114 0 q0 -10 10 -10 m-124 10 v12 m114 0 v-12 m-114 12 q0 10 10 10 m94 0 q10 0 10 -10 m-104 10 h10 m74 0 h10 m20 -32 h10 m120 0 h10 m20 0 h10 m0 0 h320 m-350 0 h20 m330 0 h20 m-370 0 q10 0 10 10 m350 0 q0 -10 10 -10 m-360 10 v12 m350 0 v-12 m-350 12 q0 10 10 10 m330 0 q10 0 10 -10 m-340 10 h10 m98 0 h10 m0 0 h10 m26 0 h10 m0 0 h10 m100 0 h10 m0 0 h10 m26 0 h10 m22 -32 l2 0 m2 0 l2 0 m2 0 l2 0 m-958 142 l2 0 m2 0 l2 0 m2 0 l2 0 m22 0 h10 m0 0 h590 m-620 0 h20 m600 0 h20 m-640 0 q10 0 10 10 m620 0 q0 -10 10 -10 m-630 10 v12 m620 0 v-12 m-620 12 q0 10 10 10 m600 0 q10 0 10 -10 m-610 10 h10 m48 0 h10 m0 0 h10 m84 0 h10 m0 0 h10 m38 0 h10 m0 0 h10 m60 0 h10 m0 0 h10 m60 0 h10 m0 0 h10 m56 0 h10 m0 0 h10 m38 0 h10 m0 0 h10 m56 0 h10 m20 -32 h10 m44 0 h10 m20 0 h10 m38 0 h10 m0 0 h10 m30 0 h10 m0 0 h10 m82 0 h10 m-230 0 l20 0 m-1 0 q-9 0 -9 -10 l0 -24 q0 -10 10 -10 m210 44 l20 0 m-20 0 q10 0 10 -10 l0 -24 q0 -10 -10 -10 m-210 0 h10 m24 0 h10 m0 0 h166 m22 44 l2 0 m2 0 l2 0 m2 0 l2 0 m-936 82 l2 0 m2 0 l2 0 m2 0 l2 0 m22 0 h10 m0 0 h224 m-254 0 h20 m234 0 h20 m-274 0 q10 0 10 10 m254 0 q0 -10 10 -10 m-264 10 v12 m254 0 v-12 m-254 12 q0 10 10 10 m234 0 q10 0 10 -10 m-244 10 h10 m70 0 h10 m0 0 h10 m124 0 h10 m40 -32 h10 m0 0 h320 m-350 0 h20 m330 0 h20 m-370 0 q10 0 10 10 m350 0 q0 -10 10 -10 m-360 10 v12 m350 0 v-12 m-350 12 q0 10 10 10 m330 0 q10 0 10 -10 m-340 10 h10 m68 0 h10 m0 0 h10 m38 0 h10 m0 0 h10 m164 0 h10 m40 -32 h10 m0 0 h176 m-206 0 h20 m186 0 h20 m-226 0 q10 0 10 10 m206 0 q0 -10 10 -10 m-216 10 v12 m206 0 v-12 m-206 12 q0 10 10 10 m186 0 q10 0 10 -10 m-196 10 h10 m60 0 h10 m0 0 h10 m86 0 h10 m22 -32 l2 0 m2 0 l2 0 m2 0 l2 0 m-302 142 l2 0 m2 0 l2 0 m2 0 l2 0 m22 0 h10 m100 0 h10 m20 0 h10 m94 0 h10 m-134 0 l20 0 m-1 0 q-9 0 -9 -10 l0 -24 q0 -10 10 -10 m114 44 l20 0 m-20 0 q10 0 10 -10 l0 -24 q0 -10 -10 -10 m-114 0 h10 m24 0 h10 m0 0 h70 m-274 44 h20 m274 0 h20 m-314 0 q10 0 10 10 m294 0 q0 -10 10 -10 m-304 10 v14 m294 0 v-14 m-294 14 q0 10 10 10 m274 0 q10 0 10 -10 m-284 10 h10 m0 0 h264 m23 -34 h-3"/>
   <polygon points="971 383 979 379 979 387"/>
   <polygon points="971 383 963 379 963 387"/>
</svg>
