<?xml version="1.0" encoding="UTF-8"?>
<svg xmlns="http://www.w3.org/2000/svg" width="577" height="101">
   <defs>
      <style type="text/css">
    @namespace "http://www.w3.org/2000/svg";
    .line                 {fill: none; stroke: #332900; stroke-width: 1;}
    .bold-line            {stroke: #141000; shape-rendering: crispEdges; stroke-width: 2;}
    .thin-line            {stroke: #1F1800; shape-rendering: crispEdges}
    .filled               {fill: #332900; stroke: none;}
    text.terminal         {font-family: Verdana, Sans-serif;
                            font-size: 12px;
                            fill: #141000;
                            font-weight: bold;
                          }
    text.nonterminal      {font-family: Verdana, Sans-serif;
                            font-size: 12px;
                            fill: #1A1400;
                            font-weight: normal;
                          }
    text.regexp           {font-family: Verdana, Sans-serif;
                            font-size: 12px;
                            fill: #1F1800;
                            font-weight: normal;
                          }
    rect, circle, polygon {fill: #332900; stroke: #332900;}
    rect.terminal         {fill: #FFDB4D; stroke: #332900; stroke-width: 1;}
    rect.nonterminal      {fill: #FFEC9E; stroke: #332900; stroke-width: 1;}
    rect.text             {fill: none; stroke: none;}
    polygon.regexp        {fill: #FFF4C7; stroke: #332900; stroke-width: 1;}
  </style>
   </defs>
   <polygon points="9 17 1 13 1 21"/>
   <polygon points="17 17 9 13 9 21"/>
   <rect x="31" y="3" width="38" height="32" rx="10"/>
   <rect x="29"
         y="1"
         width="38"
         height="32"
         class="terminal"
         rx="10"/>
   <text class="terminal" x="39" y="21">XA</text>
   <rect x="89" y="3" width="48" height="32" rx="10"/>
   <rect x="87"
         y="1"
         width="48"
         height="32"
         class="terminal"
         rx="10"/>
   <text class="terminal" x="97" y="21">END</text>
   <a xmlns:xlink="http://www.w3.org/1999/xlink"
      xlink:href="#xid"
      xlink:title="xid">
      <rect x="157" y="3" width="38" height="32"/>
      <rect x="155" y="1" width="38" height="32" class="nonterminal"/>
      <text class="nonterminal" x="165" y="21">xid</text>
   </a>
   <rect x="235" y="35" width="84" height="32" rx="10"/>
   <rect x="233"
         y="33"
         width="84"
         height="32"
         class="terminal"
         rx="10"/>
   <text class="terminal" x="243" y="53">SUSPEND</text>
   <rect x="359" y="67" width="48" height="32" rx="10"/>
   <rect x="357"
         y="65"
         width="48"
         height="32"
         class="terminal"
         rx="10"/>
   <text class="terminal" x="367" y="85">FOR</text>
   <rect x="427" y="67" width="82" height="32" rx="10"/>
   <rect x="425"
         y="65"
         width="82"
         height="32"
         class="terminal"
         rx="10"/>
   <text class="terminal" x="435" y="85">MIGRATE</text>
   <path class="line"
         d="m17 17 h2 m0 0 h10 m38 0 h10 m0 0 h10 m48 0 h10 m0 0 h10 m38 0 h10 m20 0 h10 m0 0 h304 m-334 0 h20 m314 0 h20 m-354 0 q10 0 10 10 m334 0 q0 -10 10 -10 m-344 10 v12 m334 0 v-12 m-334 12 q0 10 10 10 m314 0 q10 0 10 -10 m-324 10 h10 m84 0 h10 m20 0 h10 m0 0 h160 m-190 0 h20 m170 0 h20 m-210 0 q10 0 10 10 m190 0 q0 -10 10 -10 m-200 10 v12 m190 0 v-12 m-190 12 q0 10 10 10 m170 0 q10 0 10 -10 m-180 10 h10 m48 0 h10 m0 0 h10 m82 0 h10 m43 -64 h-3"/>
   <polygon points="567 17 575 13 575 21"/>
   <polygon points="567 17 559 13 559 21"/>
</svg>
