<?xml version="1.0" encoding="UTF-8"?>
<svg xmlns="http://www.w3.org/2000/svg" width="415" height="113">
   <defs>
      <style type="text/css">
    @namespace "http://www.w3.org/2000/svg";
    .line                 {fill: none; stroke: #332900; stroke-width: 1;}
    .bold-line            {stroke: #141000; shape-rendering: crispEdges; stroke-width: 2;}
    .thin-line            {stroke: #1F1800; shape-rendering: crispEdges}
    .filled               {fill: #332900; stroke: none;}
    text.terminal         {font-family: Verdana, Sans-serif;
                            font-size: 12px;
                            fill: #141000;
                            font-weight: bold;
                          }
    text.nonterminal      {font-family: Verdana, Sans-serif;
                            font-size: 12px;
                            fill: #1A1400;
                            font-weight: normal;
                          }
    text.regexp           {font-family: Verdana, Sans-serif;
                            font-size: 12px;
                            fill: #1F1800;
                            font-weight: normal;
                          }
    rect, circle, polygon {fill: #332900; stroke: #332900;}
    rect.terminal         {fill: #FFDB4D; stroke: #332900; stroke-width: 1;}
    rect.nonterminal      {fill: #FFEC9E; stroke: #332900; stroke-width: 1;}
    rect.text             {fill: none; stroke: none;}
    polygon.regexp        {fill: #FFF4C7; stroke: #332900; stroke-width: 1;}
  </style>
   </defs>
   <polygon points="9 17 1 13 1 21"/>
   <polygon points="17 17 9 13 9 21"/>
   <rect x="31" y="3" width="38" height="32" rx="10"/>
   <rect x="29"
         y="1"
         width="38"
         height="32"
         class="terminal"
         rx="10"/>
   <text class="terminal" x="39" y="21">XA</text>
   <rect x="109" y="3" width="64" height="32" rx="10"/>
   <rect x="107"
         y="1"
         width="64"
         height="32"
         class="terminal"
         rx="10"/>
   <text class="terminal" x="117" y="21">START</text>
   <rect x="109" y="47" width="64" height="32" rx="10"/>
   <rect x="107"
         y="45"
         width="64"
         height="32"
         class="terminal"
         rx="10"/>
   <text class="terminal" x="117" y="65">BEGIN</text>
   <a xmlns:xlink="http://www.w3.org/1999/xlink"
      xlink:href="#xid"
      xlink:title="xid">
      <rect x="213" y="3" width="38" height="32"/>
      <rect x="211" y="1" width="38" height="32" class="nonterminal"/>
      <text class="nonterminal" x="221" y="21">xid</text>
   </a>
   <rect x="291" y="35" width="54" height="32" rx="10"/>
   <rect x="289"
         y="33"
         width="54"
         height="32"
         class="terminal"
         rx="10"/>
   <text class="terminal" x="299" y="53">JOIN</text>
   <rect x="291" y="79" width="76" height="32" rx="10"/>
   <rect x="289"
         y="77"
         width="76"
         height="32"
         class="terminal"
         rx="10"/>
   <text class="terminal" x="299" y="97">RESUME</text>
   <path class="line"
         d="m17 17 h2 m0 0 h10 m38 0 h10 m20 0 h10 m64 0 h10 m-104 0 h20 m84 0 h20 m-124 0 q10 0 10 10 m104 0 q0 -10 10 -10 m-114 10 v24 m104 0 v-24 m-104 24 q0 10 10 10 m84 0 q10 0 10 -10 m-94 10 h10 m64 0 h10 m20 -44 h10 m38 0 h10 m20 0 h10 m0 0 h86 m-116 0 h20 m96 0 h20 m-136 0 q10 0 10 10 m116 0 q0 -10 10 -10 m-126 10 v12 m116 0 v-12 m-116 12 q0 10 10 10 m96 0 q10 0 10 -10 m-106 10 h10 m54 0 h10 m0 0 h22 m-106 -10 v20 m116 0 v-20 m-116 20 v24 m116 0 v-24 m-116 24 q0 10 10 10 m96 0 q10 0 10 -10 m-106 10 h10 m76 0 h10 m23 -76 h-3"/>
   <polygon points="405 17 413 13 413 21"/>
   <polygon points="405 17 397 13 397 21"/>
</svg>
