<?xml version="1.0" encoding="UTF-8"?>
<svg xmlns="http://www.w3.org/2000/svg" width="445" height="101">
   <defs>
      <style type="text/css">
    @namespace "http://www.w3.org/2000/svg";
    .line                 {fill: none; stroke: #332900; stroke-width: 1;}
    .bold-line            {stroke: #141000; shape-rendering: crispEdges; stroke-width: 2;}
    .thin-line            {stroke: #1F1800; shape-rendering: crispEdges}
    .filled               {fill: #332900; stroke: none;}
    text.terminal         {font-family: Verdana, Sans-serif;
                            font-size: 12px;
                            fill: #141000;
                            font-weight: bold;
                          }
    text.nonterminal      {font-family: Verdana, Sans-serif;
                            font-size: 12px;
                            fill: #1A1400;
                            font-weight: normal;
                          }
    text.regexp           {font-family: Verdana, Sans-serif;
                            font-size: 12px;
                            fill: #1F1800;
                            font-weight: normal;
                          }
    rect, circle, polygon {fill: #332900; stroke: #332900;}
    rect.terminal         {fill: #FFDB4D; stroke: #332900; stroke-width: 1;}
    rect.nonterminal      {fill: #FFEC9E; stroke: #332900; stroke-width: 1;}
    rect.text             {fill: none; stroke: none;}
    polygon.regexp        {fill: #FFF4C7; stroke: #332900; stroke-width: 1;}
  </style>
   </defs>
   <polygon points="9 17 1 13 1 21"/>
   <polygon points="17 17 9 13 9 21"/>
   <a xmlns:xlink="http://www.w3.org/1999/xlink"
      xlink:href="#gtrid"
      xlink:title="gtrid">
      <rect x="31" y="3" width="48" height="32"/>
      <rect x="29" y="1" width="48" height="32" class="nonterminal"/>
      <text class="nonterminal" x="39" y="21">gtrid</text>
   </a>
   <rect x="119" y="35" width="24" height="32" rx="10"/>
   <rect x="117"
         y="33"
         width="24"
         height="32"
         class="terminal"
         rx="10"/>
   <text class="terminal" x="127" y="53">,</text>
   <a xmlns:xlink="http://www.w3.org/1999/xlink"
      xlink:href="#bqual"
      xlink:title="bqual">
      <rect x="163" y="35" width="54" height="32"/>
      <rect x="161" y="33" width="54" height="32" class="nonterminal"/>
      <text class="nonterminal" x="171" y="53">bqual</text>
   </a>
   <rect x="257" y="67" width="24" height="32" rx="10"/>
   <rect x="255"
         y="65"
         width="24"
         height="32"
         class="terminal"
         rx="10"/>
   <text class="terminal" x="265" y="85">,</text>
   <a xmlns:xlink="http://www.w3.org/1999/xlink"
      xlink:href="#formatID"
      xlink:title="formatID">
      <rect x="301" y="67" width="76" height="32"/>
      <rect x="299" y="65" width="76" height="32" class="nonterminal"/>
      <text class="nonterminal" x="309" y="85">formatID</text>
   </a>
   <path class="line"
         d="m17 17 h2 m0 0 h10 m48 0 h10 m20 0 h10 m0 0 h288 m-318 0 h20 m298 0 h20 m-338 0 q10 0 10 10 m318 0 q0 -10 10 -10 m-328 10 v12 m318 0 v-12 m-318 12 q0 10 10 10 m298 0 q10 0 10 -10 m-308 10 h10 m24 0 h10 m0 0 h10 m54 0 h10 m20 0 h10 m0 0 h130 m-160 0 h20 m140 0 h20 m-180 0 q10 0 10 10 m160 0 q0 -10 10 -10 m-170 10 v12 m160 0 v-12 m-160 12 q0 10 10 10 m140 0 q10 0 10 -10 m-150 10 h10 m24 0 h10 m0 0 h10 m76 0 h10 m43 -64 h-3"/>
   <polygon points="435 17 443 13 443 21"/>
   <polygon points="435 17 427 13 427 21"/>
</svg>
